<svg id="Layer_1" xmlns="http://www.w3.org/2000/svg" viewBox="0 0 263 110"><defs><style>.st0{fill:#fff}</style></defs><path class="st0" d="M.4 8.4h7.5v19.5H15V8.4h7.4V3.1H.4v5.3zM22.7 27.8h6.5v-7.4c0-2.5.7-3.9 2.1-4.7 1.2-.7 3-1 5.7-1.2V9.2c-5.5 0-6.7 1.9-7.5 6.1h-.2l-.2-5.8h-6.3v18.3zM43.2 28.4c3.4 0 6.2-2.1 7.1-4.6h.2v4h6.4V15.9c0-4.4-3.4-6.9-9.2-6.9s-9.5 2.8-10.1 7.7h6.5c.2-2.1 1.6-3 3.6-3s2.8 1 2.8 2.1-.6 2.3-4 2.3h-2.4c-4.7 0-6.8 2.3-6.8 5.3s2.7 5.1 5.9 5.1zm2.9-3.9c-1.3 0-2.3-.5-2.3-1.6s.6-1.7 1.9-1.7h.5c2.2 0 3.5-.9 4-2.7h.2v1.4c0 2.6-2 4.6-4.4 4.6zM59.4 27.8h6.5v-9.6c0-2.8 1.3-4.4 3.7-4.4s3.7 1.5 3.7 4.4v9.6h6.5V16.2c0-4.9-3.4-7.3-6.8-7.3s-5.9 1.7-6.9 4.9h-.2V9.5h-6.5v18.3zM91 28.4c6 0 9.2-2.1 9.2-5.9s-3.7-5-7-5.6l-2-.4c-1.8-.4-3.2-.8-3.2-1.8s1-1.5 2.6-1.5 2.9.9 2.9 2.6h6c0-4.4-3.3-6.8-9.3-6.8s-8.6 2.4-8.6 5.8 3.6 5.1 6.9 5.7l2.1.4c1.8.4 3.3.8 3.3 1.8s-1 1.5-2.7 1.5-3.6-.9-3.6-2.5h-6.3c0 4.4 3.4 6.7 9.8 6.7zM104.7 27.8h6.5V13.3h5.3V9.5H111c0-1.6.7-2.3 2.8-2.3s1.6.1 2.7.3V3c-1.4-.4-2.8-.6-4.1-.6-4.4 0-7.7 2.1-7.7 6.8v.4H102v3.8h2.7v14.5zM127.9 28.4c5.9 0 10.3-3.7 10.3-9.8S133.8 9 127.9 9s-10.3 3.7-10.3 9.6 4.4 9.8 10.3 9.8zm0-4.7c-2.4 0-3.7-1.6-3.7-5.1s1.3-5 3.7-5 3.7 1.5 3.7 5-1.3 5.1-3.7 5.1zM140.6 27.8h6.5v-7.4c0-2.5.7-3.9 2.1-4.7 1.2-.7 3-1 5.7-1.2V9.2c-5.5 0-6.7 1.9-7.5 6.1h-.2l-.2-5.8h-6.3v18.3zM157.4 27.8h6.5v-9.6c0-2.8 1.1-4.4 3.2-4.4s3.1 1.4 3.1 4v10h6.5v-9.6c0-2.8 1.1-4.4 3.2-4.4s3.1 1.4 3.1 4v10h6.5V15.7c0-3.9-2.6-6.7-6.3-6.7s-5.4 1.9-6.3 5.2h-.4c-.6-3.1-2.9-5.2-6.1-5.2s-5.4 1.9-6.3 5.2h-.2l-.2-4.6h-6.3v18.3zM194 9.6v18.3h6.5V9.6H194zm3.2-2.1c2 0 3.7-1.6 3.7-3.6S199.3.3 197.2.3s-3.7 1.7-3.7 3.6 1.7 3.6 3.7 3.6zM203.4 27.8h6.5v-9.6c0-2.8 1.3-4.4 3.7-4.4s3.7 1.5 3.7 4.4v9.6h6.5V16.2c0-4.9-3.4-7.3-6.8-7.3s-5.9 1.7-6.9 4.9h-.2V9.5h-6.5v18.3zM234.8 21.1c5.5 0 8.8-2.2 8.8-6.1s-2.2-4.9-4.9-5.5v-.3l6.6 1.3V6.1l-12.2 2.8c-5.5 1.2-7.1 3.2-7.1 6.1s1.3 4.2 3.7 5.2v.3c-2.4.7-3.8 2.1-3.8 3.8s1.1 2.6 2.8 3v.3c-1.8.4-2.9 1.6-2.9 3 0 2.8 3.1 4 9.4 4s10.1-2 10.1-6.3S243 23 239 23h-7.4c-1 0-1.6-.4-1.6-1.1s.5-1 1.4-1.2c1 .2 2.2.3 3.4.3zm0-4.2c-1.9 0-3-.7-3-1.9s1.1-1.9 3-1.9 2.9.7 2.9 1.9-1.1 1.9-2.9 1.9zm-5.1 11.8c0-.5.3-.8.9-1.1h7.5c1 0 1.6.4 1.6 1 0 1.2-1.6 1.7-4.8 1.7s-5.1-.6-5.1-1.6zM1.8 40.5v24.8h7.1V40.5H1.8zM10.7 45.8h7.5v19.5h7.1V45.8h7.4v-5.3h-22v5.3zM40.6 50.8h2.6v8.3c0 4.6 2.1 6.6 7.1 6.6s3-.3 4.7-.9v-4.5c-1 .3-2 .5-2.8.5-1.8 0-2.4-.7-2.4-2.7v-7.3H55V47h-5.4v-4.8h-6.3V47h-2.6v3.8zM65.6 65.9c5.9 0 10.3-3.7 10.3-9.8s-4.4-9.6-10.3-9.6-10.3 3.7-10.3 9.6 4.4 9.8 10.3 9.8zm0-4.7c-2.4 0-3.7-1.6-3.7-5.1s1.3-5 3.7-5 3.7 1.5 3.7 5-1.3 5.1-3.7 5.1zM86.6 65.3h6.5v-9.6c0-2.8 1.1-4.4 3.2-4.4s3.1 1.4 3.1 4v10h6.5v-9.6c0-2.8 1.1-4.4 3.2-4.4s3.1 1.4 3.1 4v10h6.5V53.2c0-3.9-2.6-6.7-6.3-6.7s-5.4 1.9-6.3 5.2h-.4c-.6-3.1-2.9-5.2-6.1-5.2s-5.4 1.9-6.3 5.2h-.2l-.2-4.6h-6.3v18.3zM127 65.9c3.4 0 6.2-2.1 7.1-4.6h.2v4h6.4V53.4c0-4.4-3.4-6.9-9.2-6.9s-9.5 2.8-10.1 7.7h6.5c.2-2.1 1.6-3 3.6-3s2.8 1 2.8 2.1-.6 2.3-4 2.3h-2.4c-4.7 0-6.8 2.3-6.8 5.3s2.7 5.1 5.9 5.1zm2.9-3.9c-1.3 0-2.3-.5-2.3-1.6s.6-1.7 1.9-1.7h.5c2.2 0 3.5-.9 4-2.7h.2v1.4c0 2.6-2 4.6-4.4 4.6zM142.8 50.8h2.6v8.3c0 4.6 2.1 6.6 7.1 6.6s3-.3 4.7-.9v-4.5c-1 .3-2 .5-2.8.5-1.8 0-2.4-.7-2.4-2.7v-7.3h5.2V47h-5.4v-4.8h-6.3V47h-2.6v3.8zM168.1 65.9c4.6 0 9-2.4 9.4-8h-6.4c-.1 2.3-1 3.4-3 3.4s-3.2-1.3-3.2-5.2 1.1-4.8 3.2-4.8 2.8.8 2.9 3h6.4c-.5-4.9-4.1-7.7-9.3-7.7s-9.9 3.3-9.9 9.6 4.8 9.8 9.9 9.8zM178.9 65.3h6.5v-9.6c0-2.8 1.3-4.4 3.7-4.4s3.7 1.5 3.7 4.4v9.6h6.5V53.7c0-4.9-3.4-7.3-6.8-7.3s-5.9 1.7-6.9 4.9h-.2V40.5h-6.5v24.8zM10.1 103.4c6 0 9.2-2.1 9.2-5.9s-3.7-5-7-5.6l-2-.4c-1.8-.4-3.2-.8-3.2-1.8s1-1.5 2.6-1.5 2.9.9 2.9 2.6h6c0-4.4-3.3-6.8-9.3-6.8S.7 86.4.7 89.8s3.6 5.1 6.9 5.7l2.1.4c1.8.4 3.3.8 3.3 1.8s-1 1.5-2.7 1.5-3.6-.9-3.6-2.5H.4c0 4.4 3.4 6.7 9.8 6.7zM20.8 102.8h6.3v-4.4l2-2h.6c1.7 0 2.7 1.3 3.4 3l1.3 3.4h6.7l-2.7-6.7c-1.1-2.7-2.5-3.7-5.1-3.9V92c1.1-1.1 2.9-2.6 4.1-3.9l3.6-3.6h-7.3l-3.9 4c-.9 1-1.8 2.1-2.6 3.2H27c.1-2 .2-4.1.2-6.2V78h-6.3v24.8z"/><path class="st0" d="M46 109.7c4.3 0 7-1.7 8.6-6.3l6.6-18.9h-6.7l-1 3.8c-.8 2.8-1.3 5.3-2.2 9.3h-.2c-.9-3.9-1.6-6.5-2.3-9.2l-1.1-3.9h-7l6.4 18.2-.2.5c-.5 1.3-1.2 1.7-2.9 1.7s-1.5-.1-2.4-.2v4.5c1.7.4 3.2.5 4.5.5zM61 95.5h11.2v-5.3H61v5.3zM74.2 102.8h6.5v-9.6c0-2.8 1.3-4.4 3.7-4.4s3.7 1.5 3.7 4.4v9.6h6.5V91.2c0-4.9-3.4-7.3-6.8-7.3s-5.9 1.7-6.9 4.9h-.2V78h-6.5v24.8zM98.3 84.5v18.3h6.5V84.5h-6.5zm3.2-2c2 0 3.7-1.6 3.7-3.6s-1.6-3.6-3.7-3.6-3.7 1.7-3.7 3.6 1.7 3.6 3.7 3.6zM117.3 96.1c5.5 0 8.8-2.2 8.8-6.1s-2.2-4.9-4.9-5.5v-.3l6.6 1.3v-4.4l-12.2 2.8c-5.5 1.2-7.1 3.2-7.1 6.1s1.3 4.2 3.7 5.2v.3c-2.4.7-3.8 2.1-3.8 3.8s1.1 2.6 2.8 3v.3c-1.8.4-2.9 1.6-2.9 3 0 2.8 3.1 4 9.4 4s10.1-2 10.1-6.3-2.3-5.3-6.3-5.3h-7.4c-1 0-1.6-.4-1.6-1.1s.5-1 1.4-1.2c1 .2 2.2.3 3.4.3zm0-4.2c-1.9 0-3-.7-3-1.9s1.1-1.9 3-1.9 2.9.7 2.9 1.9-1.1 1.9-2.9 1.9zm-5.1 11.8c0-.5.3-.8.9-1.1h7.5c1 0 1.6.4 1.6 1 0 1.2-1.6 1.7-4.8 1.7s-5.1-.6-5.1-1.6zM130.3 102.8h6.5v-9.6c0-2.8 1.3-4.4 3.7-4.4s3.7 1.5 3.7 4.4v9.6h6.5V91.2c0-4.9-3.4-7.3-6.8-7.3s-5.9 1.7-6.9 4.9h-.2V78h-6.5v24.8zM170.3 96.1c5.5 0 8.8-2.2 8.8-6.1s-2.2-4.9-4.9-5.5v-.3l6.6 1.3v-4.4l-12.2 2.8c-5.5 1.2-7.1 3.2-7.1 6.1s1.3 4.2 3.7 5.2v.3c-2.4.7-3.8 2.1-3.8 3.8s1.1 2.6 2.8 3v.3c-1.8.4-2.9 1.6-2.9 3 0 2.8 3.1 4 9.4 4s10.1-2 10.1-6.3-2.3-5.3-6.3-5.3h-7.4c-1 0-1.6-.4-1.6-1.1s.5-1 1.4-1.2c1 .2 2.2.3 3.4.3zm0-4.2c-1.9 0-3-.7-3-1.9s1.1-1.9 3-1.9 2.9.7 2.9 1.9-1.1 1.9-2.9 1.9zm-5.1 11.8c0-.5.3-.8.9-1.1h7.5c1 0 1.6.4 1.6 1 0 1.2-1.6 1.7-4.8 1.7s-5.1-.6-5.1-1.6z"/><path class="st0" d="M191.1 103.4c5.9 0 10.3-3.7 10.3-9.8S197 84 191.1 84s-10.3 3.7-10.3 9.6 4.4 9.8 10.3 9.8zm0-4.7c-2.4 0-3.7-1.6-3.7-5.1s1.3-5 3.7-5 3.7 1.5 3.7 5-1.3 5.1-3.7 5.1zM208.2 103.4c3.4 0 6.2-2.1 7.1-4.6h.2v4h6.4V90.9c0-4.4-3.4-6.9-9.2-6.9s-9.5 2.8-10.1 7.7h6.5c.2-2.1 1.6-3 3.6-3s2.8 1 2.8 2.1-.6 2.3-4 2.3h-2.4c-4.7 0-6.8 2.3-6.8 5.3s2.7 5.1 5.9 5.1zm2.9-3.9c-1.3 0-2.3-.5-2.3-1.6s.6-1.7 1.9-1.7h.5c2.2 0 3.5-.9 4-2.7h.2v1.4c0 2.6-2 4.6-4.4 4.6zM226.5 78v24.8h6.5V78h-6.5zM244.3 103.4c6 0 9.2-2.1 9.2-5.9s-3.7-5-7-5.6l-2-.4c-1.8-.4-3.2-.8-3.2-1.8s1-1.5 2.6-1.5 2.9.9 2.9 2.6h6c0-4.4-3.3-6.8-9.3-6.8s-8.6 2.4-8.6 5.8 3.6 5.1 6.9 5.7l2.1.4c1.8.4 3.3.8 3.3 1.8s-1 1.5-2.7 1.5-3.6-.9-3.6-2.5h-6.3c0 4.4 3.4 6.7 9.8 6.7zM258.6 103.3c2.2 0 4-1.8 4-4s-1.8-3.9-4-3.9-4 1.7-4 3.9 1.8 4 4 4z"/></svg>