<svg width="366" height="100" viewBox="0 0 366 100" fill="none" xmlns="http://www.w3.org/2000/svg"><path d="M.72 3.888h28.704l.72 10.512h-1.248c-2.88-6.912-3.936-8.928-7.92-8.928h-3.072V32.88c0 2.688 1.248 2.832 4.512 3.264v1.44H7.728v-1.44c3.312-.432 4.56-.576 4.56-3.264V5.472h-3.12c-3.984 0-5.04 2.016-7.872 8.928H0L.72 3.888zm39.66 16.224v13.632c0 1.92 1.104 2.256 4.176 2.448v1.392h-12.72v-1.392c2.4-.144 3.168-.48 3.168-2.256V16.8l-3.024-1.68v-.672l7.776-2.496h.816l-.192 6.912c2.496-5.04 3.744-6.912 6.528-6.912.912 0 1.584.336 1.968.768v4.32h-.816c-2.928 0-5.088.192-7.68 3.072zM59.526 34.8c1.68 0 2.928-.768 4.608-2.112v-9.024l-5.04 2.064c-2.256.864-3.552 2.112-3.552 4.704 0 2.592 1.296 4.368 3.984 4.368zm9.984-15.264v12.72c0 1.92.384 2.928 1.728 2.928.768 0 1.44-.24 2.064-.528l.288.864c-1.248 1.68-2.976 2.544-4.992 2.544-2.496 0-3.984-1.632-4.368-4.272-1.632 1.968-4.224 4.224-7.584 4.224-3.84 0-6.288-2.4-6.288-6.096 0-4.08 2.976-5.76 6.72-7.152l7.056-2.592v-3.648c0-3.024-1.104-5.232-3.984-5.232-2.544 0-3.6 1.776-3.6 4.176 0 .864.144 1.68.384 2.688l-3.168.432c-1.248-.384-2.016-1.344-2.016-2.784 0-3.792 3.936-5.856 8.976-5.856 5.76 0 8.784 2.304 8.784 7.584zm23.466 14.4V19.92c0-3.216-1.296-4.656-4.032-4.656-2.256 0-4.368 1.152-6.048 2.496v16.176c0 1.776.768 2.112 3.12 2.256v1.392H74.352v-1.392c2.4-.144 3.168-.48 3.168-2.256V16.8l-3.024-1.68v-.672l7.776-2.496h.816l-.192 4.608c2.16-2.448 4.944-4.608 8.784-4.608 4.464 0 6.672 2.544 6.672 7.728v14.256c0 1.776.768 2.112 3.168 2.256v1.392H89.808v-1.392c2.4-.144 3.168-.48 3.168-2.256zm19.423 4.128c-3.456 0-6.48-.96-8.352-2.352l-.288-6.624h1.536c1.152 4.272 3.504 7.488 7.2 7.488 2.736 0 4.848-1.392 4.848-4.224 0-2.688-1.776-3.792-5.856-5.328-4.944-1.824-7.392-3.696-7.392-7.92 0-4.464 3.312-7.152 8.352-7.152 3.024 0 5.52.768 7.536 2.016v5.808h-1.392c-.864-3.552-2.832-6.336-6.288-6.336-2.64 0-4.08 1.536-4.08 3.744 0 2.4 1.488 3.552 5.52 5.04 4.896 1.776 7.824 3.744 7.824 8.112 0 4.848-3.648 7.728-9.168 7.728zM132.817 14.4v19.344c0 1.92 1.104 2.256 4.176 2.448v1.392h-12.72v-1.392c2.4-.144 3.168-.48 3.168-2.256V14.4h-3.504v-.96l3.504-1.296V9.456c0-6.24 3.744-9.456 9.169-9.456 3.696 0 5.568 1.344 5.568 3.744 0 1.104-.576 2.016-1.489 2.544h-2.928a9.397 9.397 0 00.144-1.776c0-1.824-.528-3.12-2.159-3.12-1.873 0-2.929 1.68-2.929 4.8v6.24h6.048V14.4h-6.048zm19.066 22.08c3.936 0 6-4.272 6-10.656 0-6.72-1.92-12.288-6.24-12.288-3.936 0-5.952 4.272-5.952 10.656 0 6.672 1.92 12.288 6.192 12.288zm-.24 1.584c-7.008 0-11.664-4.992-11.664-12.48 0-8.208 5.184-13.632 11.904-13.632 7.008 0 11.664 5.04 11.664 12.432 0 8.256-5.184 13.68-11.904 13.68zm22.565-17.952v13.632c0 1.92 1.104 2.256 4.176 2.448v1.392h-12.72v-1.392c2.4-.144 3.168-.48 3.168-2.256V16.8l-3.024-1.68v-.672l7.776-2.496h.816l-.192 6.912c2.496-5.04 3.744-6.912 6.528-6.912.912 0 1.584.336 1.968.768v4.32h-.816c-2.928 0-5.088.192-7.68 3.072zm42.709 13.824V19.92c0-3.168-1.056-4.656-3.744-4.656-2.208 0-3.984 1.152-5.664 2.496v16.176c0 1.776.672 2.112 3.072 2.256v1.392h-11.568v-1.392c2.4-.144 3.12-.48 3.12-2.256V19.92c0-3.168-1.104-4.656-3.792-4.656-2.208 0-3.984 1.152-5.664 2.496v16.176c0 1.776.72 2.112 3.12 2.256v1.392h-11.664v-1.392c2.4-.144 3.168-.48 3.168-2.256V16.8l-3.024-1.68v-.672l7.776-2.496h.816l-.192 4.608c2.16-2.496 4.608-4.608 8.496-4.608 3.456 0 5.376 1.488 6.048 4.752 2.16-2.496 4.896-4.752 8.736-4.752 4.368 0 6.336 2.64 6.336 7.776v14.208c0 1.776.768 2.112 3.168 2.256v1.392h-11.616v-1.392c2.4-.144 3.072-.48 3.072-2.256zm21.779-29.232l-3.024-1.632v-.72L243.256 0h.816v16.32c1.728-2.496 4.32-4.368 8.064-4.368 5.952 0 9.504 4.416 9.504 11.568 0 9.12-5.616 14.544-12.576 14.544-4.128 0-7.872-1.248-10.368-3.408V4.704zm10.368 31.824c4.416 0 7.152-4.8 7.152-10.896 0-5.616-2.064-10.368-7.104-10.368-1.92 0-3.84.912-5.04 2.208V30.72c0 4.032 1.776 5.808 4.992 5.808zM272.221 0v33.936c0 1.776.768 2.112 3.168 2.256v1.392h-11.712v-1.392c2.4-.144 3.168-.48 3.168-2.256V4.704l-3.024-1.632v-.72L271.405 0h.816zm13.456 11.952v21.984c0 1.776.768 2.112 3.168 2.256v1.392h-11.712v-1.392c2.4-.144 3.168-.48 3.168-2.256V16.8l-3.024-1.68v-.672l7.632-2.496h.768zm-2.832-3.408c-1.968 0-3.408-1.536-3.408-3.36 0-1.872 1.44-3.408 3.408-3.408s3.456 1.536 3.456 3.408c0 1.824-1.488 3.36-3.456 3.36zm26.365 25.392V19.92c0-3.216-1.296-4.656-4.032-4.656-2.256 0-4.368 1.152-6.048 2.496v16.176c0 1.776.768 2.112 3.12 2.256v1.392h-11.664v-1.392c2.4-.144 3.168-.48 3.168-2.256V16.8l-3.024-1.68v-.672l7.776-2.496h.816l-.192 4.608c2.16-2.448 4.944-4.608 8.784-4.608 4.464 0 6.672 2.544 6.672 7.728v14.256c0 1.776.768 2.112 3.168 2.256v1.392h-11.712v-1.392c2.4-.144 3.168-.48 3.168-2.256zm22.494-20.304c-4.368 0-7.104 4.176-7.104 10.464 0 5.856 2.544 10.368 7.296 10.368 2.016 0 3.648-.672 4.896-1.968V20.208c0-4.128-2.016-6.576-5.088-6.576zm5.088-8.928l-3.024-1.632v-.72L341.4 0h.768v32.736c0 1.632.096 2.064 2.112 2.256l1.248.096v1.248l-7.968 1.728h-.96l.192-4.464c-1.92 2.64-4.32 4.464-7.728 4.464-5.856 0-9.648-4.848-9.648-11.856 0-8.88 5.184-14.208 11.952-14.208 2.352 0 4.224.672 5.424 1.776V4.704zM9.696 89.064c-3.456 0-6.48-.96-8.352-2.352l-.288-6.624h1.536c1.152 4.272 3.504 7.488 7.2 7.488 2.736 0 4.848-1.392 4.848-4.224 0-2.688-1.776-3.792-5.856-5.328-4.944-1.824-7.392-3.696-7.392-7.92 0-4.464 3.312-7.152 8.352-7.152 3.024 0 5.52.768 7.536 2.016v5.808h-1.392c-.864-3.552-2.832-6.336-6.288-6.336-2.64 0-4.08 1.536-4.08 3.744 0 2.4 1.488 3.552 5.52 5.04 4.896 1.776 7.824 3.744 7.824 8.112 0 4.848-3.648 7.728-9.168 7.728zm24.556-1.584c4.416 0 7.152-4.752 7.152-10.848 0-5.616-2.064-10.368-7.104-10.368-1.92 0-3.84.912-5.04 2.208v13.2c0 3.984 1.776 5.808 4.992 5.808zm-10.368 7.632V67.8l-3.024-1.68v-.672l7.729-2.496h.864l-.192 4.368c1.727-2.496 4.32-4.368 8.064-4.368 5.951 0 9.503 4.416 9.503 11.568 0 9.12-5.52 14.544-12.431 14.544-2.017 0-3.936-.528-5.136-1.536v7.44c0 1.92.912 2.16 4.128 2.4v1.392H20.715v-1.392c2.4-.144 3.168-.48 3.168-2.256zm37.718-7.632c3.936 0 6-4.272 6-10.656 0-6.72-1.92-12.288-6.24-12.288-3.936 0-5.952 4.272-5.952 10.656 0 6.672 1.92 12.288 6.192 12.288zm-.24 1.584c-7.008 0-11.664-4.992-11.664-12.48 0-8.208 5.184-13.632 11.904-13.632 7.008 0 11.664 5.04 11.664 12.432 0 8.256-5.184 13.68-11.904 13.68zm21.93-31.728v6.096h6.577V65.4h-6.576v15.888c0 3.264 1.2 4.608 3.696 4.608 1.44 0 2.448-.432 3.696-1.344l.528.72c-1.392 2.064-3.648 3.792-6.816 3.792-3.648 0-6.432-1.968-6.432-7.2V65.4h-3.12v-.864c2.976-1.488 5.472-4.128 7.296-7.2h1.152zm18.279 31.728c-3.456 0-6.48-.96-8.352-2.352l-.288-6.624h1.536c1.152 4.272 3.504 7.488 7.2 7.488 2.736 0 4.848-1.392 4.848-4.224 0-2.688-1.776-3.792-5.856-5.328-4.944-1.824-7.392-3.696-7.392-7.92 0-4.464 3.312-7.152 8.352-7.152 3.024 0 5.52.768 7.536 2.016v5.808h-1.392c-.864-3.552-2.832-6.336-6.288-6.336-2.64 0-4.08 1.536-4.08 3.744 0 2.4 1.488 3.552 5.52 5.04 4.896 1.776 7.824 3.744 7.824 8.112 0 4.848-3.648 7.728-9.168 7.728zm30.121-26.112v21.984c0 1.776.768 2.112 3.168 2.256v1.392h-11.712v-1.392c2.4-.144 3.168-.48 3.168-2.256V67.8l-3.024-1.68v-.672l7.632-2.496h.768zm-2.832-3.408c-1.968 0-3.408-1.536-3.408-3.36 0-1.872 1.44-3.408 3.408-3.408s3.456 1.536 3.456 3.408c0 1.824-1.488 3.36-3.456 3.36zm26.366 25.392V70.92c0-3.216-1.296-4.656-4.032-4.656-2.256 0-4.368 1.152-6.048 2.496v16.176c0 1.776.768 2.112 3.12 2.256v1.392h-11.664v-1.392c2.4-.144 3.168-.48 3.168-2.256V67.8l-3.024-1.68v-.672l7.776-2.496h.816l-.192 4.608c2.16-2.448 4.944-4.608 8.784-4.608 4.464 0 6.672 2.544 6.672 7.728v14.256c0 1.776.768 2.112 3.168 2.256v1.392h-11.712v-1.392c2.4-.144 3.168-.48 3.168-2.256zm17.551-27.6v6.096h6.576V65.4h-6.576v15.888c0 3.264 1.2 4.608 3.696 4.608 1.44 0 2.448-.432 3.696-1.344l.528.72c-1.392 2.064-3.648 3.792-6.816 3.792-3.648 0-6.432-1.968-6.432-7.2V65.4h-3.12v-.864c2.976-1.488 5.472-4.128 7.296-7.2h1.152zm20.684 30.144c3.936 0 6-4.272 6-10.656 0-6.72-1.92-12.288-6.24-12.288-3.936 0-5.952 4.272-5.952 10.656 0 6.672 1.92 12.288 6.192 12.288zm-.24 1.584c-7.008 0-11.664-4.992-11.664-12.48 0-8.208 5.184-13.632 11.904-13.632 7.008 0 11.664 5.04 11.664 12.432 0 8.256-5.184 13.68-11.904 13.68zm25.74-33.36l-3.024-1.632v-.72L223.521 51h.816v16.32c1.728-2.496 4.32-4.368 8.064-4.368 5.952 0 9.504 4.416 9.504 11.568 0 9.12-5.616 14.544-12.576 14.544-4.128 0-7.872-1.248-10.368-3.408V55.704zm10.368 31.824c4.416 0 7.152-4.8 7.152-10.896 0-5.616-2.064-10.368-7.104-10.368-1.92 0-3.84.912-5.04 2.208V81.72c0 4.032 1.776 5.808 4.992 5.808zm26.79-24.576c6.144 0 9.36 4.176 9.36 9.744v1.008h-15.792c-.288 7.344 3.408 11.52 8.256 11.52 3.36 0 5.472-1.488 7.2-4.08l.624.336c-1.152 4.464-4.56 7.584-9.792 7.584-6.912 0-11.136-5.328-11.136-12.384 0-8.016 4.896-13.728 11.28-13.728zm-.432 1.632c-3.456 0-5.472 3.264-5.856 7.584h10.656c0-4.416-1.344-7.584-4.8-7.584zM277.261 85.8c1.68 0 2.928-.768 4.608-2.112v-9.024l-5.04 2.064c-2.256.864-3.552 2.112-3.552 4.704 0 2.592 1.296 4.368 3.984 4.368zm9.984-15.264v12.72c0 1.92.384 2.928 1.728 2.928.768 0 1.44-.24 2.064-.528l.288.864c-1.248 1.68-2.976 2.544-4.992 2.544-2.496 0-3.984-1.632-4.368-4.272-1.632 1.968-4.224 4.224-7.584 4.224-3.84 0-6.288-2.4-6.288-6.096 0-4.08 2.976-5.76 6.72-7.152l7.056-2.592v-3.648c0-3.024-1.104-5.232-3.984-5.232-2.544 0-3.6 1.776-3.6 4.176 0 .864.144 1.68.384 2.688l-3.168.432c-1.248-.384-2.016-1.344-2.016-2.784 0-3.792 3.936-5.856 8.976-5.856 5.76 0 8.784 2.304 8.784 7.584zm27.497-2.256v15.456c0 1.632.096 2.064 2.112 2.256l1.248.096v1.248l-7.92 1.728h-.96l.192-4.56c-2.208 2.304-4.752 4.56-8.304 4.56-4.176 0-6.72-2.304-6.72-7.632V68.52c0-1.68-.384-2.256-2.448-2.592l-.768-.096v-1.296L299.19 63h.768l-.24 5.472v12.096c0 3.264 1.2 5.136 4.032 5.136 2.256 0 3.936-1.056 5.664-2.304V68.52c0-1.68-.336-2.256-2.448-2.592l-.72-.096v-1.296l7.92-1.536h.768l-.192 5.28zm12.394-10.944v6.096h6.576V65.4h-6.576v15.888c0 3.264 1.2 4.608 3.696 4.608 1.44 0 2.448-.432 3.697-1.344l.527.72c-1.391 2.064-3.648 3.792-6.816 3.792-3.648 0-6.432-1.968-6.432-7.2V65.4h-3.12v-.864c2.976-1.488 5.472-4.128 7.296-7.2h1.152zm22.562 25.776l5.712-15.36c.192-.576.288-.96.288-1.344 0-1.104-.864-1.296-3.312-1.584v-1.392h7.968v1.392c-1.728.432-2.064.816-2.448 1.776l-10.368 26.784c-1.44 3.648-2.928 5.712-5.952 5.712-1.536 0-3.12-.864-3.552-2.304V94.92c.912.24 1.632.432 2.976.432 2.592 0 4.224-.72 5.328-3.696l.864-2.304-9.936-22.752c-.432-1.008-.72-1.344-2.448-1.776v-1.392h11.712v1.392c-2.448.288-3.312.48-3.312 1.584 0 .384.096.768.288 1.344l6.192 15.36zm8.398 2.256a3.667 3.667 0 013.696-3.696 3.698 3.698 0 013.696 3.696 3.698 3.698 0 01-3.696 3.696 3.667 3.667 0 01-3.696-3.696z" fill="#1A1628"/></svg>