<?xml version="1.0" encoding="UTF-8"?>
<svg id="Design" xmlns="http://www.w3.org/2000/svg" version="1.1" width="192px" height="282px" viewBox="0 0 192 282">
  <defs>
    <style>
      .st0 {
        fill: #a3d627;
      }

      .st0, .st1, .st2, .st3, .st4, .st5, .st6, .st7, .st8, .st9, .st10, .st11, .st12, .st13, .st14, .st15, .st16, .st17, .st18, .st19, .st20, .st21, .st22, .st23, .st24, .st25, .st26, .st27, .st28, .st29, .st30, .st31, .st32, .st33, .st34, .st35, .st36 {
        display: none;
        isolation: isolate;
      }

      .st0, .st3, .st22, .st27, .st34, .st35 {
        opacity: .4;
      }

      .st37, .st38 {
        fill: #505154;
      }

      .st37, .st39, .st40, .st41, .st42 {
        fill-rule: evenodd;
      }

      .st1 {
        fill: #2cd153;
      }

      .st1, .st5, .st7, .st14, .st20, .st21, .st23, .st26, .st28, .st36 {
        opacity: .3;
      }

      .st2 {
        fill: #ed7d2b;
      }

      .st2, .st4, .st6, .st9, .st11, .st12, .st13, .st16, .st18, .st19, .st24, .st25, .st29, .st31, .st32, .st33 {
        opacity: .2;
      }

      .st39 {
        fill: #1ab6e9;
      }

      .st43 {
        fill: #327ac2;
      }

      .st44 {
        fill: #323132;
      }

      .st3 {
        fill: #efe743;
      }

      .st45 {
        fill: #505153;
      }

      .st4 {
        fill: #27ccf2;
      }

      .st46, .st47, .st48, .st49, .st40, .st50, .st51, .st52, .st53, .st54, .st55, .st56, .st57, .st58, .st59, .st60, .st61 {
        fill: none;
      }

      .st46, .st48, .st53, .st57 {
        stroke-width: 1.8px;
      }

      .st46, .st60 {
        stroke: #323132;
      }

      .st5 {
        fill: #f5f5f6;
      }

      .st47, .st49, .st50, .st51, .st52, .st54, .st59, .st60, .st61 {
        stroke-linejoin: bevel;
      }

      .st47, .st50, .st51, .st55, .st57 {
        stroke: #fff;
      }

      .st47, .st61 {
        stroke-width: .9px;
      }

      .st62 {
        fill: #d0d2d3;
      }

      .st6 {
        fill: #007bb5;
      }

      .st7 {
        fill: #fcc;
      }

      .st48, .st58 {
        stroke: #327ac2;
      }

      .st63, .st41 {
        fill: #fff;
      }

      .st8 {
        fill: #3d5a98;
      }

      .st8, .st10, .st15, .st17, .st30 {
        opacity: .5;
      }

      .st9 {
        fill: #e921f9;
      }

      .st64, .st15 {
        fill: #db4e41;
      }

      .st49, .st40, .st61 {
        stroke: #505153;
      }

      .st10 {
        fill: #cdbdff;
      }

      .st40 {
        stroke-miterlimit: 10;
        stroke-width: .5px;
      }

      .st11 {
        fill: #d229ef;
      }

      .st12 {
        fill: red;
      }

      .st65 {
        fill: #034ea1;
      }

      .st66 {
        fill: #326aab;
      }

      .st50, .st59, .st60 {
        stroke-width: 1.5px;
      }

      .st13 {
        fill: #b20022;
      }

      .st14 {
        fill: #55f261;
      }

      .st42, .st67 {
        fill: #1e1e1f;
      }

      .st52 {
        stroke: #505154;
      }

      .st68 {
        fill: #3664ae;
      }

      .st53, .st56 {
        stroke: #a2a1a2;
      }

      .st54 {
        stroke: #336bab;
      }

      .st16 {
        fill: blue;
      }

      .st55, .st58 {
        stroke-width: 1.7px;
      }

      .st17 {
        fill: #5cea2d;
      }

      .st18 {
        fill: #2b3ded;
      }

      .st19 {
        fill: #00afaf;
      }

      .st20 {
        fill: #605cf7;
      }

      .st21 {
        fill: #1c1ca0;
      }

      .st22 {
        fill: #41f24e;
      }

      .st69 {
        fill: #ef4b23;
      }

      .st23 {
        fill: #f372f7;
      }

      .st24 {
        fill: #f425ea;
      }

      .st70 {
        fill: #fffb01;
      }

      .st25 {
        fill: #27f256;
      }

      .st71 {
        fill: #b1b3b5;
      }

      .st72 {
        fill: #667078;
      }

      .st73 {
        fill: #bc071e;
      }

      .st26 {
        fill: #5cf7e8;
      }

      .st27 {
        fill: #ed4571;
      }

      .st28 {
        fill: #f98a4b;
      }

      .st74 {
        fill: #3a5897;
      }

      .st29 {
        fill: #00ff3c;
      }

      .st30 {
        fill: #6cbae7;
      }

      .st75 {
        fill: #a2a1a2;
      }

      .st31 {
        fill: #b26e00;
      }

      .st32 {
        fill: #8aef29;
      }

      .st76 {
        fill: #ea1d7f;
      }

      .st33 {
        fill: #f7e823;
      }

      .st34 {
        fill: #4381ef;
      }

      .st77 {
        fill: #fff100;
      }

      .st78 {
        fill: #606163;
      }

      .st35 {
        fill: #d92632;
      }

      .st79 {
        fill: #0777b5;
      }

      .st80 {
        fill: #cc1f20;
      }

      .st59 {
        stroke: #326aab;
      }

      .st36 {
        fill: #f95a9a;
      }
    </style>
  </defs>
  <rect class="st23" y="0" width="82" height="46"/>
  <g id="Logo_-_large">
    <g id="flag">
      <rect class="st63" x="45.2" y="20.8" width="36.2" height="24.1"/>
      <rect class="st65" x="45.6" y="21.2" width="35.2" height="23.2"/>
      <g>
        <polygon class="st77" points="63.2 23.4 63.6 24.5 64.7 24.5 63.8 25.1 64.1 26.2 63.2 25.5 62.3 26.2 62.7 25.1 61.8 24.5 62.9 24.5 63.2 23.4"/>
        <polygon class="st77" points="63.2 39.5 63.6 40.5 64.7 40.5 63.8 41.2 64.1 42.3 63.2 41.6 62.3 42.3 62.7 41.2 61.8 40.5 62.9 40.5 63.2 39.5"/>
        <polygon class="st77" points="59.2 24.5 59.6 25.5 60.7 25.5 59.8 26.2 60.1 27.2 59.2 26.6 58.3 27.2 58.7 26.2 57.8 25.5 58.9 25.5 59.2 24.5"/>
        <polygon class="st77" points="56.3 27.4 56.6 28.5 57.7 28.5 56.8 29.1 57.2 30.2 56.3 29.5 55.4 30.2 55.7 29.1 54.8 28.5 55.9 28.5 56.3 27.4"/>
        <polygon class="st77" points="55.2 31.4 55.5 32.5 56.6 32.5 55.7 33.1 56.1 34.2 55.2 33.5 54.3 34.2 54.6 33.1 53.7 32.5 54.8 32.5 55.2 31.4"/>
        <polygon class="st77" points="56.3 35.4 56.6 36.5 57.7 36.5 56.8 37.2 57.2 38.2 56.3 37.6 55.3 38.2 55.7 37.2 54.8 36.5 55.9 36.5 56.3 35.4"/>
        <polygon class="st77" points="59.2 38.4 59.6 39.5 60.7 39.5 59.8 40.1 60.1 41.2 59.2 40.5 58.3 41.2 58.7 40.1 57.8 39.5 58.9 39.5 59.2 38.4"/>
        <polygon class="st77" points="67.2 24.5 66.9 25.5 65.8 25.5 66.7 26.2 66.3 27.2 67.2 26.6 68.1 27.2 67.8 26.2 68.7 25.5 67.6 25.5 67.2 24.5"/>
        <polygon class="st77" points="70.2 27.4 69.8 28.5 68.7 28.5 69.6 29.1 69.3 30.2 70.2 29.5 71.1 30.2 70.7 29.1 71.6 28.5 70.5 28.5 70.2 27.4"/>
        <polygon class="st77" points="71.3 31.4 70.9 32.5 69.8 32.5 70.7 33.1 70.4 34.2 71.3 33.5 72.2 34.2 71.8 33.1 72.7 32.5 71.6 32.5 71.3 31.4"/>
        <polygon class="st77" points="70.2 35.4 69.8 36.5 68.7 36.5 69.6 37.2 69.3 38.2 70.2 37.6 71.1 38.2 70.7 37.2 71.7 36.5 70.5 36.5 70.2 35.4"/>
        <polygon class="st77" points="67.2 38.4 66.9 39.5 65.8 39.5 66.7 40.1 66.3 41.2 67.2 40.5 68.1 41.2 67.8 40.1 68.7 39.5 67.6 39.5 67.2 38.4"/>
      </g>
    </g>
    <g id="hc">
      <path class="st72" d="M50.9,16v-2c-.7-.6-3.6-1.9-5.4-2.3v1.4c2,.5,4.5,2,5.4,2.8h0Z"/>
      <path class="st72" d="M52.4,18.9h1.7c0-2.5-2-4.1-2.3-4.3v2.4c.7,1.1.6,1.9.6,1.9Z"/>
      <path class="st72" d="M56.7,13.9v2.2c.9.9,1.4,1.6,1.8,2.9h1.8c-.5-2-1.6-3.6-3.6-5.1Z"/>
      <path class="st72" d="M55.6,15v-2c-1.7-1.1-5-2.6-8.3-3.2v1.4c3.2.8,6.5,2.4,8.3,3.8Z"/>
      <path class="st72" d="M60.2,13.9v-1.9c-2-1.3-6.1-3-11-4.1v1.4c4.7,1.1,8.2,2.7,11,4.6Z"/>
      <path class="st72" d="M61.5,12.8v2.1c1.3,1,2.5,2.3,3.3,4.1h1.9c-.7-2.2-3.1-4.8-5.3-6.2h0Z"/>
      <path class="st72" d="M65.5,12.7v-1.9c-3.8-2.3-9.6-4.3-14.1-5.1v1.4c5.1,1,11.3,3.6,14.1,5.6Z"/>
      <path class="st72" d="M71.6,18.9h2c-1.5-3.5-5.1-6.3-6.8-7.3v2.1c2.6,1.9,3.5,3.3,4.8,5.3h0Z"/>
      <path class="st72" d="M70.6,11.4v-2c-3.1-1.9-9.4-4.7-17-6.2v1.5c5.8,1.2,13.2,4.1,17,6.8h0Z"/>
      <path class="st72" d="M78.2,18.9h2.2c-2.5-4.2-5.3-6.6-8.3-8.5v2.1c2.2,1.6,4.7,3.9,6.1,6.4Z"/>
      <path class="st72" d="M44.1,12.7v-1.3c-2-.4-5.5-.6-7-.4v1c2.3-.1,5.7.3,7,.7Z"/>
      <path class="st72" d="M35.5,12.1v-1c-3.7.4-6.2,1.7-7.7,2.7v.8c2.1-1.7,5-2.4,7.7-2.6h0Z"/>
      <path class="st72" d="M27,15.6v-1c-3.4,3.8.9,7,1.3,7.3v-1.3c-2.4-1.8-2.1-4-1.3-5Z"/>
      <path class="st72" d="M29.5,21.5v1.4c2.3,1.3,4.6,2.1,7.9,2.7v-1.9c-2.3-.1-5.4-.8-7.9-2.2Z"/>
      <path class="st72" d="M38.6,23.7v2c1.9.2,3.7.2,4.7.2v-2.2c-1.5,0-4.2.1-4.7,0Z"/>
      <path class="st72" d="M45.8,10.9v-1.3c-2.4-.5-7-.8-9.7-.6v1c3.6-.1,7.2.3,9.7.9Z"/>
      <path class="st72" d="M36.2,29.3v-2.1c-3.5-.3-9-1.5-12.4-4v1.4c3.7,2.8,9.6,4.3,12.4,4.7Z"/>
      <path class="st72" d="M22.6,23.5v-1.4c-3-2.9-2.4-5.7-.5-7.6v-.9c-3.7,3.4-2.4,7.5.5,9.9Z"/>
      <path class="st72" d="M37.5,27.3v2.2c2.2.3,4,.4,5.8.4v-2.4c-2,0-5,0-5.8-.2Z"/>
      <path class="st72" d="M23.1,12.8v.8c3.2-2.4,8.1-3.4,11.5-3.5v-1c-4.2.3-9,1.9-11.5,3.7Z"/>
      <path class="st72" d="M17.9,24.8v1.5c4.6,4.2,12.2,6.4,16.8,7.2v-2.4c-4.2-.5-11.9-2.1-16.8-6.4h0Z"/>
      <path class="st72" d="M47.8,8.9v-1.3c-3-.5-8.2-1.1-13-.7v1.1c4.1-.3,9.8.2,13,1h0Z"/>
      <path class="st72" d="M36.1,31.4v2.4c2,.4,5.4.6,7.3.7v-2.7c-1.1,0-5.9-.2-7.3-.4Z"/>
      <path class="st72" d="M33.3,8.1v-1c-3.6.3-10,1.6-14.3,4.5v.8c4.1-2.8,10.6-4.1,14.3-4.3Z"/>
      <path class="st72" d="M17.8,13.2v-.8c-1.9,1.5-6.7,6.4-1.2,12.7v-1.5c-1.2-1.4-4.2-5.8,1.2-10.3h0Z"/>
      <path class="st72" d="M49.9,6.8v-1.4c-3.6-.7-10.7-1.3-16.2-.8v1.1c4.9-.4,11.9.2,16.2,1.1Z"/>
      <path class="st72" d="M34.6,35.5v2.6c2.7.5,6.1.9,8.8,1v-2.9c-3.2,0-5.9-.2-8.8-.6h0Z"/>
      <path class="st72" d="M33.1,37.9v-2.5c-7.6-1.1-15.9-3.8-21.1-8.9v1.6c6.1,6.1,16.3,8.9,21.1,9.8Z"/>
      <path class="st72" d="M14.8,10v.8c5.1-3.2,12-4.6,17.3-5.1v-1c-5.1.4-12.6,2.2-17.3,5.3Z"/>
      <path class="st72" d="M10.7,26.5v-1.7c-2-2.7-3.9-8,2.9-13.2v-.8c-7.7,5.5-5.8,12.3-2.9,15.7Z"/>
      <path class="st72" d="M5.3,27.6v1.8c5.8,7.6,17.8,12,25.3,13.6v-2.8c-7.9-1.3-19.8-5.2-25.3-12.6Z"/>
      <path class="st72" d="M52.1,4.4v-1.4c-3.6-.7-12.3-1.7-19.9-.9v1.1c6.4-.6,14.5,0,19.9,1.2Z"/>
      <path class="st72" d="M30.6,3.3v-1.1c-6.6.7-14.9,3-19.7,6.1v.8c6.1-3.7,14.1-5.4,19.7-5.9h0Z"/>
      <path class="st72" d="M32.3,40.4v2.8c1.7.4,8.2,1.4,11,1.4v-3.2c-4.4,0-8.8-.6-11-1Z"/>
      <path class="st72" d="M9.6,10v-.9c-2,1.3-11.2,8.2-5.5,18.2v-2c-3.5-7.4,1.9-12.7,5.5-15.3Z"/>
    </g>
  </g>
  <rect class="st6" y="46" width="82" height="46"/>
  <g id="Logo_-_large1">
    <g id="flag1">
      <rect class="st63" x="45.2" y="66.8" width="36.2" height="24.1"/>
      <rect class="st65" x="45.6" y="67.2" width="35.2" height="23.2"/>
      <g>
        <polygon class="st77" points="63.2 69.4 63.6 70.5 64.7 70.5 63.8 71.1 64.1 72.2 63.2 71.5 62.3 72.2 62.7 71.1 61.8 70.5 62.9 70.5 63.2 69.4"/>
        <polygon class="st77" points="63.2 85.5 63.6 86.5 64.7 86.5 63.8 87.2 64.1 88.3 63.2 87.6 62.3 88.3 62.7 87.2 61.8 86.5 62.9 86.5 63.2 85.5"/>
        <polygon class="st77" points="59.2 70.5 59.6 71.5 60.7 71.5 59.8 72.2 60.1 73.2 59.2 72.6 58.3 73.2 58.7 72.2 57.8 71.5 58.9 71.5 59.2 70.5"/>
        <polygon class="st77" points="56.3 73.4 56.6 74.5 57.7 74.5 56.8 75.1 57.2 76.2 56.3 75.5 55.4 76.2 55.7 75.1 54.8 74.5 55.9 74.5 56.3 73.4"/>
        <polygon class="st77" points="55.2 77.4 55.5 78.5 56.6 78.5 55.7 79.1 56.1 80.2 55.2 79.5 54.3 80.2 54.6 79.1 53.7 78.5 54.8 78.5 55.2 77.4"/>
        <polygon class="st77" points="56.3 81.4 56.6 82.5 57.7 82.5 56.8 83.2 57.2 84.2 56.3 83.6 55.3 84.2 55.7 83.2 54.8 82.5 55.9 82.5 56.3 81.4"/>
        <polygon class="st77" points="59.2 84.4 59.6 85.5 60.7 85.5 59.8 86.1 60.1 87.2 59.2 86.5 58.3 87.2 58.7 86.1 57.8 85.5 58.9 85.5 59.2 84.4"/>
        <polygon class="st77" points="67.2 70.5 66.9 71.5 65.8 71.5 66.7 72.2 66.3 73.2 67.2 72.6 68.1 73.2 67.8 72.2 68.7 71.5 67.6 71.5 67.2 70.5"/>
        <polygon class="st77" points="70.2 73.4 69.8 74.5 68.7 74.5 69.6 75.1 69.3 76.2 70.2 75.5 71.1 76.2 70.7 75.1 71.6 74.5 70.5 74.5 70.2 73.4"/>
        <polygon class="st77" points="71.3 77.4 70.9 78.5 69.8 78.5 70.7 79.1 70.4 80.2 71.3 79.5 72.2 80.2 71.8 79.1 72.7 78.5 71.6 78.5 71.3 77.4"/>
        <polygon class="st77" points="70.2 81.4 69.8 82.5 68.7 82.5 69.6 83.2 69.3 84.2 70.2 83.6 71.1 84.2 70.7 83.2 71.7 82.5 70.5 82.5 70.2 81.4"/>
        <polygon class="st77" points="67.2 84.4 66.9 85.5 65.8 85.5 66.7 86.1 66.3 87.2 67.2 86.5 68.1 87.2 67.8 86.1 68.7 85.5 67.6 85.5 67.2 84.4"/>
      </g>
    </g>
    <g id="hc1">
      <path class="st63" d="M50.9,62v-2c-.7-.6-3.6-1.9-5.4-2.3v1.4c2,.5,4.5,2,5.4,2.8h0Z"/>
      <path class="st63" d="M52.4,64.9h1.7c0-2.5-2-4.1-2.3-4.3v2.4c.7,1.1.6,1.9.6,1.9Z"/>
      <path class="st63" d="M56.7,59.9v2.2c.9.9,1.4,1.6,1.8,2.9h1.8c-.5-2-1.6-3.6-3.6-5.1Z"/>
      <path class="st63" d="M55.6,61v-2c-1.7-1.1-5-2.6-8.3-3.2v1.4c3.2.8,6.5,2.4,8.3,3.8Z"/>
      <path class="st63" d="M60.2,59.9v-1.9c-2-1.3-6.1-3-11-4.1v1.4c4.7,1.1,8.2,2.7,11,4.6Z"/>
      <path class="st63" d="M61.5,58.8v2.1c1.3,1,2.5,2.3,3.3,4.1h1.9c-.7-2.2-3.1-4.8-5.3-6.2h0Z"/>
      <path class="st63" d="M65.5,58.7v-1.9c-3.8-2.3-9.6-4.3-14.1-5.1v1.4c5.1,1,11.3,3.6,14.1,5.6Z"/>
      <path class="st63" d="M71.6,64.9h2c-1.5-3.5-5.1-6.3-6.8-7.3v2c2.6,1.9,3.5,3.3,4.8,5.3Z"/>
      <path class="st63" d="M70.6,57.4v-2c-3.1-1.9-9.4-4.7-17-6.2v1.5c5.8,1.2,13.2,4.1,17,6.8h0Z"/>
      <path class="st63" d="M78.2,64.9h2.2c-2.5-4.2-5.3-6.6-8.3-8.5v2.1c2.2,1.6,4.7,3.9,6.1,6.4Z"/>
      <path class="st63" d="M44.1,58.7v-1.3c-2-.4-5.5-.6-7-.4v1c2.3,0,5.7.3,7,.7Z"/>
      <path class="st63" d="M35.5,58.1v-1c-3.7.4-6.2,1.7-7.7,2.7v.8c2.1-1.7,5-2.4,7.7-2.6h0Z"/>
      <path class="st63" d="M27,61.6v-1c-3.4,3.8.9,7,1.3,7.3v-1.3c-2.4-1.8-2.1-4-1.3-5Z"/>
      <path class="st63" d="M29.5,67.5v1.4c2.3,1.3,4.6,2.1,7.9,2.7v-1.9c-2.3,0-5.4-.8-7.9-2.2Z"/>
      <path class="st63" d="M38.6,69.7v2c1.9.2,3.7.2,4.7.2v-2.2h-4.7Z"/>
      <path class="st63" d="M45.8,56.9v-1.3c-2.4-.5-7-.8-9.7-.6v1c3.6,0,7.2.3,9.7.9Z"/>
      <path class="st63" d="M36.2,75.3v-2.1c-3.5-.3-9-1.5-12.4-4v1.4c3.7,2.8,9.6,4.3,12.4,4.7Z"/>
      <path class="st63" d="M22.6,69.5v-1.4c-3-2.8-2.4-5.7-.5-7.6v-.9c-3.7,3.4-2.4,7.5.5,9.9Z"/>
      <path class="st63" d="M37.5,73.3v2.2c2.2.3,4,.4,5.8.4v-2.4c-2,0-5,0-5.8-.2Z"/>
      <path class="st63" d="M23.1,58.8v.8c3.2-2.4,8.1-3.4,11.5-3.5v-1c-4.2.3-9,1.9-11.5,3.7Z"/>
      <path class="st63" d="M17.9,70.8v1.5c4.6,4.2,12.2,6.4,16.8,7.2v-2.4c-4.2-.5-11.9-2.1-16.8-6.4h0Z"/>
      <path class="st63" d="M47.8,54.9v-1.3c-3-.5-8.2-1.1-13-.7v1.1c4.1-.3,9.8.2,13,1h0Z"/>
      <path class="st63" d="M36.1,77.4v2.4c2,.4,5.4.6,7.3.7v-2.7c-1.1,0-5.9-.2-7.3-.4Z"/>
      <path class="st63" d="M33.3,54.1v-1c-3.6.3-10,1.6-14.3,4.5v.8c4.1-2.8,10.6-4.1,14.3-4.3Z"/>
      <path class="st63" d="M17.8,59.2v-.8c-1.9,1.5-6.7,6.4-1.2,12.7v-1.5c-1.2-1.4-4.2-5.8,1.2-10.3h0Z"/>
      <path class="st63" d="M49.9,52.8v-1.4c-3.6-.7-10.7-1.3-16.2-.8v1.1c4.9-.4,11.9.2,16.2,1.1Z"/>
      <path class="st63" d="M34.6,81.5v2.6c2.7.5,6.1.9,8.8.9v-2.9c-3.2,0-5.9-.2-8.8-.6Z"/>
      <path class="st63" d="M33.1,83.9v-2.5c-7.6-1.1-15.9-3.8-21.1-8.9v1.6c6.1,6.1,16.3,8.9,21.1,9.8Z"/>
      <path class="st63" d="M14.8,56v.8c5.1-3.2,12-4.6,17.3-5.1v-1c-5.1.4-12.6,2.2-17.3,5.3Z"/>
      <path class="st63" d="M10.7,72.5v-1.7c-2-2.7-3.9-8,2.9-13.2v-.8c-7.7,5.5-5.8,12.3-2.9,15.7Z"/>
      <path class="st63" d="M5.3,73.6v1.8c5.8,7.6,17.8,12,25.3,13.6v-2.8c-7.9-1.3-19.8-5.2-25.3-12.6Z"/>
      <path class="st63" d="M52.1,50.4v-1.4c-3.6-.7-12.3-1.7-19.9-.9v1.1c6.4-.6,14.5,0,19.9,1.2Z"/>
      <path class="st63" d="M30.6,49.3v-1.1c-6.6.7-14.9,3-19.7,6.1v.8c6.1-3.7,14.1-5.4,19.7-5.9h0Z"/>
      <path class="st63" d="M32.3,86.4v2.8c1.7.4,8.2,1.4,11,1.4v-3.2c-4.4,0-8.8-.6-11-1Z"/>
      <path class="st63" d="M9.6,56v-.9c-2,1.3-11.2,8.2-5.5,18.2v-2c-3.5-7.4,1.9-12.7,5.5-15.3Z"/>
    </g>
  </g>
  <rect class="st35" x="82" y="0" width="21" height="21"/>
  <path id="Search_-_blue" class="st48" d="M90.8,12.2l-6.2,7.1M88.7,7.8c0,3.2,2.6,5.7,5.7,5.7s5.7-2.6,5.7-5.7-2.6-5.7-5.7-5.7-5.7,2.6-5.7,5.7Z"/>
  <rect class="st30" x="103" y="0" width="21" height="21"/>
  <path id="Search_-_white" class="st57" d="M111.8,12.2l-6.2,7.1M109.7,7.8c0,3.2,2.6,5.7,5.7,5.7s5.7-2.6,5.7-5.7-2.6-5.7-5.7-5.7-5.7,2.6-5.7,5.7Z"/>
  <rect class="st9" x="124" y="0" width="21" height="21"/>
  <path id="Search_-_dark" class="st46" d="M132.8,12.2l-6.2,7.1M130.7,7.8c0,3.2,2.6,5.7,5.7,5.7s5.7-2.6,5.7-5.7-2.6-5.7-5.7-5.7-5.7,2.6-5.7,5.7Z"/>
  <rect class="st33" x="145" y="0" width="21" height="21"/>
  <path id="Search_-_grey" class="st53" d="M153.8,12.2l-6.2,7.1M151.7,7.8c0,3.2,2.6,5.7,5.7,5.7s5.7-2.6,5.7-5.7-2.6-5.7-5.7-5.7-5.7,2.6-5.7,5.7Z"/>
  <rect class="st33" x="82" y="21" width="21" height="21"/>
  <g id="Close_-_blue">
    <line class="st59" x1="98.5" y1="25.5" x2="86.5" y2="37.5"/>
    <line class="st59" x1="86.5" y1="25.5" x2="98.5" y2="37.5"/>
  </g>
  <rect class="st8" x="103" y="21" width="21" height="21"/>
  <g id="Close_-_white">
    <line class="st50" x1="119.5" y1="25.5" x2="107.5" y2="37.5"/>
    <line class="st50" x1="107.5" y1="25.5" x2="119.5" y2="37.5"/>
  </g>
  <rect class="st7" x="124" y="21" width="21" height="21"/>
  <g id="Close_-_dark">
    <line class="st60" x1="140.5" y1="25.5" x2="128.5" y2="37.5"/>
    <line class="st60" x1="128.5" y1="25.5" x2="140.5" y2="37.5"/>
  </g>
  <rect class="st35" x="145" y="21" width="21" height="21"/>
  <g id="Close_-_grey">
    <line class="st53" x1="161.5" y1="25.5" x2="149.5" y2="37.5"/>
    <line class="st53" x1="149.5" y1="25.5" x2="161.5" y2="37.5"/>
  </g>
  <rect class="st10" x="82" y="66" width="15" height="12"/>
  <g id="Menu_-_white">
    <rect class="st43" x="82" y="66" width="15" height="2"/>
    <rect class="st43" x="82" y="76" width="15" height="2"/>
    <rect class="st43" x="82" y="71" width="15" height="2"/>
  </g>
  <rect class="st7" x="82" y="54" width="15" height="12"/>
  <g id="Menu_-_dark">
    <rect class="st44" x="82" y="54" width="15" height="2"/>
    <rect class="st44" x="82" y="59" width="15" height="2"/>
    <rect class="st44" x="82" y="64" width="15" height="2"/>
  </g>
  <rect class="st23" x="82" y="42" width="15" height="12"/>
  <g id="Menu_-_blue">
    <rect class="st63" x="82" y="42" width="15" height="2"/>
    <rect class="st63" x="82" y="47" width="15" height="2"/>
    <rect class="st63" x="82" y="52" width="15" height="2"/>
  </g>
  <rect class="st24" x="108" y="42" width="21" height="20"/>
  <path id="Facebook_-_color" class="st74" d="M116.6,62h3.5v-8.7h2.3l.3-3h-2.6v-1.5c0-.8,0-1.2,1.2-1.2h1.5v-3h-2.3c-2.8,0-3.8,1.5-3.8,3.9v1.8h-1.7v3h1.7v8.7h0Z"/>
  <rect class="st6" x="108" y="62" width="21" height="20"/>
  <g id="Reddit_-_color">
    <path class="st63" d="M125.3,63.3c.8,0,1.5.7,1.5,1.5s-.7,1.5-1.5,1.5-1.5-.7-1.5-1.5.7-1.5,1.5-1.5"/>
    <path class="st63" d="M128.1,71.1c0-1-.9-1.9-1.9-1.9s-1.1.3-1.5.7c-1.6-1.1-3.8-1.8-6.3-1.8s-4.7.7-6.3,1.8c-.3-.4-.9-.7-1.4-.7-1,0-1.9.8-1.9,1.9s.5,1.4,1.1,1.7v.9c0,3.1,3.8,5.6,8.6,5.6s8.6-2.5,8.6-5.6,0-.6,0-.8c.7-.3,1.2-1,1.2-1.8h-.2Z"/>
    <path d="M128.4,71.1c0-1.2-1-2.2-2.2-2.2s-1.1.2-1.5.6h0c-1.6-1-3.6-1.6-5.7-1.7l1.2-3.8,3.3.8h0c0,1,.8,1.8,1.8,1.8s1.8-.8,1.8-1.8-.8-1.8-1.8-1.8-1.4.5-1.7,1.1l-3.6-.8c-.2,0-.3,0-.4.2l-1.4,4.3c-2.3,0-4.4.6-6,1.7-.4-.4-.9-.6-1.5-.6-1.2,0-2.2,1-2.2,2.2s.4,1.5,1.1,1.9v.7c0,1.6.9,3.1,2.7,4.2,1.7,1.1,3.9,1.7,6.2,1.7s4.6-.6,6.2-1.7c1.7-1.1,2.7-2.6,2.7-4.2s0-.4,0-.7c.7-.4,1.2-1.1,1.2-2h-.2ZM125.3,63.6c.6,0,1.2.5,1.2,1.2s-.5,1.2-1.2,1.2-1.2-.5-1.2-1.2.5-1.2,1.2-1.2ZM109.2,71.1c0-.9.7-1.6,1.6-1.6s.7,0,.9.3c-.9.7-1.6,1.6-1.9,2.5-.4-.3-.6-.7-.6-1.2ZM118.4,79c-4.5,0-8.2-2.4-8.2-5.3s3.7-5.3,8.2-5.3,8.2,2.4,8.2,5.3-3.7,5.3-8.2,5.3ZM127.1,72.4c-.3-.9-.9-1.8-1.9-2.5.3-.2.6-.3,1-.3.9,0,1.6.7,1.6,1.6s-.3,1-.7,1.3h0Z"/>
    <path d="M121.7,76h-.5c-.5.5-1.4.8-2.7.8s0,0,0,0h0c-1.3,0-2.2-.3-2.7-.8s-.3,0-.5,0v.5c.7.7,1.7,1,3.2,1s0,0,0,0h0c1.5,0,2.5-.3,3.2-1s0-.3,0-.5Z"/>
    <path class="st69" d="M115.4,71.2c-.8,0-1.4.6-1.4,1.4s.6,1.4,1.4,1.4,1.4-.6,1.4-1.4-.6-1.4-1.4-1.4"/>
    <path class="st69" d="M121.5,71.2c-.8,0-1.4.6-1.4,1.4s.6,1.4,1.4,1.4,1.4-.6,1.4-1.4-.6-1.4-1.4-1.4"/>
  </g>
  <rect class="st28" x="108" y="82" width="21" height="20"/>
  <g id="Flickr_-_color">
    <path class="st68" d="M113.3,96.5c2.5,0,4.5-2,4.5-4.5s-2-4.5-4.5-4.5-4.5,2-4.5,4.5,2,4.5,4.5,4.5"/>
    <path class="st76" d="M123.7,96.5c2.5,0,4.5-2,4.5-4.5s-2-4.5-4.5-4.5-4.5,2-4.5,4.5,2,4.5,4.5,4.5"/>
  </g>
  <rect class="st17" x="108" y="102" width="21" height="20"/>
  <path id="LinkedIn_-_color" class="st79" d="M114.6,109.7h-3.1v9.2h3.1v-9.2ZM113.1,108.5c1.1,0,1.7-.7,1.7-1.6s-.7-1.6-1.7-1.6-1.7.7-1.7,1.6.7,1.6,1.7,1.6h0ZM125.6,118.9v-5.3c0-2.8-1.5-4.1-3.5-4.1s-2.4.9-2.8,1.5v-1.3h-3.1v9.2h3.1v-5.8c.2-.6.7-1.1,1.6-1.1s1.6.8,1.6,2.1v4.9h3.1Z"/>
  <rect class="st33" x="108" y="122" width="21" height="20"/>
  <path id="YouTube_-_color" class="st80" d="M117.2,134.1v-4.9l4.7,2.5-4.7,2.4ZM127.3,128.4s-.2-1.2-.8-1.7c-.7-.7-1.4-.5-1.8-.5-2.4-.2-6.1,0-6.1,0h0s-3.7-.2-6.1,0c-.3,0-1.1,0-1.7.6s-.9,1.7-.9,1.7c0,0-.4,1.4-.4,2.8v1.3c0,1.4.4,2.8.4,2.8,0,0,.3,1.2.8,1.7s1.6.7,2,.7c1.4.1,6,.2,6,.2,0,0,3.7,0,6.1-.2.3,0,1.1,0,1.8-.7.5-.5.8-1.7.8-1.7,0,0,.3-1.4.3-2.8v-1.3c0-1.4-.3-2.8-.3-2.8"/>
  <rect class="st24" x="108" y="142" width="21" height="20"/>
  <rect class="st35" x="108" y="162" width="21" height="20"/>
  <g id="Instagram_-_color">
    <path d="M118.5,163.4h-3.5c-.9,0-1.5.2-2.1.4s-1,.5-1.5,1-.8,1-1,1.5-.4,1.2-.4,2.1v7c0,.9.2,1.5.4,2.1.2.6.5,1,1,1.5s1,.8,1.5,1,1.2.4,2.1.4h7c.9,0,1.5-.2,2.1-.4s1-.5,1.5-1,.8-1,1-1.5.4-1.2.4-2.1v-7c0-.9-.2-1.5-.4-2.1-.2-.6-.5-1-1-1.5s-1-.8-1.5-1-1.2-.4-2.1-.4h-3.5M118.5,165h3.5c.8,0,1.3.2,1.6.3.4.2.7.3,1,.6s.5.6.6,1c0,.3.3.8.3,1.6v7c0,.8-.2,1.3-.3,1.6-.2.4-.3.7-.6,1-.3.3-.6.5-1,.6-.3.1-.8.3-1.6.3h-7c-.8,0-1.3-.2-1.6-.3-.4-.2-.7-.3-1-.6s-.5-.6-.6-1c0-.3-.3-.8-.3-1.6v-7c0-.8.2-1.3.3-1.6.2-.4.3-.7.6-1,.3-.3.6-.5,1-.6.3-.1.8-.3,1.6-.3h3.5"/>
    <path d="M118.5,174.9c-1.6,0-2.9-1.3-2.9-2.9s1.3-2.9,2.9-2.9,2.9,1.3,2.9,2.9-1.3,2.9-2.9,2.9M118.5,167.6c-2.4,0-4.4,2-4.4,4.4s2,4.4,4.4,4.4,4.4-2,4.4-4.4-2-4.4-4.4-4.4"/>
    <path d="M124.1,167.4c0,.6-.5,1-1,1s-1-.5-1-1,.5-1,1-1,1,.5,1,1"/>
  </g>
  <rect class="st6" x="108" y="182" width="21" height="20"/>
  <path id="Pinterest_-_color" class="st73" d="M118.5,183.7c-4.5,0-8.1,3.7-8.1,8.3s2,6.3,4.8,7.6v-1.9c.2-.7,1-4.5,1-4.5,0,0-.3-.5-.3-1.3,0-1.2.7-2.1,1.6-2.1s1.1.6,1.1,1.2-.5,1.9-.7,2.9c-.2.9.4,1.6,1.3,1.6,1.5,0,2.6-2,2.6-4.4s-1.2-3.2-3.4-3.2-4,1.9-4,4,.2,1.2.5,1.6c0,.2.2.3,0,.5,0,.2,0,.5-.2.7,0,.2-.2.3-.4.2-1.1-.5-1.7-1.7-1.7-3.2,0-2.4,1.9-5.2,5.8-5.2s5.1,2.3,5.1,4.8-1.8,5.7-4.4,5.7-1.7-.5-2-1c0,0-.5,1.9-.6,2.3-.2.6-.5,1.3-.8,1.8.7.2,1.5.3,2.3.3,4.5,0,8.1-3.7,8.1-8.3s-3.6-8.3-8.1-8.3"/>
  <rect class="st17" x="108" y="202" width="21" height="20"/>
  <g id="Snapchat_-_color">
    <path class="st70" d="M126.8,216.5h0c-1.8-.4-2.9-1.6-3.7-3.3-.2-.5,0-.9.4-1.2.2-.1.4-.2.7-.3.2,0,.4-.2.6-.3,0,0,.3-.2.3-.3,0-.2-.2-.3-.4-.3h-.4s-.3.1-.4.2c-.3,0-.5.1-.8,0-.2,0-.3-.2-.3-.4v-2.3c0-1.2-.5-2.2-1.5-2.9-1.5-1.2-3.9-1.3-5.5-.2-1.1.8-1.7,1.8-1.7,3.2v2.2c0,.4,0,.5-.5.6h-.5c-.2,0-.5-.1-.7-.2-.2,0-.5,0-.6.2,0,.2,0,.3.3.4.2.1.4.2.7.3.3.1.5.2.8.4.4.2.5.6.4,1s-.3.7-.5,1c-.8,1.2-1.8,2.1-3.3,2.4h-.2c.3.4.7.4.9.5.5.1.7.1,1.1.2l.3.3v.3c0,.3.2.5.7.4,1-.2,2,0,2.8.6,0,.1.3.2.4.3.8.6,1.7.8,2.7.6.6-.1,1.1-.5,1.5-.8.8-.7,1.8-.8,2.8-.6.4,0,.6-.2.7-.5,0-.4.2-.5.6-.6.5-.1.9-.2,1.4-.4,0,0,.3-.2.4-.2"/>
    <path d="M118.5,219.9c-.7,0-1.4-.2-2-.7h-.2c0-.1-.2-.2-.3-.3-.7-.6-1.6-.8-2.7-.6h-.4c-.3,0-.3-.2-.4-.6h0v-.2c0-.1-.2-.2-.3-.2-.3,0-.4-.1-.6-.1h-.5c-.2,0-.6-.1-.9-.5v-.2h0c1.3-.3,2.3-1,3.2-2.4.2-.3.3-.6.5-1,0-.3,0-.6-.3-.9-.2-.1-.3-.2-.5-.3h-.4s-.3-.1-.4-.2c-.2,0-.4-.2-.3-.5,0-.2.5-.3.7-.3h.2c.2.1.3.2.5.2h.4c.3,0,.4,0,.4-.5v-2.2c0-1.3.6-2.4,1.8-3.3.7-.5,1.7-.8,2.7-.8s2.2.3,3,1c1,.8,1.5,1.8,1.5,3v2.3c0,.1,0,.2.2.3h1.5c.3,0,.4.2.5.4,0,.2,0,.3-.3.5,0,0-.3.1-.4.2h-.4c-.2,0-.3.1-.5.2-.3.2-.6.5-.4,1.1.8,1.8,2,2.8,3.6,3.2h0v.2h0s-.2.1-.3.2c-.4.1-.9.3-1.4.4-.3,0-.4.2-.5.5,0,.4,0,.6-.5.6h-.4c-1.1-.2-2,0-2.7.6-.4.3-.9.7-1.6.9h-1.1,0ZM114.2,218c.8,0,1.5.2,2,.7,0,0,.2.1.3.2h.2c.8.7,1.7.8,2.6.6.6-.1,1.1-.5,1.5-.8.8-.6,1.7-.9,2.9-.7h.3l.2-.4c0-.5.2-.6.7-.7.5-.1,1-.3,1.4-.4h.2c-1.6-.5-2.8-1.6-3.7-3.4-.2-.6,0-1.1.5-1.4.2,0,.3-.2.5-.2h.4s.3-.1.4-.2c.2-.1.2-.2.2-.2,0-.2-.2-.2-.3-.2h-.6c-.4.1-.6,0-.9,0-.2-.1-.3-.3-.3-.5v-2.3c0-1.1-.5-2.1-1.4-2.9-.7-.6-1.7-.9-2.8-.9s-1.8.3-2.5.7c-1.1.8-1.7,1.8-1.7,3.1v2.2c0,.5,0,.6-.6.7h-.5c-.2,0-.4-.1-.5-.2h-.2s-.3,0-.3.1c0,0,0,.1.2.2,0,0,.3.1.4.2,0,0,.2,0,.2.1h.2c.2,0,.4.2.6.3.4.3.6.7.4,1.1,0,.4-.3.7-.5,1-.9,1.4-1.9,2.2-3.3,2.5.2.2.4.2.6.3h.5c.2,0,.4,0,.7.1.2,0,.3.2.4.3v.3h0q0,.5.2.5h1.2v.2h.2Z"/>
  </g>
  <rect class="st24" x="108" y="222" width="21" height="20"/>
  <g id="Google_x2B_-_color">
    <path class="st64" d="M120.4,231v1.1c0,3-2,5.2-5.1,5.2s-5.3-2.4-5.3-5.3,2.4-5.3,5.3-5.3,2.6.5,3.5,1.4l-1.5,1.5h0c-.6-.5-1.3-.8-2.1-.8-1.8,0-3.2,1.5-3.2,3.2s1.4,3.2,3.2,3.2,2.7-.9,2.9-2.2h-2.9v-2.1h5.2Z"/>
    <polygon class="st64" points="125.2 230.9 125.2 229.2 123.8 229.2 123.8 230.9 122 230.9 122 232.4 123.8 232.4 123.8 234.1 125.2 234.1 125.2 232.4 127 232.4 127 230.9 125.2 230.9"/>
  </g>
  <rect class="st24" x="108" y="242" width="21" height="20"/>
  <g id="E-mail_-_color">
    <path class="st43" d="M119.8,253.7c-.3.3-.8.4-1.3.4s-1-.1-1.3-.4c0,0-.4-.4-.9-.9l-4.4,4.2h13.3l-4.4-4.2c-.5.5-.9.9-1,.9"/>
    <path class="st43" d="M125.1,247h-13.4s5.8,5.5,6,5.7.4.3.7.3h0c.3,0,.5-.2.7-.3.2-.2,6-5.7,6-5.7"/>
    <polygon class="st43" points="111 256.2 115.4 252 111 247.8 111 256.2"/>
    <polygon class="st43" points="121.6 252 126 256.2 126 247.8 121.6 252"/>
  </g>
  <rect class="st33" x="108" y="262" width="21" height="20"/>
  <path id="Vimeo_-_color" class="st39" d="M119.5,269.3c0-.2,0-.4.2-.5.3-.7.6-1.3,1.1-1.8s1.2-.8,1.9-.9h1.3c.7.2,1.1.7,1.3,1.3.2.8.2,1.6,0,2.4-.2.7-.6,1.4-1,2.1-1,1.6-2.1,3.1-3.4,4.4-.5.5-1.1,1-1.7,1.4-.4.2-.8.4-1.3.4s-.8,0-1.2-.4c-.3-.3-.6-.7-.8-1.1-.3-.5-.4-1.1-.6-1.7-.3-1.2-.7-2.5-1-3.7s-.3-.8-.5-1.1c0-.2-.2-.3-.3-.4l-.2-.2h-.4c-.3.2-.6.4-.9.6h0c-.2-.2-.4-.5-.6-.7h0c.9-.8,1.7-1.6,2.6-2.3.3-.2.6-.5,1-.6.8-.3,1.5-.1,2,.6.2.4.4.8.4,1.2,0,.7.2,1.5.4,2.2.2.9.3,1.8.6,2.6,0,.2,0,.4.2.5,0,0,0,.2.2.2,0,.1.3.1.5,0,.2,0,.3-.2.4-.4.6-.8,1.1-1.6,1.5-2.5,0-.3.2-.7,0-1,0-.4-.3-.7-.8-.7s-.7,0-1.1.2h.3,0Z"/>
  <rect class="st25" x="150" y="242" width="21" height="20"/>
  <g id="E-mail_-_grey">
    <path class="st67" d="M161.8,253.7c-.3.3-.8.4-1.3.4s-1-.1-1.3-.4l-.9-.9-4.4,4.2h13.3l-4.4-4.2c-.5.5-.9.9-1,.9"/>
    <path class="st67" d="M167.1,247h-13.4s5.8,5.5,6,5.7.4.3.7.3h0c.3,0,.5-.2.7-.3.2-.2,6-5.7,6-5.7"/>
    <polygon class="st67" points="153 256.2 157.4 252 153 247.8 153 256.2"/>
    <polygon class="st67" points="163.6 252 168 256.2 168 247.8 163.6 252"/>
  </g>
  <rect class="st24" x="150" y="42" width="21" height="20"/>
  <path id="Facebook_-_black" class="st67" d="M158.6,62h3.5v-8.7h2.3l.3-3h-2.6v-1.5c0-.8,0-1.2,1.2-1.2h1.5v-3h-2.3c-2.8,0-3.8,1.5-3.8,3.9v1.8h-1.7v3h1.7v8.7h0Z"/>
  <rect class="st6" x="150" y="62" width="21" height="20"/>
  <path id="Reddit_-_black" class="st67" d="M170.4,71.1c0-1.2-1-2.2-2.2-2.2s-1.1.2-1.5.6h0c-1.6-1-3.6-1.6-5.7-1.7l1.2-3.8,3.3.8h0c0,1,.8,1.8,1.8,1.8s1.8-.8,1.8-1.8-.8-1.8-1.8-1.8-1.4.5-1.7,1.1l-3.6-.8c-.2,0-.3,0-.4.2l-1.4,4.3c-2.3,0-4.4.6-6,1.7-.4-.4-.9-.6-1.5-.6-1.2,0-2.2,1-2.2,2.2s.4,1.5,1.1,1.9v.7c0,1.6.9,3.1,2.7,4.2,1.7,1.1,3.9,1.7,6.2,1.7s4.6-.6,6.2-1.7c1.7-1.1,2.7-2.6,2.7-4.2s0-.4,0-.7c.7-.4,1.2-1.1,1.2-2h-.2ZM156,72.6c0-.8.6-1.4,1.4-1.4s1.4.6,1.4,1.4-.6,1.4-1.4,1.4-1.4-.6-1.4-1.4ZM163.7,76.5c-.7.7-1.7,1-3.2,1s0,0,0,0h0c-1.5,0-2.5-.3-3.2-1-.1,0-.1-.3,0-.5h.5c.5.5,1.4.8,2.7.8s0,0,0,0h0c1.3,0,2.2-.3,2.7-.8h.5c.1,0,.1.3,0,.5ZM163.5,74c-.8,0-1.4-.6-1.4-1.4s.6-1.4,1.4-1.4,1.4.6,1.4,1.4-.6,1.4-1.4,1.4Z"/>
  <rect class="st28" x="150" y="82" width="21" height="20"/>
  <g id="Flickr_-_black">
    <path class="st67" d="M155.3,96.5c2.5,0,4.5-2,4.5-4.5s-2-4.5-4.5-4.5-4.5,2-4.5,4.5,2,4.5,4.5,4.5"/>
    <path class="st67" d="M165.7,96.5c2.5,0,4.5-2,4.5-4.5s-2-4.5-4.5-4.5-4.5,2-4.5,4.5,2,4.5,4.5,4.5"/>
  </g>
  <rect class="st17" x="150" y="102" width="21" height="20"/>
  <path id="LinkedIn_-_black" class="st67" d="M156.6,109.7h-3.1v9.2h3.1v-9.2ZM155.1,108.5c1.1,0,1.7-.7,1.7-1.6s-.7-1.6-1.7-1.6-1.7.7-1.7,1.6.7,1.6,1.7,1.6h0ZM167.6,118.9v-5.3c0-2.8-1.5-4.1-3.5-4.1s-2.4.9-2.8,1.5v-1.3h-3.1v9.2h3.1v-5.1c0-.3,0-.6.1-.7.2-.6.7-1.1,1.6-1.1s1.6.8,1.6,2.1v4.9h3.1-.1Z"/>
  <rect class="st33" x="150" y="122" width="21" height="20"/>
  <path id="YouTube_-_black" class="st67" d="M159.2,134.1v-4.9l4.7,2.5-4.7,2.4ZM169.3,128.4s-.2-1.2-.8-1.7c-.7-.7-1.4-.5-1.8-.5-2.4-.2-6.1,0-6.1,0h0s-3.7-.2-6.1,0c-.3,0-1.1,0-1.7.6-.5.5-.9,1.7-.9,1.7,0,0-.4,1.4-.4,2.8v1.3c0,1.4.4,2.8.4,2.8,0,0,.3,1.2.8,1.7s1.6.7,2,.7c1.4.1,6,.2,6,.2,0,0,3.7,0,6.1-.2.3,0,1.1,0,1.8-.7s.8-1.7.8-1.7c0,0,.3-1.4.3-2.8v-1.3c0-1.4-.3-2.8-.3-2.8"/>
  <rect class="st24" x="150" y="142" width="21" height="20"/>
  <rect class="st35" x="150" y="162" width="21" height="20"/>
  <g id="Instagram_-_black">
    <path class="st67" d="M160.5,163.4h-3.5c-.9,0-1.5.2-2.1.4s-1,.5-1.5,1-.8,1-1,1.5-.4,1.2-.4,2.1v7c0,.9.2,1.5.4,2.1s.5,1,1,1.5,1,.8,1.5,1,1.2.4,2.1.4h7c.9,0,1.5-.2,2.1-.4s1-.5,1.5-1,.8-1,1-1.5.4-1.2.4-2.1v-7c0-.9-.2-1.5-.4-2.1s-.5-1-1-1.5-1-.8-1.5-1-1.2-.4-2.1-.4h-3.5M160.5,165h3.5c.8,0,1.3.2,1.6.3.4.2.7.3,1,.6s.5.6.6,1c.1.3.3.8.3,1.6v7c0,.8-.2,1.3-.3,1.6-.2.4-.3.7-.6,1s-.6.5-1,.6c-.3.1-.8.3-1.6.3h-7c-.8,0-1.3-.2-1.6-.3-.4-.2-.7-.3-1-.6s-.5-.6-.6-1c-.1-.3-.3-.8-.3-1.6v-7c0-.8.2-1.3.3-1.6.2-.4.3-.7.6-1s.6-.5,1-.6c.3-.1.8-.3,1.6-.3h3.5"/>
    <path class="st67" d="M160.5,174.9c-1.6,0-2.9-1.3-2.9-2.9s1.3-2.9,2.9-2.9,2.9,1.3,2.9,2.9-1.3,2.9-2.9,2.9M160.5,167.6c-2.4,0-4.4,2-4.4,4.4s2,4.4,4.4,4.4,4.4-2,4.4-4.4-2-4.4-4.4-4.4"/>
    <path class="st67" d="M166.1,167.4c0,.6-.5,1-1,1s-1-.5-1-1,.5-1,1-1,1,.5,1,1"/>
  </g>
  <rect class="st6" x="150" y="182" width="21" height="20"/>
  <path id="Pinterest_-_black" class="st67" d="M160.5,183.7c-4.5,0-8.1,3.7-8.1,8.3s2,6.3,4.8,7.6c0-.6,0-1.3.1-1.9.2-.7,1-4.5,1-4.5,0,0-.3-.5-.3-1.3,0-1.2.7-2.1,1.6-2.1s1.1.6,1.1,1.2-.5,1.9-.7,2.9c-.2.9.4,1.6,1.3,1.6,1.5,0,2.6-2,2.6-4.4s-1.2-3.2-3.4-3.2-4,1.9-4,4,.2,1.2.5,1.6c.1.2.2.3.1.5,0,.2-.1.5-.2.7,0,.2-.2.3-.4.2-1.1-.5-1.7-1.7-1.7-3.2,0-2.4,1.9-5.2,5.8-5.2s5.1,2.3,5.1,4.8-1.8,5.7-4.4,5.7-1.7-.5-2-1c0,0-.5,1.9-.6,2.3-.2.6-.5,1.3-.8,1.8.7.2,1.5.3,2.3.3,4.5,0,8.1-3.7,8.1-8.3s-3.6-8.3-8.1-8.3"/>
  <rect class="st17" x="150" y="202" width="21" height="20"/>
  <path id="Snapchat_-_black" class="st67" d="M168.9,216.4h0c-1.6-.4-2.8-1.4-3.6-3.2-.2-.6,0-.9.4-1.1.1,0,.3-.1.5-.2h.4c.1,0,.3-.1.4-.2.3-.2.4-.3.3-.5,0-.1-.2-.3-.5-.4h-.4s-.2,0-.2.1h-.9c-.1,0-.2-.1-.2-.3v-2.3c0-1.2-.5-2.2-1.5-3-.8-.6-1.8-1-3-1s-1.9.3-2.7.8c-1.2.8-1.8,1.9-1.8,3.3v2.2c0,.3-.1.4-.4.5h-.4c-.2,0-.3,0-.5-.2h-.2c-.2-.1-.6,0-.7.2-.1.3.2.5.3.5s.3.1.4.2h.4c.2,0,.4.2.5.3.3.2.4.5.3.9-.1.3-.3.7-.5,1-.8,1.3-1.9,2.1-3.2,2.4h-.3v.2c.4.4.8.5,1,.5h.5c.2,0,.4,0,.6.1,0,0,.2.1.3.2v.2h0c0,.4.1.6.4.6h.4c1.1-.2,2,0,2.7.6,0,0,.2.1.3.2,0,0,.1,0,.2.1.6.4,1.3.7,2,.7h.8c.7-.1,1.2-.5,1.6-.9.7-.6,1.6-.8,2.7-.6h.4c.3,0,.4-.2.5-.6,0-.4.1-.4.5-.5.5-.1,1-.3,1.4-.4.1,0,.2-.1.3-.2h.1v-.2h.4Z"/>
  <rect class="st24" x="150" y="222" width="21" height="20"/>
  <g id="Google_x2B_-_black">
    <path class="st67" d="M162.4,231v1.1c0,3-2,5.2-5.1,5.2s-5.3-2.4-5.3-5.3,2.4-5.3,5.3-5.3,2.6.5,3.5,1.4l-1.5,1.5h0c-.6-.5-1.3-.8-2.1-.8-1.8,0-3.2,1.5-3.2,3.2s1.4,3.2,3.2,3.2,2.7-.9,2.9-2.2h-2.9v-2.1h5.2Z"/>
    <polygon class="st67" points="167.2 230.9 167.2 229.2 165.8 229.2 165.8 230.9 164 230.9 164 232.4 165.8 232.4 165.8 234.1 167.2 234.1 167.2 232.4 169 232.4 169 230.9 167.2 230.9"/>
  </g>
  <rect class="st28" x="150" y="262" width="21" height="20"/>
  <path id="Vimeo_-_black" class="st42" d="M161.5,269.3c0-.2.1-.4.2-.5.3-.7.6-1.3,1.1-1.8s1.2-.8,1.9-.9h1.3c.7.2,1.1.7,1.3,1.3.2.8.2,1.6,0,2.4-.2.7-.6,1.4-1,2.1-1,1.6-2.1,3.1-3.4,4.4s-1.1,1-1.7,1.4c-.4.2-.8.4-1.3.4s-.8,0-1.2-.4c-.3-.3-.6-.7-.8-1.1-.3-.5-.4-1.1-.6-1.7-.3-1.2-.7-2.5-1-3.7-.1-.4-.3-.8-.5-1.1,0-.2-.2-.3-.3-.4,0,0-.1-.1-.2-.2h-.4c-.3.2-.6.4-.9.6h-.1c-.2-.2-.4-.5-.6-.7h0c.9-.8,1.7-1.6,2.6-2.3.3-.2.6-.5,1-.6.8-.3,1.5-.1,2,.6.2.4.4.8.4,1.2.1.7.2,1.5.4,2.2.1.9.3,1.8.6,2.6,0,.2.1.4.2.5,0,0,.1.2.2.2.1.1.3.1.5,0,.2,0,.3-.2.4-.4.6-.8,1.1-1.6,1.5-2.5.1-.3.2-.7.1-1,0-.4-.3-.7-.8-.7s-.7,0-1.1.2h-.1.3Z"/>
  <rect class="st33" x="171" y="42" width="21" height="20"/>
  <path id="Facebook_-_grey" class="st38" d="M179.6,62h3.5v-8.7h2.3l.3-3h-2.6v-1.5c0-.8,0-1.2,1.2-1.2h1.5v-3h-2.3c-2.8,0-3.8,1.5-3.8,3.9v1.8h-1.7v3h1.7v8.7h0Z"/>
  <rect class="st17" x="171" y="62" width="21" height="20"/>
  <path id="Reddit_-_grey" class="st38" d="M191.4,71.1c0-1.2-1-2.2-2.2-2.2s-1.1.2-1.5.6h0c-1.6-1-3.6-1.6-5.7-1.7l1.2-3.8,3.3.8h0c0,1,.8,1.8,1.8,1.8s1.8-.8,1.8-1.8-.8-1.8-1.8-1.8-1.4.5-1.7,1.1l-3.6-.8c-.2,0-.3,0-.4.2l-1.4,4.3c-2.3,0-4.4.6-6,1.7-.4-.4-.9-.6-1.5-.6-1.2,0-2.2,1-2.2,2.2s.4,1.5,1.1,1.9v.7c0,1.6.9,3.1,2.7,4.2,1.7,1.1,3.9,1.7,6.2,1.7s4.6-.6,6.2-1.7c1.7-1.1,2.7-2.6,2.7-4.2s0-.4,0-.7c.7-.4,1.2-1.1,1.2-2h-.2ZM177,72.6c0-.8.6-1.4,1.4-1.4s1.4.6,1.4,1.4-.6,1.4-1.4,1.4-1.4-.6-1.4-1.4ZM184.7,76.5c-.7.7-1.7,1-3.2,1s0,0,0,0h0c-1.5,0-2.5-.3-3.2-1-.1,0-.1-.3,0-.5h.5c.5.5,1.4.8,2.7.8s0,0,0,0h0c1.3,0,2.2-.3,2.7-.8h.5c.1,0,.1.3,0,.5ZM184.5,74c-.8,0-1.4-.6-1.4-1.4s.6-1.4,1.4-1.4,1.4.6,1.4,1.4-.6,1.4-1.4,1.4Z"/>
  <rect class="st33" x="171" y="82" width="21" height="20"/>
  <g id="Flickr_-_grey">
    <path class="st38" d="M176.3,96.5c2.5,0,4.5-2,4.5-4.5s-2-4.5-4.5-4.5-4.5,2-4.5,4.5,2,4.5,4.5,4.5"/>
    <path class="st38" d="M186.7,96.5c2.5,0,4.5-2,4.5-4.5s-2-4.5-4.5-4.5-4.5,2-4.5,4.5,2,4.5,4.5,4.5"/>
  </g>
  <rect class="st35" x="171" y="102" width="21" height="20"/>
  <path id="LinkedIn_-_grey" class="st38" d="M177.6,109.7h-3.1v9.2h3.1v-9.2ZM176.1,108.5c1.1,0,1.7-.7,1.7-1.6s-.7-1.6-1.7-1.6-1.7.7-1.7,1.6.7,1.6,1.7,1.6h0ZM188.6,118.9v-5.3c0-2.8-1.5-4.1-3.5-4.1s-2.4.9-2.8,1.5v-1.3h-3.1v9.2h3.1v-5.1c0-.3,0-.6.1-.7.2-.6.7-1.1,1.6-1.1s1.6.8,1.6,2.1v4.9h3.1-.1Z"/>
  <rect class="st24" x="171" y="122" width="21" height="20"/>
  <path id="YouTube_-_grey" class="st38" d="M180.2,134.1v-4.9l4.7,2.5-4.7,2.4ZM190.3,128.4s-.2-1.2-.8-1.7c-.7-.7-1.4-.5-1.8-.5-2.4-.2-6.1,0-6.1,0h0s-3.7-.2-6.1,0c-.3,0-1.1,0-1.7.6-.5.5-.9,1.7-.9,1.7,0,0-.4,1.4-.4,2.8v1.3c0,1.4.4,2.8.4,2.8,0,0,.3,1.2.8,1.7s1.6.7,2,.7c1.4.1,6,.2,6,.2,0,0,3.7,0,6.1-.2.3,0,1.1,0,1.8-.7s.8-1.7.8-1.7c0,0,.3-1.4.3-2.8v-1.3c0-1.4-.3-2.8-.3-2.8"/>
  <rect class="st6" x="171" y="142" width="21" height="20"/>
  <rect class="st33" x="171" y="162" width="21" height="20"/>
  <g id="Instagram_-_grey">
    <path class="st38" d="M181.5,163.4h-3.5c-.9,0-1.5.2-2.1.4s-1,.5-1.5,1-.8,1-1,1.5-.4,1.2-.4,2.1v7c0,.9.2,1.5.4,2.1s.5,1,1,1.5,1,.8,1.5,1,1.2.4,2.1.4h7c.9,0,1.5-.2,2.1-.4s1-.5,1.5-1,.8-1,1-1.5.4-1.2.4-2.1v-7c0-.9-.2-1.5-.4-2.1s-.5-1-1-1.5-1-.8-1.5-1-1.2-.4-2.1-.4h-3.5M181.5,165h3.5c.8,0,1.3.2,1.6.3.4.2.7.3,1,.6s.5.6.6,1c.1.3.3.8.3,1.6v7c0,.8-.2,1.3-.3,1.6-.2.4-.3.7-.6,1s-.6.5-1,.6c-.3.1-.8.3-1.6.3h-7c-.8,0-1.3-.2-1.6-.3-.4-.2-.7-.3-1-.6s-.5-.6-.6-1c-.1-.3-.3-.8-.3-1.6v-7c0-.8.2-1.3.3-1.6.2-.4.3-.7.6-1s.6-.5,1-.6c.3-.1.8-.3,1.6-.3h3.5"/>
    <path class="st38" d="M181.5,174.9c-1.6,0-2.9-1.3-2.9-2.9s1.3-2.9,2.9-2.9,2.9,1.3,2.9,2.9-1.3,2.9-2.9,2.9M181.5,167.6c-2.4,0-4.4,2-4.4,4.4s2,4.4,4.4,4.4,4.4-2,4.4-4.4-2-4.4-4.4-4.4"/>
    <path class="st38" d="M187.1,167.4c0,.6-.5,1-1,1s-1-.5-1-1,.5-1,1-1,1,.5,1,1"/>
  </g>
  <rect class="st25" x="171" y="182" width="21" height="20"/>
  <path id="Pinterest_-_grey" class="st38" d="M181.5,183.7c-4.5,0-8.1,3.7-8.1,8.3s2,6.3,4.8,7.6c0-.6,0-1.3.1-1.9.2-.7,1-4.5,1-4.5,0,0-.3-.5-.3-1.3,0-1.2.7-2.1,1.6-2.1s1.1.6,1.1,1.2-.5,1.9-.7,2.9c-.2.9.4,1.6,1.3,1.6,1.5,0,2.6-2,2.6-4.4s-1.2-3.2-3.4-3.2-4,1.9-4,4,.2,1.2.5,1.6c.1.2.2.3.1.5,0,.2-.1.5-.2.7,0,.2-.2.3-.4.2-1.1-.5-1.7-1.7-1.7-3.2,0-2.4,1.9-5.2,5.8-5.2s5.1,2.3,5.1,4.8-1.8,5.7-4.4,5.7-1.7-.5-2-1c0,0-.5,1.9-.6,2.3-.2.6-.5,1.3-.8,1.8.7.2,1.5.3,2.3.3,4.5,0,8.1-3.7,8.1-8.3s-3.6-8.3-8.1-8.3"/>
  <rect class="st35" x="171" y="202" width="21" height="20"/>
  <path id="Snapchat_-_grey" class="st38" d="M189.9,216.4h0c-1.6-.4-2.8-1.4-3.6-3.2-.2-.6,0-.9.4-1.1.1,0,.3-.1.5-.2h.4c.1,0,.3-.1.4-.2.3-.2.4-.3.3-.5,0-.1-.2-.3-.5-.4h-.4s-.2,0-.2.1h-.9c-.1,0-.2-.1-.2-.3v-2.3c0-1.2-.5-2.2-1.5-3-.8-.6-1.8-1-3-1s-1.9.3-2.7.8c-1.2.8-1.8,1.9-1.8,3.3v2.2c0,.3-.1.4-.4.5h-.4c-.2,0-.3,0-.5-.2h-.2c-.2-.1-.6,0-.7.2-.1.3.2.5.3.5s.3.1.4.2h.4c.2,0,.4.2.5.3.3.2.4.5.3.9-.1.3-.3.7-.5,1-.8,1.3-1.9,2.1-3.2,2.4h-.3v.2c.4.4.8.5,1,.5h.5c.2,0,.4,0,.6.1,0,0,.2.1.3.2v.2h0c0,.4.1.6.4.6h.4c1.1-.2,2,0,2.7.6,0,0,.2.1.3.2,0,0,.1,0,.2.1.6.4,1.3.7,2,.7h.8c.7-.1,1.2-.5,1.6-.9.7-.6,1.6-.8,2.7-.6h.4c.3,0,.4-.2.5-.6,0-.4.1-.4.5-.5.5-.1,1-.3,1.4-.4.1,0,.2-.1.3-.2h.1v-.2h.4Z"/>
  <rect class="st28" x="171" y="222" width="21" height="20"/>
  <g id="Google_x2B_-_grey">
    <path class="st38" d="M183.4,231v1.1c0,3-2,5.2-5.1,5.2s-5.3-2.4-5.3-5.3,2.4-5.3,5.3-5.3,2.6.5,3.5,1.4l-1.5,1.5h0c-.6-.5-1.3-.8-2.1-.8-1.8,0-3.2,1.5-3.2,3.2s1.4,3.2,3.2,3.2,2.7-.9,2.9-2.2h-2.9v-2.1h5.2Z"/>
    <polygon class="st38" points="188.2 230.9 188.2 229.2 186.8 229.2 186.8 230.9 185 230.9 185 232.4 186.8 232.4 186.8 234.1 188.2 234.1 188.2 232.4 190 232.4 190 230.9 188.2 230.9"/>
  </g>
  <rect class="st33" x="171" y="242" width="21" height="20"/>
  <g id="E-mail_-_grey1">
    <path class="st38" d="M182.8,253.7c-.3.3-.8.4-1.3.4s-1-.1-1.3-.4l-.9-.9-4.4,4.2h13.3l-4.4-4.2c-.5.5-.9.9-1,.9"/>
    <path class="st38" d="M188.1,247h-13.4s5.8,5.5,6,5.7.4.3.7.3h0c.3,0,.5-.2.7-.3.2-.2,6-5.7,6-5.7"/>
    <polygon class="st38" points="174 256.2 178.4 252 174 247.8 174 256.2"/>
    <polygon class="st38" points="184.6 252 189 256.2 189 247.8 184.6 252"/>
  </g>
  <rect class="st24" x="171" y="262" width="21" height="20"/>
  <path id="Vimeo_-_grey" class="st37" d="M182.5,269.3c0-.2.1-.4.2-.5.3-.7.6-1.3,1.1-1.8s1.2-.8,1.9-.9h1.3c.7.2,1.1.7,1.3,1.3.2.8.2,1.6,0,2.4-.2.7-.6,1.4-1,2.1-1,1.6-2.1,3.1-3.4,4.4s-1.1,1-1.7,1.4c-.4.2-.8.4-1.3.4s-.8,0-1.2-.4c-.3-.3-.6-.7-.8-1.1-.3-.5-.4-1.1-.6-1.7-.3-1.2-.7-2.5-1-3.7-.1-.4-.3-.8-.5-1.1,0-.2-.2-.3-.3-.4,0,0-.1-.1-.2-.2h-.4c-.3.2-.6.4-.9.6h-.1c-.2-.2-.4-.5-.6-.7h0c.9-.8,1.7-1.6,2.6-2.3.3-.2.6-.5,1-.6.8-.3,1.5-.1,2,.6.2.4.4.8.4,1.2.1.7.2,1.5.4,2.2.1.9.3,1.8.6,2.6,0,.2.1.4.2.5,0,0,.1.2.2.2.1.1.3.1.5,0,.2,0,.3-.2.4-.4.6-.8,1.1-1.6,1.5-2.5.1-.3.2-.7.1-1,0-.4-.3-.7-.8-.7s-.7,0-1.1.2h-.1.3Z"/>
  <rect class="st17" x="129" y="42" width="21" height="20"/>
  <path id="Facebook_-_white" class="st63" d="M137.6,62h3.5v-8.7h2.3l.3-3h-2.6v-1.5c0-.8,0-1.2,1.2-1.2h1.5v-3h-2.3c-2.8,0-3.8,1.5-3.8,3.9v1.8h-1.7v3h1.7v8.7h0Z"/>
  <rect class="st35" x="129" y="62" width="21" height="20"/>
  <path id="Reddit_-_white" class="st63" d="M149.4,71.1c0-1.2-1-2.2-2.2-2.2s-1.1.2-1.5.6h0c-1.6-1-3.6-1.6-5.7-1.7l1.2-3.8,3.3.8h0c0,1,.8,1.8,1.8,1.8s1.8-.8,1.8-1.8-.8-1.8-1.8-1.8-1.4.5-1.7,1.1l-3.6-.8c-.2,0-.3,0-.4.2l-1.4,4.3c-2.3,0-4.4.6-6,1.7-.4-.4-.9-.6-1.5-.6-1.2,0-2.2,1-2.2,2.2s.4,1.5,1.1,1.9v.7c0,1.6.9,3.1,2.7,4.2,1.7,1.1,3.9,1.7,6.2,1.7s4.6-.6,6.2-1.7c1.7-1.1,2.7-2.6,2.7-4.2s0-.4,0-.7c.7-.4,1.2-1.1,1.2-2h-.2ZM136.3,76h.5c.5.5,1.4.8,2.7.8s0,0,0,0h0c1.3,0,2.2-.3,2.7-.8h.5c.2,0,.1.3,0,.5-.7.7-1.7,1-3.2,1s0,0,0,0h0c-1.5,0-2.5-.3-3.2-1-.1,0-.1-.3,0-.5ZM135,72.6c0-.8.6-1.4,1.4-1.4s1.4.6,1.4,1.4-.6,1.4-1.4,1.4-1.4-.6-1.4-1.4ZM142.5,74c-.8,0-1.4-.6-1.4-1.4s.6-1.4,1.4-1.4,1.4.6,1.4,1.4-.6,1.4-1.4,1.4Z"/>
  <rect class="st33" x="129" y="82" width="21" height="20"/>
  <g id="Flickr_-_white">
    <path class="st63" d="M134.3,96.5c2.5,0,4.5-2,4.5-4.5s-2-4.5-4.5-4.5-4.5,2-4.5,4.5,2,4.5,4.5,4.5"/>
    <path class="st63" d="M144.7,96.5c2.5,0,4.5-2,4.5-4.5s-2-4.5-4.5-4.5-4.5,2-4.5,4.5,2,4.5,4.5,4.5"/>
  </g>
  <rect class="st6" x="129" y="102" width="21" height="20"/>
  <path id="LinkedIn_-_white" class="st63" d="M135.6,109.7h-3.1v9.2h3.1v-9.2ZM134.1,108.5c1.1,0,1.7-.7,1.7-1.6s-.7-1.6-1.7-1.6-1.7.7-1.7,1.6.7,1.6,1.7,1.6h0ZM146.6,118.9v-5.3c0-2.8-1.5-4.1-3.5-4.1s-2.4.9-2.8,1.5v-1.3h-3.1v9.2h3.1v-5.1c0-.3,0-.6.1-.7.2-.6.7-1.1,1.6-1.1s1.6.8,1.6,2.1v4.9h3.1-.1Z"/>
  <rect class="st28" x="129" y="122" width="21" height="20"/>
  <path id="YouTube_-_white" class="st63" d="M138.2,134.1v-4.9l4.7,2.5-4.7,2.4ZM148.3,128.4s-.2-1.2-.8-1.7c-.7-.7-1.4-.5-1.8-.5-2.4-.2-6.1,0-6.1,0h0s-3.7-.2-6.1,0c-.3,0-1.1,0-1.7.6-.5.5-.9,1.7-.9,1.7,0,0-.4,1.4-.4,2.8v1.3c0,1.4.4,2.8.4,2.8,0,0,.3,1.2.8,1.7s1.6.7,2,.7c1.4.1,6,.2,6,.2,0,0,3.7,0,6.1-.2.3,0,1.1,0,1.8-.7s.8-1.7.8-1.7c0,0,.3-1.4.3-2.8v-1.3c0-1.4-.3-2.8-.3-2.8"/>
  <rect class="st17" x="129" y="142" width="21" height="20"/>
  <rect class="st33" x="129" y="162" width="21" height="20"/>
  <g id="Instagram_-_white">
    <path class="st63" d="M139.5,163.4h-3.5c-.9,0-1.5.2-2.1.4s-1,.5-1.5,1-.8,1-1,1.5-.4,1.2-.4,2.1v7c0,.9.2,1.5.4,2.1s.5,1,1,1.5,1,.8,1.5,1,1.2.4,2.1.4h7c.9,0,1.5-.2,2.1-.4s1-.5,1.5-1,.8-1,1-1.5.4-1.2.4-2.1v-7c0-.9-.2-1.5-.4-2.1s-.5-1-1-1.5-1-.8-1.5-1-1.2-.4-2.1-.4h-3.5M139.5,165h3.5c.8,0,1.3.2,1.6.3.4.2.7.3,1,.6s.5.6.6,1c.1.3.3.8.3,1.6v7c0,.8-.2,1.3-.3,1.6-.2.4-.3.7-.6,1s-.6.5-1,.6c-.3.1-.8.3-1.6.3h-7c-.8,0-1.3-.2-1.6-.3-.4-.2-.7-.3-1-.6s-.5-.6-.6-1c-.1-.3-.3-.8-.3-1.6v-7c0-.8.2-1.3.3-1.6.2-.4.3-.7.6-1s.6-.5,1-.6c.3-.1.8-.3,1.6-.3h3.5"/>
    <path class="st63" d="M139.5,174.9c-1.6,0-2.9-1.3-2.9-2.9s1.3-2.9,2.9-2.9,2.9,1.3,2.9,2.9-1.3,2.9-2.9,2.9M139.5,167.6c-2.4,0-4.4,2-4.4,4.4s2,4.4,4.4,4.4,4.4-2,4.4-4.4-2-4.4-4.4-4.4"/>
    <path class="st63" d="M145.1,167.4c0,.6-.5,1-1,1s-1-.5-1-1,.5-1,1-1,1,.5,1,1"/>
  </g>
  <rect class="st28" x="129" y="182" width="21" height="20"/>
  <path id="Pinterest_-_white" class="st63" d="M139.5,183.7c-4.5,0-8.1,3.7-8.1,8.3s2,6.3,4.8,7.6c0-.6,0-1.3.1-1.9.2-.7,1-4.5,1-4.5,0,0-.3-.5-.3-1.3,0-1.2.7-2.1,1.6-2.1s1.1.6,1.1,1.2-.5,1.9-.7,2.9c-.2.9.4,1.6,1.3,1.6,1.5,0,2.6-2,2.6-4.4s-1.2-3.2-3.4-3.2-4,1.9-4,4,.2,1.2.5,1.6c.1.2.2.3.1.5,0,.2-.1.5-.2.7,0,.2-.2.3-.4.2-1.1-.5-1.7-1.7-1.7-3.2,0-2.4,1.9-5.2,5.8-5.2s5.1,2.3,5.1,4.8-1.8,5.7-4.4,5.7-1.7-.5-2-1c0,0-.5,1.9-.6,2.3-.2.6-.5,1.3-.8,1.8.7.2,1.5.3,2.3.3,4.5,0,8.1-3.7,8.1-8.3s-3.6-8.3-8.1-8.3"/>
  <rect class="st35" x="129" y="202" width="21" height="20"/>
  <path id="Reddit_-_white1" class="st63" d="M147.9,216.4h0c-1.6-.4-2.8-1.4-3.6-3.2-.2-.6,0-.9.4-1.1.1,0,.3-.1.5-.2h.4c.1,0,.3-.1.4-.2.3-.2.4-.3.3-.5,0-.1-.2-.3-.5-.4h-.4s-.2,0-.2.1h-.9c-.1,0-.2-.1-.2-.3v-2.3c0-1.2-.5-2.2-1.5-3-.8-.6-1.8-1-3-1s-1.9.3-2.7.8c-1.2.8-1.8,1.9-1.8,3.3v2.2c0,.3-.1.4-.4.5h-.4c-.2,0-.3,0-.5-.2h-.2c-.2-.1-.6,0-.7.2-.1.3.2.5.3.5s.3.1.4.2h.4c.2,0,.4.2.5.3.3.2.4.5.3.9-.1.3-.3.7-.5,1-.8,1.3-1.9,2.1-3.2,2.4h-.3v.2c.4.4.8.5,1,.5h.5c.2,0,.4,0,.6.1,0,0,.2.1.3.2v.2h0c0,.4.1.6.4.6h.4c1.1-.2,2,0,2.7.6,0,0,.2.1.3.2,0,0,.1,0,.2.1.6.4,1.3.7,2,.7h.8c.7-.1,1.2-.5,1.6-.9.7-.6,1.6-.8,2.7-.6h.4c.3,0,.4-.2.5-.6,0-.4.1-.4.5-.5.5-.1,1-.3,1.4-.4.1,0,.2-.1.3-.2h.1v-.2h.4Z"/>
  <rect class="st33" x="129" y="222" width="21" height="20"/>
  <g id="Google_x2B_-_white">
    <path class="st63" d="M141.4,231v1.1c0,3-2,5.2-5.1,5.2s-5.3-2.4-5.3-5.3,2.4-5.3,5.3-5.3,2.6.5,3.5,1.4l-1.5,1.5h0c-.6-.5-1.3-.8-2.1-.8-1.8,0-3.2,1.5-3.2,3.2s1.4,3.2,3.2,3.2,2.7-.9,2.9-2.2h-2.9v-2.1h5.2Z"/>
    <polygon class="st63" points="146.2 230.9 146.2 229.2 144.8 229.2 144.8 230.9 143 230.9 143 232.4 144.8 232.4 144.8 234.1 146.2 234.1 146.2 232.4 148 232.4 148 230.9 146.2 230.9"/>
  </g>
  <rect class="st17" x="129" y="242" width="21" height="20"/>
  <g id="E-mail_-_white">
    <path class="st63" d="M140.8,253.7c-.3.3-.8.4-1.3.4s-1-.1-1.3-.4l-.9-.9-4.4,4.2h13.3l-4.4-4.2c-.5.5-.9.9-1,.9"/>
    <path class="st63" d="M146.1,247h-13.4s5.8,5.5,6,5.7.4.3.7.3h0c.3,0,.5-.2.7-.3.2-.2,6-5.7,6-5.7"/>
    <polygon class="st63" points="132 256.2 136.4 252 132 247.8 132 256.2"/>
    <polygon class="st63" points="142.6 252 147 256.2 147 247.8 142.6 252"/>
  </g>
  <rect class="st35" x="129" y="262" width="21" height="20"/>
  <path id="Vimeo_-_white" class="st41" d="M140.5,269.3c0-.2.1-.4.2-.5.3-.7.6-1.3,1.1-1.8s1.2-.8,1.9-.9h1.3c.7.2,1.1.7,1.3,1.3.2.8.2,1.6,0,2.4-.2.7-.6,1.4-1,2.1-1,1.6-2.1,3.1-3.4,4.4s-1.1,1-1.7,1.4c-.4.2-.8.4-1.3.4s-.8,0-1.2-.4c-.3-.3-.6-.7-.8-1.1-.3-.5-.4-1.1-.6-1.7-.3-1.2-.7-2.5-1-3.7-.1-.4-.3-.8-.5-1.1,0-.2-.2-.3-.3-.4,0,0-.1-.1-.2-.2h-.4c-.3.2-.6.4-.9.6h-.1c-.2-.2-.4-.5-.6-.7h0c.9-.8,1.7-1.6,2.6-2.3.3-.2.6-.5,1-.6.8-.3,1.5-.1,2,.6.2.4.4.8.4,1.2.1.7.2,1.5.4,2.2.1.9.3,1.8.6,2.6,0,.2.1.4.2.5,0,0,.1.2.2.2.1.1.3.1.5,0,.2,0,.3-.2.4-.4.6-.8,1.1-1.6,1.5-2.5.1-.3.2-.7.1-1,0-.4-.3-.7-.8-.7s-.7,0-1.1.2h-.1.3Z"/>
  <rect class="st21" x="97" y="42" width="11" height="8"/>
  <polygon id="Arrow_icon_-_white" class="st63" points="102.5 49.4 107.5 43.9 107.5 42.6 107.5 42.6 102.5 48.1 97.5 42.6 97.5 43.9 102.5 49.4"/>
  <rect class="st5" x="97" y="50" width="11" height="8"/>
  <polygon id="Arrow_icon_-_dark" class="st38" points="102.5 57.4 107.5 51.9 107.5 50.6 107.5 50.6 102.5 56.1 97.5 50.6 97.5 51.9 102.5 57.4"/>
  <rect class="st36" x="97" y="58" width="11" height="8"/>
  <polygon id="Arrow_icon_-_blue" class="st43" points="102.5 65.4 107.5 59.9 107.5 58.6 107.5 58.6 102.5 64.1 97.5 58.6 97.5 59.9 102.5 65.4"/>
  <rect class="st14" x="97" y="66" width="11" height="8"/>
  <polygon id="Arrow_icon_-_grey" class="st75" points="102.5 73.4 107.5 67.9 107.5 66.6 107.5 66.6 102.5 72.1 97.5 66.6 97.5 67.9 102.5 73.4"/>
  <rect class="st22" x="45" y="110" width="20" height="15"/>
  <g id="PDF_icon">
    <path class="st63" d="M50.7,113.9c.4,0,.7,0,.9.2s.5.3.6.5.3.4.3.7v.8c0,.3,0,.7-.2,1s-.3.5-.5.7-.4.3-.7.4h-1.7v2.8h-1.4v-7.1h2.7ZM50.3,117.2c.3,0,.5,0,.7-.3s.3-.4.3-.8,0-.6-.2-.8c-.2-.2-.4-.3-.8-.3h-.6v2.2h.6Z"/>
    <path class="st63" d="M55.4,113.9c.5,0,.9,0,1.2.2s.5.4.7.7c.2.3.3.7.3,1.1v3c0,.5-.2.8-.4,1.1-.2.3-.4.5-.8.7s-.7.2-1.2.2h-2.3v-7.1h2.6,0ZM55.1,120h.6c.2,0,.3-.2.4-.4,0-.2.2-.5.2-.8v-2.3c0-.3,0-.6-.2-.8s-.2-.4-.4-.5-.4-.2-.7-.2h-.6v5s.7,0,.7,0Z"/>
    <path class="st63" d="M62.3,113.9v1.2h-2.5v1.7h2.4v1.2h-2.4v3.1h-1.4v-7.1h4,0Z"/>
  </g>
  <rect class="st34" x="45" y="125" width="20" height="15"/>
  <g id="Document_icon">
    <path class="st63" d="M49.9,128.9c.5,0,.9,0,1.2.2s.5.4.7.7.3.7.3,1.1v3c0,.5-.2.8-.4,1.1s-.4.5-.8.7c-.3.1-.7.2-1.2.2h-2.3v-7.1h2.6,0ZM49.7,135c.3,0,.5,0,.6-.1.2,0,.3-.2.4-.4s.2-.5.2-.8v-2.3c0-.3,0-.6-.2-.8,0-.2-.2-.4-.4-.5s-.4-.2-.7-.2h-.6v5h.7Z"/>
    <path class="st63" d="M52.8,131c0-.5.2-.8.3-1.2.2-.3.4-.6.7-.8s.8-.3,1.3-.3,1,0,1.3.3c.3.2.6.4.7.8.2.3.3.7.3,1.2v3c0,.5-.2.8-.3,1.2-.2.3-.4.6-.7.8s-.8.3-1.3.3-1,0-1.3-.3c-.3-.2-.6-.4-.7-.8-.2-.3-.3-.7-.3-1.2v-3ZM54.2,133.7v.8c0,.2.2.4.3.5,0,0,.3.1.5.1s.4,0,.5-.1c0,0,.2-.2.3-.5s0-.5,0-.8v-3.2c0-.2-.2-.4-.3-.5s-.3-.1-.5-.1-.4,0-.5.1-.2.3-.3.5v3.2Z"/>
    <path class="st63" d="M60.9,130.2c0-.2-.3-.4-.7-.4s-.3,0-.4.1c0,0-.2.3-.3.5v3.5c0,.3,0,.6.2.8,0,.2.2.3.3.4h.8s.2-.1.3-.3c0-.1,0-.3.2-.6v-.9h1.4v1.1c0,.3-.2.6-.3.9-.2.3-.4.5-.7.6s-.7.2-1.2.2-1,0-1.3-.3c-.3-.2-.6-.4-.7-.8-.2-.3-.3-.7-.3-1.2v-3c0-.5.2-.8.3-1.2.2-.3.4-.6.7-.8s.8-.3,1.3-.3.9,0,1.2.2.5.4.7.6c0,.3.2.5.3.8v.8h-1.4c0-.5,0-.9-.2-1.1v.4h-.2Z"/>
  </g>
  <rect class="st31" y="92" width="18" height="18"/>
  <path id="Footer_expand_-_dark" class="st61" d="M9,93v16M17,101H1"/>
  <rect class="st19" x="18" y="92" width="18" height="18"/>
  <path id="Footer_collapse_-_dark" class="st49" d="M35,101h-16"/>
  <rect class="st31" x="36" y="92" width="18" height="18"/>
  <path id="Footer_expand_-_white" class="st47" d="M45,93v16M53,101h-16"/>
  <rect class="st19" x="54" y="92" width="18" height="18"/>
  <path id="Footer_collapse_-_white" class="st51" d="M71,101h-16"/>
  <rect class="st20" x="82" y="78" width="9" height="9"/>
  <path id="Expand_-_white" class="st51" d="M86.5,78v9M91,82.5h-9"/>
  <rect class="st31" x="82" y="87" width="9" height="9"/>
  <path id="Expand_-_dark" class="st52" d="M86.5,87v9M91,91.5h-9"/>
  <rect class="st26" x="82" y="96" width="9" height="9"/>
  <path id="Expand_-_blue" class="st54" d="M86.5,96v9M91,100.5h-9"/>
  <rect class="st36" x="82" y="105" width="9" height="9"/>
  <path id="Expand_-_grey" class="st56" d="M86.5,105v9M91,109.5h-9"/>
  <rect class="st36" x="91" y="78" width="9" height="9"/>
  <path id="Collapse_-_white" class="st51" d="M100,82.5h-9"/>
  <rect class="st1" x="91" y="87" width="9" height="9"/>
  <path id="Collapse_-_dark" class="st52" d="M100,91.5h-9"/>
  <rect class="st20" x="91" y="96" width="9" height="9"/>
  <path id="Collapse_-_blue" class="st54" d="M100,100.5h-9"/>
  <rect class="st31" x="91" y="105" width="9" height="9"/>
  <path id="Collapse_-_grey" class="st56" d="M100,109.5h-9"/>
  <rect class="st0" x="103" y="78" width="5" height="9"/>
  <path id="Breadcrumb_separator" class="st38" d="M103.7,87l3.5-9h.8l-3.5,9h-.8Z"/>
  <rect class="st24" y="110" width="45" height="35"/>
  <path id="Cite_-_grey" class="st62" d="M20.5,111.6c-1.7.9-3.6,2-5.8,3.3s-4.3,2.9-6.4,4.9c-2.1,2-3.8,4.3-5.2,6.9-1.4,2.6-2.1,5.4-2.1,8.6s.6,4.4,1.9,5.9c1.3,1.5,3.2,2.2,5.9,2.2s4.5-.9,5.9-2.5c1.4-1.7,2.2-3.5,2.2-5.4s-.5-2.8-1.6-4-2.8-1.8-5.3-1.8h-2.5c.6-2,1.4-3.7,2.2-5,.9-1.3,2-2.5,3.3-3.6,1.1-.9,2.5-1.9,4.1-2.8,1.6-1,3.3-1.9,5.1-2.8l-1.8-3.7v-.2h.1ZM42.2,111.6c-1.7.9-3.6,2-5.8,3.3s-4.3,2.9-6.4,4.9-3.8,4.3-5.2,6.9-2.1,5.4-2.1,8.6.6,4.4,1.9,5.9,3.2,2.2,5.9,2.2,4.5-.9,5.9-2.5c1.4-1.7,2.2-3.5,2.2-5.4s-.5-2.8-1.6-4-2.8-1.8-5.3-1.8h-2.5c.6-2,1.4-3.7,2.2-5,.9-1.3,2-2.5,3.3-3.6,1.1-.9,2.5-1.9,4.1-2.8,1.6-1,3.3-1.9,5.1-2.8l-1.8-3.7v-.2h0Z"/>
  <rect class="st4" y="145" width="45" height="35"/>
  <path id="Cite_-_blue" class="st43" d="M20.5,146.6c-1.7.9-3.6,2-5.8,3.3s-4.3,2.9-6.4,4.9c-2.1,2-3.8,4.3-5.2,6.9-1.4,2.6-2.1,5.4-2.1,8.6s.6,4.4,1.9,5.9c1.3,1.5,3.2,2.2,5.9,2.2s4.5-.9,5.9-2.5c1.4-1.7,2.2-3.5,2.2-5.4s-.5-2.8-1.6-4-2.8-1.8-5.3-1.8h-2.5c.6-2,1.4-3.7,2.2-5,.9-1.3,2-2.5,3.3-3.6,1.1-.9,2.5-1.9,4.1-2.8,1.6-1,3.3-1.9,5.1-2.8l-1.8-3.7v-.2h.1ZM42.2,146.6c-1.7.9-3.6,2-5.8,3.3s-4.3,2.9-6.4,4.9-3.8,4.3-5.2,6.9c-1.4,2.6-2.1,5.4-2.1,8.6s.6,4.4,1.9,5.9,3.2,2.2,5.9,2.2,4.5-.9,5.9-2.5c1.4-1.7,2.2-3.5,2.2-5.4s-.5-2.8-1.6-4-2.8-1.8-5.3-1.8h-2.5c.6-2,1.4-3.7,2.2-5,.9-1.3,2-2.5,3.3-3.6,1.1-.9,2.5-1.9,4.1-2.8,1.6-1,3.3-1.9,5.1-2.8l-1.8-3.7v-.2h0Z"/>
  <rect class="st3" x="65" y="110" width="12" height="12"/>
  <path id="Tag_-_grey" class="st71" d="M70,110h-5v4.9l6.4,6.4,5-4.9-6.4-6.4ZM68.8,113.8c-.6.6-1.5.6-2,0-.6-.6-.6-1.5,0-2s1.5-.6,2,0c.6.6.6,1.5,0,2Z"/>
  <rect class="st27" x="65" y="122" width="12" height="12"/>
  <path id="Tag_-_white" class="st63" d="M70,122h-5v4.9l6.4,6.4,5-4.9s-6.4-6.4-6.4-6.4ZM68.8,125.8c-.6.6-1.5.6-2,0-.6-.6-.6-1.5,0-2s1.5-.6,2,0c.6.6.6,1.5,0,2Z"/>
  <rect class="st3" x="100" y="87" width="8" height="9"/>
  <polygon id="Tag_video" class="st63" points="100 87 100 96 108.1 91.5 100 87"/>
  <rect class="st11" x="87" y="174" width="20" height="14"/>
  <g id="Tag_infographic">
    <path class="st63" d="M104.6,188h-15.2c-1.9,0-2.4-1.7-2.4-2.6v-8.9c0-2,1.6-2.6,2.4-2.6h15.2c1.9,0,2.4,1.7,2.4,2.6v8.9c0,2-1.6,2.6-2.4,2.6ZM89.4,175c-.2,0-1.4,0-1.4,1.5v8.9c0,.3,0,1.5,1.4,1.5h15.2c.2,0,1.4,0,1.4-1.5v-8.9c0-.3,0-1.5-1.4-1.5h-15.2Z"/>
    <rect class="st63" x="89.8" y="176.6" width="2.6" height="8.7"/>
    <rect class="st63" x="93.6" y="178.5" width="2.9" height="6.8"/>
    <rect class="st63" x="101.3" y="180.5" width="2.9" height="4.8"/>
    <rect class="st63" x="97.5" y="182.4" width="2.9" height="2.9"/>
  </g>
  <rect class="st25" x="77" y="114" width="21" height="20"/>
  <g id="Contact_E-mail_-_grey">
    <path class="st71" d="M88.8,125.7c-.3.3-.8.4-1.3.4s-1,0-1.3-.4l-.9-.9-4.4,4.2h13.3l-4.4-4.2c-.5.5-.9.9-1,.9"/>
    <path class="st71" d="M94.1,119h-13.4s5.8,5.5,6,5.7.4.3.7.3h0c.3,0,.5-.2.7-.3.2-.2,6-5.7,6-5.7"/>
    <polygon class="st71" points="80 128.2 84.4 124 80 119.8 80 128.2"/>
    <polygon class="st71" points="90.6 124 95 128.2 95 119.8 90.6 124"/>
  </g>
  <rect class="st11" x="87" y="134" width="21" height="20"/>
  <polygon id="Video_icon" class="st63" points="90 135.7 90 152.3 105 144 90 135.7"/>
  <rect class="st29" x="87" y="154" width="21" height="20"/>
  <g id="Infographic">
    <rect class="st63" x="88.6" y="156.4" width="3.2" height="15.2"/>
    <rect class="st63" x="93.4" y="159.8" width="3.6" height="11.8"/>
    <rect class="st63" x="102.8" y="163.2" width="3.6" height="8.5"/>
    <rect class="st63" x="98.1" y="166.5" width="3.6" height="5.1"/>
  </g>
  <rect class="st12" x="63" y="140" width="13" height="20"/>
  <g id="Contact_Mobile">
    <path class="st45" d="M72.4,140.3h-5.8c-1.6,0-2.8,1.3-2.8,2.8v13.6c0,1.6,1.3,2.8,2.8,2.8h5.8c1.6,0,2.8-1.3,2.8-2.8v-13.6c0-1.6-1.3-2.8-2.8-2.8M72.4,141.2c1.1,0,2,.9,2,2v13.6c0,1.1-.9,2-2,2h-5.8c-1.1,0-2-.9-2-2v-13.6c0-1.1.9-2,2-2h5.8Z"/>
    <path class="st45" d="M69.4,155.9c-.4,0-.8.4-.8.8s.4.8.8.8.8-.4.8-.8-.4-.8-.8-.8M69.4,158.3c-.9,0-1.6-.7-1.6-1.6s.7-1.6,1.6-1.6,1.6.7,1.6,1.6-.7,1.6-1.6,1.6"/>
    <path class="st45" d="M66.3,153.5h6.5v-9.6h-6.5v9.6ZM73.6,154.3h-8.1v-11.2h8.1v11.2Z"/>
  </g>
  <rect class="st29" x="45" y="156" width="18" height="17"/>
  <path id="Contact_Phone" class="st45" d="M46.7,160c0,2,2.1,5.9,4,7.8,1.9,1.9,5.8,3.9,7.8,4,1.4-.9,2.8-2.2,2.8-2.7s-2.1-2.9-3.2-2.9-.2,0-.2,0c-.4.4-.6.7-.8,1-.3.6-.7,1.1-1.6,1.1s-2.3-1.1-3.4-2.2c-1.1-1.1-2.2-2.2-2.2-3.4s.6-1.2,1.1-1.6c.3-.2.7-.4,1-.8.2-.2,0-.5,0-.7-.5-1.3-2.3-2.7-2.8-2.7s-1.7,1.4-2.7,2.8M58.7,172.6h0c-2.1,0-6.4-2.1-8.5-4.2-2.1-2.1-4.2-6.4-4.2-8.5h0v-.2c.5-.8,2.3-3.3,3.4-3.3s2.9,1.8,3.5,3.2c.4.9,0,1.3,0,1.6-.4.4-.8.7-1.2.9-.6.3-.7.5-.7.9,0,.9,1,1.8,1.9,2.8,1,.9,1.9,1.9,2.8,1.9s.5-.2.9-.7c.2-.3.5-.8.9-1.2s.5-.3.8-.3c1.5,0,4,2.5,4,3.7s-2.5,2.9-3.3,3.4h-.3Z"/>
  <rect class="st16" x="45" y="140" width="18" height="16"/>
  <rect class="st16" x="63" y="160" width="20" height="19"/>
  <g id="Contact_Fax">
    <path class="st45" d="M77.5,172.3h-9v-12h9v12ZM69.4,171.9h7.2v-10.6h-7.2v10.6Z"/>
    <path class="st45" d="M78.5,169.1h-1.6v.9h1.2l2.9,2.9v4.8h-16v-4.8l2.9-2.9h1.3v-.9h-1.7l-3.5,3.5v5.1c0,.5.4,1,1,1h16c.5,0,1-.4,1-1v-5.1s-3.5-3.5-3.5-3.5Z"/>
    <polygon class="st45" points="77.9 170.8 77.2 170.8 77.2 171.3 77.7 171.3 78.4 171.9 67.5 171.9 68.1 171.3 68.9 171.3 68.9 170.8 67.9 170.8 66.4 172.3 79.4 172.3 77.9 170.8"/>
    <rect class="st45" x="69.9" y="162.2" width="6.1" height=".5"/>
    <rect class="st45" x="69.9" y="163.6" width="6.1" height=".5"/>
    <rect class="st45" x="69.9" y="165" width="6.1" height=".5"/>
    <rect class="st45" x="69.9" y="166.3" width="3.2" height=".5"/>
  </g>
  <rect class="st11" x="90" y="188" width="17" height="12"/>
  <g id="Contact_Email">
    <path class="st78" d="M106,190c0-.3,0-1-1-1h-13c-1,0-1,.7-1,1v8c0,.3,0,1,1,1h13c1,0,1-.7,1-1v-8ZM104.3,190c-1.8,2-5,4.4-5.1,4.6-.2.2-.3.4-.7.4s-.5-.2-.7-.3c0-.1-3.3-2.6-5.1-4.6h11.6,0ZM105.1,190.7v6.4l-3.4-3.2,3.4-3.3h0ZM92,197.2v-6.5l3.4,3.3-3.4,3.2ZM92.9,197.8l3.3-3.1c.6.5.9.9,1,1,.3.3.9.4,1.3.4s1-.1,1.3-.4c0,0,.4-.5,1-1l3.3,3.1h-11.2Z"/>
  </g>
  <g id="Infographic_button__x28_collapse_x29_">
    <polygon points="36 191 36 181 34 181 34 186.8 27.1 181 26 181 26 182.8 33 189 26 189 26 191 36 191"/>
    <polygon points="42 191 42 181 44 181 44 186.8 50.9 181 52 181 52 182.8 45 189 52 189 52 191 42 191"/>
    <polygon points="36 197 36 207 34 207 34 200.8 27.1 207 26 207 26 204.8 33 199 26 199 26 197 36 197"/>
    <polygon points="42 197 42 207 44 207 44 200.8 50.9 207 52 207 52 204.8 45 199 52 199 52 197 42 197"/>
  </g>
  <g id="Infographic_button__x28_expand_x29_">
    <polygon class="st63" points="0 207 0 217 2 217 2 211.2 8.9 217 10 217 10 215.2 3 209 10 209 10 207 0 207"/>
    <polygon class="st63" points="26 207 26 217 24 217 24 211.2 17.1 217 16 217 16 215.2 23 209 16 209 16 207 26 207"/>
    <polygon class="st63" points="0 233 0 223 2 223 2 229.2 8.9 223 10 223 10 225.2 3 231 10 231 10 233 0 233"/>
    <polygon class="st63" points="26 233 26 223 24 223 24 229.2 17.1 223 16 223 16 225.2 23 231 16 231 16 233 26 233"/>
  </g>
  <g id="Infographic_button__x28_expand_x29_1">
    <polygon points="0 181 0 191 2 191 2 185.2 8.9 191 10 191 10 189.2 3 183 10 183 10 181 0 181"/>
    <polygon points="26 181 26 191 24 191 24 185.2 17.1 191 16 191 16 189.2 23 183 16 183 16 181 26 181"/>
    <polygon points="0 207 0 197 2 197 2 203.2 8.9 197 10 197 10 199.2 3 205 10 205 10 207 0 207"/>
    <polygon points="26 207 26 197 24 197 24 203.2 17.1 197 16 197 16 199.2 23 205 16 205 16 207 26 207"/>
  </g>
  <g id="Infographic_button__x28_collapse_x29_1">
    <polygon class="st63" points="36 217 36 207 34 207 34 212.8 27.1 207 26 207 26 208.8 33 215 26 215 26 217 36 217"/>
    <polygon class="st63" points="42 217 42 207 44 207 44 212.8 50.9 207 52 207 52 208.8 45 215 52 215 52 217 42 217"/>
    <polygon class="st63" points="36 223 36 233 34 233 34 226.8 27.1 233 26 233 26 230.8 33 225 26 225 26 223 36 223"/>
    <polygon class="st63" points="42 223 42 233 44 233 44 226.8 50.9 233 52 233 52 230.8 45 225 52 225 52 223 42 223"/>
  </g>
  <rect class="st32" x="76" y="139" width="9" height="21"/>
  <g id="Slideshow_info">
    <path class="st63" d="M83,157.3l-.2.8c-.7.3-1.3.5-1.8.6-.4.1-.8.2-1.1.2-.7,0-1.1-.2-1.5-.5-.3-.3-.5-.8-.5-1.3v-.6c0-.2,0-.5.2-.8l1.3-5.2c0-.3,0-.6.2-.9v-.8c0-.5,0-.8-.2-.9-.2-.2-.5-.2-.9-.2h-.7c-.3,0-.5.1-.7.1l.2-.8c.6-.3,1.2-.5,1.7-.6s.9-.2,1.2-.2c.7,0,1.2.2,1.5.5s.5.7.5,1.3v1.4l-1.3,5.2c0,.3-.2.6-.2.9v.8c0,.5,0,.8.3,1s.5.3,1,.3h.7c.3,0,.5,0,.7-.1l-.3-.2h0ZM83.9,141.7c0,.5-.2.9-.5,1.2s-.7.5-1.1.5-.8-.2-1.1-.5c-.3-.3-.5-.7-.5-1.1s.2-.8.5-1.2c.3-.3.7-.5,1.1-.5s.8.2,1.1.5c.3.3.4.7.4,1.1h0Z"/>
  </g>
  <g id="Slideshow_button__x28_mozaic_x29_">
    <rect x="71" y="188" width="5" height="5"/>
    <rect x="71" y="195" width="5" height="5"/>
    <rect x="71" y="202" width="5" height="5"/>
    <rect x="78" y="188" width="5" height="5"/>
    <rect x="78" y="195" width="5" height="5"/>
    <rect x="78" y="202" width="5" height="5"/>
    <rect x="85" y="188" width="5" height="5"/>
    <rect x="85" y="195" width="5" height="5"/>
    <rect x="85" y="202" width="5" height="5"/>
  </g>
  <g id="Slideshow_button__x28_mozaic_x29_1">
    <rect class="st63" x="71" y="207" width="5" height="5"/>
    <rect class="st63" x="71" y="214" width="5" height="5"/>
    <rect class="st63" x="71" y="221" width="5" height="5"/>
    <rect class="st63" x="78" y="207" width="5" height="5"/>
    <rect class="st63" x="78" y="214" width="5" height="5"/>
    <rect class="st63" x="78" y="221" width="5" height="5"/>
    <rect class="st63" x="85" y="207" width="5" height="5"/>
    <rect class="st63" x="85" y="214" width="5" height="5"/>
    <rect class="st63" x="85" y="221" width="5" height="5"/>
  </g>
  <g id="Slideshow_button__x28_list_x29_">
    <g id="Slideshow_button__x28_list_x29_1">
      <rect x="52" y="195" width="5" height="5"/>
      <rect x="59" y="197" width="12" height="1"/>
      <rect x="59" y="195" width="12" height="1"/>
      <rect x="59" y="199" width="12" height="1"/>
    </g>
    <g id="Slideshow_button__x28_list_x29_2">
      <rect x="52" y="202" width="5" height="5"/>
      <rect x="59" y="204" width="12" height="1"/>
      <rect x="59" y="202" width="12" height="1"/>
      <rect x="59" y="206" width="12" height="1"/>
    </g>
    <g id="Slideshow_button__x28_list_x29_3">
      <rect x="52" y="188" width="5" height="5"/>
      <rect x="59" y="190" width="12" height="1"/>
      <rect x="59" y="188" width="12" height="1"/>
      <rect x="59" y="192" width="12" height="1"/>
    </g>
  </g>
  <g id="Slideshow_button__x28_list_x29_4">
    <g id="Slideshow_button__x28_list_x29_5">
      <rect class="st63" x="52" y="214" width="5" height="5"/>
      <rect class="st63" x="59" y="216" width="12" height="1"/>
      <rect class="st63" x="59" y="214" width="12" height="1"/>
      <rect class="st63" x="59" y="218" width="12" height="1"/>
    </g>
    <g id="Slideshow_button__x28_list_x29_6">
      <rect class="st63" x="52" y="221" width="5" height="5"/>
      <rect class="st63" x="59" y="223" width="12" height="1"/>
      <rect class="st63" x="59" y="221" width="12" height="1"/>
      <rect class="st63" x="59" y="225" width="12" height="1"/>
    </g>
    <g id="Slideshow_button__x28_list_x29_7">
      <rect class="st63" x="52" y="207" width="5" height="5"/>
      <rect class="st63" x="59" y="209" width="12" height="1"/>
      <rect class="st63" x="59" y="207" width="12" height="1"/>
      <rect class="st63" x="59" y="211" width="12" height="1"/>
    </g>
  </g>
  <rect class="st6" y="233" width="22" height="23"/>
  <g id="Form_calendar_-_blue">
    <g>
      <rect class="st66" x="1.3" y="240.1" width="19.5" height=".9"/>
      <path class="st66" d="M20.6,240.2v.7H1.4v-.7h19.3M20.8,240H1.2v1.1h19.7v-1.1h-.1Z"/>
    </g>
    <g>
      <path class="st66" d="M2.2,255.1c-.7,0-1.3-.6-1.3-1.3v-17c0-.7.6-1.3,1.3-1.3h2.4v1.7c0,.2.2.3.4.3s.4-.2.4-.3v-1.7h11.5v1.7c0,.2.2.3.4.3s.4-.2.4-.3v-1.7h2.4c.7,0,1.3.6,1.3,1.3v17c0,.7-.6,1.3-1.3,1.3H2.2ZM2.2,236.5c-.2,0-.4.2-.4.4v17c0,.2.2.4.4.4h17.7c.2,0,.4-.2.4-.4v-17c0-.2-.2-.4-.4-.4h-1.4v.8c0,.7-.6,1.2-1.3,1.2s-1.3-.6-1.3-1.2v-.8H6.1v.8c0,.7-.6,1.2-1.3,1.2s-1.3-.6-1.3-1.2v-.8h-1.5s.2,0,.2,0Z"/>
      <path class="st66" d="M19.8,235.7c.6,0,1.2.5,1.2,1.2v17c0,.6-.5,1.2-1.2,1.2H2.2c-.6,0-1.2-.5-1.2-1.2v-17c0-.6.5-1.2,1.2-1.2h2.3v1.6c0,.2.2.4.5.4s.5-.2.5-.4v-1.6h11.3v1.6c0,.2.2.4.5.4s.5-.2.5-.4v-1.6h2.3M17.1,238.5c-.6,0-1.2-.5-1.2-1.1v-.9H6v.9c0,.6-.5,1.1-1.2,1.1s-1.2-.5-1.2-1.1v-.9h-1.5c-.3,0-.5.2-.5.5v17c0,.3.2.5.5.5h17.7c.3,0,.5-.2.5-.5v-17c0-.3-.2-.5-.5-.5h-1.5v.9c0,.6-.5,1.1-1.2,1.1M19.8,235.5h-2.5v1.8c0,.1-.1.2-.3.2s-.3-.1-.3-.2v-1.8H5.1v1.8c0,.1,0,.2-.3.2s-.3-.1-.3-.2v-1.8h-2.5c-.8,0-1.4.6-1.4,1.4v17c0,.7.6,1.4,1.4,1.4h17.7c.8,0,1.4-.6,1.4-1.4v-17c0-.7-.6-1.4-1.4-1.4h0ZM18.5,236.6h1.3c.1,0,.3.1.3.3v17c0,.1-.1.3-.3.3H2.2s-.3-.1-.3-.3v-17c0-.1,0-.3.3-.3h1.3v.7c0,.7.6,1.3,1.4,1.3s1.4-.6,1.4-1.3v-.7h9.5v.7c0,.7.6,1.3,1.4,1.3s1.4-.6,1.4-1.3v-.7h-.1Z"/>
    </g>
    <g>
      <path class="st66" d="M5.2,236.2v-1.1c0-.2-.2-.3-.4-.3s-.4.2-.4.3v1.1h-.9v-1.1c0-.7.6-1.2,1.3-1.2s1.3.6,1.3,1.2v1.1s-.9,0-.9,0Z"/>
      <path class="st66" d="M4.9,234c.6,0,1.2.5,1.2,1.1v1h-.7v-1c0-.2-.2-.4-.5-.4s-.5.2-.5.4v1h-.7v-1c0-.6.5-1.1,1.2-1.1M4.9,233.8c-.7,0-1.4.6-1.4,1.3v1.2h1.1v-1.2c0-.1,0-.2.3-.2s.3.1.3.2v1.2h1.1v-1.2c0-.7-.6-1.3-1.4-1.3h0Z"/>
    </g>
    <g>
      <path class="st66" d="M17.5,236.2v-1.1c0-.2-.2-.3-.4-.3s-.4.2-.4.3v1.1h-.9v-1.1c0-.7.6-1.2,1.3-1.2s1.3.6,1.3,1.2v1.1h-.9Z"/>
      <path class="st66" d="M17.1,234c.6,0,1.2.5,1.2,1.1v1h-.7v-1c0-.2-.2-.4-.5-.4s-.5.2-.5.4v1h-.7v-1c0-.6.5-1.1,1.2-1.1M17.1,233.8c-.7,0-1.4.6-1.4,1.3v1.2h1.1v-1.2c0-.1.1-.2.3-.2s.3.1.3.2v1.2h1.1v-1.2c0-.7-.6-1.3-1.4-1.3h0Z"/>
    </g>
  </g>
  <rect class="st13" x="22" y="233" width="22" height="23"/>
  <g id="Form_calendar_-_grey">
    <g>
      <rect class="st71" x="23.3" y="240.1" width="19.5" height=".9"/>
      <path class="st71" d="M42.6,240.2v.7h-19.3v-.7h19.3M42.8,240h-19.7v1.1h19.7v-1.1h0Z"/>
    </g>
    <g>
      <path class="st71" d="M24.2,255.1c-.7,0-1.3-.6-1.3-1.3v-17c0-.7.6-1.3,1.3-1.3h2.4v1.7c0,.2.2.3.4.3s.4-.2.4-.3v-1.7h11.5v1.7c0,.2.2.3.4.3s.4-.2.4-.3v-1.7h2.4c.7,0,1.3.6,1.3,1.3v17c0,.7-.6,1.3-1.3,1.3h-17.9ZM24.2,236.5c-.2,0-.4.2-.4.4v17c0,.2.2.4.4.4h17.7c.2,0,.4-.2.4-.4v-17c0-.2-.2-.4-.4-.4h-1.4v.8c0,.7-.6,1.2-1.3,1.2s-1.3-.6-1.3-1.2v-.8h-9.7v.8c0,.7-.6,1.2-1.3,1.2s-1.3-.6-1.3-1.2v-.8h-1.4Z"/>
      <path class="st71" d="M41.8,235.7c.6,0,1.2.5,1.2,1.2v17c0,.6-.5,1.2-1.2,1.2h-17.7c-.6,0-1.2-.5-1.2-1.2v-17c0-.6.5-1.2,1.2-1.2h2.3v1.6c0,.2.2.4.5.4s.5-.2.5-.4v-1.6h11.3v1.6c0,.2.2.4.5.4s.5-.2.5-.4v-1.6h2.3M39.1,238.5c-.6,0-1.2-.5-1.2-1.1v-.9h-9.9v.9c0,.6-.5,1.1-1.2,1.1s-1.2-.5-1.2-1.1v-.9h-1.5c-.3,0-.5.2-.5.5v17c0,.3.2.5.5.5h17.7c.3,0,.5-.2.5-.5v-17c0-.3-.2-.5-.5-.5h-1.5v.9c0,.6-.5,1.1-1.2,1.1M41.8,235.5h-2.5v1.8c0,.1,0,.2-.3.2s-.3-.1-.3-.2v-1.8h-11.8v1.8c0,.1-.1.2-.3.2s-.3-.1-.3-.2v-1.8h-2.5c-.8,0-1.4.6-1.4,1.4v17c0,.7.6,1.4,1.4,1.4h17.7c.8,0,1.4-.6,1.4-1.4v-17c0-.7-.6-1.4-1.4-1.4,0,0,.3,0,.3,0ZM40.5,236.6h1.3s.3.1.3.3v17c0,.1,0,.3-.3.3h-17.7c-.1,0-.3-.1-.3-.3v-17c0-.1.1-.3.3-.3h1.3v.7c0,.7.6,1.3,1.4,1.3s1.4-.6,1.4-1.3v-.7h9.5v.7c0,.7.6,1.3,1.4,1.3s1.4-.6,1.4-1.3v-.7h0Z"/>
    </g>
    <g>
      <path class="st71" d="M27.2,236.2v-1.1c0-.2-.2-.3-.4-.3s-.4.2-.4.3v1.1h-.9v-1.1c0-.7.6-1.2,1.3-1.2s1.3.6,1.3,1.2v1.1h-.9Z"/>
      <path class="st71" d="M26.9,234c.6,0,1.2.5,1.2,1.1v1h-.7v-1c0-.2-.2-.4-.5-.4s-.5.2-.5.4v1h-.7v-1c0-.6.5-1.1,1.2-1.1M26.9,233.8c-.7,0-1.4.6-1.4,1.3v1.2h1.1v-1.2c0-.1.1-.2.3-.2s.3.1.3.2v1.2h1.1v-1.2c0-.7-.6-1.3-1.4-1.3h0Z"/>
    </g>
    <g>
      <path class="st71" d="M39.5,236.2v-1.1c0-.2-.2-.3-.4-.3s-.4.2-.4.3v1.1h-.9v-1.1c0-.7.6-1.2,1.3-1.2s1.3.6,1.3,1.2v1.1s-.9,0-.9,0Z"/>
      <path class="st71" d="M39.1,234c.6,0,1.2.5,1.2,1.1v1h-.7v-1c0-.2-.2-.4-.5-.4s-.5.2-.5.4v1h-.7v-1c0-.6.5-1.1,1.2-1.1M39.1,233.8c-.7,0-1.4.6-1.4,1.3v1.2h1.1v-1.2c0-.1,0-.2.3-.2s.3.1.3.2v1.2h1.1v-1.2c0-.7-.6-1.3-1.4-1.3h0Z"/>
    </g>
  </g>
  <rect class="st6" x="44" y="233" width="22" height="23"/>
  <g id="Form_calendar_-_white">
    <rect class="st63" x="45.4" y="240.2" width="19.3" height=".7"/>
    <path class="st63" d="M46.2,236.4c-.3,0-.5.2-.5.5v17c0,.3.2.5.5.5h17.7c.3,0,.5-.2.5-.5v-17c0-.3-.2-.5-.5-.5h-1.5v.9c0,.6-.5,1.1-1.2,1.1s-1.2-.5-1.2-1.1v-.9h-9.9v.9c0,.6-.5,1.1-1.2,1.1s-1.2-.5-1.2-1.1v-.9h-1.6.1ZM63.8,255h-17.7c-.6,0-1.2-.5-1.2-1.2v-17c0-.6.5-1.2,1.2-1.2h2.3v1.6c0,.2.2.4.5.4s.5-.2.5-.4v-1.6h11.3v1.6c0,.2.2.4.5.4s.5-.2.5-.4v-1.6h2.3c.6,0,1.2.5,1.2,1.2v17c0,.6-.5,1.2-1.2,1.2,0,0-.2,0-.2,0Z"/>
    <path class="st63" d="M50,236.1h-.7v-1c0-.2-.2-.4-.5-.4s-.5.2-.5.4v1h-.7v-1c0-.6.5-1.1,1.2-1.1s1.2.5,1.2,1.1v1h0Z"/>
    <path class="st63" d="M62.3,236.1h-.7v-1c0-.2-.2-.4-.5-.4s-.5.2-.5.4v1h-.7v-1c0-.6.5-1.1,1.2-1.1s1.2.5,1.2,1.1v1Z"/>
  </g>
  <rect id="_x3C_Path_x3E_" class="st15" x="66" y="233" width="20" height="17"/>
  <path id="Form_error" class="st63" d="M84.7,247.2l-7.7-12.4s-1-1.7-2.1,0l-7.7,12.5s-1,1.8.9,1.8h15.6s2-.1.9-1.8h0ZM75,238.2c0-.7.5-1.2,1-1.2s1,.6,1,1.2v4.4c0,.7-.4,1.2-1,1.2s-1-.5-1-1.2v-4.4ZM77,245.5c0,.6-.4,1-1,1s-1-.4-1-1v-.2c0-.6.4-1,1-1s1,.4,1,1v.2Z"/>
  <rect class="st11" y="256" width="22" height="23"/>
  <polygon id="Streaming_alert_-_white" class="st55" points="3 276.4 19 267.5 3 258.6 3 276.4"/>
  <rect class="st18" x="22" y="256" width="22" height="23"/>
  <polygon id="Streaming_alert_-_blue" class="st58" points="25 276.4 41 267.5 25 258.6 25 276.4"/>
  <rect class="st18" x="90" y="200" width="12" height="12"/>
  <g id="Close_-_grey1">
    <line class="st53" x1="101" y1="201" x2="91" y2="211"/>
    <line class="st53" x1="91" y1="201" x2="101" y2="211"/>
  </g>
  <rect class="st11" x="90" y="212" width="12" height="12"/>
  <g id="Close_-_white1">
    <line class="st50" x1="101" y1="213" x2="91" y2="223"/>
    <line class="st50" x1="91" y1="213" x2="101" y2="223"/>
  </g>
  <rect class="st2" x="90" y="224" width="12" height="12"/>
  <g id="Close_-_white2">
    <line class="st59" x1="101" y1="225" x2="91" y2="235"/>
    <line class="st59" x1="91" y1="225" x2="101" y2="235"/>
  </g>
  <path class="st42" d="M121,156.9c-.2-.3-6.4-8.9-6.5-9h1.6c0,.1,6.3,8.7,6.5,9h-1.6ZM120,151.4c.7-.8,4.3-4.4,4.6-4.8h-1.7c-.5.6-3.3,3.5-3.5,3.7-.3-.4-2.5-3.5-2.7-3.7h-4.5c.5.6,4.4,6.2,4.6,6.5-1,1.1-4.4,4.6-4.8,5h1.7l3.8-4c.5.6,2.6,3.7,2.9,4h4.6c-.4-.5-4.6-6.3-4.9-6.7h0Z"/>
  <path class="st41" d="M142,156.9c-.2-.3-6.4-8.9-6.5-9h1.6c0,.1,6.3,8.7,6.5,9h-1.6ZM141,151.4c.7-.8,4.3-4.4,4.6-4.8h-1.7c-.5.6-3.3,3.5-3.5,3.7-.3-.4-2.5-3.5-2.7-3.7h-4.5c.5.6,4.4,6.2,4.6,6.5-1,1.1-4.4,4.6-4.8,5h1.7l3.8-4c.5.6,2.6,3.7,2.9,4h4.6c-.4-.5-4.6-6.3-4.9-6.7h-.1Z"/>
  <path class="st42" d="M163,156.9c-.2-.3-6.4-8.9-6.5-9h1.6c0,.1,6.3,8.7,6.5,9h-1.6ZM162,151.4c.7-.8,4.3-4.4,4.6-4.8h-1.7c-.5.6-3.3,3.5-3.5,3.7-.3-.4-2.5-3.5-2.7-3.7h-4.5c.5.6,4.4,6.2,4.6,6.5-1,1.1-4.4,4.6-4.8,5h1.7l3.8-4c.5.6,2.6,3.7,2.9,4h4.6c-.4-.5-4.6-6.3-4.9-6.7h-.1Z"/>
  <path class="st40" d="M57.5,153.6c-.2-.4-7.8-10.8-7.9-10.9h1.9c0,.1,7.7,10.6,7.9,10.9h-1.9ZM56.3,146.9c.9-1,5.2-5.3,5.6-5.8h-2.1c-.6.7-4,4.3-4.3,4.5-.4-.5-3-4.3-3.3-4.5h-5.5c.6.7,5.3,7.5,5.6,7.9-1.2,1.3-5.3,5.6-5.8,6.1h2.1l4.6-4.9c.6.7,3.2,4.5,3.5,4.9h5.6c-.5-.6-5.6-7.7-6-8.1h-.1Z"/>
  <path class="st37" d="M184,156.9c-.2-.3-6.4-8.9-6.5-9h1.6c0,.1,6.3,8.7,6.5,9h-1.6ZM183,151.4c.7-.8,4.3-4.4,4.6-4.8h-1.7c-.5.6-3.3,3.5-3.5,3.7-.3-.4-2.5-3.5-2.7-3.7h-4.5c.5.6,4.4,6.2,4.6,6.5-1,1.1-4.4,4.6-4.8,5h1.7l3.8-4c.5.6,2.6,3.7,2.9,4h4.6c-.4-.5-4.6-6.3-4.9-6.7h-.1Z"/>
</svg>