<?xml version="1.0" encoding="UTF-8"?>
<svg id="Capa_2" data-name="Capa 2" xmlns="http://www.w3.org/2000/svg" viewBox="0 0 321.9 109.61">
  <defs>
    <style>
      .cls-1 {
        fill: #1d1d1b;
      }

      .cls-2 {
        fill: #45959b;
      }

      .cls-3 {
        fill: #80cbd5;
      }
    </style>
  </defs>
  <g id="Capa_1-2" data-name="Capa 1">
    <g>
      <path class="cls-3" d="M82.57,21.49l1.51-8.55h39.37V0h-50.75l-5.04,29.07c4.4-3.61,9.46-6.18,14.91-7.58Z"/>
      <path class="cls-3" d="M56.4,74.88c-2.04-4.74-3.17-9.96-3.17-15.43,0-.63-.04-1.26-.1-1.88L3.41,96.61l-.5,13h60.3v-12.94H30.61l25.79-21.79Z"/>
      <path class="cls-3" d="M92.43,94.77c-19.48,0-35.32-15.85-35.32-35.32,0-5.81-2.26-11.27-6.37-15.38-4.11-4.11-9.57-6.37-15.38-6.37-11.99,0-21.74,9.75-21.74,21.74v.77H.04v-.77C.04,39.97,15.88,24.13,35.36,24.13s35.32,15.85,35.32,35.32c0,5.81,2.26,11.27,6.37,15.38,4.11,4.11,9.57,6.37,15.38,6.37,11.99,0,21.75-9.75,21.75-21.74s-9.76-21.74-21.75-21.74c-5.94,0-11.49,2.35-15.62,6.62l-.54.56-9.75-9.45.54-.56c6.71-6.93,15.73-10.75,25.38-10.75,19.48,0,35.32,15.85,35.32,35.32s-15.85,35.32-35.32,35.32Z"/>
      <path class="cls-2" d="M92.43,24.13c-9.65,0-18.66,3.82-25.38,10.75l-.54.56,9.75,9.45.54-.56c4.13-4.27,9.68-6.62,15.62-6.62,11.99,0,21.75,9.75,21.75,21.74s-9.76,21.74-21.75,21.74c-5.81,0-11.27-2.26-15.38-6.37-3.14-3.14-5.19-7.07-5.98-11.33,1.34,11.76,6.49,22.37,14.19,30.55,2.32.48,4.71.73,7.17.73,19.48,0,35.32-15.85,35.32-35.32s-15.85-35.32-35.32-35.32Z"/>
      <path class="cls-2" d="M43.91,25.18c-2.74-.68-5.61-1.05-8.55-1.05-3.93,0-7.71.65-11.24,1.84h0c-.1.02-.2.07-.31.1-.73.25-1.45.52-2.15.82-.15.06-.3.14-.45.2-.57.25-1.14.52-1.69.8-.26.13-.51.26-.77.39-.6.32-1.18.65-1.76,1-.3.18-.58.37-.87.56-.34.22-.68.45-1.01.68-.49.34-.97.7-1.44,1.07-.29.22-.58.45-.86.68-.36.29-.7.6-1.05.91-.16.14-.32.29-.47.44-.65.61-1.28,1.24-1.89,1.9-.08.09-.17.18-.25.27C3.48,42.07,0,50.35,0,59.45c0,7.06,2.09,13.63,5.67,19.15l10.69-8.55c-1.64-2.93-2.62-6.27-2.75-9.83v-.77c.01-5.99,2.45-11.42,6.38-15.36,0,0,.01-.01.02-.02.48-.48.98-.93,1.5-1.36.02-.01.03-.03.05-.04.5-.42,1.03-.81,1.57-1.18.1-.07.2-.13.3-.2.42-.28.85-.53,1.28-.78.17-.09.33-.19.5-.28,3.03-1.61,6.48-2.53,10.15-2.53,5.81,0,11.27,2.26,15.38,6.37,3.68,3.68,5.87,8.46,6.28,13.6-.39-12.49-5.28-23.84-13.1-32.49Z"/>
      <g>
        <g>
          <path class="cls-3" d="M279.97,77.35c0-3.63,1.24-5.07,3.57-6.91,2.5-1.63,4.17-4.45,4.21-7.64v-.06s0-.06,0-.06v-.15c-.03-2.7-1.22-5.12-3.09-6.8-2.47-2.46-4.68-3.55-4.68-8.16,0-3.92,1.44-5.29,4.13-7.35,2.21-1.7,3.64-4.36,3.64-7.36,0-5.12-4.16-9.28-9.29-9.28s-9.29,4.15-9.29,9.28c0,2.93,1.37,5.55,3.5,7.25,2.58,2.06,4.04,3.98,4.04,7.61,0,3.94-1.69,5.49-4.04,7.68-2.1,1.68-3.45,4.25-3.49,7.13v.27c.04,3.11,1.61,5.86,4,7.51,2.26,1.9,3.53,3.8,3.53,7.19,0,4.25-1.97,5.72-4.62,8.23-1.79,1.69-2.91,4.08-2.91,6.74,0,5.12,4.16,9.27,9.29,9.27s9.29-4.15,9.29-9.27c0-2.38-.9-4.55-2.37-6.19-2.74-3.04-5.4-3.87-5.4-8.93Z"/>
          <path class="cls-3" d="M297.38,62.39c0-3.92,1.44-5.29,4.14-7.35,2.21-1.7,3.64-4.37,3.64-7.37,0-5.12-4.16-9.28-9.29-9.28s-9.29,4.15-9.29,9.28c0,2.93,1.36,5.55,3.5,7.25,2.58,2.05,4.04,3.98,4.04,7.61,0,4.25-1.97,5.72-4.62,8.23-1.79,1.69-2.91,4.09-2.91,6.74,0,5.12,4.16,9.27,9.29,9.27s9.29-4.15,9.29-9.27c0-2.38-.9-4.55-2.37-6.19-2.74-3.05-5.41-3.87-5.41-8.93Z"/>
          <path class="cls-3" d="M312.61,53.36c-5.13,0-9.29,4.15-9.29,9.28s4.16,9.27,9.29,9.27,9.29-4.15,9.29-9.27-4.16-9.28-9.29-9.28Z"/>
        </g>
        <g>
          <g>
            <path class="cls-1" d="M143.25,86.61h-.99v-8.57h.99v8.57Z"/>
            <path class="cls-1" d="M151.73,78.04h.89l2.53,6.8-.17.15v-6.96h.96v8.57h-.9l-2.52-6.7.17-.15v6.86h-.96v-8.57Z"/>
            <path class="cls-1" d="M164.36,78.04h.89l2.53,6.8-.17.15v-6.96h.96v8.57h-.9l-2.52-6.7.17-.15v6.86h-.96v-8.57Z"/>
            <path class="cls-1" d="M177.97,86.44c-.32-.17-.56-.41-.73-.74s-.25-.71-.25-1.17v-4.43c0-.46.08-.85.25-1.17.17-.32.41-.57.73-.74.32-.17.7-.25,1.15-.25s.83.08,1.15.25c.32.17.56.41.73.74.17.32.25.71.25,1.17v4.43c0,.46-.08.85-.25,1.17-.17.32-.41.57-.73.74s-.7.25-1.15.25-.83-.08-1.15-.25ZM179.74,85.6c.17-.09.3-.22.39-.39.09-.17.14-.38.14-.62v-4.52c0-.24-.05-.45-.14-.62-.09-.17-.22-.3-.39-.39-.17-.09-.38-.14-.62-.14s-.44.05-.62.14c-.17.09-.3.22-.39.39-.09.17-.14.38-.14.62v4.52c0,.24.05.45.14.62.09.17.22.3.39.39.17.09.38.14.62.14s.45-.05.62-.14Z"/>
            <path class="cls-1" d="M189.14,78.04h1.03l1.27,7.09,1.27-7.09h1.03l-1.73,8.57h-1.16l-1.73-8.57Z"/>
            <path class="cls-1" d="M202.68,78.04h1.03l1.98,8.57h-1.07l-1.42-7.22-1.42,7.22h-1.07l1.98-8.57ZM201.89,83.71h2.73v.93h-2.73v-.93Z"/>
            <path class="cls-1" d="M214.15,86.44c-.3-.17-.53-.42-.68-.75-.16-.33-.24-.72-.24-1.18v-4.36c0-.46.08-.86.24-1.19.16-.33.38-.58.68-.75s.66-.26,1.08-.26.78.09,1.08.26c.3.17.53.42.68.75.16.33.23.72.23,1.18v.34h-.99v-.34c0-.26-.04-.48-.12-.67-.08-.19-.19-.33-.34-.42-.15-.1-.33-.14-.54-.14s-.39.05-.54.14c-.15.1-.26.24-.34.42-.08.19-.12.41-.12.67v4.36c0,.26.04.48.12.67.08.19.19.33.34.42.15.1.33.14.54.14s.4-.05.55-.14c.15-.1.26-.24.34-.42.08-.18.12-.41.12-.67v-.34h.99v.34c0,.46-.08.85-.23,1.18-.15.33-.38.58-.68.75-.3.17-.66.26-1.08.26s-.77-.09-1.07-.26Z"/>
            <path class="cls-1" d="M226.44,86.61h-.99v-8.57h.99v8.57Z"/>
            <path class="cls-1" d="M235.9,86.44c-.32-.17-.56-.41-.73-.74s-.25-.71-.25-1.17v-4.43c0-.46.08-.85.25-1.17.17-.32.41-.57.73-.74.32-.17.7-.25,1.15-.25s.83.08,1.15.25c.32.17.56.41.73.74.17.32.25.71.25,1.17v4.43c0,.46-.08.85-.25,1.17-.17.32-.41.57-.73.74s-.7.25-1.15.25-.83-.08-1.15-.25ZM237.66,85.6c.17-.09.3-.22.39-.39.09-.17.14-.38.14-.62v-4.52c0-.24-.05-.45-.14-.62-.09-.17-.22-.3-.39-.39-.17-.09-.38-.14-.62-.14s-.44.05-.62.14c-.17.09-.3.22-.39.39-.09.17-.14.38-.14.62v4.52c0,.24.05.45.14.62.09.17.22.3.39.39.17.09.38.14.62.14s.45-.05.62-.14ZM236.46,76.92l1.47-1.51.75.72-1.6,1.37-.62-.58Z"/>
            <path class="cls-1" d="M247.48,78.04h.89l2.53,6.8-.17.15v-6.96h.96v8.57h-.9l-2.52-6.7.17-.15v6.86h-.96v-8.57Z"/>
          </g>
          <g>
            <polygon class="cls-1" points="161.41 42.5 161.41 38.42 142.26 38.42 142.26 68.38 146.8 68.38 146.8 55.71 159.25 55.71 159.25 51.63 146.8 51.63 146.8 42.5 161.41 42.5"/>
            <polygon class="cls-1" points="186.03 68.38 186.03 64.3 171.42 64.3 171.42 55.29 183.88 55.29 183.88 51.25 171.42 51.25 171.42 42.5 186.03 42.5 186.03 38.42 166.88 38.42 166.88 68.38 186.03 68.38"/>
            <path class="cls-1" d="M212.61,59.42h-4.58c-.72,3.03-2.78,5.13-6.1,5.13-1.77,0-3.37-.67-4.42-1.81-1.48-1.6-1.81-3.32-1.81-9.34s.34-7.74,1.81-9.34c1.05-1.14,2.65-1.81,4.42-1.81,3.32,0,5.34,2.11,6.06,5.14h4.62c-1.05-5.98-5.18-9.22-10.68-9.22-3.11,0-5.81,1.13-7.87,3.2-2.95,2.94-2.91,6.27-2.91,12.03s-.04,9.1,2.91,12.04c2.06,2.06,4.76,3.2,7.87,3.2,5.43,0,9.67-3.24,10.68-9.22Z"/>
            <polygon class="cls-1" points="235.8 38.42 230.83 38.42 224.57 51.59 218.3 38.42 213.33 38.42 222.3 56.05 222.3 68.38 226.84 68.38 226.84 56.05 235.8 38.42"/>
            <polygon class="cls-1" points="259.95 42.5 259.95 38.42 238.91 38.42 238.91 42.5 247.16 42.5 247.16 68.38 251.71 68.38 251.71 42.5 259.95 42.5"/>
          </g>
        </g>
      </g>
      <g>
        <path class="cls-2" d="M67.34,107.43v-1.09l3.12-4.16c.18-.24.32-.48.42-.74.1-.25.15-.49.15-.72h0c0-.37-.1-.65-.31-.84-.21-.2-.51-.3-.89-.3-.36,0-.65.11-.88.32-.23.21-.37.52-.41.91h0s-1.3,0-1.3,0h0c.11-.78.39-1.37.84-1.8.45-.42,1.03-.64,1.74-.64.8,0,1.42.2,1.86.61.44.41.66.98.66,1.72h0c0,.32-.07.65-.2,1-.13.35-.31.68-.55.99l-2.59,3.52h3.38v1.19h-5.04Z"/>
        <path class="cls-2" d="M76.53,107.52c-.85,0-1.49-.23-1.91-.69-.42-.46-.64-1.07-.64-1.85v-4.06c0-.79.21-1.41.65-1.86.43-.45,1.07-.68,1.91-.68s1.48.22,1.91.67c.43.45.64,1.07.64,1.87v4.06c0,.79-.21,1.41-.64,1.86-.43.45-1.06.68-1.91.68ZM76.53,106.33c.46,0,.79-.12.99-.36.2-.24.3-.57.3-.99v-4.06c0-.42-.1-.75-.3-.99-.2-.24-.53-.36-.99-.36s-.79.12-.99.36c-.2.24-.3.57-.3.99v4.06c0,.42.1.75.3.99.2.24.53.36.99.36Z"/>
        <path class="cls-2" d="M83.23,107.52c-.85,0-1.49-.23-1.91-.69-.42-.46-.64-1.07-.64-1.85v-4.06c0-.79.21-1.41.65-1.86.43-.45,1.07-.68,1.91-.68s1.48.22,1.91.67c.43.45.64,1.07.64,1.87v4.06c0,.79-.21,1.41-.64,1.86-.43.45-1.06.68-1.91.68ZM83.23,106.33c.46,0,.79-.12.99-.36.2-.24.3-.57.3-.99v-4.06c0-.42-.1-.75-.3-.99-.2-.24-.53-.36-.99-.36s-.79.12-.99.36c-.2.24-.3.57-.3.99v4.06c0,.42.1.75.3.99.2.24.53.36.99.36Z"/>
        <path class="cls-2" d="M89.79,98.49v8.94h-1.25v-7.57l-1.27.78v-1.3l1.27-.85h1.25Z"/>
        <path class="cls-2" d="M91.88,103.63h4.13v1.19h-4.13v-1.19Z"/>
        <path class="cls-2" d="M97.72,107.43v-1.09l3.12-4.16c.18-.24.32-.48.42-.74.1-.25.15-.49.15-.72h0c0-.37-.1-.65-.31-.84-.21-.2-.51-.3-.89-.3-.36,0-.65.11-.88.32-.23.21-.37.52-.41.91h0s-1.3,0-1.3,0h0c.11-.78.39-1.37.84-1.8.45-.42,1.03-.64,1.74-.64.8,0,1.42.2,1.86.61.44.41.66.98.66,1.72h0c0,.32-.07.65-.2,1-.13.35-.31.68-.55.99l-2.59,3.52h3.38v1.19h-5.04Z"/>
        <path class="cls-2" d="M106.91,107.52c-.85,0-1.49-.23-1.91-.69-.42-.46-.64-1.07-.64-1.85v-4.06c0-.79.21-1.41.65-1.86.43-.45,1.07-.68,1.91-.68s1.48.22,1.91.67c.43.45.64,1.07.64,1.87v4.06c0,.79-.21,1.41-.64,1.86-.43.45-1.06.68-1.91.68ZM106.91,106.33c.46,0,.79-.12.99-.36.2-.24.3-.57.3-.99v-4.06c0-.42-.1-.75-.3-.99-.2-.24-.53-.36-.99-.36s-.79.12-.99.36c-.2.24-.3.57-.3.99v4.06c0,.42.1.75.3.99.2.24.53.36.99.36Z"/>
        <path class="cls-2" d="M111.17,107.43v-1.09l3.12-4.16c.18-.24.32-.48.42-.74.1-.25.15-.49.15-.72h0c0-.37-.1-.65-.31-.84-.21-.2-.51-.3-.89-.3-.36,0-.65.11-.88.32-.23.21-.37.52-.41.91h0s-1.3,0-1.3,0h0c.11-.78.39-1.37.84-1.8.45-.42,1.03-.64,1.74-.64.8,0,1.42.2,1.86.61.44.41.66.98.66,1.72h0c0,.32-.07.65-.2,1-.13.35-.31.68-.55.99l-2.59,3.52h3.38v1.19h-5.04Z"/>
        <path class="cls-2" d="M119.74,107.52c-.79,0-1.4-.24-1.84-.71s-.65-1.14-.65-1.99h0c0-.39.05-.8.16-1.23.11-.43.26-.85.46-1.25l1.94-3.85h1.35l-2.28,4.46v-.22c.22-.41.6-.61,1.14-.61.7,0,1.24.23,1.63.7.38.47.58,1.12.58,1.97h0c0,.87-.22,1.54-.65,2.02s-1.05.72-1.84.72ZM119.74,106.32c.4,0,.71-.12.92-.37.21-.25.32-.6.32-1.05h0c0-.51-.11-.89-.34-1.17-.22-.27-.55-.41-.97-.41-.37,0-.66.14-.87.41-.21.27-.31.66-.31,1.16h0c0,.46.11.81.32,1.05.21.24.52.37.91.37Z"/>
      </g>
    </g>
  </g>
</svg>