<svg xmlns="http://www.w3.org/2000/svg" fill="currentColor" height="24" viewBox="0 0 24 24" width="24"><path d="M13.91 2.586a1 1 0 00-1.82 0L9.9 7.403a1 1 0 01-.497.497l-4.817 2.19a1 1 0 000 1.82l4.817 2.19a1 1 0 01.497.497l2.19 4.817a1 1 0 001.82 0l2.19-4.817a1 1 0 01.497-.497l4.817-2.19a1 1 0 000-1.82L16.597 7.9a1 1 0 01-.497-.497l-2.19-4.817ZM11.72 8.23 13 5.417l1.28 2.814a3 3 0 001.489 1.49L18.583 11l-2.814 1.28a3 3 0 00-1.49 1.489L13 16.583l-1.28-2.814a3 3 0 00-1.489-1.49l-2.814-1.28 2.814-1.28A3 3 0 0011.72 8.23m-5.215 8.523L5.5 15l-1.005 1.754a2 2 0 01-.741.74L2 18.5l1.754 1.005a2 2 0 01.741.74L5.5 22l1.005-1.754a2 2 0 01.741-.741L9 18.5l-1.754-1.005a2 2 0 01-.741-.741Z"/></svg>