<svg id="Layer_1" xmlns="http://www.w3.org/2000/svg" viewBox="0 0 314 53"><defs><style>.st0{fill:#fff}</style></defs><path class="st0" d="M16 47.1c9.4 0 14.6-3.4 14.6-9.4s-5.8-7.8-11-9l-3.1-.7c-2.9-.4-5.2-1.3-5.2-2.9s1.6-2.5 4.3-2.5 4.7 1.6 4.7 4h9.4c0-6.9-5.2-10.8-14.8-10.8s-13.7 4-13.7 9.4 5.8 8.1 11 9.2l3.4.7c2.9.4 5.2 1.3 5.2 2.9s-1.6 2.5-4.3 2.5-5.6-1.3-5.6-4H.3C.3 43.4 5.7 47 15.8 47l.2.2zM41.3 47.1c5.4 0 9.9-3.4 11.2-7.2h.4v6.3H63V27.4c0-6.9-5.4-11-14.6-11s-15 4.5-15.9 12.1h10.3c.4-3.4 2.5-4.7 5.6-4.7s4.5 1.6 4.5 3.4S52 31 46.6 31h-3.8C35.4 31 32 34.6 32 39.3s4.3 8.1 9.4 8.1h-.2v-.2zm4.7-6.3c-2.2 0-3.6-.9-3.6-2.7s1.1-2.7 3.1-2.7h.9c3.4 0 5.6-1.3 6.3-4.3h.4v2.2c0 4-3.1 7.4-6.9 7.4H46zM73.1 46.2h12.5l9.9-28.9H85l-1.6 5.6c-1.3 5.4-2.5 8.5-3.8 13.9h-.4c-1.3-5.4-2.2-8.7-3.8-13.9l-1.6-5.6h-11l9.9 28.9h.4zM111.4 47.1c5.4 0 13.4-2.9 14.3-11h-8.5c-.7 2-2.9 3.6-5.8 3.6s-6.5-2.2-6.5-5.8H126v-2.7c0-8.7-6.5-15-15.5-15S95 22.5 95 31.4s6 15.5 16.4 15.5v.2zm-6.7-18.4c0-3.1 2.5-5.2 5.8-5.2s5.2 2 5.4 5.2h-11.2zM139.6 33.2c0 8.3 5.4 13 15.5 13.7v6h5.4v-6c9.9-.7 15.2-5.2 15.2-12.5s-6.9-10.1-13.4-11.4l-4-.9c-3.8-.9-6.7-1.6-6.7-4.3s2.2-3.6 6-3.6 6.5 1.8 6.9 5.6H175c0-8.1-5.4-13-14.3-13.9V0h-5.4v6c-9.6.7-15 5.4-15 11.9s7.6 11.2 14.3 12.5l3.1.7c3.8.7 6.7 1.6 6.7 3.8s-2.2 3.8-6.3 3.8-7.2-1.8-7.8-5.4h-10.8v-.2zM195.2 47.1c10.1 0 16.4-5.2 16.4-12.5s-3.4-8.7-8.5-9v-.4c4 0 7.2-3.6 7.2-8.3s-6-10.8-15-10.8-15.7 4.5-16.1 13H190c.4-3.1 1.8-4.3 4.9-4.3s4.9 1.3 4.9 3.8-1.6 4-4.7 4h-3.6V30h2.9c4.5 0 5.8 1.8 5.8 4.3s-2 4.3-5.6 4.3-5.8-2-5.8-5.8h-11c.7 9.2 6.9 14.3 17.7 14.3h-.2zM224.3 34.6H214c.7 8.5 7.4 12.5 16.6 12.5s15.7-4.9 15.7-14.3-5.6-13-12.5-13-7.4 2.2-8.5 4.7h-.4l2-9.2h17.2V7.2h-25.8l-3.8 21.3 9.9 2.2c1.1-2.7 2.9-3.8 6-3.8s5.8 2.2 5.8 6.3-1.8 6.3-5.6 6.3-5.8-1.6-6.3-4.7v-.2zM250.1 46.2h11V16.6h.4l3.4 12.5 4.7 16.8h8.7l4.7-16.8 3.4-12.5h.4v29.3h11V6.8h-16.6l-3.6 13c-1.1 3.8-2 7.4-3.1 11.2h-.4c-.9-3.8-2-7.4-3.1-11.2l-3.6-13h-16.6V46h-.7v.2zM307.4 47.1c3.6 0 6.3-2.9 6.3-6.3s-2.9-6.3-6.3-6.3-6.5 2.7-6.5 6.3 2.9 6.3 6.5 6.3z"/></svg>