<svg  viewBox="0 0 40 40" fill="none" xmlns="http://www.w3.org/2000/svg">
  <path fill-rule="evenodd" clip-rule="evenodd" d="M20 0C8.9543 0 0 8.9543 0 20C0 31.0457 8.9543 40 20 40C31.0457 40 40 31.0457 40 20C40 8.9543 31.0457 0 20 0ZM9.60144 16.5649H14.1339V30.183H9.60144V16.5649ZM14.4325 12.3522C14.4031 11.017 13.4482 10 11.8977 10C10.3472 10 9.3335 11.017 9.3335 12.3522C9.3335 13.6598 10.3172 14.7061 11.8389 14.7061H11.8678C13.4482 14.7061 14.4325 13.6598 14.4325 12.3522ZM25.2608 16.2451C28.2434 16.2451 30.4794 18.1919 30.4794 22.3748L30.4792 30.183H25.9469V22.8973C25.9469 21.0673 25.2911 19.8185 23.6503 19.8185C22.3981 19.8185 21.6523 20.6604 21.3247 21.4735C21.2049 21.7649 21.1754 22.1709 21.1754 22.5779V30.1834H16.6425C16.6425 30.1834 16.7022 17.8431 16.6425 16.5653H21.1754V18.4941C21.777 17.5669 22.8544 16.2451 25.2608 16.2451Z" fill="#58648C"/>
</svg>
