<?xml version="1.0" encoding="utf-8"?>
<!DOCTYPE svg PUBLIC "-//W3C//DTD SVG 1.1//EN" "http://www.w3.org/Graphics/SVG/1.1/DTD/svg11.dtd">
<svg version="1.1" xmlns="http://www.w3.org/2000/svg" xmlns:xlink="http://www.w3.org/1999/xlink" width="176" height="32" viewBox="0 0 176 32" focusable="false">
    <defs>
        <g id="play">
            <polygon points="14.4,33 32.3,22 14.4,11"/>
        </g>
        <g id="play-iplayer">
            <polygon points="19.2,11 13.8,11 13.8,16.5 19.2,16.5 19.2,14.2 28.2,22 19.2,29.8 19.2,19.2 13.8,19.2 13.8,33 19.2,33 31.6,22"/>
        </g>
		<g id="mute">
			<polygon points="22,13.8 17.9,17.9 11,17.9 11,26.1 17.9,26.1 22,30.2"/>
			<rect x="23.7" y="21.3" transform="matrix(0.7072 0.7071 -0.7071 0.7072 23.9848 -13.908)" width="10.2" height="1.4"/>
			<rect x="28.1" y="16.9" transform="matrix(0.7072 0.707 -0.707 0.7072 23.9802 -13.9074)" width="1.4" height="10.2"/>
		</g>
        <g id="audio">
            <path d="M25.7,14.3l-1,1c1.7,1.7,2.8,4.1,2.8,6.7c0,2.6-1.1,5-2.8,6.7l1,1c2-2,3.2-4.7,3.2-7.7C28.9,19,27.7,16.3,25.7,14.3z"/>
            <path d="M28.6,11.4l-1,1c2.5,2.5,4,5.9,4,9.7s-1.5,7.2-4,9.7l1,1C31.3,29.9,33,26.1,33,22C33,17.9,31.3,14.1,28.6,11.4z"/>
            <polygon points="22,13.8 17.9,17.9 11,17.9 11,26.1 17.9,26.1 22,30.2"/>
        </g>
        <g id="play-iplayer-audio">
            <path d="M26,14.5l-1,1c1.7,1.7,2.7,4,2.7,6.6c0,2.6-1,4.9-2.7,6.6l1,1c1.9-1.9,3.1-4.6,3.1-7.5C29.1,19.1,27.9,16.5,26,14.5z"/>
            <path d="M28.8,11.7l-1,1c2.4,2.4,3.9,5.8,3.9,9.4c0,3.7-1.5,7-3.9,9.4l1,1c2.6-2.7,4.3-6.3,4.3-10.4C33.1,18,31.5,14.3,28.8,11.7z"/>
            <polygon points="15.4,13.2 11,13.2 11,17.6 15.4,17.6 15.4,15.8 22.5,22 15.4,28.2 15.4,19.8 11,19.8 11,30.8 15.4,30.8 25.3,22"/>
        </g>
        <g id="volume">
            <path d="M25.7,14.3l-1,1c1.7,1.7,2.8,4.1,2.8,6.7s-1.1,5-2.8,6.7l1,1c2-2,3.2-4.7,3.2-7.7C28.9,19,27.7,16.3,25.7,14.3z"/>
            <path d="M28.6,11.4l-1,1c2.5,2.5,4,5.9,4,9.7c0,3.8-1.5,7.2-4,9.7l1,1C31.3,29.9,33,26.1,33,22C33,17.9,31.3,14.1,28.6,11.4z"/>
            <polygon points="22,13.8 17.9,17.9 11,17.9 11,26.1 17.9,26.1 22,30.2"/>
        </g>
        <g id="pause">
            <rect x="13.1" y="11" width="6.2" height="22"/>
            <rect x="24.8" y="11" width="6.2" height="22"/>
        </g>
        <g id="fullscreen-enter">
            <path d="M26.1,19.2v6.9h-8.2v-8.2h8.2 M27.5,16.5h-11v11h11V16.5L27.5,16.5z"/>
            <polygon points="25.4,11 33,11 33,18.6"/>
            <polygon points="18.6,11 11,11 11,18.6"/>
            <polygon points="25.4,33 33,33 33,25.4"/>
            <polygon points="18.6,33 11,33 11,25.4"/>
        </g>
        <g id="fullscreen-return">
            <polygon points="28,12 20,12 20,4"/>
            <polygon points="4,12 12,12 12,4"/>
            <polygon points="28,20 20,20 20,28"/>
            <polygon points="4,20 12,20 12,28"/>
            <rect x="1" width="30" height="2"/>
            <rect x="1" y="30.5" width="30" height="2"/>
            <rect width="2" height="32"/>
            <rect x="30" width="2" height="32"/>
        </g>
        <g id="embed">
            <polygon points="17.9,19.4 17.9,15.1 11,21.9 17.9,28.9 17.9,24.5 15.3,21.9 "/>
            <polygon points="26.1,24.5 26.1,28.9 33,21.9 26.1,15.1 26.1,19.4 28.7,21.9 "/>
            <rect x="18.3" y="21.4" transform="matrix(0.7071 -0.7071 0.7071 0.7071 -9.1427 22.0532)" width="7.5" height="1.4"/>
        </g>
        <g id="guidance">
            <circle fill="inherit" cx="22" cy="22" r="11"/>
            <path fill="currentColor" d="M27.1,27.5h-1.8L25,26.3c-0.8,1.1-2,1.4-3.1,1.4c-3.3,0-5.5-2.5-5.5-5.7c0-3.2,2.2-5.7,5.5-5.7c2.3,0,4.7,1.2,5,4h-2.9c-0.1-0.9-1-1.5-2.2-1.5c-1.8,0-2.6,1.6-2.6,3.3c0,1.6,0.7,3.3,2.6,3.3c1.4,0,2.4-0.7,2.5-1.7h-2v-2.1h4.6V27.5z"/>
        </g>
        <g id="padlock-locked">
            <rect x="13.1" y="20.6" width="17.9" height="12.4"/>
            <path d="M22,14.4c1.5,0,2.8,1.2,2.8,2.8v8.2c0,1.5-1.2,2.8-2.8,2.8c-1.5,0-2.8-1.2-2.8-2.8v-8.2C19.2,15.7,20.5,14.4,22,14.4M22,11c-3.4,0-6.2,2.8-6.2,6.2v8.2c0,3.4,2.8,6.2,6.2,6.2c3.4,0,6.2-2.8,6.2-6.2v-8.2C28.2,13.8,25.4,11,22,11L22,11z"/>
        </g>
        <g id="padlock-unlocked">
            <path d="M26.8,11c-3.4,0-6.2,2.8-6.2,6.2v3.4h-4.8h-3.4H11V33h15.8V20.6h-2.1h-0.7v-3.4c0-1.5,1.2-2.8,2.8-2.8c1.5,0,2.8,1.2,2.8,2.8v3.4H33v-3.4C33,13.8,30.2,11,26.8,11z"/>
        </g>
        <g id="cross">
            <rect x="20.3" y="8.2" transform="matrix(0.7071 0.7071 -0.7071 0.7071 22 -9.1127)" width="3.4" height="27.7"/>
            <rect x="20.3" y="8.2" transform="matrix(0.7071 -0.7071 0.7071 0.7071 -9.1127 21.9994)" width="3.4" height="27.7"/>
        </g>
        <g id="chromecast">
            <path d="M19.9,30.4H18c-0.5-3.6-3.4-6.5-7-7v-1.9
		        C15.7,22.1,19.4,25.7,19.9,30.4z M16.6,30.4h-1.9c-0.4-1.8-1.8-3.2-3.7-3.7v-1.9C13.8,25.3,16.1,27.6,16.6,30.4z M13.2,30.4H11
		        v-2.2C12,28.6,12.8,29.4,13.2,30.4z"/>
            <path d="M21.5,29.1c-0.1-0.6-0.3-1.2-0.5-1.7h10.3V15.3l-17.3,0v5.1
    		    c-0.6-0.2-1.1-0.4-1.7-0.5v-6.3H33v15.5H21.5z"/>
        </g>
        <g id="closed-captions">
            <path d="M11,14v16h22V14H11z M21.5,20.9h-1.8v-0.1c0-0.1-0.1-0.2-0.1-0.3c-0.1-0.1-0.2-0.2-0.3-0.3
                c-0.1-0.1-0.2-0.2-0.4-0.2c-0.1,0-0.3,0-0.4,0c-0.3,0-0.5,0.1-0.7,0.2c-0.2,0.1-0.4,0.3-0.5,0.4c-0.1,0.2-0.2,0.4-0.3,0.7
                c-0.1,0.3-0.1,0.5-0.1,0.8c0,0.3,0,0.5,0.1,0.8c0.1,0.2,0.2,0.4,0.3,0.6s0.3,0.3,0.5,0.4c0.2,0.1,0.4,0.2,0.7,0.2
                c0.4,0,0.7-0.1,0.9-0.3c0.2-0.2,0.4-0.3,0.4-0.7h1.7v0.1c0,0.4-0.1,0.7-0.3,1c-0.1,0.2-0.3,0.4-0.6,0.7c-0.3,0.2-0.6,0.4-0.9,0.5
                c-0.4,0.1-0.7,0.2-1.2,0.2s-1-0.1-1.4-0.3c-0.4-0.2-0.8-0.4-1.1-0.8c-0.3-0.3-0.5-0.7-0.7-1.1c-0.2-0.4-0.2-0.9-0.2-1.4
                s0.1-1,0.2-1.4c0.2-0.4,0.4-0.8,0.7-1.2c0.3-0.3,0.7-0.6,1.1-0.8c0.4-0.2,0.9-0.3,1.4-0.3c0.4,0,0.7,0.1,1.1,0.2
                c0.3,0.1,0.6,0.3,0.9,0.5s0.5,0.5,0.7,0.8c0.2,0.3,0.3,0.6,0.3,1V20.9z M28.9,20.9h-1.8v-0.1c0-0.1-0.1-0.2-0.1-0.3
                c-0.1-0.1-0.2-0.2-0.3-0.3c-0.1-0.1-0.2-0.2-0.4-0.2c-0.1,0-0.3,0-0.4,0c-0.3,0-0.5,0.1-0.7,0.2c-0.2,0.1-0.4,0.3-0.5,0.4
                c-0.1,0.2-0.2,0.4-0.3,0.7c-0.1,0.3-0.1,0.5-0.1,0.8c0,0.3,0,0.5,0.1,0.8c0.1,0.2,0.2,0.4,0.3,0.6c0.1,0.2,0.3,0.3,0.5,0.4
                c0.2,0.1,0.4,0.2,0.7,0.2c0.4,0,0.7-0.1,0.9-0.3s0.4-0.3,0.4-0.7h1.7v0.1c0,0.4-0.1,0.7-0.3,1c-0.1,0.2-0.3,0.4-0.6,0.7
                c-0.3,0.2-0.6,0.4-0.9,0.5c-0.4,0.1-0.7,0.2-1.2,0.2s-1-0.1-1.4-0.3s-0.8-0.4-1.1-0.8c-0.3-0.3-0.5-0.7-0.7-1.1
                c-0.2-0.4-0.2-0.9-0.2-1.4s0.1-1,0.2-1.4c0.2-0.4,0.4-0.8,0.7-1.2c0.3-0.3,0.7-0.6,1.1-0.8c0.4-0.2,0.9-0.3,1.4-0.3
                c0.4,0,0.7,0.1,1.1,0.2c0.3,0.1,0.6,0.3,0.9,0.5c0.3,0.2,0.5,0.5,0.7,0.8c0.2,0.3,0.3,0.6,0.3,1V20.9z"/>
        </g>
        <g id="catcast">
            <path d="M10.4,30.7C10.4,30.8,10.4,30.8,10.4,30.7l1.3,0c0,0,0,0,0,0c0-2.1-1.7-3.7-3.7-3.7v1.3
                C9.3,28.3,10.4,29.4,10.4,30.7z"/>
            <path d="M9.2,30.8C9.2,30.8,9.2,30.8,9.2,30.8c0-0.7-0.6-1.3-1.2-1.3v1.3H9.2z"/>
            <path d="M12.9,30.7C12.9,30.8,12.9,30.8,12.9,30.7l1.3,0c0,0,0,0,0,0c0-3.4-2.8-6.2-6.2-6.2v1.3
                C10.7,25.8,12.9,28,12.9,30.7z"/>
            <path d="M32,26.7l5.8-4.1l-6.4,2.4c-0.1-2.6-1-5.2-2.7-7.2l0.6-4.7l-3.5,2.2c-1.9-1.2-4-1.8-6.2-1.8
                c-2.2,0-4.3,0.6-6.2,1.8L10,13.2l0.6,4.7c-1.1,1.3-1.9,2.8-2.3,4.4l0,0.6l0.5,0c0.2,0,0.4,0,0.7,0c3.5,0,6.3,2.8,6.3,6.3
                c0,0,0,0,0,0c0,0,0,0,0,0l0,0.5h18.8l-2.8-1.5l3.7-0.9L32,26.7z M13.6,20.4c-0.7,0-1.3-0.6-1.3-1.3s0.6-1.3,1.3-1.3
                s1.3,0.6,1.3,1.3S14.3,20.4,13.6,20.4z M21.5,21.7c-0.3,0.2-0.7,0.5-1,0.7c-0.3,0.2-0.6,0.2-0.9,0c-0.3-0.3-0.6-0.5-1-0.7
                c-0.5-0.3-0.4-1.1,0.2-1.3c0.4-0.1,0.8-0.1,1.2-0.1s0.8,0,1.2,0.1C21.9,20.6,22.1,21.4,21.5,21.7z M25.9,20.4
                c-0.7,0-1.3-0.6-1.3-1.3s0.6-1.3,1.3-1.3s1.3,0.6,1.3,1.3S26.6,20.4,25.9,20.4z"/>
        </g>
        <g id="subtitles">
            <path d="M11,12v22h22V12H11z M22,28.8c-2.5,0-4.8-0.8-4.8-3.8h2.9c0.1,1,0.9,1.6,2.1,1.6c0.9,0,1.8-0.4,1.8-1.2
                c0-1-1.6-1.2-3.2-1.6c-1.6-0.4-3.2-1.2-3.2-3.2c0-2.4,2.4-3.3,4.5-3.3c2.2,0,4.4,0.6,4.4,3.6h-2.9c0-1-0.9-1.4-1.8-1.4
                c-0.6,0-1.4,0.2-1.4,0.9c0,0.8,1.6,1,3.2,1.4c1.6,0.4,3.2,1.2,3.2,3.2C26.8,27.9,24.4,28.8,22,28.8z"/>
        </g>
        <g id="alert">
            <path d="M0,44h50.3L25.1,0L0,44z M22,14.1h6.3v15.7H22V14.1z M22,33h6.3v6.3H22V33z"/>
        </g>
        <g id="refresh">
            <path d="M33,1.5h-8h-4v0V5v0.7v7.8h4V8.1c2.4,2.2,4,5.4,4,8.9c0,6.6-5.4,12-12,12v4c8.8,0,16-6.9,16-15.8
                c0-4.8-2.1-9.8-5.4-11.8H33V1.5z"/>
            <path d="M9,25.9c-2.4-2.2-4-5.4-4-8.9c0-6.6,5.4-12,12-12V1C8.2,1,1,8.4,1,17.2c0,4.8,2.1,9.3,5.4,12.3H1v4h8h4v-1V29
            	v-0.7v-6.8H9V25.9z"/>
        </g>
        <g id="picInPic">
            <path d="M29,0v13h-2V2H2v15h11v2H0V0H29z M32,15H15v9h17V15z"/>
            <polygon points="5.8,4.4 4.4,5.8 9.6,11 6.7,11 6.7,13 13,13 13,6.7 11,6.7 11,9.6"/>
        </g>
        <g id="picInPic-stop">
            <path d="M29,0v13h-2V2H2v15h11v2H0V0H29z M32,15H15v9h17V15z M12.2,13.6l1.4-1.4L8.4,7H11V5H5v6h2V8.4L12.2,13.6z"/>
        </g>

        <g id="gel-exitLink">
            <path d="M9.8,8l6.2,6.2L14.2,16L8,9.8L1.8,16L0,14.2L6.2,8L0,1.8L1.8,0L8,6.2L14.2,0L16,1.8L9.8,8z"/>
        </g>

        <g id="guidance-alert">
            <path d="M8,0L0,14h16L8,0z M9,12.5H7v-2h2V12.5z M7,9.5v-5h2v5H7z"/>
        </g>

        <g id="accessibility">
            <path d="M15.76,23.91h7.5V22.66h-7.5v1.25Zm-2.5-9V26.05h8.13v3.09l3.44-3.09h5.94V14.92ZM32,27.58H25.26L20.14,32V27.58H12V13.75H32V27.58Zm-5-7.5H17v1.25H27Zm-2.5,2.61h3.75v1.14H24.51V22.69Z"/>
        </g>

        <g id="playback-settings">
            <path d="M22.76522,23.847576 C21.7467559,24.2695688 20.5757973,23.785077 20.1528122,22.7645945 C19.7303271,21.744612 20.21531,20.575132 21.234774,20.1521393 C22.254238,19.7306465 23.4246967,20.2146382 23.8476818,21.2341207 C24.2706668,22.2546033 23.784184,23.4260832 22.76522,23.847576 M29.8439701,23.8605758 L28.0525333,23.1185885 C28.1885285,22.3896009 28.1955283,21.6326139 28.0560332,20.8801268 L29.8439701,20.1396395 C29.9724655,20.0861404 30.0339634,19.9376429 29.9809652,19.8096451 L29.1919931,17.9051777 C29.139495,17.7776799 28.9910002,17.715681 28.8630047,17.7691801 L27.0735679,18.5101674 C26.6400832,17.8791782 26.0996023,17.3481873 25.4891238,16.9286945 L26.2310976,15.1377251 C26.2840957,15.0092273 26.2225979,14.8607299 26.0941025,14.8077308 L24.1906696,14.0192443 C24.0626742,13.9657452 23.9146794,14.0277441 23.8611813,14.1562419 L23.1192075,15.9472113 C22.3902332,15.8122136 21.6327599,15.8047137 20.8807865,15.9442113 L20.1393127,14.1562419 C20.0863145,14.0277441 19.9378198,13.9657452 19.8093243,14.0192443 L17.9058915,14.8077308 C17.777396,14.8617299 17.7153982,15.0102273 17.7693963,15.1377251 L18.5098702,16.9271945 C17.8798924,17.3596871 17.3489112,17.9001778 16.929926,18.5106674 L15.1384892,17.7686801 C15.0104937,17.715681 14.861499,17.7776799 14.8090008,17.9051777 L14.0200287,19.8096451 C13.9670305,19.9376429 14.0280284,20.0861404 14.1570238,20.1396395 L15.9479606,20.8816268 C15.8129654,21.6091143 15.8049657,22.3666013 15.9444607,23.1190885 L14.1560239,23.8605758 C14.0275284,23.9135748 13.9655306,24.0620723 14.0195287,24.1905701 L14.8090008,26.0945375 C14.8619989,26.2225353 15.0104937,26.2845342 15.1384892,26.2315352 L16.927426,25.4900479 C17.3609107,26.121037 17.9008917,26.651528 18.5113701,27.0700208 L17.7698963,28.8619901 C17.7163982,28.9899879 17.777896,29.1384854 17.9063915,29.1919845 L19.8103243,29.980471 C19.9388197,30.03447 20.0868145,29.9724711 20.1398126,29.8439733 L20.8817865,28.052504 C21.6102607,28.1875017 22.367234,28.1955015 23.1207074,28.0555039 L23.8616813,29.8439733 C23.9151794,29.9724711 24.0636741,30.03347 24.1916696,29.980471 L26.0951024,29.1914845 C26.2235979,29.1384854 26.2850957,28.9899879 26.2320976,28.8619901 L25.4901238,27.0730207 C26.1216015,26.6395282 26.6515828,26.0995374 27.071068,25.4890479 L28.8625047,26.2310352 C28.9900002,26.2845342 29.139495,26.2225353 29.1919931,26.0945375 L29.9809652,24.1905701 C30.0339634,24.0620723 29.9724655,23.9130749 29.8439701,23.8605758"></path>
        </g>

        <symbol id="live-pulse" viewBox="0 0 12 12">
            <path id="liveIconRing" d="M5.96681502,10.3410568 C8.38342771,10.3410568 10.3424794,8.38388329 10.3424794,5.96958745 C10.3424794,3.5552916 8.38342771,1.59811812 5.96681502,1.59811812 C3.55020233,1.59811812 1.59115067,3.5552916 1.59115067,5.96958745 C1.59115067,8.38388329 3.55020233,10.3410568 5.96681502,10.3410568 Z M5.96681502,11.930682 C2.67143408,11.930682 0,9.26180906 0,5.96958745 C0,2.67736584 2.67143408,0.00849290887 5.96681502,0.00849290887 C9.26219596,0.00849290887 11.93363,2.67736584 11.93363,5.96958745 C11.93363,9.26180906 9.26219596,11.930682 5.96681502,11.930682 Z"></path>
            <circle id="liveIconCentre" cx="6" cy="6" r="3"></circle>
        </symbol>

    </defs>
</svg>
