<svg id="Layer_1" xmlns="http://www.w3.org/2000/svg" viewBox="0 0 567 59"><defs><style>.st0{fill:#fff}</style></defs><path class="st0" d="M.1 14.1h12.7v33h12v-33h12.5v-9H.1v9zM39.7 47.1h11V34.6c0-4.3 1.1-6.6 3.5-8 2-1.2 5-1.7 9.6-2v-9.1c-9.2 0-11.3 3.2-12.7 10.4h-.4l-.3-9.8H39.7v31zM75.6 48.1c5.8 0 10.6-3.6 12-7.7h.4v6.8h10.8V27c0-7.4-5.8-11.7-15.5-11.7s-16.1 4.7-17 13h10.9c.4-3.5 2.6-5.1 6.1-5.1s4.8 1.7 4.8 3.5-1 4-6.7 4h-4c-7.9 0-11.6 3.8-11.6 8.9s4.5 8.6 10 8.6h-.2zm5-6.6c-2.3 0-3.8-.9-3.8-2.8s1.1-2.9 3.2-2.9h.9c3.7 0 5.9-1.5 6.8-4.6h.4v2.4c0 4.4-3.3 7.9-7.4 7.9zM104.2 47.1h11V30.8c0-4.8 2.2-7.4 6.3-7.4s6.2 2.6 6.2 7.4v16.3h11V27.5c0-8.3-5.8-12.3-11.6-12.3s-10 2.9-11.6 8.2h-.4l-.2-7.3h-10.8v31zM159 48.1c10.1 0 15.6-3.5 15.6-10s-6.2-8.4-11.8-9.5l-3.4-.7c-3.1-.6-5.5-1.3-5.5-3.1s1.6-2.5 4.4-2.5 4.9 1.6 4.9 4.4h10.1c0-7.4-5.6-11.5-15.7-11.5S143 19.2 143 25s6.1 8.6 11.7 9.7l3.5.7c3.1.6 5.5 1.3 5.5 3.1s-1.6 2.5-4.6 2.5-6.1-1.5-6.1-4.3h-10.7c0 7.4 5.8 11.3 16.5 11.3h.2zM180.9 47.1h11V22.5h9v-6.4h-9.3c0-2.7 1.3-4 4.7-4s2.8.2 4.6.5V5c-2.4-.6-4.8-1-7-1-7.4 0-13 3.5-13 11.5v.6h-4.5v6.4h4.5v24.6zM220.2 48.1c10 0 17.4-6.3 17.4-16.6s-7.4-16.3-17.4-16.3-17.4 6.3-17.4 16.3 7.4 16.6 17.4 16.6zm0-8c-4.1 0-6.3-2.6-6.3-8.6s2.2-8.4 6.3-8.4 6.3 2.6 6.3 8.4-2.2 8.6-6.3 8.6zM241.8 47.1h11V34.6c0-4.3 1.1-6.6 3.5-8 2-1.2 5-1.7 9.6-2v-9.1c-9.2 0-11.3 3.2-12.7 10.4h-.4l-.3-9.8h-10.7v31zM270.1 47.1h11V30.8c0-4.7 1.9-7.4 5.4-7.4s5.3 2.4 5.3 6.7V47h11V30.7c0-4.7 1.9-7.4 5.4-7.4s5.3 2.4 5.3 6.7v16.9h11V26.3c0-6.7-4.4-11.3-10.6-11.3s-9.1 3.2-10.7 8.8h-.6c-1-5.3-5-8.8-10.4-8.8s-9.1 3.2-10.7 8.8h-.4l-.3-7.9h-10.7v31.2zM330.8 16.1v31h11v-31h-11zm5.5-3.5c3.4 0 6.2-2.6 6.2-6.1S339.7.4 336.3.4s-6.2 2.9-6.2 6.2 2.8 6.1 6.2 6.1zM348.1 47.1h11V30.8c0-4.8 2.2-7.4 6.3-7.4s6.2 2.6 6.2 7.4v16.3h11V27.5c0-8.3-5.8-12.3-11.6-12.3s-10 2.9-11.6 8.2h-.4l-.2-7.3H348v31h.1zM402.4 35.7c9.4 0 14.9-3.8 14.9-10.4s-3.7-8.3-8.3-9.4v-.5c.1 0 11.2 2.3 11.2 2.3v-7.5l-20.7 4.7c-9.2 2.1-12.1 5.3-12.1 10.4s2.2 7.2 6.2 8.9v.5c-4.1 1.2-6.4 3.5-6.4 6.5s1.8 4.4 4.8 5.2v.5c-3.1.7-4.9 2.6-4.9 5 0 4.7 5.2 6.8 15.8 6.8s17.2-3.4 17.2-10.6-4-9.1-10.7-9.1h-12.6c-1.7 0-2.6-.7-2.6-1.9s.9-1.7 2.4-2c1.7.4 3.7.5 5.8.5zm0-7.1c-3.2 0-5-1.1-5-3.2s1.8-3.2 5-3.2 5 1.1 5 3.2-1.8 3.2-5 3.2zm-8.6 20c0-.8.5-1.4 1.4-1.9h12.7c1.7 0 2.7.6 2.7 1.7 0 2-2.6 2.9-8.1 2.9s-8.7-1-8.7-2.8zM436.6 5.1v42h12v-42h-12zM452.8 14.1h12.7v33h12v-33H490v-9h-37.2v9zM505.9 22.5h4.4v14c0 7.9 3.5 11.2 11.9 11.2s5.1-.5 7.9-1.5v-7.6c-1.7.5-3.4.8-4.7.8-3.1 0-4.1-1.1-4.1-4.5V22.5h8.9v-6.4H521V8h-10.7v8.1h-4.4v6.4zM549.4 48.1c10 0 17.4-6.3 17.4-16.6s-7.4-16.3-17.4-16.3S532 21.5 532 31.5s7.4 16.6 17.4 16.6zm0-8c-4.1 0-6.3-2.6-6.3-8.6s2.2-8.4 6.3-8.4 6.3 2.6 6.3 8.4-2.2 8.6-6.3 8.6z"/></svg>