<svg id="Layer_1" xmlns="http://www.w3.org/2000/svg" viewBox="0 0 327 45"><defs><style>.st0{fill:#fff}</style></defs><path class="st0" d="M15.4 44.7c2.9 0 7.6-.7 11.9-3.1l2 2.2h11.4l-7.2-7.4c2.5-3.1 4.3-7.2 4.7-12.5h-9c0 2.2-.9 4.3-1.8 6l-7.2-7.6c6.7-.9 10.5-4.9 10.5-9.9s-5.2-9.2-13-9.2S4.5 7.5 4.5 13.8s1.1 6.3 5.2 9.9v.4C3.6 25.4.2 29 .2 33.9s6 10.5 14.8 10.5h.4v.2zM8.9 30.1c0-1.8.9-3.6 2.7-4.5l9.9 10.1c-1.3.7-2.9.9-4.7.9-5.4 0-7.8-3.4-7.8-6.5zM15 14.7c0-2 1.6-3.6 3.8-3.6s3.8 1.6 3.8 3.6-1.6 4.9-3.8 6.3c-3.6-3.4-3.8-4.9-3.8-6.3zM62.5 43.8h12.8l3.1-16.1c.7-3.4 1.3-6.5 1.8-9.9h.4l1.8 9.6 3.1 16.1h12.8l10.8-39.2H97.5l-3.1 15.2c-.9 3.8-1.8 7.8-2.5 11.6h-.4c-.7-4-1.3-7.8-2-11.6l-2.9-15H75.2l-2.9 15c-.9 4-1.6 7.8-2 11.6h-.4l-2.5-11.6-3.1-15.2H52.7l10.5 39.2H63l-.2.2zM114.4 44.7c5.4 0 9.9-3.4 11.2-7.2h.4v6.3h10.1V25c0-6.9-5.4-11-14.6-11s-15 4.5-15.9 12.1h10.3c.4-3.4 2.5-4.7 5.6-4.7s4.5 1.6 4.5 3.4-.9 3.8-6.3 3.8h-3.8c-7.4 0-10.8 3.6-10.8 8.3s4.3 8.1 9.4 8.1h-.2v-.2zm4.7-6.1c-2.2 0-3.6-.9-3.6-2.7s1.1-2.7 3.1-2.7h.9c3.4 0 5.6-1.3 6.3-4.3h.4v2.2c0 4-3.1 7.4-6.9 7.4h-.2zM140 43.8h10.1v-6.9l3.1-3.1h.9c2.7 0 4.3 2 5.4 4.7l2 5.4H172l-4.3-10.5c-1.8-4.3-4-5.8-8.1-6V27c1.8-1.8 4.7-4.3 6.5-6l5.8-5.8h-11.6l-6 6.3c-1.6 1.6-2.9 3.4-4 5.2h-.4V4.6h-10.1v39.2h.2zM188.8 44.7c5.4 0 13.4-2.9 14.3-11h-8.5c-.7 2-2.9 3.6-5.8 3.6s-6.5-2.2-6.5-5.8h21.1v-2.7c0-8.7-6.5-15-15.5-15s-15.5 6.3-15.5 15.2 6 15.5 16.4 15.5v.2zm-6.7-18.2c0-3.1 2.5-5.2 5.8-5.2s5.2 2 5.4 5.2h-11.2zM210.1 43.8h10.3V20.7h8.5v-6h-8.7c0-2.5 1.1-3.8 4.5-3.8s2.7 0 4.3.4V4.1c-2.2-.7-4.5-.9-6.5-.9-6.9 0-12.1 3.4-12.1 10.8v.7h-4.3v6h4.3v23.1h-.2zM232.7 14.9v28.9H243V14.9h-10.3zm5.2-3.4c3.1 0 5.8-2.5 5.8-5.6S241.2.1 237.9.1s-5.8 2.7-5.8 5.8 2.7 5.6 5.8 5.6zM263.4 44.7c5.4 0 13.4-2.9 14.3-11h-8.5c-.7 2-2.9 3.6-5.8 3.6s-6.5-2.2-6.5-5.8H278v-2.7c0-8.7-6.5-15-15.5-15S247 20.1 247 29s6 15.5 16.4 15.5v.2zm-6.5-18.2c0-3.1 2.5-5.2 5.8-5.2s5.2 2 5.4 5.2h-11.2zM281.1 4.6v39.2h10.3V4.6h-10.3zM293.6 29.4c0 9.4 4.7 15.2 12.3 15.2s8.3-2.7 10.1-6.9h.4V44h10.3V4.8h-10.3v16.6h-.4c-1.8-4.5-5.6-7.2-10.1-7.2-7.6 0-12.3 6-12.3 15.5v-.2zm10.1 0c0-5.4 2.5-8.7 6.3-8.7s6.3 2.7 6.3 6.9v3.8c0 4.3-2.5 6.7-6.3 6.7s-6.3-3.4-6.3-8.7z"/></svg>