<svg id="Capa_3" xmlns="http://www.w3.org/2000/svg" viewBox="0 0 117 27"><defs><style>.st0{fill:#113033}.st1{fill:#fff}</style></defs><rect class="st1" y=".4" width="117" height="26.2" rx="7.2" ry="7.2"/><path class="st0" d="M19.7 13.7c0 3.7-2.3 5.2-5.4 5.2h-4V8.4h4c3.1 0 5.4 1.7 5.4 5.2zm-5.5 3.6c2.1 0 3.4-1.1 3.4-3.7s-1.4-3.7-3.4-3.7h-2v7.3h2zM20.9 9c0-.6.5-1.1 1.1-1.1s1.1.5 1.1 1.1-.5 1.1-1.1 1.1-1.1-.5-1.1-1.1zm.2 2.2H23v7.7h-1.9v-7.7zM24.3 16.4h1.8c0 .9.8 1.4 2 1.4s1.7-.4 1.7-1-.3-.7-1.1-.9l-2-.4c-1.4-.3-2.3-1-2.3-2.2s1.3-2.4 3.4-2.4 3.7 1 3.7 2.8h-1.8c0-.9-.7-1.4-1.8-1.4s-1.7.4-1.7 1 .4.7 1 .9l2.1.4c1.5.3 2.3 1 2.3 2.1s-1.3 2.4-3.5 2.4-3.8-1-3.9-2.8zM36.5 10.9c2.2 0 3.7 1.3 3.8 3.4h-1.9c0-1.2-.8-1.9-2-1.9s-2.1 1-2.1 2.6.8 2.8 2.1 2.8 1.9-.8 2-2h1.9c0 2.2-1.7 3.4-3.8 3.4s-4-1.4-4-4.2 1.7-4 4-4zM41.1 15c0-2.5 1.9-4.1 4.2-4.1s4.2 1.6 4.2 4.1-1.9 4.1-4.2 4.1-4.2-1.6-4.2-4.1zm6.5 0c0-1.7-.9-2.6-2.4-2.6s-2.3.9-2.3 2.6.9 2.7 2.3 2.7 2.4-1 2.4-2.7zM52.6 18.9l-3-7.7h2l.8 2.2c.5 1.3.8 2.3 1.3 3.6.4-1.3.8-2.3 1.3-3.6l.8-2.2h1.9l-3 7.7h-2.2.1zM65.8 15.4h-6.1c0 1.5 1 2.3 2.3 2.3s1.8-.6 2-1.5h1.7c-.2 1.9-2 2.9-3.7 2.9-2.5 0-4.1-1.4-4.1-4.1s1.6-4.1 4-4.1 3.9 1.7 3.9 3.8v.6zm-6.1-1.1H64c0-1.2-.9-2-2.1-2s-2.1.7-2.2 2zM69 14.1c.4-2.2 1.2-3.1 3.4-3.1v1.5c-2.5.1-3.4.9-3.4 3.3v3h-1.9v-7.7h1.8V14zM84.2 13.9v5h-1.8v-4.5c0-1.3-.7-2-1.9-2s-2.1.9-2.1 2.5v4h-1.9V8.4h1.9v5.1c.2-1.6 1.4-2.5 2.9-2.5s2.9 1.1 2.9 2.9zM85.5 15c0-2.5 1.9-4.1 4.2-4.1s4.2 1.6 4.2 4.1-1.9 4.1-4.2 4.1-4.2-1.6-4.2-4.1zm6.6 0c0-1.7-.9-2.6-2.4-2.6s-2.3.9-2.3 2.6.9 2.7 2.3 2.7 2.4-1 2.4-2.7zM96.8 18.9L94 11.2h2l.7 2.1c.4 1.2.7 2.1 1.1 3.4.4-1.4.6-2.3 1-3.5l.6-2.1h1.7l.6 2.1c.4 1.2.6 2.1 1 3.5.4-1.3.7-2.2 1.1-3.4l.7-2.1h2l-2.8 7.7h-1.9l-1.6-5.5-1.6 5.5h-1.9.1z"/></svg>