<svg width="24" height="24" viewBox="0 0 24 24" fill="none" xmlns="http://www.w3.org/2000/svg">
<path d="M11 3.25C15.2802 3.25 18.75 6.7198 18.75 11C18.75 12.8698 18.0869 14.5841 16.9844 15.9229L21.0615 20L20.001 21.0605L15.9238 16.9834C14.5849 18.0865 12.8702 18.75 11 18.75C6.7198 18.75 3.25 15.2802 3.25 11C3.25 6.7198 6.7198 3.25 11 3.25ZM11 4.75C7.54822 4.75 4.75 7.54822 4.75 11C4.75 14.4518 7.54822 17.25 11 17.25C14.4518 17.25 17.25 14.4518 17.25 11C17.25 7.54822 14.4518 4.75 11 4.75Z" fill="#576067"/>
</svg>
