<svg id="Capa_3" xmlns="http://www.w3.org/2000/svg" viewBox="0 0 160 36"><defs><style>.st0{fill:#00e18a}.st1{fill:#113033}</style></defs><rect class="st0" width="160" height="35.8" rx="9.8" ry="9.8"/><path class="st1" d="M26.9 18.3c0 5.1-3.1 7.1-7.4 7.1H14V11h5.5c4.2 0 7.4 2.3 7.4 7.1zm-7.5 4.9c2.9 0 4.6-1.5 4.6-5.1S22.1 13 19.4 13h-2.7v10h2.7zM28.6 11.8c0-.8.7-1.5 1.5-1.5s1.5.7 1.5 1.5-.7 1.5-1.5 1.5-1.5-.7-1.5-1.5zm.3 3.1h2.6v10.5h-2.6V14.9zM33.2 22h2.5c0 1.2 1.1 1.9 2.7 1.9s2.3-.5 2.3-1.4-.4-1-1.5-1.2l-2.7-.5c-1.9-.4-3.1-1.4-3.1-3s1.8-3.3 4.6-3.3 5.1 1.4 5.1 3.8h-2.5c0-1.2-1-1.9-2.5-1.9s-2.3.5-2.3 1.4.5 1 1.4 1.2l2.9.5c2.1.4 3.1 1.4 3.1 2.9s-1.8 3.3-4.8 3.3-5.2-1.4-5.3-3.8h.1zM49.9 14.4c3 0 5.1 1.8 5.2 4.6h-2.6c0-1.6-1.1-2.6-2.7-2.6s-2.9 1.4-2.9 3.6 1.1 3.8 2.9 3.8 2.6-1.1 2.7-2.7h2.6c0 3-2.3 4.6-5.2 4.6s-5.5-1.9-5.5-5.7 2.3-5.5 5.5-5.5zM56.2 20.1c0-3.4 2.6-5.6 5.7-5.6s5.7 2.2 5.7 5.6-2.6 5.6-5.7 5.6-5.7-2.2-5.7-5.6zm8.9 0c0-2.3-1.2-3.6-3.3-3.6s-3.1 1.2-3.1 3.6 1.2 3.7 3.1 3.7 3.3-1.4 3.3-3.7zM71.9 25.4l-4.1-10.5h2.7l1.1 3c.7 1.8 1.1 3.1 1.8 4.9.5-1.8 1.1-3.1 1.8-4.9l1.1-3h2.6l-4.1 10.5h-3 .1zM90 20.6h-8.3c0 2.1 1.4 3.1 3.1 3.1s2.5-.8 2.7-2.1h2.3c-.3 2.6-2.7 4-5.1 4-3.4 0-5.6-1.9-5.6-5.6s2.2-5.6 5.5-5.6 5.3 2.3 5.3 5.2v.8zm-8.4-1.5h5.9c0-1.6-1.2-2.7-2.9-2.7s-2.9 1-3 2.7zM94.4 18.8c.5-3 1.6-4.2 4.6-4.2v2.1c-3.4.1-4.6 1.2-4.6 4.5v4.1h-2.6V14.8h2.5v4h.1zM115.1 18.5v6.8h-2.5v-6.2c0-1.8-1-2.7-2.6-2.7s-2.9 1.2-2.9 3.4v5.5h-2.6V10.9h2.6v7c.3-2.2 1.9-3.4 4-3.4s4 1.5 4 4zM116.9 20.1c0-3.4 2.6-5.6 5.7-5.6s5.7 2.2 5.7 5.6-2.6 5.6-5.7 5.6-5.7-2.2-5.7-5.6zm9 0c0-2.3-1.2-3.6-3.3-3.6s-3.1 1.2-3.1 3.6 1.2 3.7 3.1 3.7 3.3-1.4 3.3-3.7zM132.4 25.4l-3.8-10.5h2.7l1 2.9c.5 1.6 1 2.9 1.5 4.6.5-1.9.8-3.1 1.4-4.8l.8-2.9h2.3l.8 2.9c.5 1.6.8 2.9 1.4 4.8.5-1.8 1-3 1.5-4.6l1-2.9h2.7l-3.8 10.5h-2.6l-2.2-7.5-2.2 7.5h-2.6.1z"/></svg>