<svg id="Layer_1" xmlns="http://www.w3.org/2000/svg" viewBox="0 0 200 40"><defs><style>.st0{fill:#16e394}.st1{fill:#00e18a}.st2{fill:#fefefe}</style></defs><path class="st1" d="M24.7 31.5V5.6c.1-1.9 3.1-5 5-5h11.5v16.2c0 8.3-8.3 15.1-16.4 14.6zM-.3.6h16.4v23.2c0 .4.8 2.9 1 3.4 1.4 3.1 4.3 4.2 7.6 4.3-1.7 4.8-7.4 6.1-11.9 5.8C6.4 36.9 2.2 32.9.6 26.9l-.9-4.3V.6z"/><path class="st0" d="M-.3 20.7V1.1v19.6z"/><g><path class="st2" d="M193.2 14.5c0-4.4-4.9-5.6-8.5-4.4-2.8.9-3.5 3.9-.7 5.3 4.9 2.5 15.3 1 15.7 9 .6 9.9-16.2 11-21.7 5.9-1.1-1-2.9-4-2.6-5.4 0-.4 5.7-1.2 5.9-1s.3 1.4.4 1.7c1.9 4.1 12.9 3.9 11.6-1.4-.2-.9-1.1-1.3-1.9-1.6-4.5-2-12.4-1.2-14.8-6.5-5.4-11.8 18-15.6 21.7-5.1.2.5.9 2.6.1 2.8-1.4.5-3.9.2-5.4.7zM140.7 14.5c-.1-4.4-4.7-5.5-8.3-4.5s-3.8 3.9-.9 5.3c4.9 2.5 15.6 1 15.8 9.2.2 10.7-20 11.2-23.5 3.1-.3-.6-1.1-2.9-.4-3.2s5.4-.9 5.6-.7.3 1.4.4 1.7c1.9 4.2 12.9 3.8 11.6-1.4-.2-.9-1.1-1.3-1.9-1.6-4.5-2-12.6-1.2-14.9-6.6-4.9-11.9 18-15.1 21.7-5.1.2.6.9 2.7.2 3-1.4.5-3.9.2-5.4.7zM154.9 5.5l6.5 19.4L168 5.5h6.2l-.2.9c-3.4 8-6 16.3-9.4 24.3-1.6 3.7-4.3 8.9-9.1 8.9h-5.9v-4.8h4.1c.1 0 1.4-.6 1.6-.7 1.1-.8 2.1-2.6 2.4-3.9l-9.2-24.6h6.4zM106.9 32.4h-6.2V14.3c0-.2-.6-1.8-.7-2-1.9-3.3-9-3.4-10.6.4s-.7 2.3-.7 2.8v16.9h-6V13.9c0-.2.3-1.4.4-1.7C86 1.3 107 2.6 107 14.6v17.9zM59.2 5.5v16.7c0 .3.3 1.8.4 2.1 1.3 4.8 9.7 5 11.6 1 .3-.6.8-2.4.8-2.9V5.5h6v18.3c0 10.9-20.3 12.9-24 2.9-.2-.6-.7-2.2-.7-2.7V5.5h6zM112.4 5.5h6v27h-6z"/></g></svg>