<?xml version="1.0" encoding="UTF-8"?>
<svg id="Capa_2" data-name="Capa 2" xmlns="http://www.w3.org/2000/svg" xmlns:xlink="http://www.w3.org/1999/xlink" viewBox="0 0 254.87 64.24">
  <defs>
    <style>
      .cls-1, .cls-2, .cls-3, .cls-4, .cls-5, .cls-6, .cls-7, .cls-8, .cls-9, .cls-10, .cls-11, .cls-12, .cls-13, .cls-14, .cls-15, .cls-16, .cls-17, .cls-18, .cls-19, .cls-20, .cls-21, .cls-22, .cls-23, .cls-24, .cls-25, .cls-26, .cls-27, .cls-28, .cls-29, .cls-30, .cls-31, .cls-32, .cls-33, .cls-34, .cls-35, .cls-36, .cls-37, .cls-38, .cls-39, .cls-40, .cls-41, .cls-42, .cls-43, .cls-44, .cls-45, .cls-46, .cls-47, .cls-48, .cls-49, .cls-50, .cls-51, .cls-52, .cls-53, .cls-54, .cls-55, .cls-56, .cls-57, .cls-58, .cls-59, .cls-60, .cls-61, .cls-62, .cls-63, .cls-64, .cls-65 {
        stroke-miterlimit: 3.86;
      }

      .cls-1, .cls-2, .cls-3, .cls-4, .cls-5, .cls-6, .cls-7, .cls-8, .cls-9, .cls-10, .cls-11, .cls-12, .cls-13, .cls-14, .cls-15, .cls-16, .cls-17, .cls-18, .cls-19, .cls-20, .cls-21, .cls-22, .cls-23, .cls-24, .cls-25, .cls-27, .cls-28, .cls-29, .cls-30, .cls-31, .cls-32, .cls-33, .cls-34, .cls-35, .cls-36, .cls-37, .cls-38, .cls-39, .cls-40, .cls-41, .cls-42, .cls-43, .cls-44, .cls-45, .cls-46, .cls-47, .cls-48, .cls-49, .cls-50, .cls-51, .cls-52, .cls-54, .cls-55, .cls-56, .cls-57, .cls-58, .cls-59, .cls-60, .cls-61, .cls-62, .cls-63, .cls-64 {
        stroke: #201814;
      }

      .cls-1, .cls-2, .cls-3, .cls-5, .cls-6, .cls-7, .cls-8, .cls-9, .cls-10, .cls-11, .cls-13, .cls-14, .cls-66, .cls-17, .cls-19, .cls-67, .cls-21, .cls-22, .cls-24, .cls-30, .cls-32, .cls-34, .cls-36, .cls-37, .cls-40, .cls-41, .cls-68, .cls-42, .cls-43, .cls-45, .cls-47, .cls-53, .cls-56, .cls-57, .cls-60, .cls-69 {
        fill-rule: evenodd;
      }

      .cls-1, .cls-4, .cls-7, .cls-12, .cls-13, .cls-15, .cls-16, .cls-18, .cls-20, .cls-21, .cls-22, .cls-23, .cls-70, .cls-25, .cls-28, .cls-31, .cls-33, .cls-35, .cls-39, .cls-44, .cls-48, .cls-51, .cls-52, .cls-54, .cls-56, .cls-62, .cls-69, .cls-63, .cls-64, .cls-65 {
        fill: none;
      }

      .cls-1, .cls-6 {
        stroke-width: .05px;
      }

      .cls-2, .cls-8, .cls-10, .cls-22, .cls-29, .cls-37, .cls-45, .cls-50, .cls-53, .cls-54, .cls-56 {
        stroke-width: .06px;
      }

      .cls-2, .cls-14, .cls-71, .cls-40 {
        fill: #008458;
      }

      .cls-3, .cls-7 {
        stroke-width: .01px;
      }

      .cls-3, .cls-72, .cls-45 {
        fill: #201814;
      }

      .cls-4 {
        stroke-width: .02px;
      }

      .cls-5 {
        stroke-width: .06px;
      }

      .cls-5, .cls-9, .cls-67, .cls-24, .cls-34, .cls-37, .cls-46, .cls-50, .cls-55, .cls-58 {
        fill: #db2f36;
      }

      .cls-6, .cls-10, .cls-36 {
        fill: #fff;
      }

      .cls-8, .cls-11, .cls-66, .cls-19, .cls-29, .cls-30, .cls-38, .cls-41, .cls-49, .cls-53, .cls-61 {
        fill: #c9a400;
      }

      .cls-9, .cls-14, .cls-17, .cls-21, .cls-41, .cls-47, .cls-48, .cls-55, .cls-58, .cls-59, .cls-60, .cls-61 {
        stroke-width: .12px;
      }

      .cls-73 {
        clip-path: url(#clippath-2);
      }

      .cls-11, .cls-13, .cls-24, .cls-27, .cls-32, .cls-36, .cls-40, .cls-42, .cls-43, .cls-46, .cls-49, .cls-63 {
        stroke-width: .09px;
      }

      .cls-12 {
        stroke-width: .14px;
      }

      .cls-15 {
        stroke-width: .13px;
      }

      .cls-66, .cls-70, .cls-71, .cls-74, .cls-72, .cls-75, .cls-69 {
        stroke-width: 0px;
      }

      .cls-16 {
        stroke-width: .15px;
      }

      .cls-17, .cls-27, .cls-32, .cls-76, .cls-59 {
        fill: #aba29e;
      }

      .cls-18 {
        stroke-width: .22px;
      }

      .cls-19 {
        stroke-width: .07px;
      }

      .cls-20 {
        stroke-width: .2px;
      }

      .cls-77 {
        clip-path: url(#clippath-7);
      }

      .cls-22 {
        stroke-linecap: round;
      }

      .cls-23 {
        stroke-width: .02px;
      }

      .cls-78 {
        clip-path: url(#clippath-1);
      }

      .cls-79 {
        clip-path: url(#clippath-4);
      }

      .cls-70, .cls-46, .cls-50, .cls-55 {
        clip-rule: evenodd;
      }

      .cls-25 {
        stroke-width: .23px;
      }

      .cls-26 {
        fill: #cc131d;
        stroke: #ad161d;
        stroke-width: .49px;
      }

      .cls-28 {
        stroke-width: .16px;
      }

      .cls-80 {
        fill: #21265e;
        stroke: #21265e;
      }

      .cls-80, .cls-81, .cls-68 {
        stroke-miterlimit: 3.86;
      }

      .cls-80, .cls-68 {
        stroke-width: .49px;
      }

      .cls-30, .cls-38 {
        stroke-width: .08px;
      }

      .cls-31 {
        stroke-width: .29px;
      }

      .cls-33 {
        stroke-width: .19px;
      }

      .cls-34, .cls-57 {
        stroke-width: .14px;
      }

      .cls-74, .cls-42, .cls-82, .cls-57, .cls-60 {
        fill: #006eb6;
      }

      .cls-83 {
        clip-path: url(#clippath-9);
      }

      .cls-35 {
        stroke-width: .11px;
      }

      .cls-84 {
        clip-path: url(#clippath);
      }

      .cls-39 {
        stroke-width: .13px;
      }

      .cls-85 {
        clip-path: url(#clippath-3);
      }

      .cls-81 {
        fill: #faba00;
        stroke: #faba00;
        stroke-width: .52px;
      }

      .cls-68 {
        fill: #ffec00;
        stroke: #ffec00;
      }

      .cls-43 {
        fill: #ec7baa;
      }

      .cls-44 {
        stroke-width: .25px;
      }

      .cls-86 {
        clip-path: url(#clippath-8);
      }

      .cls-47 {
        fill: #ffe39b;
      }

      .cls-51 {
        stroke-width: .17px;
      }

      .cls-52 {
        stroke-width: .07px;
      }

      .cls-87 {
        clip-path: url(#clippath-5);
      }

      .cls-53 {
        stroke: #c9a400;
      }

      .cls-88 {
        clip-path: url(#clippath-10);
      }

      .cls-62 {
        stroke-width: .05px;
      }

      .cls-75 {
        fill: #ffd300;
      }

      .cls-64 {
        stroke-width: .1px;
      }

      .cls-65 {
        stroke: #ffe947;
        stroke-width: 1px;
      }
    </style>
    <clipPath id="clippath">
      <path class="cls-70" d="m39.35,21.81c0-.11.09-.21.21-.21s.21.09.21.21-.09.21-.21.21-.21-.09-.21-.21Z"/>
    </clipPath>
    <clipPath id="clippath-1">
      <path class="cls-50" d="m39.56,24.91c-.55,0-1.05-.05-1.43-.15.38-.1.88-.16,1.43-.17.55,0,1.05.06,1.43.17-.38.1-.88.15-1.43.15Z"/>
    </clipPath>
    <clipPath id="clippath-2">
      <rect class="cls-27" x="37.72" y="27.86" width="3.68" height="18.77"/>
    </clipPath>
    <clipPath id="clippath-3">
      <path class="cls-50" d="m73.34,24.91c-.55,0-1.05-.05-1.43-.15.38-.1.88-.16,1.43-.17.55,0,1.05.06,1.43.17-.38.1-.88.15-1.43.15Z"/>
    </clipPath>
    <clipPath id="clippath-4">
      <path class="cls-70" d="m73.14,22.03c0-.11.09-.21.21-.21s.21.09.21.21-.09.21-.21.21-.21-.09-.21-.21Z"/>
    </clipPath>
    <clipPath id="clippath-5">
      <rect class="cls-27" x="71.52" y="27.86" width="3.68" height="18.77"/>
    </clipPath>
    <clipPath id="clippath-7">
      <path class="cls-46" d="m56.42,24.53c-2.51,0-4.77-.3-6.5-.77,1.72-.46,3.99-.75,6.5-.75,2.51,0,4.78.29,6.51.75-1.72.46-4,.76-6.51.77Z"/>
    </clipPath>
    <clipPath id="clippath-8">
      <ellipse class="cls-74" cx="56.41" cy="11.03" rx="1" ry=".99"/>
    </clipPath>
    <clipPath id="clippath-9">
      <path class="cls-70" d="m55.39,11.07c0-.55.45-.99,1-.99s1,.44,1,.99-.45.99-1,.99-1-.44-1-.99Z"/>
    </clipPath>
    <clipPath id="clippath-10">
      <path class="cls-55" d="m56.47,45.74c0,3.1-2.53,5.61-5.67,5.61s-5.7-2.51-5.7-5.61v-7.86h11.37v7.86Z"/>
    </clipPath>
  </defs>
  <g id="Capa_1-2" data-name="Capa 1">
    <g>
      <g>
        <rect class="cls-80" x=".25" y=".29" width="12.01" height="63.71"/>
        <polygon class="cls-68" points="9.42 23.25 7.21 21.54 4.99 23.25 5.84 20.49 3.63 18.78 6.36 18.78 7.21 16.02 8.05 18.78 10.79 18.78 8.57 20.49 9.42 23.25"/>
        <polygon class="cls-68" points="7.21 35.94 5 34.23 2.79 35.94 3.63 33.18 1.42 31.47 4.16 31.47 5 28.71 5.85 31.47 8.58 31.47 6.37 33.18 7.21 35.94"/>
        <rect class="cls-26" x="12.5" y=".29" width="12.5" height="63.71"/>
        <polygon class="cls-68" points="9.66 49.61 7.45 47.9 5.24 49.61 6.08 46.85 3.87 45.14 6.61 45.14 7.45 42.38 8.3 45.14 11.03 45.14 8.82 46.85 9.66 49.61"/>
        <rect class="cls-81" x="12.53" y="16.34" width="12.7" height="31.72"/>
      </g>
      <g>
        <g>
          <rect class="cls-75" x="24.52" y=".01" width="230.34" height="64.23"/>
          <g>
            <path class="cls-72" d="m90.26,27.28h1.88v2.34c-.69.3-1.38.44-2.06.44-.93,0-1.67-.27-2.23-.8-.56-.53-.83-1.19-.83-1.98,0-.83.29-1.51.86-2.06.57-.55,1.3-.82,2.16-.82.32,0,.62.03.9.1.28.07.64.19,1.08.37v.81c-.67-.38-1.33-.57-1.99-.57-.61,0-1.13.21-1.55.62-.42.41-.63.92-.63,1.52,0,.63.21,1.14.63,1.54.42.4.96.6,1.62.6.32,0,.71-.07,1.15-.22l.08-.02v-1.15h-1.08v-.7Z"/>
            <path class="cls-72" d="m96.07,24.4c.87,0,1.59.27,2.16.81.58.54.87,1.22.87,2.03s-.29,1.49-.87,2.02c-.58.53-1.31.8-2.2.8s-1.55-.27-2.11-.8-.85-1.2-.85-2.01.28-1.51.85-2.05,1.28-.81,2.15-.81Zm.03.75c-.64,0-1.17.2-1.58.59-.41.4-.62.9-.62,1.52s.21,1.09.62,1.49c.41.4.93.59,1.56.59s1.15-.2,1.57-.6.63-.91.63-1.51-.21-1.08-.63-1.48-.93-.6-1.54-.6Z"/>
            <path class="cls-72" d="m101.99,30.01h-1.9v-5.53h1.47c.46,0,.82.06,1.08.18.26.12.46.29.59.51s.2.46.2.75c0,.54-.29.93-.86,1.17.41.08.74.24.98.5.24.26.36.56.36.92,0,.28-.07.53-.22.76-.15.22-.36.4-.65.54-.28.14-.64.21-1.07.21Zm-.41-4.82h-.69v1.66h.53c.43,0,.73-.08.91-.24.18-.16.27-.37.27-.63,0-.53-.34-.8-1.03-.8Zm.06,2.37h-.75v1.75h.79c.44,0,.74-.03.89-.1.16-.07.28-.17.38-.31.09-.14.14-.3.14-.46s-.05-.32-.15-.46c-.1-.14-.24-.24-.43-.31-.19-.07-.48-.1-.88-.1Z"/>
            <path class="cls-72" d="m104.72,24.48h.8v5.53h-.8v-5.53Z"/>
            <path class="cls-72" d="m106.77,24.48h3.18v.7h-2.38v1.69h2.3v.71h-2.3v1.72h2.45v.7h-3.26v-5.52Z"/>
            <path class="cls-72" d="m110.91,30.01v-5.53h1.41c.57,0,1.02.14,1.35.42s.5.65.5,1.12c0,.32-.08.6-.25.84-.16.23-.4.41-.7.53.18.12.35.27.53.47.17.2.41.55.72,1.05.19.31.35.55.47.71l.3.4h-.96l-.24-.36s-.02-.04-.05-.07l-.16-.22-.25-.4-.27-.43c-.17-.23-.32-.41-.46-.54-.14-.13-.26-.23-.37-.29-.11-.06-.3-.09-.56-.09h-.21v2.41h-.8Zm1.04-4.86h-.24v1.75h.31c.41,0,.69-.03.84-.1.15-.07.27-.17.35-.31.08-.14.13-.3.13-.47s-.05-.33-.14-.47c-.09-.14-.23-.24-.4-.3s-.45-.09-.85-.09Z"/>
            <path class="cls-72" d="m120.31,24.48h.76v5.53h-.69l-3.75-4.26v4.26h-.76v-5.53h.65l3.78,4.29v-4.29Z"/>
            <path class="cls-72" d="m125.02,24.4c.87,0,1.59.27,2.16.81.58.54.87,1.22.87,2.03s-.29,1.49-.87,2.02c-.58.53-1.31.8-2.2.8s-1.55-.27-2.11-.8-.85-1.2-.85-2.01.28-1.51.85-2.05,1.28-.81,2.15-.81Zm.03.75c-.64,0-1.17.2-1.58.59-.41.4-.62.9-.62,1.52s.21,1.09.62,1.49c.41.4.93.59,1.56.59s1.15-.2,1.57-.6.63-.91.63-1.51-.21-1.08-.63-1.48-.93-.6-1.54-.6Z"/>
            <path class="cls-72" d="m87.24,38.36v-5.52h1.89c.76,0,1.37.11,1.81.34.44.23.8.56,1.06,1s.39.92.39,1.43c0,.37-.07.72-.22,1.06s-.35.63-.62.89c-.27.26-.59.46-.95.6-.21.08-.4.14-.58.16-.18.03-.51.04-1.01.04h-1.77Zm1.81-4.82h-1v4.11h1.03c.4,0,.71-.03.94-.08.22-.05.41-.12.56-.21.15-.08.28-.19.41-.31.4-.4.59-.9.59-1.5s-.2-1.08-.61-1.45c-.15-.14-.32-.26-.52-.34s-.38-.15-.55-.18c-.17-.03-.45-.04-.84-.04Z"/>
            <path class="cls-72" d="m93.4,32.84h3.18v.7h-2.38v1.69h2.3v.71h-2.3v1.72h2.45v.7h-3.26v-5.52Z"/>
            <path class="cls-72" d="m99.79,32.84h3.18v.7h-2.38v1.69h2.3v.71h-2.3v1.72h2.45v.7h-3.26v-5.52Z"/>
            <path class="cls-72" d="m105.29,36.05l-.61-.37c-.38-.23-.65-.46-.82-.68-.16-.22-.24-.48-.24-.77,0-.44.15-.79.46-1.06s.7-.41,1.19-.41.9.13,1.29.39v.9c-.4-.38-.84-.57-1.3-.57-.26,0-.48.06-.65.18s-.25.27-.25.46c0,.17.06.32.19.46.12.14.32.3.6.46l.61.36c.68.4,1.03.92,1.03,1.54,0,.44-.15.8-.45,1.08-.3.28-.69.42-1.18.42-.55,0-1.06-.17-1.51-.5v-1.01c.43.54.94.81,1.51.81.25,0,.46-.07.63-.21.17-.14.25-.31.25-.52,0-.34-.25-.66-.74-.96Z"/>
            <path class="cls-72" d="m107.63,38.36v-5.54h1.78c.54,0,.96.14,1.28.43.32.29.48.67.48,1.15,0,.32-.08.61-.25.85-.16.25-.39.43-.67.54-.28.11-.69.17-1.22.17h-.59v2.4h-.81Zm1.64-4.83h-.83v1.73h.88c.33,0,.58-.08.75-.23.18-.15.26-.37.26-.65,0-.57-.36-.85-1.07-.85Z"/>
            <path class="cls-72" d="m113.09,32.8h.56l2.52,5.56h-.82l-.75-1.64h-2.39l-.7,1.64h-.83l2.41-5.56Zm1.18,3.22l-.9-2-.84,2h1.74Z"/>
            <path class="cls-72" d="m121.25,32.84h.76v5.53h-.69l-3.75-4.26v4.26h-.76v-5.53h.65l3.78,4.29v-4.29Zm-.56-1.5c0,.32-.08.57-.23.75-.11.14-.25.21-.42.21-.15,0-.35-.05-.59-.16-.25-.11-.44-.16-.56-.16-.07,0-.13.03-.18.08-.05.05-.08.13-.09.24h-.34c.04-.37.12-.62.23-.75.11-.12.25-.19.43-.19.15,0,.41.07.76.21.18.07.31.11.39.11s.14-.03.19-.08.09-.14.11-.26h.31Z"/>
            <path class="cls-72" d="m125,32.8h.56l2.52,5.56h-.82l-.75-1.64h-2.39l-.7,1.64h-.83l2.41-5.56Zm1.18,3.22l-.9-2-.84,2h1.74Z"/>
          </g>
          <g>
            <g>
              <path class="cls-37" d="m37.82,23.98s-.12,0-.18-.04c-.06-.04-.26-.23-.26-.23l-.15-.11-.14-.2s-.17-.28-.09-.49c.08-.21.2-.29.32-.35.12-.06.36-.14.36-.14,0,0,.19-.09.26-.1.06-.01.29-.08.29-.08,0,0,.06-.04.13-.06.06-.03.15-.03.2-.04.05-.01.18-.06.26-.06.12,0,.31.02.37.02s.28.01.37.01.41-.03.5-.03.15-.01.26,0c.1.01.28.08.33.1.05.03.36.14.47.18.12.04.4.09.52.15.13.06.21.17.27.26.06.09.08.18.1.25.03.06.03.2,0,.26-.03.06-.12.19-.12.19l-.14.24-.18.15s-.13.13-.23.11c-.1-.01-1.14-.2-1.8-.2s-1.73.2-1.73.2Z"/>
              <path class="cls-8" d="m39.25,22.44c0-.32.14-.59.31-.59s.31.26.31.59-.14.59-.31.59-.31-.26-.31-.59Z"/>
              <path class="cls-8" d="m39.42,22.44c0-.3.06-.54.14-.54s.14.24.14.54-.06.54-.14.54-.14-.24-.14-.54Z"/>
              <g>
                <path class="cls-66" d="m39.35,21.81c0-.11.09-.21.21-.21s.21.09.21.21-.09.21-.21.21-.21-.09-.21-.21Z"/>
                <polygon class="cls-19" points="39.71 21.74 39.71 21.88 39.39 21.88 39.39 21.74 39.49 21.74 39.49 21.43 39.35 21.43 39.35 21.3 39.49 21.3 39.49 21.16 39.63 21.16 39.63 21.3 39.77 21.3 39.77 21.43 39.63 21.43 39.63 21.74 39.71 21.74"/>
                <g class="cls-84">
                  <polygon class="cls-19" points="39.85 21.74 39.85 21.88 39.28 21.88 39.28 21.74 39.49 21.74 39.49 21.43 39.35 21.43 39.35 21.3 39.49 21.3 39.49 21.16 39.63 21.16 39.63 21.3 39.77 21.3 39.77 21.43 39.63 21.43 39.63 21.74 39.85 21.74"/>
                </g>
                <path class="cls-69" d="m39.35,21.81c0-.11.09-.21.21-.21s.21.09.21.21-.09.21-.21.21-.21-.09-.21-.21Z"/>
                <path class="cls-69" d="m39.35,21.81c0-.11.09-.21.21-.21s.21.09.21.21-.09.21-.21.21-.21-.09-.21-.21Z"/>
                <path class="cls-56" d="m39.62,21.62c.09.03.15.1.15.2,0,.11-.09.21-.21.21s-.21-.09-.21-.21c0-.1.07-.18.15-.2"/>
              </g>
              <path class="cls-8" d="m39.56,23.94h-1.09l-.03-.28-.05-.29-.05-.36c-.3-.41-.58-.68-.67-.63.02-.08.05-.13.11-.17.27-.16.82.23,1.23.88.04.06.07.12.11.18h.9c.03-.06.07-.12.11-.18.41-.65.96-1.05,1.23-.88.06.04.08.09.11.17-.09-.06-.37.21-.67.63l-.05.36-.05.29-.03.28h-1.09Z"/>
              <path class="cls-56" d="m37.72,22.38c.2-.13.68.27,1.07.88"/>
              <path class="cls-56" d="m41.41,22.38c-.2-.13-.68.27-1.07.88"/>
              <path class="cls-8" d="m37.96,24.45c-.05-.13-.13-.25-.13-.25.44-.14,1.05-.22,1.74-.22.68,0,1.3.09,1.74.22,0,0-.05.09-.12.22-.04.07-.09.19-.09.19-.4-.13-.91-.19-1.54-.19-.63,0-1.24.08-1.55.2,0,0-.02-.08-.05-.16h0Z"/>
              <path class="cls-8" d="m39.56,25.04c.55,0,1.16-.09,1.38-.15.15-.05.24-.12.22-.2,0-.04-.04-.07-.08-.09-.33-.11-.92-.19-1.52-.19-.6,0-1.19.08-1.52.19-.04.02-.08.05-.08.09-.02.08.07.15.22.2.22.06.83.15,1.38.15Z"/>
              <path class="cls-8" d="m41.33,23.94l-.13-.13s-.13.08-.29.06c-.16-.03-.21-.23-.21-.23,0,0-.18.16-.33.15-.15-.01-.24-.15-.24-.15,0,0-.16.12-.3.11-.14-.01-.28-.2-.28-.2,0,0-.14.19-.28.2-.14.01-.26-.13-.26-.13,0,0-.06.14-.24.17-.18.03-.33-.15-.33-.15,0,0-.1.17-.22.21-.12.04-.28-.06-.28-.06,0,0-.03.06-.04.1-.02.04-.07.04-.07.04l.04.11c.44-.13,1.03-.21,1.71-.21.67,0,1.28.08,1.72.22l.04-.13Z"/>
              <path class="cls-8" d="m39.57,23.33h.06s-.01.07-.01.1c0,.14.11.25.25.25.11,0,.21-.07.24-.17,0,0,.02-.09.03-.09,0,0,0,.1.01.09.02.13.13.21.25.21.14,0,.25-.11.25-.25,0-.01,0-.02,0-.03l.08-.08.04.1s-.02.07-.02.11c0,.13.11.24.24.24.08,0,.16-.04.2-.11l.05-.07v.08c0,.08.03.16.11.17,0,0,.09,0,.21-.09.12-.1.18-.18.18-.18v.1s-.11.2-.21.26c-.06.03-.14.07-.21.06-.07-.01-.13-.07-.15-.14-.05.03-.11.05-.18.05-.14,0-.27-.08-.32-.2-.07.07-.16.12-.26.12-.11,0-.22-.05-.28-.14-.06.06-.15.1-.25.1-.13,0-.24-.06-.3-.16-.06.1-.18.16-.3.16-.1,0-.18-.04-.25-.1-.07.08-.17.14-.28.14-.11,0-.2-.05-.26-.12-.05.12-.18.2-.32.2-.07,0-.13-.02-.18-.05-.03.07-.08.13-.15.14-.07.01-.16-.02-.21-.06-.11-.06-.23-.26-.23-.26l.02-.1s.06.08.18.18c.12.1.21.09.21.09.08-.01.11-.09.11-.17v-.08s.05.07.05.07c.04.06.12.11.2.11.13,0,.24-.11.24-.24,0-.04,0-.08-.02-.11l.04-.1.08.08s0,.02,0,.03c0,.14.11.25.25.25.12,0,.23-.08.25-.21,0,0,0-.09.01-.09.01,0,.03.09.04.09.03.1.13.17.24.17.14,0,.25-.11.25-.25,0-.03,0-.06-.01-.09h.07Z"/>
              <path class="cls-8" d="m39.56,23.98c-.68,0-1.3.09-1.74.22-.03,0-.07-.01-.07-.04,0-.03.01-.06.04-.07.44-.14,1.07-.23,1.77-.23.7,0,1.33.09,1.77.23.03,0,.05.05.04.07,0,.03-.05.05-.08.04-.44-.14-1.06-.22-1.74-.22Z"/>
              <path class="cls-10" d="m38.9,24.23c0-.05.04-.1.1-.1s.1.04.1.1-.04.1-.1.1-.1-.04-.1-.1Z"/>
              <path class="cls-37" d="m39.57,24.27h-.22s-.07-.03-.07-.07.03-.07.07-.07h.44s.07.03.07.07-.03.07-.07.07h-.22Z"/>
              <path class="cls-2" d="m38.47,24.35l-.16.02s-.08-.02-.08-.06c0-.04.02-.08.06-.08l.16-.02.16-.03s.08.02.08.06-.02.08-.06.08l-.16.03Z"/>
              <polygon class="cls-37" points="37.84 24.47 37.9 24.35 38.06 24.38 37.97 24.51 37.84 24.47"/>
              <path class="cls-10" d="m40.03,24.23c0-.05.04-.1.1-.1s.1.04.1.1-.04.1-.1.1-.1-.04-.1-.1Z"/>
              <path class="cls-2" d="m40.66,24.35l.16.02s.08-.02.08-.06c0-.04-.02-.08-.06-.08l-.16-.02-.16-.03s-.08.02-.08.06.02.08.06.08l.16.03Z"/>
              <polygon class="cls-37" points="41.28 24.47 41.22 24.35 41.07 24.36 41.14 24.5 41.28 24.47"/>
              <g>
                <path class="cls-67" d="m39.56,24.91c-.55,0-1.05-.05-1.43-.15.38-.1.88-.16,1.43-.17.55,0,1.05.06,1.43.17-.38.1-.88.15-1.43.15Z"/>
                <g class="cls-78">
                  <g>
                    <line class="cls-54" x1="40.01" y1="24.28" x2="40.01" y2="25.17"/>
                    <line class="cls-52" x1="39.78" y1="24.28" x2="39.78" y2="25.17"/>
                    <line class="cls-63" x1="39.59" y1="24.28" x2="39.59" y2="25.17"/>
                    <line class="cls-63" x1="39.41" y1="24.28" x2="39.41" y2="25.17"/>
                    <line class="cls-63" x1="39.24" y1="24.28" x2="39.24" y2="25.17"/>
                    <line class="cls-63" x1="39.09" y1="24.28" x2="39.09" y2="25.17"/>
                    <line class="cls-64" x1="38.94" y1="24.28" x2="38.94" y2="25.17"/>
                    <line class="cls-35" x1="38.8" y1="24.28" x2="38.8" y2="25.17"/>
                    <line class="cls-35" x1="38.65" y1="24.28" x2="38.65" y2="25.17"/>
                    <line class="cls-39" x1="38.5" y1="24.28" x2="38.5" y2="25.17"/>
                    <line class="cls-12" x1="38.34" y1="24.28" x2="38.34" y2="25.17"/>
                  </g>
                </g>
                <path class="cls-56" d="m39.56,24.91c-.55,0-1.05-.05-1.43-.15.38-.1.88-.16,1.43-.17.55,0,1.05.06,1.43.17-.38.1-.88.15-1.43.15Z"/>
              </g>
              <path class="cls-8" d="m41.3,23.66s0-.09-.03-.1c-.03-.01-.07.02-.08.06-.01.04,0,.09.03.1.03,0,.07-.02.08-.06Z"/>
              <path class="cls-8" d="m40.2,23.44s-.02-.09-.05-.09c-.03,0-.06.03-.07.08,0,.05.02.09.05.09.03,0,.06-.03.07-.08Z"/>
              <path class="cls-8" d="m38.93,23.44s.02-.09.05-.09c.03,0,.06.03.07.08,0,.05-.02.09-.05.09-.03,0-.06-.03-.07-.08Z"/>
              <path class="cls-8" d="m37.83,23.66s0-.09.03-.1c.03-.01.07.02.08.06.01.04,0,.09-.03.1-.03,0-.07-.02-.08-.06Z"/>
              <g>
                <polygon class="cls-8" points="39.56 22.78 39.37 22.9 39.51 23.23 39.56 23.26 39.61 23.23 39.76 22.9 39.56 22.78"/>
                <polygon class="cls-8" points="39.13 23.27 39.22 23.41 39.53 23.31 39.56 23.27 39.53 23.22 39.22 23.13 39.13 23.27"/>
                <polygon class="cls-8" points="39.99 23.27 39.9 23.41 39.6 23.31 39.56 23.27 39.6 23.22 39.9 23.13 39.99 23.27"/>
              </g>
              <g>
                <polygon class="cls-8" points="38.3 22.93 38.14 23.08 38.34 23.34 38.39 23.37 38.43 23.32 38.5 23 38.3 22.93"/>
                <polygon class="cls-8" points="37.98 23.46 38.09 23.58 38.37 23.42 38.39 23.37 38.35 23.33 38.03 23.3 37.98 23.46"/>
                <polygon class="cls-8" points="38.81 23.29 38.75 23.44 38.44 23.41 38.4 23.37 38.42 23.32 38.69 23.16 38.81 23.29"/>
              </g>
              <polygon class="cls-8" points="37.67 23.51 37.65 23.66 37.33 23.7 37.28 23.67 37.29 23.61 37.53 23.41 37.67 23.51"/>
              <path class="cls-8" d="m38.28,23.37c0-.06.05-.11.11-.11s.11.05.11.11-.05.11-.11.11-.11-.05-.11-.11Z"/>
              <g>
                <polygon class="cls-8" points="40.83 22.93 40.98 23.08 40.79 23.34 40.74 23.37 40.7 23.32 40.63 23 40.83 22.93"/>
                <polygon class="cls-8" points="41.15 23.46 41.04 23.58 40.76 23.42 40.74 23.37 40.78 23.33 41.09 23.3 41.15 23.46"/>
                <polygon class="cls-8" points="40.31 23.29 40.37 23.44 40.69 23.41 40.73 23.37 40.71 23.32 40.43 23.16 40.31 23.29"/>
              </g>
              <polygon class="cls-8" points="41.41 23.51 41.44 23.66 41.75 23.7 41.8 23.67 41.79 23.61 41.55 23.41 41.41 23.51"/>
              <path class="cls-8" d="m39.45,23.27c0-.06.05-.11.11-.11s.11.05.11.11-.05.11-.11.11-.11-.05-.11-.11Z"/>
              <path class="cls-8" d="m40.62,23.37c0-.06.05-.11.11-.11s.11.05.11.11-.05.11-.11.11-.11-.05-.11-.11Z"/>
              <path class="cls-29" d="m37.24,23.69s-.09-.11-.15-.17c-.04-.04-.15-.08-.15-.08,0-.02.06-.07.13-.07.04,0,.08.02.1.05v-.05s.06.01.09.08c.03.07,0,.17,0,.17,0,0,0,.05-.03.07Z"/>
              <path class="cls-8" d="m37.25,23.63s.08-.02.12.01c.04.04.05.09.03.12-.03.03-.08.02-.12-.01-.04-.04-.05-.09-.03-.12Z"/>
              <path class="cls-29" d="m41.84,23.69s.09-.11.15-.17c.04-.04.15-.08.15-.08,0-.02-.06-.07-.13-.07-.04,0-.08.02-.1.05v-.05s-.06.01-.09.08c-.03.07,0,.17,0,.17,0,0,0,.05.03.07Z"/>
              <path class="cls-8" d="m41.84,23.63s-.08-.02-.12.01c-.04.04-.05.09-.03.12.03.03.08.02.12-.01.04-.04.05-.09.03-.12Z"/>
            </g>
            <g>
              <rect class="cls-49" x="37.05" y="24.99" width="5.05" height="1.38"/>
              <path class="cls-11" d="m37.58,27.28s.06-.02.09-.02h3.78s.07,0,.1.02c-.13-.05-.22-.17-.22-.31s.1-.27.23-.32c-.03.01-.07.02-.11.02h-3.78s-.07,0-.11-.01h.02c.13.05.21.17.21.31s-.09.26-.22.31Z"/>
              <path class="cls-11" d="m37.67,27.27h3.78c.13,0,.23.08.23.18h0c0,.1-.1.18-.23.18h-3.78c-.13,0-.23-.08-.23-.18h0c0-.1.1-.18.23-.18Z"/>
              <path class="cls-11" d="m37.67,26.37h3.78c.13,0,.23.07.23.16h0c0,.09-.1.16-.23.16h-3.78c-.13,0-.23-.07-.23-.16h0c0-.09.1-.16.23-.16Z"/>
            </g>
            <g>
              <path class="cls-42" d="m43.1,49.53c-.35,0-.66-.08-.89-.2-.23-.12-.54-.2-.88-.2s-.66.07-.88.2c-.23.12-.54.2-.89.2s-.66-.09-.89-.21c-.23-.12-.53-.19-.86-.19s-.65.07-.87.19c-.23.13-.55.21-.89.21v.57c.35,0,.67-.08.89-.21.23-.12.53-.19.87-.19s.63.07.86.19c.23.13.54.21.89.21s.66-.08.89-.2c.23-.12.54-.2.88-.2s.65.07.88.2c.23.13.54.2.88.2v-.57Z"/>
              <path class="cls-32" d="m43.1,50.1c-.35,0-.66-.08-.89-.2-.23-.12-.54-.2-.88-.2s-.66.07-.88.2c-.23.12-.54.2-.89.2s-.66-.09-.89-.21c-.23-.12-.53-.19-.86-.19s-.65.07-.87.19c-.23.13-.55.21-.89.21v.57c.35,0,.67-.08.89-.21.23-.12.53-.19.87-.19s.63.07.86.19c.23.13.54.21.89.21s.66-.08.89-.2c.23-.12.54-.2.88-.2s.65.07.88.19c.23.13.54.2.88.2v-.57Z"/>
              <path class="cls-42" d="m43.1,50.67c-.35,0-.66-.08-.89-.2-.23-.12-.54-.19-.88-.19s-.66.07-.88.2c-.23.12-.54.2-.89.2s-.66-.09-.89-.21c-.23-.12-.53-.19-.86-.19s-.65.07-.87.19c-.23.13-.55.21-.89.21v.57c.35,0,.67-.08.89-.21.23-.12.53-.19.87-.19s.63.07.86.19c.23.13.54.21.89.21s.66-.08.89-.2c.23-.12.54-.2.88-.2s.65.07.88.19c.23.13.54.2.88.2v-.57Z"/>
              <path class="cls-32" d="m43.09,51.81c-.35,0-.66-.08-.88-.2-.23-.12-.54-.2-.88-.2s-.66.07-.88.2c-.23.12-.54.2-.89.2s-.66-.09-.89-.21c-.23-.12-.53-.19-.86-.19s-.65.07-.87.19c-.23.13-.55.21-.89.21v-.57c.35,0,.67-.08.89-.21.23-.12.53-.19.87-.19s.63.07.86.19c.23.13.54.21.89.21s.66-.08.89-.2c.23-.12.54-.2.88-.2s.65.07.88.19c.23.13.54.2.89.2v.57Z"/>
              <path class="cls-42" d="m43.09,52.37c-.35,0-.66-.08-.88-.2-.23-.12-.54-.2-.88-.2s-.66.07-.88.2c-.23.12-.54.2-.89.2s-.66-.09-.89-.21c-.23-.12-.53-.19-.86-.19s-.65.07-.87.19c-.23.13-.55.21-.89.21v-.56c.35,0,.67-.09.89-.21.23-.12.53-.19.87-.19s.63.07.86.19c.23.13.54.21.89.21s.66-.08.89-.2c.23-.12.54-.2.88-.2s.65.07.88.2c.23.13.54.2.89.2v.57Z"/>
            </g>
            <g>
              <path class="cls-11" d="m37.58,47.2s.03.09.03.15c0,.34-.29.62-.64.62h5.19c-.35,0-.64-.28-.64-.62,0-.05,0-.1.02-.15-.03.01-.06.01-.1.01h-3.78s-.07,0-.09-.01Z"/>
              <path class="cls-11" d="m37.67,46.85h3.78c.13,0,.23.08.23.18h0c0,.1-.1.18-.23.18h-3.78c-.13,0-.23-.08-.23-.18h0c0-.1.1-.18.23-.18Z"/>
              <rect class="cls-49" x="36.98" y="47.97" width="5.18" height="1.37"/>
            </g>
            <path class="cls-24" d="m36.58,41.98c-.51.31-.86.62-.81.78.03.15.19.25.42.41.37.27.59.74.42.96.3-.26.49-.63.49-1.06s-.2-.84-.53-1.09Z"/>
            <g>
              <rect class="cls-76" x="37.72" y="27.86" width="3.68" height="18.77"/>
              <g class="cls-73">
                <line class="cls-63" x1="40.38" y1="27.39" x2="40.38" y2="47.16"/>
                <line class="cls-63" x1="40.79" y1="27.39" x2="40.79" y2="47.16"/>
              </g>
              <rect class="cls-63" x="37.72" y="27.86" width="3.68" height="18.77"/>
            </g>
            <path class="cls-24" d="m45.16,34.88c-.8-.35-2.17-.6-3.74-.66-.54,0-1.14.06-1.76.17-2.2.38-3.88,1.3-3.75,2.04,0,.01,0,.05.01.06,0,0-.83-1.94-.84-2.01-.15-.83,1.71-1.84,4.16-2.27.77-.13,1.51-.18,2.16-.18,1.56,0,2.92.21,3.74.52v2.31Z"/>
            <path class="cls-24" d="m37.72,37.23c-1.02-.08-1.72-.36-1.8-.8-.06-.35.28-.75.9-1.1.28.03.59.07.91.07v1.84Z"/>
            <path class="cls-24" d="m41.41,35.8c.64.1,1.12.26,1.36.47l.02.04c.11.24-.45.76-1.38,1.34v-1.84Z"/>
            <path class="cls-24" d="m35.43,40.85c-.1-.3.9-.91,2.31-1.45.64-.24,1.17-.49,1.83-.79,1.95-.9,3.4-1.93,3.22-2.31l-.02-.04c.1.09.27,1.94.27,1.94.18.35-1.14,1.36-2.94,2.26-.58.29-1.79.75-2.37.96-1.03.37-2.05,1.07-1.95,1.33l-.34-1.91Z"/>
            <g>
              <path class="cls-66" d="m37.44,33.98c.45-.17.74-.37.6-.74-.09-.23-.32-.28-.67-.15l-.62.23.55,1.42c.06-.03.12-.06.18-.08.06-.02.13-.04.19-.06l-.24-.62Zm-.27-.69l.15-.06c.13-.05.28.02.34.19.05.13.04.27-.11.37-.05.03-.11.05-.16.08l-.22-.57Z"/>
              <path class="cls-66" d="m38.88,32.7c-.06.02-.13.04-.19.05-.07.01-.13.02-.2.03l.32,1.48.99-.21s-.03-.06-.03-.09c0-.03,0-.06,0-.1-.17.05-.37.11-.59.16l-.29-1.32Z"/>
              <path class="cls-66" d="m40.86,33.97c.19-.54.41-1.05.64-1.57-.04,0-.08.01-.12.02-.04,0-.08,0-.12,0-.12.38-.27.76-.42,1.13-.19-.36-.39-.7-.55-1.06-.08,0-.16.02-.23.03-.08,0-.16,0-.24,0,.29.49.56.97.82,1.47.04,0,.07-.02.11-.02.04,0,.07,0,.11,0Z"/>
              <path class="cls-66" d="m42.94,32.84c.03-.07.07-.14.11-.21-.05-.05-.22-.13-.41-.15-.4-.04-.64.15-.66.4-.06.53.75.49.71.84-.02.15-.17.21-.34.2-.18-.02-.32-.12-.34-.28h-.05c-.03.09-.07.18-.11.27.12.08.27.12.42.14.41.04.73-.13.76-.41.05-.51-.76-.53-.73-.83.01-.13.11-.21.32-.19.15.02.25.1.29.22h.04Z"/>
            </g>
            <g>
              <path class="cls-5" d="m73.35,23.55s-.17.18-.29.21c-.12.03-.28-.11-.28-.11,0,0-.11.12-.24.15-.13.03-.32-.16-.32-.16,0,0-.13.19-.24.23-.12.04-.26-.06-.26-.06,0,0-.05.09-.15.15-.04.02-.11-.01-.11-.01l-.13-.09-.15-.17-.14-.06s-.06-.21-.07-.25c0-.04-.02-.13-.02-.13-.03-.15.2-.33.52-.41.19-.04.35-.04.47,0,.13-.12.4-.2.72-.2.29,0,.55.07.69.16.14-.1.4-.16.69-.16.32,0,.6.08.72.2.12-.04.28-.04.47,0,.32.08.55.25.52.41,0,0-.01.09-.02.13,0,.04-.07.25-.07.25l-.14.06-.15.17-.13.09s-.07.03-.11.01c-.1-.05-.15-.15-.15-.15,0,0-.14.1-.26.06-.12-.04-.24-.23-.24-.23,0,0-.19.19-.32.16-.13-.03-.24-.15-.24-.15,0,0-.15.14-.28.11-.12-.03-.29-.21-.29-.21Z"/>
              <path class="cls-8" d="m73.03,22.56c0-.26.14-.46.31-.46s.31.21.31.46-.14.46-.31.46-.31-.21-.31-.46Z"/>
              <ellipse class="cls-29" cx="73.35" cy="22.56" rx=".14" ry=".43"/>
              <path class="cls-8" d="m71.74,24.45c-.05-.13-.13-.25-.13-.25.44-.14,1.05-.22,1.74-.22.68,0,1.3.09,1.74.22,0,0-.05.09-.12.22-.04.07-.09.19-.08.19-.4-.13-.91-.19-1.54-.19-.63,0-1.24.08-1.55.2,0,0-.02-.08-.05-.16h0Z"/>
              <path class="cls-8" d="m73.34,25.04c.55,0,1.16-.09,1.38-.15.15-.05.24-.12.22-.2,0-.04-.04-.07-.08-.09-.33-.11-.92-.19-1.52-.19-.6,0-1.19.08-1.52.19-.04.02-.08.05-.08.09-.02.08.07.15.22.2.22.06.83.15,1.38.15Z"/>
              <g>
                <path class="cls-6" d="m74.68,22.76c0-.06.05-.1.1-.1s.1.05.1.1-.05.1-.1.1-.1-.05-.1-.1Z"/>
                <path class="cls-1" d="m74.62,22.41c0-.06.05-.1.1-.1s.1.05.1.1-.05.1-.1.1-.1-.04-.1-.1Z"/>
                <path class="cls-1" d="m74.37,22.19c0-.06.05-.1.1-.1s.1.05.1.1-.05.1-.1.1-.1-.04-.1-.1Z"/>
                <path class="cls-1" d="m74.05,22.08c0-.06.05-.1.1-.1s.1.05.1.1-.05.1-.1.1-.1-.05-.1-.1Z"/>
                <path class="cls-1" d="m73.72,22.1c0-.06.05-.1.1-.1s.1.05.1.1-.05.1-.1.1-.1-.05-.1-.1Z"/>
                <path class="cls-22" d="m75.69,23.45c.03-.08.05-.16.05-.25,0-.37-.29-.68-.64-.68-.11,0-.22.03-.31.09"/>
                <path class="cls-56" d="m74.55,22.97c.03-.06.06-.14.06-.21,0-.27-.27-.49-.6-.49-.14,0-.27.04-.37.11"/>
                <path class="cls-1" d="m75.78,23.14c0-.06.05-.1.1-.1s.1.05.1.1-.05.1-.1.1-.1-.05-.1-.1Z"/>
                <path class="cls-1" d="m75.74,22.77c0-.06.05-.1.1-.1s.1.05.1.1-.05.1-.1.1-.1-.05-.1-.1Z"/>
                <path class="cls-1" d="m75.51,22.49c0-.06.05-.1.1-.1s.1.05.1.1-.05.1-.1.1-.1-.04-.1-.1Z"/>
                <path class="cls-1" d="m75.2,22.34c0-.06.05-.1.1-.1s.1.05.1.1-.05.1-.1.1-.1-.04-.1-.1Z"/>
                <path class="cls-1" d="m74.88,22.35c0-.06.05-.1.1-.1s.1.05.1.1-.05.1-.1.1-.1-.05-.1-.1Z"/>
              </g>
              <path class="cls-8" d="m75.11,23.94l-.13-.13s-.13.08-.29.06c-.16-.03-.21-.23-.21-.23,0,0-.18.16-.33.15-.15-.01-.24-.15-.24-.15,0,0-.16.12-.3.11-.14-.01-.28-.2-.28-.2,0,0-.14.19-.28.2-.14.01-.26-.13-.26-.13,0,0-.06.14-.24.17-.18.03-.33-.15-.33-.15,0,0-.1.17-.22.21-.12.04-.28-.06-.28-.06,0,0-.03.06-.04.1-.02.04-.07.04-.07.04l.04.11c.44-.13,1.03-.21,1.71-.21.67,0,1.28.08,1.72.22l.04-.13Z"/>
              <g>
                <path class="cls-6" d="m71.79,22.76c0-.06.05-.1.1-.1s.1.05.1.1-.05.1-.1.1-.1-.05-.1-.1Z"/>
                <path class="cls-1" d="m71.85,22.41c0-.06.05-.1.1-.1s.1.05.1.1-.05.1-.1.1-.1-.04-.1-.1Z"/>
                <path class="cls-1" d="m72.1,22.19c0-.06.05-.1.1-.1s.1.05.1.1-.05.1-.1.1-.1-.04-.1-.1Z"/>
                <path class="cls-1" d="m72.42,22.08c0-.06.05-.1.1-.1s.1.05.1.1-.05.1-.1.1-.1-.05-.1-.1Z"/>
                <path class="cls-1" d="m72.75,22.1c0-.06.05-.1.1-.1s.1.05.1.1-.05.1-.1.1-.1-.05-.1-.1Z"/>
                <path class="cls-22" d="m70.98,23.45c-.03-.08-.05-.16-.05-.25,0-.37.29-.68.64-.68.11,0,.22.03.31.09"/>
                <path class="cls-56" d="m72.13,22.97c-.03-.06-.06-.13-.06-.2,0-.27.27-.49.6-.49.14,0,.27.04.37.11"/>
                <path class="cls-1" d="m70.69,23.14c0-.06.05-.1.1-.1s.1.05.1.1-.05.1-.1.1-.1-.05-.1-.1Z"/>
                <path class="cls-1" d="m70.73,22.77c0-.06.05-.1.1-.1s.1.05.1.1-.05.1-.1.1-.1-.05-.1-.1Z"/>
                <path class="cls-1" d="m70.96,22.49c0-.06.05-.1.1-.1s.1.05.1.1-.05.1-.1.1-.1-.04-.1-.1Z"/>
                <path class="cls-1" d="m71.26,22.34c0-.06.05-.1.1-.1s.1.05.1.1-.05.1-.1.1-.1-.04-.1-.1Z"/>
                <path class="cls-1" d="m71.59,22.35c0-.06.05-.1.1-.1s.1.05.1.1-.05.1-.1.1-.1-.05-.1-.1Z"/>
              </g>
              <path class="cls-8" d="m73.35,23.33h.06s-.01.07-.01.1c0,.14.11.25.25.25.11,0,.21-.07.24-.17,0,0,.02-.09.03-.09,0,0,0,.1.01.09.02.13.13.21.25.21.14,0,.25-.11.25-.25,0-.01,0-.02,0-.03l.08-.08.04.1s-.02.07-.02.11c0,.13.11.24.24.24.08,0,.16-.04.2-.11l.05-.07v.08c0,.08.03.16.11.17,0,0,.09,0,.21-.09.12-.1.18-.18.18-.18v.1s-.11.2-.21.26c-.06.03-.15.07-.21.06-.07-.01-.13-.07-.15-.14-.05.03-.11.05-.18.05-.14,0-.27-.08-.32-.2-.07.07-.16.12-.26.12-.11,0-.22-.05-.28-.14-.06.06-.15.1-.25.1-.13,0-.24-.06-.3-.16-.06.1-.18.16-.3.16-.1,0-.18-.04-.25-.1-.07.08-.17.14-.28.14-.11,0-.2-.05-.26-.12-.05.12-.18.2-.32.2-.07,0-.13-.02-.18-.05-.03.07-.08.13-.15.14-.07.01-.16-.02-.21-.06-.11-.06-.23-.26-.23-.26l.02-.1s.06.08.18.18c.12.1.21.09.21.09.08-.01.11-.09.11-.17v-.08l.05.07c.04.06.12.11.2.11.13,0,.24-.11.24-.24,0-.04,0-.08-.02-.11l.04-.1.08.08s0,.02,0,.03c0,.14.11.25.25.25.12,0,.23-.08.25-.21,0,0,0-.09.01-.09.01,0,.03.09.03.09.03.1.13.17.24.17.14,0,.25-.11.25-.25,0-.03,0-.06-.01-.09h.07Z"/>
              <path class="cls-8" d="m73.34,23.98c-.68,0-1.3.09-1.74.22-.03,0-.07-.01-.08-.04,0-.03.01-.06.04-.07.44-.14,1.07-.23,1.77-.23.7,0,1.33.09,1.77.23.03,0,.05.05.04.07,0,.03-.05.05-.08.04-.44-.14-1.06-.22-1.74-.22Z"/>
              <path class="cls-10" d="m72.68,24.23c0-.05.04-.1.1-.1s.1.04.1.1-.04.1-.1.1-.1-.04-.1-.1Z"/>
              <path class="cls-37" d="m73.35,24.27h-.22s-.07-.03-.07-.07.03-.07.07-.07h.44s.07.03.07.07-.03.07-.07.07h-.22Z"/>
              <path class="cls-2" d="m72.25,24.35l-.16.02s-.08-.02-.08-.06c0-.04.02-.08.06-.08l.16-.02.16-.03s.08.02.08.06c0,.04-.02.08-.06.08l-.16.03Z"/>
              <polygon class="cls-37" points="71.62 24.47 71.69 24.35 71.84 24.38 71.75 24.51 71.62 24.47"/>
              <path class="cls-10" d="m73.81,24.23c0-.05.04-.1.1-.1s.1.04.1.1-.04.1-.1.1-.1-.04-.1-.1Z"/>
              <path class="cls-2" d="m74.44,24.35l.16.02s.08-.02.08-.06c0-.04-.02-.08-.06-.08l-.16-.02-.16-.03s-.08.02-.08.06c0,.04.02.08.06.08l.16.03Z"/>
              <polygon class="cls-37" points="75.06 24.47 75 24.35 74.85 24.36 74.92 24.5 75.06 24.47"/>
              <g>
                <path class="cls-67" d="m73.34,24.91c-.55,0-1.05-.05-1.43-.15.38-.1.88-.16,1.43-.17.55,0,1.05.06,1.43.17-.38.1-.88.15-1.43.15Z"/>
                <g class="cls-85">
                  <g>
                    <line class="cls-54" x1="73.79" y1="24.28" x2="73.79" y2="25.17"/>
                    <line class="cls-52" x1="73.56" y1="24.28" x2="73.56" y2="25.17"/>
                    <line class="cls-63" x1="73.37" y1="24.28" x2="73.37" y2="25.17"/>
                    <line class="cls-63" x1="73.19" y1="24.28" x2="73.19" y2="25.17"/>
                    <line class="cls-63" x1="73.02" y1="24.28" x2="73.02" y2="25.17"/>
                    <line class="cls-63" x1="72.87" y1="24.28" x2="72.87" y2="25.17"/>
                    <line class="cls-64" x1="72.72" y1="24.28" x2="72.72" y2="25.17"/>
                    <line class="cls-35" x1="72.58" y1="24.28" x2="72.58" y2="25.17"/>
                    <line class="cls-35" x1="72.43" y1="24.28" x2="72.43" y2="25.17"/>
                    <line class="cls-39" x1="72.28" y1="24.28" x2="72.28" y2="25.17"/>
                    <line class="cls-12" x1="72.12" y1="24.28" x2="72.12" y2="25.17"/>
                  </g>
                </g>
                <path class="cls-56" d="m73.34,24.91c-.55,0-1.05-.05-1.43-.15.38-.1.88-.16,1.43-.17.55,0,1.05.06,1.43.17-.38.1-.88.15-1.43.15Z"/>
              </g>
              <path class="cls-8" d="m75.08,23.66s0-.09-.03-.1c-.03-.01-.07.02-.08.06-.01.04,0,.09.03.1.03,0,.07-.02.08-.06Z"/>
              <path class="cls-8" d="m73.98,23.44s-.02-.09-.05-.09c-.03,0-.06.03-.07.08,0,.05.02.09.05.09.03,0,.06-.03.07-.08Z"/>
              <path class="cls-8" d="m72.71,23.44s.02-.09.05-.09c.03,0,.06.03.07.08,0,.05-.02.09-.05.09-.03,0-.06-.03-.07-.08Z"/>
              <path class="cls-8" d="m71.61,23.66s0-.09.03-.1c.03-.01.07.02.08.06.01.04,0,.09-.03.1-.03,0-.07-.02-.08-.06Z"/>
              <g>
                <polygon class="cls-8" points="73.34 22.78 73.15 22.9 73.29 23.23 73.34 23.26 73.39 23.23 73.54 22.9 73.34 22.78"/>
                <polygon class="cls-8" points="72.92 23.27 73 23.41 73.31 23.31 73.34 23.27 73.31 23.22 73 23.13 72.92 23.27"/>
                <polygon class="cls-8" points="73.77 23.27 73.68 23.41 73.38 23.31 73.35 23.27 73.38 23.22 73.68 23.13 73.77 23.27"/>
              </g>
              <g>
                <polygon class="cls-8" points="72.08 22.93 71.93 23.08 72.12 23.34 72.17 23.37 72.21 23.32 72.28 23 72.08 22.93"/>
                <polygon class="cls-8" points="71.76 23.46 71.87 23.58 72.15 23.42 72.17 23.37 72.13 23.33 71.81 23.3 71.76 23.46"/>
                <polygon class="cls-8" points="72.59 23.29 72.54 23.44 72.22 23.41 72.18 23.37 72.2 23.32 72.48 23.16 72.59 23.29"/>
              </g>
              <polygon class="cls-8" points="71.45 23.51 71.43 23.66 71.11 23.7 71.06 23.67 71.07 23.61 71.31 23.41 71.45 23.51"/>
              <path class="cls-8" d="m72.06,23.37c0-.06.05-.11.11-.11s.11.05.11.11-.05.11-.11.11-.11-.05-.11-.11Z"/>
              <g>
                <polygon class="cls-8" points="74.61 22.93 74.76 23.08 74.57 23.34 74.52 23.37 74.48 23.32 74.41 23 74.61 22.93"/>
                <polygon class="cls-8" points="74.93 23.46 74.82 23.58 74.54 23.42 74.52 23.37 74.56 23.33 74.88 23.3 74.93 23.46"/>
                <polygon class="cls-8" points="74.1 23.29 74.15 23.44 74.47 23.41 74.51 23.37 74.49 23.32 74.21 23.16 74.1 23.29"/>
              </g>
              <polygon class="cls-8" points="75.19 23.51 75.22 23.66 75.54 23.7 75.58 23.67 75.57 23.61 75.33 23.41 75.19 23.51"/>
              <path class="cls-8" d="m73.23,23.27c0-.06.05-.11.11-.11s.11.05.11.11-.05.11-.11.11-.11-.05-.11-.11Z"/>
              <path class="cls-8" d="m74.4,23.37c0-.06.05-.11.11-.11s.11.05.11.11-.05.11-.11.11-.11-.05-.11-.11Z"/>
              <g>
                <path class="cls-66" d="m73.14,22.03c0-.11.09-.21.21-.21s.21.09.21.21-.09.21-.21.21-.21-.09-.21-.21Z"/>
                <polygon class="cls-19" points="73.49 21.96 73.49 22.09 73.17 22.09 73.17 21.96 73.27 21.96 73.27 21.65 73.13 21.65 73.13 21.51 73.27 21.51 73.27 21.38 73.41 21.38 73.41 21.51 73.55 21.51 73.55 21.65 73.41 21.65 73.41 21.96 73.49 21.96"/>
                <g class="cls-79">
                  <polygon class="cls-19" points="73.64 21.96 73.64 22.09 73.06 22.09 73.06 21.96 73.27 21.96 73.27 21.65 73.13 21.65 73.13 21.51 73.27 21.51 73.27 21.38 73.41 21.38 73.41 21.51 73.55 21.51 73.55 21.65 73.41 21.65 73.41 21.96 73.64 21.96"/>
                </g>
                <path class="cls-69" d="m73.14,22.03c0-.11.09-.21.21-.21s.21.09.21.21-.09.21-.21.21-.21-.09-.21-.21Z"/>
                <path class="cls-69" d="m73.14,22.03c0-.11.09-.21.21-.21s.21.09.21.21-.09.21-.21.21-.21-.09-.21-.21Z"/>
                <path class="cls-56" d="m73.4,21.83c.09.03.15.1.15.2,0,.11-.09.21-.21.21s-.21-.09-.21-.21c0-.1.07-.18.15-.2"/>
              </g>
              <path class="cls-29" d="m71.02,23.69s-.09-.11-.15-.17c-.04-.04-.15-.08-.15-.08,0-.02.06-.07.13-.07.04,0,.08.02.1.05v-.05s.06.01.09.08c.03.07,0,.17,0,.17,0,0,0,.05-.03.07Z"/>
              <path class="cls-8" d="m71.03,23.63s.08-.02.12.01c.04.04.05.09.03.12-.03.03-.08.02-.12-.01-.04-.04-.05-.09-.03-.12Z"/>
              <path class="cls-29" d="m75.62,23.69s.09-.11.15-.17c.04-.04.15-.08.15-.08,0-.02-.06-.07-.13-.07-.04,0-.08.02-.1.05v-.05s-.06.01-.09.08c-.03.07,0,.17,0,.17,0,0,0,.05.03.07Z"/>
              <path class="cls-8" d="m75.62,23.63s-.08-.02-.12.01c-.04.04-.05.09-.03.12.03.03.08.02.12-.01.04-.04.05-.09.03-.12Z"/>
            </g>
            <g>
              <rect class="cls-49" x="70.82" y="24.99" width="5.05" height="1.38"/>
              <path class="cls-11" d="m75.34,27.28s-.06-.02-.09-.02h-3.78s-.07,0-.1.02c.13-.05.22-.17.22-.31s-.1-.27-.23-.32c.03.01.07.02.11.02h3.78s.07,0,.11-.01h-.02c-.13.05-.21.17-.21.31s.09.26.22.31Z"/>
              <path class="cls-11" d="m71.47,27.27h3.78c.13,0,.23.08.23.18h0c0,.1-.1.18-.23.18h-3.78c-.13,0-.23-.08-.23-.18h0c0-.1.1-.18.23-.18Z"/>
              <path class="cls-11" d="m71.47,26.37h3.78c.13,0,.23.07.23.16h0c0,.09-.1.16-.23.16h-3.78c-.13,0-.23-.07-.23-.16h0c0-.09.1-.16.23-.16Z"/>
            </g>
            <g>
              <path class="cls-42" d="m69.82,49.53c.35,0,.66-.08.89-.2.23-.12.54-.2.88-.2s.66.07.88.2c.23.12.54.2.89.2s.66-.09.89-.21c.23-.12.53-.19.86-.19s.65.07.87.19c.23.13.55.21.89.21v.57c-.35,0-.67-.08-.89-.21-.23-.12-.53-.19-.87-.19s-.63.07-.86.19c-.23.13-.54.21-.89.21s-.66-.08-.89-.2c-.23-.12-.54-.2-.88-.2s-.65.07-.88.2c-.23.13-.54.2-.88.2v-.57Z"/>
              <path class="cls-32" d="m69.82,50.1c.35,0,.66-.08.89-.2.23-.12.54-.2.88-.2s.66.07.88.2c.23.12.54.2.89.2s.66-.09.89-.21c.23-.12.53-.19.86-.19s.65.07.87.19c.23.13.55.21.89.21v.57c-.35,0-.67-.08-.89-.21-.23-.12-.53-.19-.87-.19s-.63.07-.86.19c-.23.13-.54.21-.89.21s-.66-.08-.89-.2c-.23-.12-.54-.2-.88-.2s-.65.07-.88.19c-.23.13-.54.2-.88.2v-.57Z"/>
              <path class="cls-42" d="m69.82,50.67c.35,0,.66-.08.89-.2.23-.12.54-.19.88-.19s.66.07.88.2c.23.12.54.2.89.2s.66-.09.89-.21c.23-.12.53-.19.86-.19s.65.07.87.19c.23.13.55.21.89.21v.57c-.35,0-.67-.08-.89-.21-.23-.12-.53-.19-.87-.19s-.63.07-.86.19c-.23.13-.54.21-.89.21s-.66-.08-.89-.2c-.23-.12-.54-.2-.88-.2s-.65.07-.88.19c-.23.13-.54.2-.88.2v-.57Z"/>
              <path class="cls-32" d="m69.83,51.81c.35,0,.66-.08.88-.2.23-.12.54-.2.88-.2s.66.07.88.2c.23.12.54.2.89.2s.66-.09.89-.21c.23-.12.53-.19.86-.19s.65.07.87.19c.23.13.55.21.89.21v-.57c-.35,0-.67-.08-.89-.21-.23-.12-.53-.19-.87-.19s-.63.07-.86.19c-.23.13-.54.21-.89.21s-.66-.08-.89-.2c-.23-.12-.54-.2-.88-.2s-.65.07-.88.19c-.23.13-.54.2-.89.2v.57Z"/>
              <path class="cls-42" d="m69.83,52.37c.35,0,.66-.08.88-.2.23-.12.54-.2.88-.2s.66.07.88.2c.23.12.54.2.89.2s.66-.09.89-.21c.23-.12.53-.19.86-.19s.65.07.87.19c.23.13.55.21.89.21v-.56c-.35,0-.67-.09-.89-.21-.23-.12-.53-.19-.87-.19s-.63.07-.86.19c-.23.13-.54.21-.89.21s-.66-.08-.89-.2c-.23-.12-.54-.2-.88-.2s-.65.07-.88.2c-.23.13-.54.2-.89.2v.57Z"/>
            </g>
            <g>
              <path class="cls-11" d="m75.34,47.2s-.03.09-.03.15c0,.34.29.62.64.62h-5.19c.35,0,.64-.28.64-.62,0-.05,0-.1-.02-.15.03.01.06.01.1.01h3.78s.07,0,.09-.01Z"/>
              <path class="cls-11" d="m71.47,46.85h3.78c.13,0,.23.08.23.18h0c0,.1-.1.18-.23.18h-3.78c-.13,0-.23-.08-.23-.18h0c0-.1.1-.18.23-.18Z"/>
              <rect class="cls-49" x="70.76" y="47.97" width="5.18" height="1.37"/>
            </g>
            <path class="cls-24" d="m76.35,41.98c.51.31.86.62.81.78-.03.15-.19.25-.42.41-.37.27-.59.74-.42.96-.3-.26-.49-.63-.49-1.06s.2-.84.53-1.09Z"/>
            <g>
              <rect class="cls-76" x="71.52" y="27.86" width="3.68" height="18.77"/>
              <g class="cls-87">
                <line class="cls-63" x1="74.19" y1="27.39" x2="74.19" y2="47.16"/>
                <line class="cls-63" x1="74.6" y1="27.39" x2="74.6" y2="47.16"/>
              </g>
              <rect class="cls-63" x="71.52" y="27.86" width="3.68" height="18.77"/>
            </g>
            <path class="cls-24" d="m67.76,34.88c.8-.35,2.17-.6,3.74-.66.54,0,1.14.06,1.76.17,2.2.38,3.88,1.3,3.75,2.04,0,.01,0,.05-.01.06,0,0,.83-1.94.84-2.01.15-.83-1.71-1.84-4.16-2.27-.77-.13-1.51-.18-2.16-.18-1.56,0-2.92.21-3.74.52v2.31Z"/>
            <path class="cls-24" d="m75.21,37.23c1.02-.08,1.72-.36,1.8-.8.06-.35-.28-.75-.9-1.1-.28.03-.59.07-.91.07v1.84Z"/>
            <path class="cls-24" d="m71.51,35.8c-.64.1-1.12.26-1.36.47l-.02.04c-.11.24.45.76,1.38,1.34v-1.84Z"/>
            <path class="cls-24" d="m77.49,40.85c.1-.3-.9-.91-2.31-1.45-.64-.24-1.17-.49-1.83-.79-1.95-.9-3.4-1.93-3.22-2.31l.02-.04c-.1.09-.26,1.94-.26,1.94-.18.35,1.14,1.36,2.94,2.26.58.29,1.79.75,2.37.96,1.03.37,2.05,1.07,1.95,1.33l.34-1.91Z"/>
            <g>
              <path class="cls-66" d="m70.04,34.07c.14-.55.32-1.08.5-1.62-.04.01-.08.02-.12.03-.04,0-.08.01-.12.01-.08.39-.2.77-.32,1.16-.22-.34-.45-.67-.64-1.01-.08.02-.15.04-.23.05-.08.01-.16.02-.23.02.33.46.65.92.95,1.39.04-.01.07-.02.11-.03.04,0,.07,0,.11,0Z"/>
              <path class="cls-66" d="m71.44,32.46c-.07,0-.13,0-.2,0-.07,0-.13,0-.2-.01l-.03,1.51,1.02.02s-.01-.06-.01-.1c0-.03,0-.06.01-.1-.18.01-.38.02-.61.02l.02-1.35Z"/>
              <path class="cls-66" d="m73.03,32.71c.16.01.32.04.47.07,0-.03,0-.06,0-.1,0-.03.01-.06.02-.09l-1.37-.12s0,.06,0,.09c0,.03-.01.06-.02.09.14,0,.31,0,.5.01l-.12,1.36c.07,0,.13,0,.2,0,.07,0,.13.02.2.03l.12-1.36Z"/>
              <path class="cls-66" d="m73.6,34.2c.07.01.13.02.2.03.07.02.13.04.19.06l.16-.69h.02c.04.1.09.22.11.28l.2.52c.08.01.16.02.24.04.08.02.16.04.23.06l-.07-.16c-.11-.24-.22-.47-.32-.71.25.01.45-.08.5-.3.03-.15-.02-.26-.15-.36-.1-.07-.29-.11-.41-.14l-.56-.13-.35,1.48Zm.71-1.28c.16.04.36.06.36.25,0,.05,0,.08-.01.11-.05.22-.21.3-.48.22l.14-.58Z"/>
              <path class="cls-66" d="m76.21,34.65c-.01.16-.04.32-.07.5.07.03.14.07.21.1.07.04.13.08.19.12l.14-1.7s-.06-.03-.09-.04c-.03-.02-.06-.04-.08-.06l-1.44.95s.08.04.12.06c.04.02.07.04.11.07.12-.11.25-.19.4-.31l.54.31Zm-.41-.39l.48-.32-.06.57-.42-.24Z"/>
            </g>
            <path class="cls-7" d="m50.78,18.85c0-.27.22-.48.49-.48s.49.22.49.48-.22.48-.49.48-.49-.22-.49-.48Z"/>
            <g>
              <path class="cls-67" d="m56.32,14.67c1.5,0,2.84.23,3.72.59.5.23,1.17.41,1.9.51.56.08,1.09.09,1.55.06.62-.01,1.51.17,2.4.59.74.34,1.36.76,1.77,1.16l-.36.33-.1.93-.97,1.16-.49.43-1.15.96-.59.05-.18.53-7.45-.91-7.48.91-.18-.53-.59-.05-1.15-.96-.49-.43-.97-1.16-.1-.93-.36-.33c.41-.4,1.03-.82,1.77-1.16.89-.41,1.79-.6,2.4-.59.46.04.99.02,1.55-.06.73-.1,1.4-.28,1.9-.51.87-.36,2.14-.59,3.64-.59Z"/>
              <path class="cls-56" d="m56.32,14.67c1.5,0,2.84.23,3.72.59.5.23,1.17.41,1.9.51.56.08,1.09.09,1.55.06.62-.01,1.51.17,2.4.59.74.34,1.36.76,1.77,1.16l-.36.33-.1.93-.97,1.16-.49.43-1.15.96-.59.05-.18.53-7.45-.91-7.48.91-.18-.53-.59-.05-1.15-.96-.49-.43-.97-1.16-.1-.93-.36-.33c.41-.4,1.03-.82,1.77-1.16.89-.41,1.79-.6,2.4-.59.46.04.99.02,1.55-.06.73-.1,1.4-.28,1.9-.51.87-.36,2.14-.59,3.64-.59Z"/>
            </g>
            <g>
              <path class="cls-11" d="m56.41,22.53c-2.81,0-5.33.37-7.11.94.15-.07.13-.26-.05-.75-.22-.59-.57-.57-.57-.57,1.96-.6,4.7-.98,7.74-.99,3.04,0,5.8.38,7.76.99,0,0-.35-.03-.57.57-.18.49-.2.68-.05.75-1.78-.57-4.34-.94-7.16-.94Z"/>
              <path class="cls-11" d="m56.42,21.17c-3.04,0-5.77.38-7.74.99-.13.04-.27-.01-.31-.14-.04-.13.03-.28.16-.32,1.97-.63,4.77-1.03,7.89-1.03,3.12,0,5.93.4,7.9,1.03.13.04.2.19.16.32-.04.13-.18.18-.31.14-1.96-.6-4.71-.98-7.75-.99Z"/>
              <g>
                <path class="cls-11" d="m56.43,24.91c-2.78,0-5.27-.35-7.04-.9-.13-.04-.2-.17-.19-.29,0-.12.06-.24.19-.28,1.78-.56,4.26-.9,7.04-.9,2.78,0,5.26.35,7.04.9.13.04.19.15.19.28,0,.13-.06.25-.19.29-1.78.56-4.26.9-7.04.9Z"/>
                <g>
                  <path class="cls-67" d="m56.42,24.53c-2.51,0-4.77-.3-6.5-.77,1.72-.46,3.99-.75,6.5-.75,2.51,0,4.78.29,6.51.75-1.72.46-4,.76-6.51.77Z"/>
                  <g class="cls-77">
                    <g>
                      <line class="cls-4" x1="56.46" y1="22.68" x2="56.46" y2="25.8"/>
                      <line class="cls-62" x1="56.07" y1="22.68" x2="56.07" y2="25.8"/>
                      <line class="cls-54" x1="55.7" y1="22.68" x2="55.7" y2="25.8"/>
                      <line class="cls-52" x1="55.33" y1="22.68" x2="55.33" y2="25.8"/>
                      <line class="cls-63" x1="55" y1="22.68" x2="55" y2="25.8"/>
                      <line class="cls-64" x1="54.67" y1="22.68" x2="54.67" y2="25.8"/>
                      <line class="cls-64" x1="54.36" y1="22.68" x2="54.36" y2="25.8"/>
                      <line class="cls-48" x1="54.08" y1="22.66" x2="54.08" y2="25.78"/>
                      <line class="cls-48" x1="53.79" y1="22.66" x2="53.79" y2="25.78"/>
                      <line class="cls-15" x1="53.54" y1="22.66" x2="53.54" y2="25.78"/>
                      <line class="cls-15" x1="53.27" y1="22.66" x2="53.27" y2="25.78"/>
                      <line class="cls-15" x1="53.01" y1="22.66" x2="53.01" y2="25.78"/>
                      <line class="cls-16" x1="52.75" y1="22.66" x2="52.75" y2="25.78"/>
                      <line class="cls-28" x1="52.48" y1="22.66" x2="52.48" y2="25.78"/>
                      <line class="cls-51" x1="52.22" y1="22.66" x2="52.22" y2="25.78"/>
                      <line class="cls-33" x1="51.94" y1="22.66" x2="51.94" y2="25.78"/>
                      <line class="cls-33" x1="51.66" y1="22.66" x2="51.66" y2="25.78"/>
                      <line class="cls-20" x1="51.37" y1="22.66" x2="51.37" y2="25.78"/>
                      <line class="cls-18" x1="51.11" y1="22.64" x2="51.11" y2="25.76"/>
                      <line class="cls-25" x1="50.82" y1="22.64" x2="50.82" y2="25.76"/>
                      <line class="cls-44" x1="50.54" y1="22.64" x2="50.54" y2="25.76"/>
                      <line class="cls-31" x1="50.25" y1="22.64" x2="50.25" y2="25.76"/>
                    </g>
                    <line class="cls-23" x1="56.88" y1="22.68" x2="56.88" y2="25.8"/>
                    <line class="cls-23" x1="57.37" y1="22.68" x2="57.37" y2="25.8"/>
                    <line class="cls-23" x1="58.04" y1="22.68" x2="58.04" y2="25.8"/>
                  </g>
                  <path class="cls-13" d="m56.42,24.53c-2.51,0-4.77-.3-6.5-.77,1.72-.46,3.99-.75,6.5-.75,2.51,0,4.78.29,6.51.75-1.72.46-4,.76-6.51.77Z"/>
                </g>
              </g>
              <g>
                <path class="cls-36" d="m54.25,21.89c0-.14.11-.24.25-.24s.25.11.25.24-.11.24-.25.24-.25-.11-.25-.24Z"/>
                <path class="cls-24" d="m56.43,22.08h-.74c-.14,0-.25-.11-.25-.24s.11-.24.25-.24h1.5c.14,0,.25.11.25.24s-.11.24-.25.24h-.75Z"/>
                <path class="cls-40" d="m52.69,22.29l-.54.06c-.14.02-.26-.08-.28-.21-.02-.13.08-.26.22-.27l.54-.06.55-.07c.14-.02.26.08.28.21.02.13-.08.26-.22.27l-.55.07Z"/>
                <path class="cls-36" d="m50.51,22.34c0-.14.11-.24.25-.24s.25.11.25.24-.11.24-.25.24-.25-.11-.25-.24Z"/>
                <polygon class="cls-24" points="48.86 22.78 49.14 22.41 49.9 22.51 49.29 22.97 48.86 22.78"/>
                <path class="cls-40" d="m60.17,22.29l.54.06c.14.02.26-.08.28-.21.02-.13-.08-.26-.22-.27l-.54-.06-.55-.07c-.14-.02-.26.08-.28.21-.02.13.08.26.22.27l.55.07Z"/>
                <path class="cls-36" d="m58.11,21.89c0-.14.11-.24.25-.24s.25.11.25.24-.11.24-.25.24-.25-.11-.25-.24Z"/>
                <path class="cls-36" d="m61.85,22.34c0-.14.11-.24.25-.24s.25.11.25.24-.11.24-.25.24-.25-.11-.25-.24Z"/>
                <polygon class="cls-24" points="64 22.78 63.72 22.41 62.96 22.51 63.57 22.97 64 22.78"/>
              </g>
              <path class="cls-13" d="m49.63,23.85c1.76-.51,4.14-.83,6.8-.84,2.65,0,5.05.32,6.81.84"/>
            </g>
            <path class="cls-11" d="m50.81,16.72l.31.26.47-.8c-.51-.33-.86-.89-.86-1.54,0-.07,0-.14.01-.21.05-1.02,1.25-1.87,2.76-1.87.79,0,1.5.22,2,.58.01-.16.03-.29.05-.44-.55-.33-1.27-.54-2.05-.54-1.75,0-3.11,1.03-3.18,2.26,0,.07-.01.14-.01.21,0,.65.29,1.24.74,1.65l-.25.43Z"/>
            <path class="cls-11" d="m50.83,16.73c-.6-.46-.97-1.09-.97-1.78,0-.8.5-1.51,1.26-1.98-.47.39-.76.9-.8,1.47,0,.07-.01.14-.01.21,0,.65.29,1.24.74,1.65l-.23.44Z"/>
            <path class="cls-11" d="m45.57,17.54c-.33-.39-.54-.89-.54-1.44,0-.33.07-.65.21-.93.48-1.03,2-1.78,3.79-1.78.49,0,.96.06,1.39.16-.1.11-.17.23-.25.35-.36-.07-.74-.11-1.15-.11-1.65,0-3.02.67-3.42,1.57-.11.23-.17.49-.17.76,0,.55.25,1.04.63,1.37l-.6,1.01-.32-.27.41-.68Z"/>
            <path class="cls-11" d="m46.18,14.14c-.43.28-.76.63-.94,1.02-.13.28-.21.6-.21.93,0,.55.2,1.05.54,1.44l-.36.61c-.35-.46-.55-1-.55-1.58,0-.99.61-1.85,1.52-2.43Z"/>
            <path class="cls-11" d="m56.4,11.97c.4,0,.74.27.82.64.05.33.09.7.09,1.09,0,.04,0,.08,0,.12,0,.05,0,.1,0,.15.01.83.13,1.56.29,2.01l-1.22,1.21-1.23-1.21c.16-.45.28-1.18.29-2.01,0-.05,0-.1,0-.15,0-.04,0-.08,0-.12,0-.39.04-.77.09-1.09.08-.37.44-.64.84-.64Z"/>
            <path class="cls-11" d="m56.4,12.36c.21,0,.38.14.42.33.05.31.08.66.09,1.03,0,.04,0,.08,0,.11,0,.05,0,.09,0,.14.01.78.12,1.47.27,1.9l-.8.79-.8-.79c.15-.42.26-1.11.27-1.9,0-.05,0-.09,0-.14,0-.04,0-.08,0-.11,0-.37.04-.72.09-1.03.04-.19.23-.33.44-.33Z"/>
            <path class="cls-11" d="m61.99,16.72l-.31.26-.47-.8c.51-.33.86-.89.86-1.54,0-.07,0-.14-.01-.21-.05-1.02-1.25-1.87-2.76-1.87-.79,0-1.5.22-2,.58-.01-.16-.03-.29-.05-.44.55-.33,1.27-.54,2.05-.54,1.75,0,3.11,1.03,3.18,2.26,0,.07.01.14.01.21,0,.65-.29,1.24-.74,1.65l.25.43Z"/>
            <path class="cls-11" d="m61.97,16.73c.6-.46.97-1.09.97-1.78,0-.8-.5-1.51-1.26-1.98.47.39.76.9.8,1.47,0,.07.01.14.01.21,0,.65-.29,1.24-.74,1.65l.23.44Z"/>
            <path class="cls-11" d="m67.23,17.54c.33-.39.54-.89.54-1.44,0-.33-.07-.65-.21-.93-.48-1.03-2-1.78-3.79-1.78-.49,0-.96.06-1.39.16.1.11.17.23.24.35.36-.07.75-.11,1.15-.11,1.65,0,3.02.67,3.42,1.57.11.23.17.49.17.76,0,.55-.25,1.04-.63,1.37l.6,1.01.32-.27-.41-.68Z"/>
            <path class="cls-11" d="m66.62,14.14c.43.28.76.63.94,1.02.13.28.21.6.21.93,0,.55-.2,1.05-.54,1.44l.36.61c.35-.46.55-1,.55-1.58,0-.99-.61-1.85-1.52-2.43Z"/>
            <line class="cls-63" x1="56.48" y1="15.68" x2="56.47" y2="15.68"/>
            <path class="cls-36" d="m55.97,16.13c0-.23.19-.42.43-.42s.43.19.43.42-.19.42-.43.42-.43-.19-.43-.42Z"/>
            <path class="cls-36" d="m55.97,15.3c0-.23.19-.42.43-.42s.43.19.43.42-.19.42-.43.42-.43-.19-.43-.42Z"/>
            <path class="cls-36" d="m56.06,14.41c0-.19.15-.34.34-.34s.34.15.34.34-.15.34-.34.34-.34-.15-.34-.34Z"/>
            <path class="cls-36" d="m56.15,13.6c0-.14.11-.24.25-.24s.25.11.25.24-.11.24-.25.24-.25-.11-.25-.24Z"/>
            <path class="cls-36" d="m56.2,12.89c0-.11.09-.2.2-.2s.2.09.2.2-.09.2-.2.2-.2-.09-.2-.2Z"/>
            <g>
              <g>
                <path class="cls-11" d="m56.44,18.69l.28.05c-.04.12-.05.25-.05.38,0,.61.5,1.1,1.11,1.1.49,0,.91-.32,1.06-.76.02.01.11-.4.15-.39.04,0,.04.42.05.42.07.55.56.93,1.1.93.61,0,1.11-.49,1.11-1.1,0-.05,0-.09,0-.13l.35-.36.19.46c-.08.14-.1.31-.1.48,0,.58.48,1.05,1.06,1.05.37,0,.69-.19.88-.47l.22-.29v.36c0,.36.15.69.49.75,0,0,.39.03.91-.4.52-.42.81-.78.81-.78l.04.42s-.43.69-.9.98c-.26.16-.65.32-.96.27-.33-.06-.56-.33-.68-.65-.23.14-.51.23-.81.23-.64,0-1.21-.36-1.43-.91-.29.33-.7.53-1.18.53-.51,0-.97-.24-1.26-.6-.29.27-.68.44-1.1.44-.56,0-1.06-.29-1.35-.72-.28.43-.78.72-1.34.72-.43,0-.82-.17-1.1-.44-.29.36-.76.6-1.26.6-.48,0-.88-.2-1.18-.53-.23.55-.8.91-1.43.91-.3,0-.57-.08-.8-.23-.12.32-.35.59-.68.65-.31.05-.7-.11-.96-.27-.47-.28-.9-.98-.9-.98l.04-.42s.29.35.81.78c.52.43.91.4.91.4.34-.06.49-.38.49-.75v-.36s.22.29.22.29c.19.28.52.47.88.47.59,0,1.06-.47,1.06-1.05,0-.17-.03-.34-.1-.48l.19-.46.35.36s0,.09,0,.13c0,.61.5,1.1,1.11,1.1.55,0,1.03-.37,1.1-.93.01,0,.01-.41.05-.42.05,0,.14.4.15.39.15.44.56.76,1.06.76.62,0,1.11-.49,1.11-1.1,0-.13,0-.26-.05-.38l.29-.05Z"/>
                <path class="cls-36" d="m64.09,20.13c.06-.2,0-.39-.13-.43-.14-.04-.3.08-.36.28s0,.39.13.43c.14.04.3-.08.36-.28Z"/>
                <path class="cls-36" d="m59.24,19.16c.03-.2-.07-.38-.21-.4-.14-.02-.28.13-.3.34-.03.2.07.38.21.4.14.02.28-.13.3-.34Z"/>
                <path class="cls-36" d="m53.62,19.16c-.03-.2.07-.38.21-.4.14-.02.28.13.3.34.03.2-.07.38-.21.4-.14.02-.28-.13-.3-.34Z"/>
                <path class="cls-36" d="m48.78,20.13c-.06-.2,0-.39.13-.43.14-.04.3.08.36.28.06.2,0,.39-.13.43-.14.04-.3-.08-.36-.28Z"/>
                <g>
                  <path class="cls-11" d="m50.89,16.77c.24.16.45.42.52.71,0,0,.03-.06.16-.14.13-.08.25-.08.25-.08,0,0-.04.23-.06.31-.02.08-.02.33-.07.55s-.14.4-.14.4c-.1-.08-.22-.12-.36-.1-.13.02-.24.1-.3.21,0,0-.15-.13-.27-.32-.12-.19-.21-.42-.26-.49-.05-.07-.16-.27-.16-.27,0,0,.11-.04.26-.01.15.03.2.08.2.08-.03-.3.06-.62.23-.85Z"/>
                  <path class="cls-49" d="m50.99,19.18c-.08-.06-.13-.15-.15-.25-.02-.1,0-.2.05-.29,0,0-.2-.11-.41-.16-.16-.05-.45-.05-.54-.05-.09,0-.26,0-.26,0,0,0,.01.04.06.13.06.11.11.18.11.18-.29.07-.53.27-.69.49.22.16.52.26.82.23,0,0-.03.08-.04.2-.02.1-.01.14-.01.14,0,0,.16-.06.24-.09.08-.03.35-.13.49-.23.18-.13.34-.29.34-.29Z"/>
                  <path class="cls-49" d="m51.63,19.07c.05-.08.07-.19.06-.29-.02-.1-.07-.19-.15-.25,0,0,.15-.17.33-.29.14-.1.41-.2.49-.23.08-.03.24-.09.24-.09,0,0,0,.04-.01.14-.02.12-.04.2-.04.2.29-.03.59.07.82.23-.15.23-.4.42-.69.49,0,0,.05.07.11.18.05.09.06.13.06.13,0,0-.17,0-.26,0-.09,0-.37,0-.54-.05-.21-.06-.42-.16-.42-.16Z"/>
                  <path class="cls-24" d="m50.78,18.85c0-.27.22-.48.49-.48s.49.22.49.48-.22.48-.49.48-.49-.22-.49-.48Z"/>
                </g>
                <g>
                  <path class="cls-11" d="m56.42,16c.24.22.42.56.44.9,0,0,.04-.06.21-.12.16-.06.29-.04.29-.04,0,0-.09.25-.13.34-.04.09-.09.36-.19.6-.1.24-.24.41-.24.41-.09-.11-.23-.18-.38-.18s-.29.07-.38.18c0,0-.14-.18-.24-.41-.1-.24-.15-.51-.19-.6-.04-.09-.13-.34-.13-.34,0,0,.13-.02.29.04.16.06.21.12.21.12.02-.34.19-.68.43-.9Z"/>
                  <path class="cls-49" d="m56.05,18.7c-.07-.08-.12-.19-.12-.31s.04-.23.12-.31c0,0-.2-.16-.43-.26-.17-.08-.49-.14-.59-.16-.1-.02-.29-.06-.29-.06,0,0,0,.05.04.16.04.13.09.22.09.22-.33.02-.65.19-.86.42.22.22.53.39.86.41,0,0-.04.09-.09.22-.04.11-.04.16-.04.16,0,0,.19-.04.29-.06.1-.02.42-.08.59-.16.23-.11.43-.26.43-.26Z"/>
                  <path class="cls-49" d="m56.79,18.7c.07-.08.12-.19.12-.31s-.04-.23-.12-.31c0,0,.2-.16.43-.26.17-.08.49-.14.59-.16.1-.02.29-.06.29-.06,0,0,0,.05-.04.16-.04.13-.09.22-.09.22.33.02.65.19.86.42-.22.22-.53.39-.86.41,0,0,.04.09.09.22.04.11.04.16.04.16,0,0-.19-.04-.29-.06-.1-.02-.42-.08-.59-.16-.23-.11-.43-.26-.43-.26Z"/>
                </g>
                <g>
                  <path class="cls-11" d="m61.98,16.77c-.24.16-.45.42-.52.71,0,0-.03-.06-.16-.14-.13-.08-.25-.08-.25-.08,0,0,.04.23.06.31.02.08.02.33.07.55.05.22.14.4.14.4.1-.08.22-.12.36-.1.13.02.24.1.3.21,0,0,.15-.13.27-.32.12-.19.21-.42.26-.49.05-.07.16-.27.16-.27,0,0-.11-.04-.26-.01-.15.03-.2.08-.2.08.03-.3-.06-.62-.23-.85Z"/>
                  <path class="cls-49" d="m61.88,19.18c.08-.06.13-.15.15-.25.02-.1,0-.2-.05-.29,0,0,.2-.11.42-.16.16-.05.45-.05.54-.05.09,0,.26,0,.26,0,0,0-.01.04-.06.13-.06.11-.11.18-.11.18.29.07.53.27.69.49-.22.16-.52.26-.82.23,0,0,.03.08.04.2.02.1.01.14.01.14,0,0-.16-.06-.24-.09-.08-.03-.35-.13-.49-.23-.18-.13-.34-.29-.34-.29Z"/>
                  <path class="cls-49" d="m61.24,19.07c-.05-.08-.07-.19-.06-.29.02-.1.07-.19.15-.25,0,0-.15-.17-.33-.29-.14-.1-.41-.2-.49-.23-.08-.03-.24-.09-.24-.09,0,0,0,.04.01.14.02.12.04.2.04.2-.29-.03-.59.07-.82.23.15.23.4.42.69.49,0,0-.05.07-.11.18-.05.09-.06.13-.06.13,0,0,.17,0,.26,0,.09,0,.37,0,.54-.05.21-.06.42-.16.42-.16Z"/>
                  <path class="cls-24" d="m61.11,18.85c0-.27.22-.48.49-.48s.49.22.49.48-.22.48-.49.48-.49-.22-.49-.48Z"/>
                </g>
                <g>
                  <path class="cls-24" d="m66.6,19.92c-.12-.13-.35-.1-.53.06-.18.16-.23.39-.12.52.12.13.36.1.53-.06.18-.16.23-.39.12-.52Z"/>
                  <path class="cls-49" d="m65.9,20.23c.02-.09.08-.18.16-.25.18-.16.42-.19.53-.06.02.02.03.04.04.06,0,0,.25-.49.54-.65.29-.16.79-.12.79-.12,0-.38-.3-.68-.68-.68-.22,0-.44.1-.56.26l-.05-.25s-.31.06-.45.43c-.14.37.01.9.01.9,0,0-.08-.23-.19-.38-.12-.15-.41-.32-.56-.39-.15-.08-.31-.19-.31-.19,0,0,0,.04-.01.14,0,.12,0,.2,0,.2-.28-.04-.61,0-.87.11.11.22.32.43.59.54,0,0-.1.08-.19.18-.07.08-.1.11-.1.11,0,0,.19.03.29.04.1.01.42.07.61.05.14,0,.3-.03.39-.05Z"/>
                </g>
                <g>
                  <path class="cls-24" d="m46.27,19.92c.12-.13.35-.1.53.06.18.16.23.39.12.52-.12.13-.36.1-.53-.06-.18-.16-.23-.39-.12-.52Z"/>
                  <path class="cls-49" d="m46.97,20.23c-.02-.09-.08-.18-.16-.25-.18-.16-.42-.19-.53-.06-.02.02-.03.04-.04.06,0,0-.25-.49-.54-.65-.3-.16-.79-.12-.79-.12,0-.38.3-.68.68-.68.22,0,.44.1.56.26l.05-.25s.31.06.45.43c.14.37-.01.9-.01.9,0,0,.08-.23.19-.38.12-.15.41-.32.56-.39.15-.08.31-.19.31-.19,0,0,0,.04.01.14,0,.12,0,.2,0,.2.28-.04.61,0,.87.11-.11.22-.32.43-.59.54,0,0,.1.08.19.18.08.08.1.11.1.11,0,0-.19.03-.29.04s-.42.07-.61.05c-.14,0-.3-.03-.39-.05Z"/>
                </g>
              </g>
              <path class="cls-24" d="m55.94,18.39c0-.27.22-.48.49-.48s.49.22.49.48-.22.48-.49.48-.49-.22-.49-.48Z"/>
            </g>
            <g>
              <g>
                <ellipse class="cls-82" cx="56.41" cy="11.03" rx="1" ry=".99"/>
                <g class="cls-86">
                  <polygon class="cls-8" points="57.57 10.89 57.57 11.43 55.31 11.43 55.31 10.89 56.15 10.89 56.15 9.34 55.59 9.34 55.59 8.8 56.15 8.8 56.15 8.26 56.69 8.26 56.69 8.8 57.24 8.8 57.24 9.34 56.69 9.34 56.69 10.89 57.57 10.89"/>
                </g>
              </g>
              <polygon class="cls-8" points="57.23 10.89 57.23 11.43 55.59 11.43 55.59 10.89 56.15 10.89 56.15 9.34 55.59 9.34 55.59 8.8 56.15 8.8 56.15 8.26 56.69 8.26 56.69 8.8 57.24 8.8 57.24 9.34 56.69 9.34 56.69 10.89 57.23 10.89"/>
              <g class="cls-83">
                <polygon class="cls-8" points="57.57 10.89 57.57 11.43 55.31 11.43 55.31 10.89 56.15 10.89 56.15 9.34 55.59 9.34 55.59 8.8 56.15 8.8 56.15 8.26 56.69 8.26 56.69 8.8 57.24 8.8 57.24 9.34 56.69 9.34 56.69 10.89 57.57 10.89"/>
              </g>
              <path class="cls-56" d="m56.69,10.09c.42.12.72.5.72.95,0,.55-.45.99-1,.99s-1-.44-1-.99c0-.46.31-.84.74-.95"/>
            </g>
            <path class="cls-17" d="m56.51,52.75c-2.96,0-5.9-.76-8.37-2.01-1.82-.94-3.03-2.83-3.03-4.99v-7.85h22.74v7.85c0,2.16-1.21,4.05-3.03,4.99-2.47,1.26-5.36,2.01-8.32,2.01Z"/>
            <rect class="cls-59" x="56.46" y="24.76" width="11.4" height="13.13"/>
            <rect class="cls-58" x="45.1" y="24.76" width="11.36" height="13.13"/>
            <g>
              <path class="cls-67" d="m56.47,45.74c0,3.1-2.53,5.61-5.67,5.61s-5.7-2.51-5.7-5.61v-7.86h11.37v7.86Z"/>
              <g class="cls-88">
                <rect class="cls-61" x="47.58" y="37.6" width="1.33" height="14.53"/>
                <rect class="cls-61" x="45.05" y="37.6" width="1.33" height="14.53"/>
                <rect class="cls-61" x="50.12" y="37.6" width="1.33" height="14.53"/>
                <rect class="cls-61" x="52.65" y="37.6" width="1.33" height="14.53"/>
                <rect class="cls-61" x="55.19" y="37.6" width="1.33" height="14.53"/>
              </g>
              <path class="cls-21" d="m56.47,45.74c0,3.1-2.53,5.61-5.67,5.61s-5.7-2.51-5.7-5.61v-7.86h11.37v7.86Z"/>
            </g>
            <path class="cls-9" d="m67.87,37.88v7.86c0,3.1-2.55,5.61-5.7,5.61s-5.7-2.51-5.7-5.61v-7.86h11.4Z"/>
            <path class="cls-53" d="m62.7,49.24c.3-.05.58-.14.86-.26l.19.34c-.32.14-.66.24-1.02.3-.06.28-.31.48-.6.48s-.54-.2-.6-.48c-.38-.05-.74-.15-1.07-.3l.19-.34c.29.13.6.21.92.26.07-.15.19-.27.36-.33v-1.65h.39v1.64c.17.05.32.17.39.33Zm-1.11-5s-.03-.07-.05-.11h-.97v-.38h.96s.03-.06.04-.1l-1.19-1.37.29-.25,1.17,1.35s.04-.02.06-.03v-1.8h.38v1.79s.04.01.06.02l1.14-1.36.29.24-1.15,1.35s.05.09.07.15h.93v.38h-.94s-.04.08-.06.12l1.09,1.29-.29.25-1.08-1.29s-.03.02-.05.02v2.13h-.39v-2.14s-.03-.01-.05-.02l-1.13,1.3-.29-.25,1.13-1.3Zm-3.03-4.08l1.43,1.66.29-.25-1.44-1.66s.05-.09.07-.14h1.04v-.38h-1.04c-.08-.25-.31-.42-.59-.42-.34,0-.62.27-.62.61,0,.27.17.49.42.58v1.28s.38,0,.38,0v-1.27s.05,0,.06-.01Zm1.54,8.53l-.19.34c-.32-.21-.61-.47-.86-.76-.2.06-.42.02-.59-.12-.26-.22-.29-.6-.07-.86l.03-.03c-.16-.37-.26-.77-.3-1.18h.39c.03.36.12.69.25,1.01.11-.02.23,0,.33.04l.97-1.12.29.25-.96,1.11c.13.21.12.47-.02.67.21.25.46.46.73.65Zm-1.98-3.23v-.95c-.25-.08-.43-.31-.43-.58s.18-.51.43-.58v-1.29s.38,0,.38,0v1.3c.19.06.34.21.39.4h1.04v.38h-1.04c-.06.18-.2.32-.38.38v.95s-.39,0-.39,0Zm.55,2.06c.09-.11.26-.12.37-.03.11.09.12.26.03.37-.09.11-.26.12-.37.03-.11-.09-.12-.26-.03-.37Zm-.49-1.1l-.4-.09-.06-1.05.39-.13v.6c0,.23.02.45.06.68Zm.33-1.3l.4.1s.02.67.01.52c-.01-.18.04.53.04.53l-.4.14c-.04-.21-.05-.43-.05-.66v-.63Zm1.31,3.36c.33.27.72.49,1.14.63l.09-.4c-.34-.11-.66-.28-.94-.49l-.28.26Zm-.19.34c.34.27.73.48,1.14.62l-.3.29c-.33-.13-.65-.3-.93-.5l.09-.42Zm.52-2.31l.38.17.69-.8-.23-.34-.84.97Zm-.29-.25l-.23-.34.69-.8.38.17-.84.97Zm-1.81-2.32c0-.14.12-.26.26-.26s.27.12.27.26-.12.26-.27.26-.26-.12-.26-.26Zm6.07,4.75l.19.34c.32-.21.61-.47.86-.76.2.06.42.02.59-.12.26-.22.29-.6.07-.86l-.03-.03c.16-.37.26-.77.3-1.18h-.39c-.03.36-.12.69-.25,1.01-.11-.02-.22,0-.33.04l-.97-1.12-.29.25.96,1.11c-.13.21-.12.47.02.67-.21.25-.46.46-.73.65Zm1.98-3.23v-.95c.25-.08.43-.31.43-.58s-.18-.51-.43-.58v-1.29s-.38,0-.38,0v1.3c-.19.06-.34.21-.4.4h-1.04v.38h1.04c.06.18.2.32.38.38v.95s.39,0,.39,0Zm-.55,2.06c-.1-.11-.26-.12-.37-.03-.11.09-.12.26-.03.37.1.11.26.12.37.03.11-.09.12-.26.03-.37Zm.49-1.1l.4-.09.06-1.05-.39-.13v.6c0,.23-.02.45-.06.68Zm-.33-1.3l-.4.1s-.02.67-.01.52c.01-.18-.04.53-.04.53l.4.14c.04-.21.05-.43.05-.66v-.63Zm.39-4.95v1.28h-.39v-1.28s-.06-.02-.09-.04l-1.42,1.66-.29-.24,1.45-1.7s-.02-.05-.03-.08h-1.05v-.38h1.05c.08-.24.31-.42.59-.42.34,0,.62.27.62.61,0,.27-.18.5-.43.58Zm-3.79,0v.79h-.39v-.78c-.19-.06-.34-.21-.4-.39h-.94v-.38h.94c.08-.24.31-.42.59-.42s.51.18.59.42h.95v.38h-.96c-.06.18-.2.33-.38.39Zm2.09,8.31c-.33.27-.72.49-1.14.63l-.09-.4c.34-.11.66-.28.94-.49l.28.26Zm.19.34c-.34.27-.73.48-1.14.62l.3.29c.33-.13.65-.3.93-.5l-.09-.42Zm-6.47-7.7l-.4.12v1.05l.4.11v-1.28Zm.39,0l.4.12v1.05l-.4.11v-1.28Zm7.2,0l-.4.12v1.05l.4.11v-1.28Zm.39,0l.4.12v1.05l-.4.11v-1.28Zm-2.02,5.39l-.38.17-.69-.8.23-.34.84.97Zm.29-.25l.23-.34-.69-.8-.38.17.84.97Zm-4.3-4.93l.38-.17.69.8-.23.34-.84-.97Zm-.29.25l-.23.34.69.8.38-.17-.84-.97Zm4.35-.28l-.38-.16-.69.81.23.34.84-.98Zm.3.24l.23.34-.69.81-.38-.17.84-.98Zm-4.8,2.22l.12-.39h1.07l.12.39h-1.3Zm0,.38l.12.39h1.07l.12-.39h-1.3Zm-1.56-4.55c0-.14.12-.26.26-.26s.27.12.27.26-.12.26-.27.26-.26-.12-.26-.26Zm2.85.19l-.12.39h-1.07l-.12-.39h1.3Zm0-.38l-.12-.39h-1.07l-.12.39h1.3Zm4.73,4.54c0-.14.12-.26.26-.26s.26.12.26.26-.12.26-.26.26-.26-.12-.26-.26Zm-1.03-.18l-.12-.39h-1.07l-.12.39h1.3Zm0,.38l-.12.39h-1.07l-.12-.39h1.3Zm-2.74,5.36c0-.14.12-.26.26-.26s.26.12.26.26-.12.26-.26.26-.26-.12-.26-.26Zm.45-1.9l.4-.12v-1.05l-.4-.11v1.28Zm-.39,0l-.4-.12v-1.05l.4-.11v1.28Zm3.71-8.01c0-.14.12-.26.26-.26s.26.12.26.26-.12.26-.26.26-.26-.12-.26-.26Zm-3.8,0c0-.14.12-.26.26-.26s.27.12.27.26-.12.26-.27.26-.26-.12-.26-.26Zm1.48.19l.12.39h1.07l.12-.39h-1.3Zm0-.38l.12-.39h1.07l.12.39h-1.3Zm-1.39,1.23l-.4.12v1.05l.4.11v-1.28Zm.38,0l.4.12v1.05l-.4.11v-1.28Z"/>
            <ellipse class="cls-71" cx="62.13" cy="43.94" rx=".62" ry=".61"/>
            <path class="cls-24" d="m62.27,27.99v-.15s.03-.08.03-.08c0,0-.36.03-.56-.03-.19-.06-.36-.14-.54-.3-.18-.16-.25-.26-.38-.28-.31-.05-.54.09-.54.09,0,0,.23.09.4.31.17.22.36.33.44.36.13.04.6.01.73.02.13,0,.42.04.42.04Z"/>
            <g>
              <path class="cls-43" d="m63.97,27.46s0,.17.02.33c.02.16-.05.29-.02.38.02.09.04.16.07.22.03.06.05.22.05.22,0,0-.09-.06-.17-.13-.08-.06-.14-.1-.14-.1,0,0,.02.17.02.24,0,.07.05.21.12.29.07.08.2.21.24.32.04.11.03.34.03.34,0,0-.11-.18-.2-.21-.09-.03-.29-.15-.29-.15,0,0,.18.19.18.36s-.07.38-.07.38c0,0-.08-.16-.19-.27-.11-.11-.25-.21-.25-.21,0,0,.11.27.11.46s-.03.58-.03.58c0,0-.09-.15-.18-.23-.09-.07-.2-.14-.23-.19-.03-.05.11.15.12.27.02.12.07.55.43,1.11.21.32.54.89,1.25.7.7-.19.44-1.17.3-1.63-.15-.46-.22-.97-.21-1.15,0-.18.13-.7.11-.8-.02-.1-.05-.47.03-.77.09-.32.16-.44.21-.57.05-.13.09-.2.11-.32.02-.11.02-.32.02-.32,0,0,.13.25.16.34.03.09.03.36.03.36,0,0,.02-.27.22-.4.2-.13.43-.27.48-.34.06-.07.07-.12.07-.12,0,0-.02.45-.14.63-.08.12-.4.49-.4.49,0,0,.16-.06.28-.07.12,0,.2,0,.2,0,0,0-.14.11-.32.39-.18.27-.11.3-.24.52-.13.23-.24.23-.4.37-.25.21-.11,1.03-.08,1.15.03.12.46,1.12.47,1.36,0,.24.05.78-.36,1.13-.26.22-.7.23-.79.29-.1.06-.3.27-.3.69s.15.48.26.59c.12.11.26.05.3.13.03.08.05.13.1.18.05.05.08.1.07.19-.02.09-.21.29-.27.44-.07.15-.2.53-.2.58s-.02.23.04.32c0,0,.2.25.07.3-.09.03-.18-.06-.22-.05-.12.03-.19.11-.22.11-.08-.02-.08-.06-.09-.18,0-.12,0-.17-.04-.17-.05,0-.07.04-.08.1,0,.06,0,.21-.07.21s-.14-.11-.19-.13c-.05-.02-.19-.05-.2-.11,0-.06.08-.2.17-.23.09-.02.17-.07.11-.12-.06-.05-.11-.05-.17,0-.06.05-.18,0-.17-.06,0-.07.02-.16.02-.2,0-.04-.11-.12.02-.19.13-.07.19.06.32.04.13-.02.2-.07.25-.15.05-.08.04-.25-.05-.36-.09-.1-.18-.12-.21-.19-.03-.06-.08-.22-.08-.22,0,0,.02.28,0,.32-.02.04,0,.21,0,.21,0,0-.09-.1-.16-.19-.07-.08-.15-.32-.15-.32,0,0,0,.23,0,.31s.1.17.07.2c-.03.03-.19-.17-.23-.2-.04-.03-.17-.14-.23-.25-.06-.11-.1-.28-.11-.33-.02-.06-.04-.31-.02-.37.04-.1.11-.27.11-.27h-.32c-.17,0-.3-.06-.36.06-.07.12-.03.36.05.68.08.31.13.47.11.52-.02.06-.13.19-.17.21-.04.02-.16.02-.2,0-.05-.02-.13-.06-.29-.06s-.25,0-.31,0c-.06-.02-.2-.09-.26-.07s-.18.08-.15.17c.05.15-.05.18-.11.17-.07,0-.12-.03-.2-.06-.08-.02-.21,0-.19-.1.02-.1.05-.11.09-.18.04-.07.06-.12.01-.12-.06,0-.12-.01-.16.02-.04.04-.12.12-.17.09-.06-.03-.1-.1-.1-.25s-.15-.28-.01-.28c.14,0,.32.11.35.03.03-.08.01-.12-.06-.18-.08-.06-.17-.1-.07-.18.1-.08.13-.08.17-.13.04-.04.09-.19.17-.15.14.07,0,.17.15.33.14.16.23.22.47.2.24-.03.3-.06.3-.13s-.02-.2-.03-.25c0-.05.03-.23.03-.23,0,0-.11.07-.14.14-.03.07-.1.19-.1.19,0,0-.03-.14-.02-.26,0-.07.03-.19.03-.21,0-.06-.05-.22-.05-.22,0,0-.04.17-.06.22-.03.05-.04.25-.04.25,0,0-.15-.14-.11-.37.03-.18-.03-.41.03-.49.05-.08.17-.38.47-.4.29-.01.53.01.63,0,.1,0,.47-.08.47-.08,0,0-.67-.36-.83-.47-.15-.11-.39-.38-.47-.51-.08-.13-.15-.37-.15-.37,0,0-.12,0-.23.07-.11.06-.22.16-.28.23-.06.08-.17.25-.17.25,0,0,.02-.22.02-.29s-.01-.2-.01-.2c0,0-.08.3-.23.42-.15.11-.33.27-.33.27,0,0,.02-.17.02-.21s.04-.23.04-.23c0,0-.11.17-.28.2-.17.03-.41.02-.43.13-.02.11.04.25,0,.33-.04.08-.12.13-.12.13,0,0-.1-.08-.18-.09-.08,0-.16.04-.16.04,0,0-.07-.09-.04-.16.03-.06.15-.16.12-.2-.03-.04-.13.01-.2.04-.06.03-.2.06-.19-.04.01-.11.04-.17.01-.25-.03-.08-.01-.13.04-.15.05-.02.26,0,.28-.04.02-.05-.05-.11-.19-.15-.13-.03-.2-.11-.13-.18.07-.07.09-.09.12-.15.03-.06.04-.18.17-.12.12.06.1.2.22.24.13.04.43-.02.49-.06.06-.04.27-.2.34-.23.07-.04.36-.26.36-.26,0,0-.17-.13-.24-.19-.06-.06-.18-.21-.24-.25-.06-.03-.34-.15-.44-.15s-.39-.11-.39-.11c0,0,.13-.04.18-.08.04-.04.15-.13.2-.13.05,0,.06,0,.06,0,0,0-.28-.01-.33-.03-.06-.02-.22-.13-.29-.13s-.19.03-.19.03c0,0,.17-.11.31-.14.14-.03.25-.02.25-.02,0,0-.22-.06-.27-.14-.05-.08-.1-.19-.14-.24-.04-.05-.06-.13-.13-.14-.07,0-.19.09-.26.08-.07,0-.12-.05-.13-.16,0-.11,0-.07-.03-.13-.03-.06-.13-.19-.03-.22.1-.03.3.02.32-.02.02-.04-.11-.15-.19-.2-.08-.04-.22-.12-.15-.18.07-.06.14-.09.18-.15.04-.06.08-.21.17-.16.08.05.2.3.26.28.06-.02.07-.2.06-.27s0-.21.06-.2c.06.01.12.1.22.11s.26-.03.24.05c-.01.08-.07.17-.14.25-.07.08-.1.25-.06.35.04.11.16.28.26.35.1.07.3.12.42.2.12.08.4.32.5.34.1.03.19.08.19.08,0,0,.11-.05.26-.05s.49.03.61-.03c.13-.06.29-.15.24-.27-.05-.12-.33-.23-.31-.32.03-.09.13-.1.3-.11.17,0,.41.03.45-.22.04-.25.06-.4-.19-.45-.24-.06-.42-.06-.47-.25-.04-.18-.09-.23-.04-.28.05-.05.14-.08.32-.09.18-.01.38-.01.44-.06.06-.04.07-.16.14-.21.07-.05.35-.1.35-.1,0,0,.33.17.63.4.27.21.52.53.52.53Z"/>
              <path class="cls-45" d="m61.61,27.28s-.04-.11-.04-.15c0-.03-.03-.07-.03-.07,0,0,.2,0,.19.06,0,.06-.06.06-.08.09-.01.03-.04.06-.04.06Z"/>
              <path class="cls-3" d="m62.52,26.95v-.1s.16,0,.24.06c.13.09.21.24.2.25-.02.02-.12-.06-.19-.09,0,0-.05.01-.1.01s-.08-.03-.08-.05c0-.03,0-.07,0-.07h-.08Z"/>
              <path class="cls-56" d="m63.77,28.38s-.08-.11-.1-.15c-.02-.04-.05-.11-.05-.11"/>
              <path class="cls-24" d="m59.09,27.24s.11.08.19.09c.08.01.17.01.19.01s.04-.13.03-.21c-.04-.28-.29-.35-.29-.35,0,0,.07.17.04.25-.05.11-.15.2-.15.2Z"/>
              <path class="cls-24" d="m58.57,27.49s-.1-.18-.3-.16c-.21.03-.34.19-.34.19,0,0,.23,0,.28.03.08.06.11.2.11.2,0,0,.12-.08.16-.13.04-.05.09-.14.09-.14Z"/>
              <path class="cls-24" d="m58.32,28.23s-.17.03-.27.14c-.1.11-.08.33-.08.33,0,0,.12-.13.22-.13s.26.04.26.04c0,0-.05-.13-.05-.19s-.08-.19-.08-.19Z"/>
              <polygon class="cls-45" points="61.62 28.2 61.7 28.07 61.77 28.19 61.62 28.2"/>
              <polygon class="cls-45" points="61.81 28.19 61.9 28.07 61.99 28.18 61.81 28.19"/>
              <polygon class="cls-45" points="61.72 27.42 61.91 27.49 61.74 27.58 61.72 27.42"/>
              <polygon class="cls-45" points="61.95 27.48 62.11 27.53 61.98 27.63 61.95 27.48"/>
              <path class="cls-13" d="m60.7,28.96s-.18.06-.25.16c-.08.13-.08.25-.08.25,0,0,.15-.13.35-.08.2.06.22.08.3.07.08,0,.29-.08.29-.08,0,0-.17.2-.15.34.02.14.04.2.04.27-.01.17-.13.38-.13.38,0,0,.07-.04.24-.08.17-.04.31-.12.4-.19.09-.07.2-.24.2-.24,0,0-.04.23,0,.33.04.1.05.39.05.39,0,0,.11-.1.19-.15.04-.02.16-.09.2-.16.03-.05.07-.25.07-.25,0,0,.03.21.09.32.06.1.16.41.16.41,0,0,.06-.2.13-.28.07-.08.15-.19.16-.25,0-.06-.02-.2-.02-.2l.09.2"/>
              <path class="cls-13" d="m60.46,30.26s.11-.2.21-.26c.1-.06.24-.18.28-.19.04-.01.2-.11.2-.11"/>
              <path class="cls-13" d="m61.38,30.93s.25-.13.32-.18c.15-.09.26-.26.26-.26"/>
              <path class="cls-24" d="m58.9,30.61s-.1-.11-.26-.08c-.17.03-.28.23-.28.23,0,0,.14-.04.22-.02.08.02.14.11.14.11,0,0,.08-.07.1-.11.03-.04.07-.13.07-.13Z"/>
              <path class="cls-24" d="m58.71,31.31s-.14-.02-.26.08c-.12.1-.13.3-.13.3,0,0,.12-.1.21-.09.09.01.2.06.2.06,0,0,.02-.12.03-.15.02-.09-.04-.2-.04-.2Z"/>
              <path class="cls-24" d="m59.03,31.95s0,.19.08.3c.09.12.26.14.26.14,0,0-.06-.13-.06-.19-.01-.09.08-.18.08-.18,0,0-.08-.09-.17-.09s-.18.01-.18.01Z"/>
              <path class="cls-13" d="m62.81,32.27s.46.3.45.54c-.01.25-.26.57-.26.57"/>
              <path class="cls-24" d="m60.7,33.61s-.12-.15-.28-.15c-.16,0-.33.16-.33.16,0,0,.2-.02.25.05.05.07.1.16.1.16,0,0,.09-.05.13-.08.04-.03.12-.15.12-.15Z"/>
              <path class="cls-24" d="m60.21,34.28s-.21-.03-.31.08c-.1.11-.1.32-.1.32,0,0,.13-.15.24-.13.12.01.24.08.24.08,0,0-.02-.13-.03-.18-.01-.06-.04-.16-.04-.16Z"/>
              <path class="cls-24" d="m60.66,34.98s-.1.15-.03.27c.08.12.24.18.24.18,0,0-.06-.09-.03-.19.02-.08.15-.19.15-.19l-.33-.07Z"/>
              <path class="cls-24" d="m63.47,35.26s-.19-.04-.29.02c-.1.06-.19.33-.19.33,0,0,.17-.15.29-.13.12.02.21.07.21.07,0,0,.02-.11,0-.18,0-.05-.03-.11-.03-.11Z"/>
              <path class="cls-24" d="m63.56,35.97s-.14.15-.09.28c.05.13.14.26.14.26,0,0,0-.19.05-.24.08-.08.24-.09.24-.09,0,0-.12-.11-.16-.13-.04-.01-.18-.08-.18-.08Z"/>
              <path class="cls-24" d="m64.26,36.19s-.07.18.06.3c.13.12.25.13.25.13,0,0-.1-.19-.07-.29.03-.1.12-.17.12-.17,0,0-.17-.06-.19-.05-.03,0-.17.08-.17.08Z"/>
            </g>
            <g>
              <path class="cls-47" d="m57.05,49.27c.47.15.71.51.71.94,0,.56-.52.98-1.2.98s-1.23-.42-1.23-.98c0-.42.23-.9.7-.93,0,0-.02-.04-.06-.12-.05-.05-.15-.16-.15-.16,0,0,.18-.03.28,0,.1.04.17.11.17.11,0,0,.05-.1.12-.18.07-.08.16-.13.16-.13,0,0,.1.09.14.15.03.06.06.14.06.14,0,0,.1-.08.18-.12.08-.03.19-.06.19-.06,0,0-.03.11-.05.16-.02.05-.03.17-.03.17Z"/>
              <path class="cls-14" d="m56.47,51.81s-.9-.63-1.29-.72c-.5-.11-1.06-.02-1.3-.03,0,0,.29.22.42.35.12.13.54.39.78.45.73.19,1.4-.05,1.4-.05Z"/>
              <path class="cls-14" d="m56.72,51.86s.58-.62,1.18-.71c.71-.1,1.18.06,1.46.14,0,0-.23.12-.35.21s-.45.37-.94.38c-.49,0-1.04-.05-1.13-.04-.09.01-.22.03-.22.03Z"/>
              <path class="cls-9" d="m56.55,51.09c-.23-.22-.37-.53-.37-.87s.14-.66.37-.87c.23.22.37.53.37.87s-.14.66-.37.87Z"/>
              <path class="cls-14" d="m56.32,52.37s.14-.36.15-.67c.01-.26-.04-.51-.04-.51h.18s.09.27.09.51-.04.56-.04.56c0,0-.12.02-.17.04-.04.02-.18.07-.18.07Z"/>
            </g>
            <g>
              <path class="cls-36" d="m67.72,18.43c0-.14.11-.24.25-.24s.25.11.25.24-.11.24-.25.24-.25-.11-.25-.24Z"/>
              <path class="cls-36" d="m68.06,17.8c0-.14.11-.24.25-.24s.25.11.25.24-.11.24-.25.24-.25-.11-.25-.24Z"/>
              <path class="cls-36" d="m68.29,17.08c0-.14.11-.24.25-.24s.25.11.25.24-.11.24-.25.24-.25-.11-.25-.24Z"/>
              <path class="cls-36" d="m68.31,16.3c0-.14.11-.24.25-.24s.25.11.25.24-.11.24-.25.24-.25-.11-.25-.24Z"/>
              <path class="cls-36" d="m68.13,15.54c0-.14.11-.24.25-.24s.25.11.25.24-.11.24-.25.24-.25-.11-.25-.24Z"/>
              <path class="cls-36" d="m67.75,14.84c0-.14.11-.24.25-.24s.25.11.25.24-.11.24-.25.24-.25-.11-.25-.24Z"/>
              <path class="cls-36" d="m67.24,14.27c0-.13.11-.24.25-.24s.25.11.25.24-.11.24-.25.24-.25-.11-.25-.24Z"/>
              <path class="cls-36" d="m66.65,13.8c0-.14.11-.24.25-.24s.25.11.25.24-.11.24-.25.24-.25-.11-.25-.24Z"/>
              <path class="cls-36" d="m65.94,13.41c0-.14.11-.24.25-.24s.25.11.25.24-.11.24-.25.24-.25-.11-.25-.24Z"/>
              <path class="cls-36" d="m65.21,13.13c0-.14.11-.24.25-.24s.25.11.25.24-.11.24-.25.24-.25-.11-.25-.24Z"/>
              <path class="cls-36" d="m64.39,12.98c0-.14.11-.24.25-.24s.25.11.25.24-.11.24-.25.24-.25-.11-.25-.24Z"/>
              <path class="cls-36" d="m63.61,12.94c0-.14.11-.24.25-.24s.25.11.25.24-.11.24-.25.24-.25-.11-.25-.24Z"/>
              <path class="cls-36" d="m62.84,12.96c0-.14.11-.24.25-.24s.25.11.25.24-.11.24-.25.24-.25-.11-.25-.24Z"/>
              <path class="cls-36" d="m62.08,12.96c0-.14.11-.24.25-.24s.25.11.25.24-.11.24-.25.24-.25-.11-.25-.24Z"/>
              <path class="cls-36" d="m62.46,13.64c0-.14.11-.24.25-.24s.25.11.25.24-.11.24-.25.24-.25-.11-.25-.24Z"/>
              <path class="cls-36" d="m62.62,14.4c0-.14.11-.24.25-.24s.25.11.25.24-.11.24-.25.24-.25-.11-.25-.24Z"/>
              <path class="cls-36" d="m62.64,15.15c0-.14.11-.24.25-.24s.25.11.25.24-.11.24-.25.24-.25-.11-.25-.24Z"/>
              <path class="cls-36" d="m62.42,15.83c0-.14.11-.24.25-.24s.25.11.25.24-.11.24-.25.24-.25-.11-.25-.24Z"/>
              <path class="cls-36" d="m62,16.46c0-.14.11-.24.25-.24s.25.11.25.24-.11.24-.25.24-.25-.11-.25-.24Z"/>
              <path class="cls-36" d="m61.5,12.49c0-.14.11-.24.25-.24s.25.11.25.24-.11.24-.25.24-.25-.11-.25-.24Z"/>
              <path class="cls-36" d="m60.82,12.1c0-.14.11-.24.25-.24s.25.11.25.24-.11.24-.25.24-.25-.11-.25-.24Z"/>
              <path class="cls-36" d="m60.07,11.86c0-.13.11-.24.25-.24s.25.11.25.24-.11.24-.25.24-.25-.11-.25-.24Z"/>
              <path class="cls-36" d="m59.3,11.72c0-.14.11-.24.25-.24s.25.11.25.24-.11.24-.25.24-.25-.11-.25-.24Z"/>
              <path class="cls-36" d="m58.53,11.74c0-.14.11-.24.25-.24s.25.11.25.24-.11.24-.25.24-.25-.11-.25-.24Z"/>
              <path class="cls-36" d="m57.74,11.88c0-.14.11-.24.25-.24s.25.11.25.24-.11.24-.25.24-.25-.11-.25-.24Z"/>
              <path class="cls-36" d="m57.01,12.14c0-.14.11-.24.25-.24s.25.11.25.24-.11.24-.25.24-.25-.11-.25-.24Z"/>
              <path class="cls-36" d="m44.58,18.43c0-.14.11-.24.25-.24s.25.11.25.24-.11.24-.25.24-.25-.11-.25-.24Z"/>
              <path class="cls-36" d="m44.24,17.8c0-.14.11-.24.25-.24s.25.11.25.24-.11.24-.25.24-.25-.11-.25-.24Z"/>
              <path class="cls-36" d="m44.02,17.08c0-.14.11-.24.25-.24s.25.11.25.24-.11.24-.25.24-.25-.11-.25-.24Z"/>
              <path class="cls-36" d="m43.99,16.3c0-.14.11-.24.25-.24s.25.11.25.24-.11.24-.25.24-.25-.11-.25-.24Z"/>
              <path class="cls-36" d="m44.17,15.54c0-.14.11-.24.25-.24s.25.11.25.24-.11.24-.25.24-.25-.11-.25-.24Z"/>
              <path class="cls-36" d="m44.55,14.84c0-.14.11-.24.25-.24s.25.11.25.24-.11.24-.25.24-.25-.11-.25-.24Z"/>
              <path class="cls-36" d="m45.06,14.27c0-.13.11-.24.25-.24s.25.11.25.24-.11.24-.25.24-.25-.11-.25-.24Z"/>
              <path class="cls-36" d="m45.66,13.8c0-.14.11-.24.25-.24s.25.11.25.24-.11.24-.25.24-.25-.11-.25-.24Z"/>
              <path class="cls-36" d="m46.36,13.41c0-.14.11-.24.25-.24s.25.11.25.24-.11.24-.25.24-.25-.11-.25-.24Z"/>
              <path class="cls-36" d="m47.1,13.13c0-.14.11-.24.25-.24s.25.11.25.24-.11.24-.25.24-.25-.11-.25-.24Z"/>
              <path class="cls-36" d="m47.92,12.98c0-.14.11-.24.25-.24s.25.11.25.24-.11.24-.25.24-.25-.11-.25-.24Z"/>
              <path class="cls-36" d="m48.7,12.94c0-.14.11-.24.25-.24s.25.11.25.24-.11.24-.25.24-.25-.11-.25-.24Z"/>
              <path class="cls-36" d="m49.46,12.96c0-.14.11-.24.25-.24s.25.11.25.24-.11.24-.25.24-.25-.11-.25-.24Z"/>
              <path class="cls-36" d="m50.22,12.96c0-.14.11-.24.25-.24s.25.11.25.24-.11.24-.25.24-.25-.11-.25-.24Z"/>
              <path class="cls-36" d="m49.84,13.64c0-.14.11-.24.25-.24s.25.11.25.24-.11.24-.25.24-.25-.11-.25-.24Z"/>
              <path class="cls-36" d="m49.69,14.4c0-.14.11-.24.25-.24s.25.11.25.24-.11.24-.25.24-.25-.11-.25-.24Z"/>
              <path class="cls-36" d="m49.66,15.15c0-.14.11-.24.25-.24s.25.11.25.24-.11.24-.25.24-.25-.11-.25-.24Z"/>
              <path class="cls-36" d="m49.88,15.83c0-.14.11-.24.25-.24s.25.11.25.24-.11.24-.25.24-.25-.11-.25-.24Z"/>
              <path class="cls-36" d="m50.31,16.46c0-.14.11-.24.25-.24s.25.11.25.24-.11.24-.25.24-.25-.11-.25-.24Z"/>
              <path class="cls-36" d="m50.8,12.49c0-.14.11-.24.25-.24s.25.11.25.24-.11.24-.25.24-.25-.11-.25-.24Z"/>
              <path class="cls-36" d="m51.48,12.1c0-.14.11-.24.25-.24s.25.11.25.24-.11.24-.25.24-.25-.11-.25-.24Z"/>
              <path class="cls-36" d="m52.23,11.86c0-.13.11-.24.25-.24s.25.11.25.24-.11.24-.25.24-.25-.11-.25-.24Z"/>
              <path class="cls-36" d="m53.01,11.72c0-.14.11-.24.25-.24s.25.11.25.24-.11.24-.25.24-.25-.11-.25-.24Z"/>
              <path class="cls-36" d="m53.77,11.74c0-.14.11-.24.25-.24s.25.11.25.24-.11.24-.25.24-.25-.11-.25-.24Z"/>
              <path class="cls-36" d="m54.56,11.88c0-.14.11-.24.25-.24s.25.11.25.24-.11.24-.25.24-.25-.11-.25-.24Z"/>
              <path class="cls-36" d="m55.29,12.14c0-.14.11-.24.25-.24s.25.11.25.24-.11.24-.25.24-.25-.11-.25-.24Z"/>
            </g>
            <polygon class="cls-41" points="54.02 36.06 47.59 36.06 47.59 34.38 48.51 34.38 48.51 30.94 48.08 30.94 48.08 29.41 48.79 29.41 48.79 28.33 48.48 28.33 48.48 27.55 48.77 27.55 48.77 27.78 49.08 27.78 49.08 27.55 49.43 27.55 49.43 27.78 49.74 27.78 49.74 27.55 50.03 27.55 50.03 28.33 49.71 28.33 49.71 29.41 50.35 29.41 50.35 27.1 49.97 27.1 49.97 26.21 50.25 26.21 50.25 26.44 50.59 26.44 50.59 26.21 51.05 26.21 51.05 26.44 51.41 26.44 51.41 26.21 51.69 26.21 51.69 27.1 51.26 27.1 51.26 29.41 51.89 29.41 51.89 28.33 51.57 28.33 51.57 27.55 51.85 27.55 51.85 27.78 52.18 27.78 52.18 27.55 52.53 27.55 52.53 27.78 52.84 27.78 52.84 27.55 53.13 27.55 53.13 28.33 52.8 28.33 52.8 29.41 53.56 29.41 53.56 30.94 53.12 30.94 53.12 34.38 54.02 34.38 54.02 36.06"/>
            <path class="cls-60" d="m49.16,32.08c0-.16.12-.29.28-.29s.28.13.28.29v.67h-.56v-.67Z"/>
            <path class="cls-60" d="m51.91,32.08c0-.16.12-.29.28-.29s.28.13.28.29v.67h-.56v-.67Z"/>
            <path class="cls-60" d="m50.2,35.02c0-.34.26-.61.6-.61s.62.27.62.61v1.04h-1.22v-1.04Z"/>
            <path class="cls-34" d="m52.81,37.83c0-2.38,1.65-4.31,3.68-4.31s3.68,1.93,3.68,4.31-1.65,4.31-3.68,4.31-3.68-1.93-3.68-4.31Z"/>
            <path class="cls-57" d="m53.9,37.82c0-1.75,1.16-3.16,2.59-3.16s2.59,1.42,2.59,3.16-1.16,3.16-2.59,3.16-2.59-1.42-2.59-3.16Z"/>
            <g>
              <path class="cls-30" d="m55.27,35.64s-.31.35-.31.68.13.6.13.6c-.05-.13-.17-.22-.32-.22-.19,0-.34.15-.34.33,0,.06.03.14.05.18l.11.23c.04-.09.12-.13.22-.13.13,0,.24.11.24.24,0,.02,0,.04,0,.06h-.28v.24h.25l-.18.38.24-.1.18.22.19-.22.24.1-.18-.38h.25v-.24h-.28s0-.04,0-.06c0-.13.11-.24.24-.24.1,0,.19.05.22.13l.11-.23s.06-.13.06-.18c0-.18-.15-.33-.34-.33-.15,0-.27.09-.32.22,0,0,.13-.27.13-.6s-.31-.68-.31-.68Z"/>
              <rect class="cls-38" x="54.78" y="37.61" width=".99" height=".24"/>
            </g>
            <g>
              <path class="cls-30" d="m57.68,35.64s-.31.35-.31.68.13.6.13.6c-.05-.13-.17-.22-.32-.22-.19,0-.34.15-.34.33,0,.06.03.14.06.18l.11.23c.04-.09.12-.13.22-.13.13,0,.24.11.24.24,0,.02,0,.04,0,.06h-.28v.24h.25l-.18.38.24-.1.18.22.19-.22.24.1-.18-.38h.25v-.24h-.28s0-.04,0-.06c0-.13.11-.24.24-.24.1,0,.19.05.22.13l.11-.23s.06-.13.06-.18c0-.18-.15-.33-.34-.33-.15,0-.27.09-.32.22,0,0,.13-.27.13-.6s-.31-.68-.31-.68Z"/>
              <rect class="cls-38" x="57.19" y="37.61" width=".98" height=".24"/>
            </g>
            <g>
              <path class="cls-30" d="m56.47,37.8s-.31.35-.31.68.13.6.13.6c-.05-.13-.17-.22-.32-.22-.19,0-.34.15-.34.33,0,.06.03.14.06.18l.11.23c.04-.09.12-.13.22-.13.13,0,.24.11.24.24,0,.02,0,.04,0,.06h-.28v.24h.25l-.18.38.24-.1.18.22.19-.22.24.1-.18-.38h.25v-.24h-.28s0-.04,0-.06c0-.13.11-.24.24-.24.1,0,.19.05.22.13l.11-.23s.06-.13.06-.18c0-.18-.15-.33-.34-.33-.15,0-.27.09-.32.22,0,0,.13-.27.13-.6s-.31-.68-.31-.68Z"/>
              <rect class="cls-38" x="55.98" y="39.76" width=".99" height=".24"/>
            </g>
            <path class="cls-8" d="m63.84,26.45h-.06s-.03.06-.06.09c-.06.06-.14.06-.19.02-.03-.02-.04-.06-.03-.1-.04.02-.08.02-.12,0-.06-.04-.07-.12-.03-.19,0-.01.01-.03.02-.04v-.08s-.08.02-.08.02l-.02.05c-.05.06-.12.07-.16.04-.02-.02-.03-.06-.03-.06,0,0-.02.02-.04.03-.12.03-.17-.25-.17-.32l-.04.06s.04.17.02.31c-.02.14-.06.28-.06.28.17.05.42.19.67.39.25.2.45.42.53.57,0,0,.13-.07.27-.12.14-.05.31-.05.31-.05l.05-.05c-.07.01-.36.02-.35-.1,0-.02.02-.04.02-.04,0,0-.05,0-.07-.02-.04-.03-.04-.1,0-.16l.04-.03v-.08s-.07.01-.07.01c0,.01-.02.02-.04.03-.06.05-.15.06-.19,0-.03-.03-.04-.07-.03-.11-.04.01-.07,0-.1-.01-.06-.04-.07-.12-.02-.19.02-.03.06-.07.07-.08l-.02-.07Z"/>
            <path class="cls-3" d="m63.33,26.61s.03-.01.05,0c.02.01.02.04.01.05-.01.01-.04.01-.05,0-.02-.01-.02-.04-.01-.05Z"/>
            <path class="cls-3" d="m63.55,26.8l-.07-.06s-.02-.03,0-.04.03-.01.04,0l.07.06.07.06s.02.03,0,.04c0,.01-.03,0-.04,0l-.08-.06Z"/>
            <path class="cls-3" d="m63.15,26.52l-.06-.04s-.02-.03-.02-.04c0-.01.02-.01.04,0l.06.04.06.04s.02.03.02.04c0,.01-.02.01-.04,0l-.06-.04Z"/>
            <path class="cls-3" d="m62.92,26.35s.03-.01.05,0c.02.01.02.04.01.05-.01.01-.04.01-.05,0-.02-.01-.02-.04-.01-.05Z"/>
            <path class="cls-3" d="m63.78,26.97s0-.04-.01-.05c-.02-.01-.04-.01-.05,0-.01.01,0,.04.01.05.02.01.04.01.05,0Z"/>
            <path class="cls-3" d="m63.92,27.13l.05.05s.03.02.04,0c.01,0,0-.03,0-.04l-.05-.05-.05-.05s-.03-.02-.04,0c-.01,0,0,.03,0,.04l.05.05Z"/>
            <path class="cls-3" d="m64.13,27.32s0-.04-.01-.05c-.02-.01-.04-.01-.05,0-.01.01,0,.04.01.05.02.01.04.01.05,0Z"/>
            <g>
              <polygon class="cls-8" points="63.51 25.89 63.37 25.9 63.35 26.1 63.36 26.14 63.4 26.13 63.57 26.01 63.51 25.89"/>
              <polygon class="cls-8" points="63.14 26.01 63.14 26.14 63.35 26.16 63.38 26.15 63.38 26.11 63.26 25.94 63.14 26.01"/>
              <polygon class="cls-8" points="63.57 26.26 63.46 26.33 63.34 26.16 63.34 26.12 63.37 26.11 63.58 26.14 63.57 26.26"/>
              <path class="cls-8" d="m63.31,26.1s.06-.04.09-.02c.03.02.04.06.02.09-.02.03-.06.04-.09.02-.03-.02-.04-.06-.02-.09Z"/>
            </g>
            <g>
              <path class="cls-29" d="m62.82,25.89s-.03-.11-.06-.17c-.02-.04-.09-.1-.09-.1,0-.01.09-.05.2.02.08.07,0,.2,0,.2,0,0-.02.03-.04.04Z"/>
              <g>
                <polygon class="cls-8" points="63.05 25.97 62.96 26.05 62.8 25.91 62.82 25.89 62.82 25.86 63.03 25.84 63.05 25.97"/>
                <path class="cls-8" d="m62.79,25.88s.04-.06.07-.05c.02,0,.03.04.02.08-.01.03-.04.06-.07.05-.02,0-.03-.04-.02-.08Z"/>
              </g>
            </g>
            <g>
              <polygon class="cls-8" points="64.02 26.23 63.89 26.21 63.83 26.41 63.84 26.45 63.88 26.45 64.06 26.35 64.02 26.23"/>
              <polygon class="cls-8" points="63.64 26.29 63.62 26.42 63.82 26.47 63.86 26.46 63.86 26.43 63.76 26.24 63.64 26.29"/>
              <polygon class="cls-8" points="64.03 26.6 63.92 26.65 63.82 26.47 63.82 26.43 63.86 26.42 64.06 26.48 64.03 26.6"/>
              <path class="cls-8" d="m63.79,26.41s.06-.03.09,0c.03.02.03.06,0,.09-.02.03-.06.03-.09,0-.03-.02-.03-.06,0-.09Z"/>
            </g>
            <g>
              <polygon class="cls-8" points="64.47 26.66 64.49 26.79 64.29 26.86 64.26 26.85 64.26 26.82 64.34 26.63 64.47 26.66"/>
              <polygon class="cls-8" points="64.43 27.04 64.3 27.06 64.24 26.87 64.24 26.84 64.28 26.83 64.47 26.91 64.43 27.04"/>
              <polygon class="cls-8" points="64.09 26.67 64.05 26.79 64.24 26.88 64.28 26.87 64.28 26.84 64.21 26.64 64.09 26.67"/>
              <path class="cls-8" d="m64.3,26.9s.03-.06,0-.09c-.02-.03-.07-.03-.09,0-.03.02-.03.06,0,.09.02.03.07.03.09,0Z"/>
            </g>
            <g>
              <path class="cls-29" d="m64.61,27.33s.11,0,.18.02c.05.01.12.06.12.06.01,0,.03-.1-.06-.18-.09-.07-.2.05-.2.05,0,0-.03.03-.03.05Z"/>
              <g>
                <polygon class="cls-8" points="64.49 27.11 64.43 27.22 64.6 27.34 64.62 27.33 64.65 27.31 64.62 27.11 64.49 27.11"/>
                <path class="cls-8" d="m64.63,27.35s.05-.05.03-.07c-.01-.02-.05-.02-.08,0-.03.02-.05.05-.03.07.01.02.05.02.08,0Z"/>
              </g>
            </g>
          </g>
        </g>
        <line class="cls-65" x1="139.52" x2="139.52" y2="64.24"/>
        <g>
          <path class="cls-72" d="m155.3,24.49h.7v5.19h-.76v-4.04l-1.62,2h-.14l-1.64-2v4.04h-.75v-5.19h.71l1.75,2.13,1.74-2.13Z"/>
          <path class="cls-72" d="m157.15,24.49h.75v5.19h-.75v-5.19Z"/>
          <path class="cls-72" d="m163.25,24.49h.71v5.19h-.65l-3.52-3.99v3.99h-.71v-5.19h.61l3.55,4.03v-4.03Z"/>
          <path class="cls-72" d="m165.1,24.49h.75v5.19h-.75v-5.19Z"/>
          <path class="cls-72" d="m168.32,27.51l-.57-.34c-.36-.22-.62-.43-.77-.64-.15-.21-.23-.45-.23-.72,0-.41.14-.74.43-.99.29-.26.66-.38,1.12-.38s.84.12,1.21.36v.84c-.38-.36-.79-.54-1.22-.54-.25,0-.45.06-.61.17s-.24.26-.24.43c0,.16.06.3.17.44.12.14.3.28.56.43l.58.34c.64.38.96.86.96,1.44,0,.42-.14.75-.42,1.01-.28.26-.65.39-1.1.39-.52,0-.99-.16-1.42-.47v-.94c.41.51.88.76,1.41.76.24,0,.43-.06.59-.19.16-.13.23-.29.23-.49,0-.32-.23-.62-.69-.9Z"/>
          <path class="cls-72" d="m170.11,24.49h4.4v.66h-1.84v4.53h-.76v-4.53h-1.8v-.66Z"/>
          <path class="cls-72" d="m175.22,24.49h2.98v.66h-2.23v1.58h2.15v.66h-2.15v1.61h2.3v.66h-3.06v-5.18Z"/>
          <path class="cls-72" d="m179.1,29.68v-5.19h1.32c.53,0,.96.13,1.27.39.31.26.47.61.47,1.05,0,.3-.08.56-.23.78-.15.22-.37.39-.66.49.17.11.33.26.49.45.16.19.39.52.68.98.18.29.33.52.44.66l.28.37h-.9l-.23-.34s-.02-.03-.05-.06l-.15-.2-.23-.38-.25-.4c-.15-.21-.3-.38-.43-.51s-.25-.22-.35-.27-.28-.08-.53-.08h-.2v2.26h-.75Zm.98-4.56h-.23v1.64h.29c.38,0,.64-.03.79-.1.14-.06.25-.16.33-.29.08-.13.12-.28.12-.44s-.04-.31-.13-.44-.21-.23-.37-.28-.42-.08-.79-.08Z"/>
          <path class="cls-72" d="m183.74,24.49h.75v5.19h-.75v-5.19Z"/>
          <path class="cls-72" d="m188.25,24.42c.81,0,1.49.25,2.03.76s.81,1.14.81,1.91-.27,1.4-.82,1.9c-.55.5-1.23.75-2.06.75s-1.45-.25-1.98-.75c-.53-.5-.79-1.13-.79-1.88s.27-1.42.8-1.92,1.21-.76,2.02-.76Zm.03.71c-.6,0-1.1.19-1.49.56s-.58.84-.58,1.42.19,1.02.58,1.4c.39.37.88.56,1.46.56s1.08-.19,1.47-.57c.39-.38.59-.85.59-1.41s-.2-1.01-.59-1.39c-.39-.37-.88-.56-1.45-.56Z"/>
          <path class="cls-72" d="m151.12,38.03v-5.18h1.77c.72,0,1.28.11,1.7.32.42.21.75.52.99.93.25.41.37.86.37,1.34,0,.35-.07.68-.2.99-.14.32-.33.6-.58.84-.26.25-.55.43-.89.56-.2.08-.38.13-.55.15s-.48.04-.95.04h-1.67Zm1.7-4.52h-.94v3.86h.96c.38,0,.67-.02.88-.08.21-.05.38-.12.52-.19.14-.08.27-.17.38-.29.37-.37.56-.84.56-1.41s-.19-1.01-.57-1.36c-.14-.13-.3-.24-.48-.32-.18-.08-.36-.14-.52-.17s-.43-.04-.79-.04Z"/>
          <path class="cls-72" d="m156.9,32.85h2.98v.66h-2.23v1.58h2.15v.66h-2.15v1.61h2.3v.66h-3.06v-5.18Z"/>
          <path class="cls-72" d="m167.44,36.84v.82c-.55.3-1.19.45-1.91.45-.59,0-1.09-.12-1.5-.35-.41-.23-.73-.55-.97-.96-.24-.41-.36-.85-.36-1.33,0-.75.27-1.39.82-1.9.55-.51,1.22-.77,2.02-.77.55,0,1.17.14,1.84.43v.8c-.62-.35-1.22-.52-1.8-.52s-1.1.19-1.5.56c-.4.38-.6.84-.6,1.41s.2,1.04.59,1.4c.39.37.89.55,1.5.55s1.26-.19,1.87-.58Z"/>
          <path class="cls-72" d="m168.37,32.85h.75v5.19h-.75v-5.19Z"/>
          <path class="cls-72" d="m170.3,32.85h2.98v.66h-2.23v1.58h2.15v.66h-2.15v1.61h2.3v.66h-3.06v-5.18Z"/>
          <path class="cls-72" d="m178.34,32.85h.71v5.19h-.65l-3.52-3.99v3.99h-.71v-5.19h.61l3.55,4.03v-4.03Z"/>
          <path class="cls-72" d="m184.71,36.84v.82c-.55.3-1.19.45-1.91.45-.59,0-1.09-.12-1.5-.35-.41-.23-.73-.55-.97-.96-.24-.41-.36-.85-.36-1.33,0-.75.27-1.39.82-1.9.55-.51,1.22-.77,2.02-.77.55,0,1.17.14,1.84.43v.8c-.62-.35-1.22-.52-1.8-.52s-1.1.19-1.5.56c-.4.38-.6.84-.6,1.41s.2,1.04.59,1.4c.39.37.89.55,1.5.55s1.26-.19,1.87-.58Z"/>
          <path class="cls-72" d="m185.65,32.85h.75v5.19h-.75v-5.19Z"/>
          <path class="cls-72" d="m189.25,32.82h.53l2.36,5.22h-.77l-.7-1.54h-2.25l-.66,1.54h-.77l2.26-5.22Zm1.11,3.02l-.85-1.88-.79,1.88h1.64Z"/>
          <path class="cls-72" d="m192.51,38.94v-.14c.11-.11.19-.21.24-.32s.07-.25.08-.44c-.27-.08-.4-.24-.4-.49,0-.13.05-.25.14-.35s.2-.15.33-.15c.15,0,.28.07.38.2.1.13.15.3.15.51,0,.27-.08.52-.24.72-.16.21-.38.36-.66.44Z"/>
          <path class="cls-72" d="m195.79,32.85h.75v5.19h-.75v-5.19Z"/>
          <path class="cls-72" d="m201.89,32.85h.71v5.19h-.65l-3.52-3.99v3.99h-.71v-5.19h.61l3.55,4.03v-4.03Z"/>
          <path class="cls-72" d="m207.92,32.85h.71v5.19h-.65l-3.52-3.99v3.99h-.71v-5.19h.61l3.55,4.03v-4.03Z"/>
          <path class="cls-72" d="m212.34,32.78c.81,0,1.49.25,2.03.76s.81,1.14.81,1.91-.27,1.4-.82,1.9c-.55.5-1.23.75-2.06.75s-1.45-.25-1.98-.75c-.53-.5-.79-1.13-.79-1.88s.27-1.42.8-1.92,1.21-.76,2.02-.76Zm.03.71c-.6,0-1.1.19-1.49.56s-.58.84-.58,1.42.19,1.02.58,1.4c.39.37.88.56,1.46.56s1.08-.19,1.47-.57c.39-.38.59-.85.59-1.41s-.2-1.01-.59-1.39c-.39-.37-.88-.56-1.45-.56Z"/>
          <path class="cls-72" d="m219.13,32.85h.75l-2.23,5.21h-.17l-2.27-5.21h.76l1.58,3.64,1.57-3.64Z"/>
          <path class="cls-72" d="m221.52,32.82h.53l2.36,5.22h-.77l-.7-1.54h-2.25l-.66,1.54h-.77l2.26-5.22Zm1.11,3.02l-.85-1.88-.79,1.88h1.64Z"/>
          <path class="cls-72" d="m229.22,36.84v.82c-.55.3-1.19.45-1.91.45-.59,0-1.09-.12-1.5-.35-.41-.23-.73-.55-.97-.96-.24-.41-.36-.85-.36-1.33,0-.75.27-1.39.82-1.9.55-.51,1.22-.77,2.02-.77.55,0,1.17.14,1.84.43v.8c-.62-.35-1.22-.52-1.8-.52s-1.1.19-1.5.56c-.4.38-.6.84-.6,1.41s.2,1.04.59,1.4c.39.37.89.55,1.5.55s1.26-.19,1.87-.58Z"/>
          <path class="cls-72" d="m230.15,32.85h.75v5.19h-.75v-5.19Z"/>
          <path class="cls-72" d="m234.66,32.78c.81,0,1.49.25,2.03.76s.81,1.14.81,1.91-.27,1.4-.82,1.9c-.55.5-1.23.75-2.06.75s-1.45-.25-1.98-.75c-.53-.5-.79-1.13-.79-1.88s.27-1.42.8-1.92,1.21-.76,2.02-.76Zm.03.71c-.6,0-1.1.19-1.49.56s-.58.84-.58,1.42.19,1.02.58,1.4c.39.37.88.56,1.46.56s1.08-.19,1.47-.57c.39-.38.59-.85.59-1.41s-.2-1.01-.59-1.39c-.39-.37-.88-.56-1.45-.56Zm.74-2.13l-.85,1.11h-.42l.51-1.11h.76Z"/>
          <path class="cls-72" d="m242.61,32.85h.71v5.19h-.65l-3.52-3.99v3.99h-.71v-5.19h.61l3.55,4.03v-4.03Z"/>
          <path class="cls-72" d="m154.28,41.21h.91l-1.94,2.44v2.74h-.77v-2.74l-1.94-2.44h.91l1.41,1.79,1.43-1.79Z"/>
          <path class="cls-72" d="m161.58,41.21h.76v2.94c0,.4-.03.7-.09.9s-.13.37-.22.51c-.09.13-.19.26-.32.36-.42.35-.96.53-1.64.53s-1.24-.18-1.65-.53c-.12-.11-.23-.23-.32-.37-.09-.14-.16-.3-.22-.5-.06-.2-.08-.5-.08-.92v-2.94h.76v2.94c0,.49.06.83.17,1.02.11.19.28.34.52.46s.5.17.82.17c.45,0,.81-.12,1.09-.35.15-.12.26-.27.32-.44.07-.17.1-.46.1-.87v-2.94Z"/>
          <path class="cls-72" d="m167.56,41.21h.71v5.19h-.65l-3.52-3.99v3.99h-.71v-5.19h.61l3.55,4.03v-4.03Z"/>
          <path class="cls-72" d="m169.41,41.21h.75v5.19h-.75v-5.19Z"/>
          <path class="cls-72" d="m174.67,41.21h.75l-2.23,5.21h-.17l-2.27-5.21h.76l1.58,3.64,1.57-3.64Z"/>
          <path class="cls-72" d="m176,41.21h2.98v.66h-2.23v1.58h2.15v.66h-2.15v1.61h2.3v.66h-3.06v-5.18Z"/>
          <path class="cls-72" d="m179.88,46.4v-5.19h1.32c.53,0,.96.13,1.27.39.31.26.47.61.47,1.05,0,.3-.08.56-.23.78-.15.22-.37.39-.66.49.17.11.33.26.49.45.16.19.39.52.68.98.18.29.33.52.44.66l.28.37h-.9l-.23-.34s-.02-.03-.05-.06l-.15-.2-.23-.38-.25-.4c-.15-.21-.3-.38-.43-.51s-.25-.22-.35-.27-.28-.08-.53-.08h-.2v2.26h-.75Zm.98-4.56h-.23v1.64h.29c.38,0,.64-.03.79-.1.14-.06.25-.16.33-.29.08-.13.12-.28.12-.44s-.04-.31-.13-.44-.21-.23-.37-.28-.42-.08-.79-.08Z"/>
          <path class="cls-72" d="m185.82,44.22l-.57-.34c-.36-.22-.62-.43-.77-.64-.15-.21-.23-.45-.23-.72,0-.41.14-.74.43-.99.29-.26.66-.38,1.12-.38s.84.12,1.21.36v.84c-.38-.36-.79-.54-1.22-.54-.25,0-.45.06-.61.17s-.24.26-.24.43c0,.16.06.3.17.44.12.14.3.28.56.43l.58.34c.64.38.96.86.96,1.44,0,.42-.14.75-.42,1.01-.28.26-.65.39-1.1.39-.52,0-.99-.16-1.42-.47v-.94c.41.51.88.76,1.41.76.24,0,.43-.06.59-.19.16-.13.23-.29.23-.49,0-.32-.23-.62-.69-.9Z"/>
          <path class="cls-72" d="m188.06,41.21h.75v5.19h-.75v-5.19Z"/>
          <path class="cls-72" d="m189.99,46.39v-5.18h1.77c.72,0,1.28.11,1.7.32.42.21.75.52.99.93.25.41.37.86.37,1.34,0,.35-.07.68-.2.99-.14.32-.33.6-.58.84-.26.25-.55.43-.89.56-.2.08-.38.13-.55.15s-.48.04-.95.04h-1.67Zm1.7-4.52h-.94v3.86h.96c.38,0,.67-.02.88-.08.21-.05.38-.12.52-.19.14-.08.27-.17.38-.29.37-.37.56-.84.56-1.41s-.19-1.01-.57-1.36c-.14-.13-.3-.24-.48-.32-.18-.08-.36-.14-.52-.17s-.43-.04-.79-.04Z"/>
          <path class="cls-72" d="m197.02,41.18h.53l2.36,5.22h-.77l-.7-1.54h-2.25l-.66,1.54h-.77l2.26-5.22Zm1.11,3.02l-.85-1.88-.79,1.88h1.64Z"/>
          <path class="cls-72" d="m200.49,46.39v-5.18h1.77c.72,0,1.28.11,1.7.32.42.21.75.52.99.93.25.41.37.86.37,1.34,0,.35-.07.68-.2.99-.14.32-.33.6-.58.84-.26.25-.55.43-.89.56-.2.08-.38.13-.55.15s-.48.04-.95.04h-1.67Zm1.7-4.52h-.94v3.86h.96c.38,0,.67-.02.88-.08.21-.05.38-.12.52-.19.14-.08.27-.17.38-.29.37-.37.56-.84.56-1.41s-.19-1.01-.57-1.36c-.14-.13-.3-.24-.48-.32-.18-.08-.36-.14-.52-.17s-.43-.04-.79-.04Z"/>
          <path class="cls-72" d="m206.27,41.21h2.98v.66h-2.23v1.58h2.15v.66h-2.15v1.61h2.3v.66h-3.06v-5.18Z"/>
          <path class="cls-72" d="m211.44,44.22l-.57-.34c-.36-.22-.62-.43-.77-.64-.15-.21-.23-.45-.23-.72,0-.41.14-.74.43-.99.29-.26.66-.38,1.12-.38s.84.12,1.21.36v.84c-.38-.36-.79-.54-1.22-.54-.25,0-.45.06-.61.17s-.24.26-.24.43c0,.16.06.3.17.44.12.14.3.28.56.43l.58.34c.64.38.96.86.96,1.44,0,.42-.14.75-.42,1.01-.28.26-.65.39-1.1.39-.52,0-.99-.16-1.42-.47v-.94c.41.51.88.76,1.41.76.24,0,.43-.06.59-.19.16-.13.23-.29.23-.49,0-.32-.23-.62-.69-.9Z"/>
        </g>
      </g>
    </g>
  </g>
</svg>