<svg xmlns="http://www.w3.org/2000/svg" width="152" height="18" viewBox="3.5 24.5 152 18"><path fill="#0072CF" d="M35.3 29.9l-4.4 4.3-2.2-2.3-1.5 1.5 2.3 2.2 1.3 1.5 1.5-1.5 4.5-4.2z"/><path fill="#696969" d="M89 42c-4.7 0-8.5-3.8-8.5-8.5S84.3 25 89 25s8.5 3.8 8.5 8.5S93.7 42 89 42zm0-16c-4.1 0-7.5 3.4-7.5 7.5S84.9 41 89 41s7.5-3.4 7.5-7.5S93.1 26 89 26z"/><path fill="#EAECED" d="M127 42c-4.7 0-8.5-3.8-8.5-8.5s3.8-8.5 8.5-8.5 8.5 3.8 8.5 8.5-3.8 8.5-8.5 8.5zm0-16c-4.1 0-7.5 3.4-7.5 7.5s3.4 7.5 7.5 7.5 7.5-3.4 7.5-7.5-3.4-7.5-7.5-7.5z"/><path fill="#696969" d="M108 42c-4.7 0-8.5-3.8-8.5-8.5s3.8-8.5 8.5-8.5 8.5 3.8 8.5 8.5-3.8 8.5-8.5 8.5zm0-16c-4.1 0-7.5 3.4-7.5 7.5s3.4 7.5 7.5 7.5 7.5-3.4 7.5-7.5-3.4-7.5-7.5-7.5z"/><circle fill-rule="evenodd" clip-rule="evenodd" fill="#0072CF" cx="108" cy="33.5" r="4"/><path fill="#EAECED" d="M146 42c-4.7 0-8.5-3.8-8.5-8.5s3.8-8.5 8.5-8.5 8.5 3.8 8.5 8.5-3.8 8.5-8.5 8.5zm0-16c-4.1 0-7.5 3.4-7.5 7.5s3.4 7.5 7.5 7.5 7.5-3.4 7.5-7.5-3.4-7.5-7.5-7.5z"/><circle fill-rule="evenodd" clip-rule="evenodd" fill="#EAECED" cx="146" cy="33.5" r="4"/><path fill="#696969" d="M18 42H8c-1.9 0-3.5-1.6-3.5-3.5v-10C4.5 26.6 6.1 25 8 25h10c1.9 0 3.5 1.6 3.5 3.5v10c0 1.9-1.6 3.5-3.5 3.5zM8 26c-1.4 0-2.5 1.1-2.5 2.5v10C5.5 39.9 6.6 41 8 41h10c1.4 0 2.5-1.1 2.5-2.5v-10c0-1.4-1.1-2.5-2.5-2.5H8zM37 42H27c-1.9 0-3.5-1.6-3.5-3.5v-10c0-1.9 1.6-3.5 3.5-3.5h10c1.9 0 3.5 1.6 3.5 3.5v10c0 1.9-1.6 3.5-3.5 3.5zM27 26c-1.4 0-2.5 1.1-2.5 2.5v10c0 1.4 1.1 2.5 2.5 2.5h10c1.4 0 2.5-1.1 2.5-2.5v-10c0-1.4-1.1-2.5-2.5-2.5H27z"/><path fill="#FFF" d="M73.3 29.9l-4.4 4.3-2.2-2.3-1.5 1.5 2.3 2.2 1.3 1.5 1.5-1.5 4.5-4.2z"/><path fill="#FFF" d="M75 42H65c-1.9 0-3.5-1.6-3.5-3.5v-10c0-1.9 1.6-3.5 3.5-3.5h10c1.9 0 3.5 1.6 3.5 3.5v10c0 1.9-1.6 3.5-3.5 3.5zM65 26c-1.4 0-2.5 1.1-2.5 2.5v10c0 1.4 1.1 2.5 2.5 2.5h10c1.4 0 2.5-1.1 2.5-2.5v-10c0-1.4-1.1-2.5-2.5-2.5H65z"/><path fill="none" d="M56 42H46c-1.9 0-3.5-1.6-3.5-3.5v-10c0-1.9 1.6-3.5 3.5-3.5h10c1.9 0 3.5 1.6 3.5 3.5v10c0 1.9-1.6 3.5-3.5 3.5zM46 26c-1.4 0-2.5 1.1-2.5 2.5v10c0 1.4 1.1 2.5 2.5 2.5h10c1.4 0 2.5-1.1 2.5-2.5v-10c0-1.4-1.1-2.5-2.5-2.5H46z"/></svg>