<svg xmlns="http://www.w3.org/2000/svg" xml:space="preserve" width="195" height="22.1" viewBox="0 0 195 22.1"><path d="m5.8 3.8.1 3.8H6c.8-2.3 3-3.9 5.5-3.9 3.6 0 4.8 1.8 4.8 5.3v6.9c-.1 2 .1 3.9.6 5.9H11c.5-1.5.5-3.4.5-5.7V9.5c0-1.6-.7-2.3-2.4-2.3-1.1-.1-2.2.3-3.1 1V16c0 2.2.1 4.1.5 5.7H.7c.5-1.9.7-3.9.7-5.9V9.5C1.4 8 1 6.6.1 5.4zm19.3-.1c4.6 0 6.3 1.8 6.3 5.5V17c0 1.4.5 1.8 1.7 1.8.3 0 .7-.1.9-.3-.1.4-.2.8-.3 1.1-.4 1.5-1.8 2.5-3.4 2.4-1.8.1-3.3-1.3-3.4-3.1v-.2h-.1c-.7 2.2-2.2 3.2-4.5 3.2-2.8 0-4.7-1.7-4.7-4.3 0-2.8 2.5-4 5.2-5 2.5-1 3.9-1.7 3.9-3.5v-.2c0-2-.6-3-2.5-3-1.2 0-1.6.5-1.9 1.7-.4 1.7-1 2.3-2.2 2.3-1 0-1.9-.7-1.9-1.8v-.2c0-2.5 3.4-4.2 6.9-4.2m1.5 14.7V12c-.4.5-.8.8-2.1 1.5-1.6.8-2.2 1.7-2.2 3.6 0 1.5.8 2.5 2.2 2.5s1.7-.6 2.1-1.2m17.5 1.4c-.6 1.4-2.1 2.3-4.2 2.3-3.6 0-5-1.8-5-5.1V6.6h-1.7v-.1L39.4 0h.1v4.1H44l-.5 2.5h-4v9.6c0 1.9.8 2.6 2.4 2.6.9.1 1.7-.1 2.5-.5 0 .5-.1 1.1-.3 1.5M50.2 4v12.2c0 1.8.7 2.8 2.5 2.8 1.5 0 2.6-.5 3.3-1.3V9.4c0-1.7-.2-3.3-.7-4.9l5.3-.5v12.5c-.1 1.8.2 3.6.7 5.3H56v-3.5c-.7 2.2-2.2 3.9-5.2 3.9-3.8 0-5.2-2.3-5.2-5.8v-7c.1-1.7-.2-3.3-.7-4.9zm17.9 4.3c.8-3.3 2.3-4.5 4.3-4.5 1.8 0 2.7.9 2.7 2.4 0 1.4-.7 2.4-2.2 2.4-.6 0-1.2-.3-1.7-.7-.4-.4-.7-.7-1.1-.7-.9 0-2 1.6-2 4.3v4.3q0 3 .6 6h-5.9c.5-1.9.7-3.9.7-5.9V9.5c0-1.5-.4-2.9-1.3-4.1L68 3.7h.1zm14.7 13.8c-4.5 0-8.2-3-8.2-8.7 0-5.8 3.5-9.7 8.3-9.7 4.6 0 6.7 2.9 6.7 8.3H79.2v.5c0 4.4 2.3 6.1 5.4 6.1 2.8 0 4.1-1.1 4.9-2l.1.3c-.8 3.2-3.6 5.4-6.8 5.2m-3.5-11.2 5.9-.5c-.1-2.8-.5-4.5-2.4-4.5s-3.2 1.6-3.5 5m15.8 2.3v-.3c0-5.3 3.7-8.8 8.3-8.8 3.5 0 6.8 1.9 7.2 5.8h-1.7c-.4-2.9-2.8-4.3-5.5-4.3-3.6 0-6.5 2.8-6.5 7.3v.3c0 4.6 2.8 7.2 6.5 7.2 2.9 0 5.3-1.7 5.8-4.8h1.6c-.5 3.7-3.4 6.3-7.4 6.3-4.7 0-8.3-3.5-8.3-8.7m17.1 3.8c0-4 3.8-5.2 8.1-5.2h3.6v-1.6c0-3.3-1.3-4.6-4.3-4.6-2.6 0-4.5 1.1-4.9 3.7H113c.4-3.6 3.4-5.2 6.7-5.2 3.6 0 6.1 1.7 6.1 6.1v11.5H124V19c-1.1 1.7-2.9 2.9-5.9 2.9-3.4 0-5.9-1.7-5.9-4.9m11.7-1v-2.9h-3.5c-3.6 0-6.4.8-6.4 3.9 0 2.2 1.4 3.5 4.2 3.5 3.2 0 5.7-1.9 5.7-4.5m5.8-11.7h1.8V8c1-2.1 2.7-3.8 5.9-3.9v1.7c-3.3.1-5.9 1.7-5.9 6.3v9.6h-1.8zm8.2 8.9v-.3c0-5.2 3.3-8.8 7.9-8.8 4.2 0 7.6 2.7 7.6 8.4v.6h-13.7c.1 4.6 2.3 7.3 6.4 7.3 2.9 0 4.8-1.2 5.4-3.6h1.8c-.7 3.3-3.5 5.1-7.2 5.1-5 0-8.2-3.5-8.2-8.7m13.7-1.5c-.2-4.2-2.4-6.2-5.8-6.2s-5.7 2.4-6.1 6.2zm3.8 1.5v-.3c0-5.2 3.3-8.8 7.9-8.8 4.2 0 7.6 2.7 7.6 8.4v.6h-13.7c.1 4.6 2.3 7.3 6.4 7.3 2.9 0 4.8-1.2 5.4-3.6h1.8c-.7 3.3-3.5 5.1-7.2 5.1-5 0-8.2-3.5-8.2-8.7m13.7-1.5c-.2-4.2-2.4-6.2-5.8-6.2s-5.7 2.4-6.1 6.2zm4.6-7.4h1.8V8c1-2.1 2.7-3.8 5.9-3.9v1.7c-3.3.1-5.9 1.7-5.9 6.3v9.6h-1.8zm8.6 12.2h1.7c.3 2.3 1.8 4 5 4 2.9 0 4.4-1.3 4.4-3.4 0-2.2-1.3-2.9-4.5-3.5-4.2-.8-6-1.9-6-4.8s2.8-4.6 5.7-4.6c3.1 0 5.6 1.3 6 4.7h-1.7c-.4-2.2-1.9-3.2-4.4-3.2-2.4 0-4 1.2-4 3.1 0 2 1.2 2.7 4.7 3.3 3.7.7 5.8 1.6 5.8 4.9 0 2.9-2.2 5-6.1 5-4-.1-6.4-2.2-6.6-5.5" style="fill:#231f20"/></svg>