<svg width="152" height="120" viewBox="0 0 152 120" fill="none" xmlns="http://www.w3.org/2000/svg"><g clip-path="url(#clip0_53_835)"><path d="M69.35 80.088V29.45L58.892 39.912V90.55L69.35 80.088z" fill="#C1C6C8"/><path d="M0 39.912V90.55l10.46-10.462V29.45L0 39.912z" fill="#98A4AE"/><path d="M14.723 105.274l10.459-10.46V65.362L14.724 75.824v29.45z" fill="#EC7200"/><path d="M25.182 14.726l-10.458 10.46v29.452l10.458-10.462v-29.45z" fill="#98A4AE"/><path d="M14.723 54.638v21.186l10.459-10.462V44.176L14.724 54.638z" fill="#8D4900"/><path d="M29.445 90.55V120l10.46-10.462v-29.45L29.445 90.55z" fill="#C1C6C8"/><path d="M29.445 61.098v8.264l10.46-10.46v-8.264l-10.46 10.46z" fill="#EC7200"/><path d="M39.905 0l-10.46 10.462v29.45l10.46-10.462V0z" fill="#98A4AE"/><path d="M29.445 90.55l10.46-10.462V58.902l-10.46 10.46V90.55z" fill="#B35900"/><path d="M39.905 50.638V29.45l-10.46 10.462v21.186l10.46-10.46z" fill="#8D4900"/><path d="M54.629 65.362l-10.46 10.462v29.45l10.46-10.46V65.362z" fill="#C1C6C8"/><path d="M54.629 44.176v-29.45l-10.46 10.46v29.452l10.46-10.462z" fill="#EC7200"/><path d="M54.629 44.176l-10.46 10.462v21.186l10.46-10.462V44.176z" fill="#B35900"/><path d="M82.068 80.088v-5.122l25.314-40.678h-24.32V29.45h30.433v4.552l-25.526 41.25h25.528v4.836h-31.43z" fill="#888B8D"/><mask id="a" maskUnits="userSpaceOnUse" x="0" y="0" width="152" height="120"><path d="M152 0H0v120h152V0z" fill="#fff"/></mask><g mask="url(#a)"><path d="M151.832 69.346c-1.078 7.088-7.685 11.552-16.937 11.552-7.617 0-12.6-1.922-17.369-6.692l3.701-3.702c4.2 4.2 8.115 5.554 13.81 5.554 5.857 0 9.96-2.34 11.168-6.386.172-.538.24-1.092.282-1.656a9.27 9.27 0 00-.592-3.972c-.368-1.028-1.528-2.398-2.422-3.008-1.971-1.444-4.793-2.662-7.69-3.646l-5.659-1.938c-3.814-1.324-6.663-3.142-8.515-5.408-2.179-2.668-2.919-6.556-2.283-10.476l.046-.268c1.585-6.718 7.1-10.658 15.769-10.658 6.479 0 10.07 1.948 14.411 5.864l-3.487 3.49c-3.131-2.848-5.797-4.654-11.138-4.654-6.311 0-9.798 3.346-10.488 7.822-.266 2.478.404 4.326 1.687 5.9 1.306 1.606 3.594 2.896 6.113 3.774l5.319 1.808c3.862 1.294 8.105 3.33 10.473 5.452.002-.004 4.931 3.818 3.801 11.248z" fill="#888B8D"/></g></g><defs><clipPath id="clip0_53_835"><path fill="#fff" d="M0 0h152v120H0z"/></clipPath></defs></svg>