<svg id="logo_consigli" data-name="logo consigli" xmlns="http://www.w3.org/2000/svg" xmlns:xlink="http://www.w3.org/1999/xlink" width="176" height="40.903" viewBox="0 0 176 40.903">
  <defs>
    <clipPath id="clip-path">
      <rect id="Rettangolo_650" data-name="Rettangolo 650" width="176" height="40.903" fill="#0f0f0f"/>
    </clipPath>
  </defs>
  <g id="Raggruppa_210" data-name="Raggruppa 210" clip-path="url(#clip-path)">
    <path id="Tracciato_96" data-name="Tracciato 96" d="M457.626,32.6l-1.264,3.008c-2.946-3.609-7.965-4.337-11.017-2.315-3.563,2.36-3.214,8.318-3.214,10.4a18.449,18.449,0,0,0,.609,5.645,7.247,7.247,0,0,0,6.938,5.262,10.158,10.158,0,0,0,6.7-2.4,8.337,8.337,0,0,1-1.108,4.4c-1.424,2.232-5.226,1.64-7.349,1.123q-1.288-.313-3.071-.843c-.44-.13-.907-.273-1.393-.423v5.857c6.391,2.219,13.52,2.926,17.672-.581a9.849,9.849,0,0,0,3.261-7.989V39.438h4.615V32.6ZM455.89,47.428a4.4,4.4,0,0,1-2.15,1.213,2.79,2.79,0,0,1-3.184-1.323c-.533-1.164-.511-3.908-.322-5.914a2.865,2.865,0,0,1,1.667-2.256c1.054-.455,2.657-.478,3.989,1.622Z" transform="translate(-319.608 -23.267)" fill="#0f0f0f"/>
    <path id="Tracciato_97" data-name="Tracciato 97" d="M124.292,56.794a12.783,12.783,0,0,1-6.453-1.563,10.791,10.791,0,0,1-4.232-4.36,13.583,13.583,0,0,1-1.5-6.513,13.661,13.661,0,0,1,1.5-6.513,10.83,10.83,0,0,1,4.232-4.392,14,14,0,0,1,12.9,0,10.813,10.813,0,0,1,4.242,4.392,13.661,13.661,0,0,1,1.5,6.513,13.654,13.654,0,0,1-1.49,6.513,10.71,10.71,0,0,1-4.232,4.36,12.839,12.839,0,0,1-6.463,1.563m0-7.379a4.077,4.077,0,0,0,2.287-.64A4.254,4.254,0,0,0,128.1,47a6.135,6.135,0,0,0,.541-2.668,6.221,6.221,0,0,0-.541-2.668,4.23,4.23,0,0,0-1.518-1.8,4.383,4.383,0,0,0-4.565,0,4.213,4.213,0,0,0-1.528,1.8,6.234,6.234,0,0,0-.541,2.668A6.147,6.147,0,0,0,120.486,47a4.237,4.237,0,0,0,1.528,1.775,4.086,4.086,0,0,0,2.277.64" transform="translate(-81.042 -23.045)" fill="#0f0f0f"/>
    <path id="Tracciato_98" data-name="Tracciato 98" d="M400.974,33.683V57.537H389.6V50.7h3V40.521h-3V33.683Z" transform="translate(-281.638 -24.349)" fill="#0f0f0f"/>
    <path id="Tracciato_99" data-name="Tracciato 99" d="M552.833,0H541.465V6.783h2.9V26.346h-2.9v6.862h11.376Z" transform="translate(-391.423 0)" fill="#0f0f0f"/>
    <path id="Tracciato_100" data-name="Tracciato 100" d="M605.279,33.658V57.513H593.831V50.674h3V40.5h-3V33.658Z" transform="translate(-429.279 -24.332)" fill="#0f0f0f"/>
    <rect id="Rettangolo_648" data-name="Rettangolo 648" width="9.079" height="6.783" transform="translate(166.918)" fill="#0f0f0f"/>
    <rect id="Rettangolo_649" data-name="Rettangolo 649" width="9.079" height="6.783" transform="translate(110.256)" fill="#0f0f0f"/>
    <path id="Tracciato_101" data-name="Tracciato 101" d="M19.266,12.327V6.752a10.564,10.564,0,0,0-8.124,4.091,10.277,10.277,0,0,0-1.494,2.768c-1.415,4.052-.335,9.1,3.605,11.263a11.131,11.131,0,0,0,8.669.948,30.2,30.2,0,0,0,6.484-3.253v8.112a21.687,21.687,0,0,1-16.828,2.334C-1.15,29.809-3.595,13.074,5.29,4.792A18.5,18.5,0,0,1,17.851,0H28.408V12.327Z" transform="translate(0 0)" fill="#0f0f0f"/>
    <path id="Tracciato_102" data-name="Tracciato 102" d="M219.709,40.735a2.53,2.53,0,0,1,2.646-2.372,2.419,2.419,0,0,1,2.015.931,4.958,4.958,0,0,1,.835,2.944V56.253h8.344s0-18.542,0-18.552c0-4.694-3.9-5.822-7.344-5.822-2.765,0-4.42.857-6.411,3.194L218.6,32.379H208.335v6.813h2.744l0,10.2h-2.746v6.865h11.374c0-1.508-.011-7.536,0-15.518" transform="translate(-150.605 -23.045)" fill="#0f0f0f"/>
    <path id="Tracciato_103" data-name="Tracciato 103" d="M329.316,49.321a7.379,7.379,0,0,1-.832,3.358A8.031,8.031,0,0,1,325,55.832c-.912.472-2.387,1.043-6.1,1.042a75.605,75.605,0,0,1-8.282-.564V49.468l4.958-.016,1.111,2.221a7.41,7.41,0,0,0,1.89.533c1.469.17,3.131-.6,2.709-2.222a2.407,2.407,0,0,0-1.371-1.452,9.505,9.505,0,0,0-2.523-.827c-2.769-.53-5.817-1.8-6.952-4.592a8.421,8.421,0,0,1,.4-7.343,8.537,8.537,0,0,1,5.917-3.557,28.437,28.437,0,0,1,6.353-.168c2.133.133,5.08.369,5.08.394L328.2,39.3h-4.973l-1.111-2.374c-2.046-.732-3.83-.439-4.333.606a2.25,2.25,0,0,0,.464,2.5,6.038,6.038,0,0,0,3,1.391c3.092.633,6.611,2.112,7.691,5.3a7.752,7.752,0,0,1,.385,2.6" transform="translate(-223.943 -23.095)" fill="#0f0f0f"/>
  </g>
</svg>
