<svg width="100" height="100" viewBox="0 0 100 100" fill="none" xmlns="http://www.w3.org/2000/svg">
<rect x="21.3459" y="28.6982" width="53.7825" height="42.8144" fill="#202020"/>
<path d="M47.4206 99.4079C48.9139 100.201 50.7882 100.196 52.2816 99.4029C92.9782 77.6484 95.8684 35.1453 95.8328 23.06C95.829 22.0887 95.5405 21.1396 95.0028 20.3289C94.4651 19.5183 93.7015 18.8812 92.8055 18.4959L51.9159 0.471592C51.2652 0.186163 50.5617 0.0391725 49.8506 0.0400429C49.1394 0.0409133 48.4363 0.189625 47.7863 0.476646L7.18113 18.5009C6.2983 18.8865 5.54548 19.5165 5.01234 20.3159C4.47921 21.1152 4.18824 22.0502 4.17409 23.0095C4.00139 35.0341 6.43445 77.6282 47.4206 99.4079ZM33.127 41.4786L44.7742 53.0685L66.5803 31.3696L73.7626 38.5166L44.7742 67.3625L25.9446 48.6256L33.127 41.4786Z" fill="#D8DE50"/>
<mask id="mask0_182_3067" style="mask-type:alpha" maskUnits="userSpaceOnUse" x="4" y="0" width="92" height="100">
<path d="M47.4208 99.3679C48.9142 100.161 50.7885 100.156 52.2819 99.3628C92.9784 77.6083 95.8686 35.1053 95.8331 23.02C95.8292 22.0487 95.5408 21.0996 95.0031 20.2889C94.4654 19.4782 93.7018 18.8412 92.8057 18.4558L51.9161 0.431553C51.2654 0.146124 50.5619 -0.000866563 49.8508 3.84307e-06C49.1397 0.000874249 48.4366 0.149586 47.7865 0.436607L7.18138 18.4609C6.29855 18.8465 5.54572 19.4765 5.01259 20.2758C4.47945 21.0752 4.18848 22.0102 4.17434 22.9695C4.00164 34.9941 6.43469 77.5881 47.4208 99.3679ZM33.1272 41.4385L44.7744 53.0284L66.5805 31.3296L73.7629 38.4766L44.7744 67.3225L25.9449 48.5855L33.1272 41.4385Z" fill="#D8DE50"/>
</mask>
<g mask="url(#mask0_182_3067)">
<rect x="-12.5" y="-8.33301" width="62.5" height="158.333" fill="#BABF41"/>
</g>
</svg>
