<svg height="2636" viewBox="0 0 2636 2636" width="2636" xmlns="http://www.w3.org/2000/svg"><path d="m1318 2636c-727.9113 0-1318-590.0887-1318-1318s590.0887-1318 1318-1318 1318 590.0887 1318 1318-590.0887 1318-1318 1318zm-502.5-2283c-68.207167 0-123.5 55.292833-123.5 123.5v659c0 68.20717 55.292833 123.5 123.5 123.5s123.5-55.29283 123.5-123.5v-659c0-68.207167-55.292833-123.5-123.5-123.5zm0 1023c-68.207167 0-123.5 55.29283-123.5 123.5v659c0 68.20717 55.292833 123.5 123.5 123.5s123.5-55.29283 123.5-123.5v-659c0-68.20717-55.292833-123.5-123.5-123.5zm456-753c-68.20717 0-123.5 55.292833-123.5 123.5v1141c0 68.20717 55.29283 123.5 123.5 123.5s123.5-55.29283 123.5-123.5v-1141c0-68.207167-55.29283-123.5-123.5-123.5zm456 753c-68.20717 0-123.5 55.29283-123.5 123.5v116c0 68.20717 55.29283 123.5 123.5 123.5s123.5-55.29283 123.5-123.5v-116c0-68.20717-55.29283-123.5-123.5-123.5zm0-480c-68.20717 0-123.5 55.292833-123.5 123.5v116c0 68.20717 55.29283 123.5 123.5 123.5s123.5-55.29283 123.5-123.5v-116c0-68.207167-55.29283-123.5-123.5-123.5zm456 266c-68.20717 0-123.5 55.29283-123.5 123.5v63c0 68.20717 55.29283 123.5 123.5 123.5s123.5-55.29283 123.5-123.5v-63c0-68.20717-55.29283-123.5-123.5-123.5z" fill="#007ce2" fill-rule="evenodd"/></svg>