<svg width="24" height="24" viewBox="0 0 24 24" fill="none" xmlns="http://www.w3.org/2000/svg">
  <path d="M19.332 8.25H15.957V5.625C15.957 4.53098 15.5224 3.48177 14.7488 2.70818C13.9753 1.9346 12.926 1.5 11.832 1.5C10.738 1.5 9.6888 1.9346 8.91522 2.70818C8.14163 3.48177 7.70703 4.53098 7.70703 5.625V8.25H4.33203C3.93435 8.25045 3.55308 8.40864 3.27187 8.68984C2.99067 8.97105 2.83249 9.35231 2.83203 9.75V20.25C2.83249 20.6477 2.99067 21.029 3.27187 21.3102C3.55308 21.5914 3.93435 21.7495 4.33203 21.75H19.332C19.7297 21.7495 20.111 21.5914 20.3922 21.3102C20.6734 21.029 20.8316 20.6477 20.832 20.25V9.75C20.8316 9.35231 20.6734 8.97105 20.3922 8.68984C20.111 8.40864 19.7297 8.25045 19.332 8.25ZM11.8315 16.125C11.609 16.125 11.3915 16.059 11.2065 15.9354C11.0215 15.8118 10.8773 15.6361 10.7921 15.4305C10.707 15.225 10.6847 14.9988 10.7281 14.7805C10.7715 14.5623 10.8787 14.3618 11.036 14.2045C11.1933 14.0472 11.3938 13.94 11.612 13.8966C11.8302 13.8532 12.0564 13.8755 12.262 13.9606C12.4676 14.0458 12.6433 14.19 12.7669 14.375C12.8905 14.56 12.9565 14.7775 12.9565 15C12.9565 15.1477 12.9274 15.294 12.8708 15.4305C12.8143 15.567 12.7314 15.691 12.627 15.7955C12.5225 15.9 12.3985 15.9828 12.262 16.0394C12.1255 16.0959 11.9792 16.125 11.8315 16.125ZM14.457 8.25H9.20703V5.625C9.20703 4.92881 9.48359 4.26113 9.97588 3.76884C10.4682 3.27656 11.1358 3 11.832 3C12.5282 3 13.1959 3.27656 13.6882 3.76884C14.1805 4.26113 14.457 4.92881 14.457 5.625V8.25Z" fill="#58648C"/>
</svg>
