<svg id="Layer_1" xmlns="http://www.w3.org/2000/svg" viewBox="-701.2 242.7 206.9 328.3"><style>.st0{fill:#C5540E}</style><path class="st0" d="M-544.8 378.5c0-.5.1-.9.1-1.2 0-16.2.1-32.4 0-48.6-.1-10.2-3.3-19.6-9-28-7.6-11.1-18-18.3-31-21.6-3.1-.8-6.2-1.3-9.4-1.4-1.5 0-3.1-.2-4.6-.2-12.4.5-23.5 4.6-33 12.7-8.8 7.5-14.5 16.9-17.2 28.1-.9 3.8-1.4 7.6-1.4 11.5V341.5c0 .7-.1.8-.8.8h-32.4c-1.5 0-1.5 0-1.5-1.4v-13.3c.1-5.6.8-11.1 2.1-16.5 3.9-17.2 12.3-31.9 25-44 11-10.6 23.9-17.7 38.7-21.6 3.4-.9 6.8-1.5 10.3-2 2.7-.3 5.3-.5 8-.7 3.3-.3 6.6-.1 9.9.1 18.7 1.5 35.4 8.1 49.8 20.1 15.1 12.6 24.8 28.6 29.4 47.7.9 3.9 1.5 7.8 1.8 11.8.3 3.1.4 6.3.4 9.4v79.5c0 1 .2 1.9.7 2.7 5.8 9.5 9.9 19.8 12.3 30.7.8 3.7 1.4 7.4 1.8 11.1.6 5.4.8 10.8.6 16.2-.4 8.3-1.7 16.4-4 24.4-3.8 13-9.9 24.8-18.3 35.3-10.7 13.4-23.9 23.6-39.6 30.5-6.7 2.9-13.6 5.1-20.7 6.5-3 .6-6.1 1-9.1 1.4-5.4.8-10.9.7-16.4.6-2.2 0-4.4-.4-6.6-.6-4-.4-7.9-1.1-11.8-2-16.3-3.8-30.8-11.1-43.6-21.9-11.1-9.4-19.8-20.6-26.1-33.6-4-8.2-6.9-16.8-8.6-25.8-.7-3.9-1.3-7.8-1.5-11.7-.2-2.8-.3-5.5-.3-8.3 0-2.5.2-4.9.3-7.4.3-4.3.9-8.5 1.7-12.6 1.9-9.5 5.1-18.6 9.6-27.1 9.9-18.8 24.1-33.2 42.7-43.4 9.2-5 19-8.6 29.4-10.5 3.2-.6 6.4-1 9.6-1.5 1.6-.2 3.3-.2 4.9-.3 2-.1 3.9-.2 5.9-.2 3.4 0 6.9.2 10.3.6 5.2.5 10.4 1.5 15.5 2.8 8.8 2.3 17.2 5.8 25.1 10.3 0 .4.5.6 1 .9zm-53 157.6c37 .2 68.7-29.8 68.7-68.5 0-38.4-31.1-68.6-68.5-68.6-38.1 0-68.7 30.8-68.7 68.5-.1 38.2 31.1 68.7 68.5 68.6z"/><path class="st0" d="M-626.2 467.8c-.1-15.7 12.8-28.8 28.8-28.8 15.6 0 29 12.6 28.8 29.2-.1 15.7-12.8 28.8-29.2 28.6-16.4-.3-28.6-13.8-28.4-29z"/></svg>