<svg width="100" height="100" viewBox="0 0 100 100" fill="none" xmlns="http://www.w3.org/2000/svg">
<g clip-path="url(#clip0_182_3097)">
<path fill-rule="evenodd" clip-rule="evenodd" d="M99.5778 3.42467C99.3004 2.75608 98.8946 2.14836 98.3834 1.63587L98.3612 1.61365C97.3216 0.577012 95.9129 -0.00444348 94.4447 -0.00292673H61.1132C59.6398 -0.00292673 58.2268 0.582357 57.185 1.62417C56.1432 2.66598 55.5579 4.07898 55.5579 5.55233C55.5579 7.02567 56.1432 8.43867 57.185 9.48049C58.2268 10.5223 59.6398 11.1076 61.1132 11.1076H81.0343L40.5199 51.6221C39.9893 52.1345 39.5661 52.7475 39.2749 53.4253C38.9838 54.103 38.8305 54.832 38.8241 55.5696C38.8177 56.3073 38.9583 57.0388 39.2376 57.7215C39.5169 58.4042 39.9294 59.0245 40.451 59.5461C40.9726 60.0677 41.5929 60.4801 42.2756 60.7595C42.9583 61.0388 43.6898 61.1794 44.4274 61.1729C45.1651 61.1665 45.894 61.0133 46.5718 60.7221C47.2495 60.431 47.8625 60.0078 48.375 59.4772L88.8895 18.9627V38.8839C88.8895 40.3572 89.4748 41.7702 90.5166 42.812C91.5584 43.8538 92.9714 44.4391 94.4447 44.4391C95.9181 44.4391 97.3311 43.8538 98.3729 42.812C99.4147 41.7702 100 40.3572 100 38.8839V5.55233V5.53566C100 4.81348 99.8555 4.10241 99.5778 3.42467ZM0.00537109 27.7734C0.00537109 20.4066 2.93179 13.3416 8.14086 8.13256C13.3499 2.92349 20.4149 -0.00292673 27.7817 -0.00292673H33.3369C34.8103 -0.00292673 36.2233 0.582357 37.2651 1.62417C38.3069 2.66598 38.8922 4.07898 38.8922 5.55233C38.8922 7.02567 38.3069 8.43867 37.2651 9.48049C36.2233 10.5223 34.8103 11.1076 33.3369 11.1076H27.7817C23.3616 11.1076 19.1226 12.8634 15.9972 15.9889C12.8717 19.1143 11.1159 23.3533 11.1159 27.7734V72.2154C11.1159 76.6354 12.8717 80.8744 15.9972 83.9999C19.1226 87.1253 23.3616 88.8812 27.7817 88.8812H72.2237C76.6437 88.8812 80.8827 87.1253 84.0082 83.9999C87.1336 80.8744 88.8895 76.6354 88.8895 72.2154V66.6601C88.8895 65.1868 89.4748 63.7738 90.5166 62.732C91.5584 61.6902 92.9714 61.1049 94.4447 61.1049C95.9181 61.1049 97.3311 61.6902 98.3729 62.732C99.4147 63.7738 100 65.1868 100 66.6601V72.2154C100 79.5821 97.0736 86.6471 91.8645 91.8562C86.6554 97.0653 79.5904 99.9917 72.2237 99.9917H27.7817C20.4149 99.9917 13.3499 97.0653 8.14086 91.8562C2.93179 86.6471 0.00537109 79.5821 0.00537109 72.2154V27.7734Z" fill="#202020"/>
</g>
<defs>
<clipPath id="clip0_182_3097">
<rect width="100" height="100" fill="white"/>
</clipPath>
</defs>
</svg>
