<svg xmlns="http://www.w3.org/2000/svg" width="140" height="13.6"><path fill="#fff" d="M75.4 5.3c0-2.8-2.4-3.8-4.6-3.8h-3.9v11.7h2.9V9.6h1.4c.5.8 1.1 2 1.3 3.6h3.1c-.3-1.8-1.2-3.6-1.8-4.5 1.1-.8 1.6-2 1.6-3.4m-3 .4c0 1.2-.5 1.7-1.6 1.7H70V3.7h.9c1.2 0 1.5.8 1.5 2m-7.6 7.5v-2.3h-4.2V8.4h3.8V6.1h-3.8V3.8h4.1V1.5h-6.9v9.6s0 .9.6 1.5c.4.4.9.6 1.6.6 2.2.1 4.5 0 4.8 0m-13 .4c1.1 0 2.8-.3 4.1-.9V6.8h-3.8v2h1.2v2.4c-.3.1-1 .2-1.3.2-1.5 0-2.1-1.1-2.1-4 0-2.6.9-3.8 2.7-3.8.6 0 1.5.3 2.4.7l.8-1.9c-1.1-.7-2.4-1-3.7-1.1-1.8 0-3 .5-3.9 1.5-.8 1-1.3 2.5-1.3 4.6.1 4.5 1.4 6.2 4.9 6.2m-9.8-.4h3.1V1.5h-2.6v7.6L39 1.5h-3.2v11.7h2.6V5.8zm-11.6 0h2.9V1.5h-2.9zm-3.6-4.5c1-.8 1.5-2 1.5-3.4 0-2.8-2.4-3.8-4.6-3.8h-3.9v11.7h2.9V9.6h1.4c.5.8 1.1 2 1.3 3.6h3.1c-.2-1.8-1.1-3.6-1.7-4.5m-1.6-3c0 1.2-.5 1.7-1.6 1.7h-.8V3.7h.9c1.3 0 1.5.8 1.5 2m-6.8-.4c0-2.4-1.5-3.8-4.3-3.8h-3.9v11.7h2.9V9.6h.9c1.3 0 4.4-.4 4.4-4.3m-2.8.4c0 1.2-.5 1.7-1.6 1.7h-.8V3.7h.9c1.2 0 1.5.8 1.5 2M3.3 3.8c0-.7.4-1.3 1.4-1.3.7 0 1.5.2 2.6.7l1.1-2.1C7.1.3 5.8 0 4.5 0 1.9 0 .3 1.4.3 3.8s1.8 3.3 3.3 4c1.1.5 2 1 2 1.9 0 .7-.7 1.3-1.7 1.3-.8 0-1.8-.3-2.9-.9l-1 2.2c1.4.8 2.7 1.2 4.2 1.2 2.7 0 4.4-1.5 4.4-4.1 0-2.4-1.8-3.3-3.3-4-1.1-.4-2-.8-2-1.6m132.5 7.1V8.4h3.8V6.1h-3.8V3.8h4.1V1.5H133v9.6s0 .9.6 1.5c.4.4.9.6 1.6.6 2.1 0 4.4-.1 4.7-.1v-2.3h-4.1zm-6.2-2.2c1-.8 1.5-2 1.5-3.4 0-2.8-2.4-3.8-4.6-3.8h-3.9v11.7h2.9V9.6h1.4c.5.8 1.1 2 1.3 3.6h3.1c-.2-1.8-1.2-3.6-1.7-4.5m-1.6-3c0 1.2-.5 1.7-1.6 1.7h-.8V3.7h.9c1.2 0 1.5.8 1.5 2M120.4 9V1.5h-3v7.8c0 1.2-.1 1.9-1.4 1.9s-1.5-.6-1.5-1.9V1.5h-3v7.9c0 2.8 1.3 4 4.4 4 3.1.1 4.5-1.3 4.5-4.4m-12.8-5.1h2.2V1.5h-7.9v2.4h2.6v9.3h3c.1 0 .1-9.3.1-9.3m-8.9 9.3h3.1L99 1.5h-4.5l-2.8 11.7h3l.4-1.9h3.2zm-.8-4.1h-2.6L96.5 4h.1zm-11.3 4.1H90V.1h-2.8l.1 9.1L83 .1h-3.4v13.1h2.7v-9l.1.2z"/></svg>