<svg width="32" height="32" viewBox="0 0 32 32" fill="none" xmlns="http://www.w3.org/2000/svg">
<path d="M4.33331 24.6413C4.04998 24.6413 3.81254 24.5454 3.62098 24.3537C3.4292 24.1619 3.33331 23.9243 3.33331 23.641C3.33331 23.3574 3.4292 23.12 3.62098 22.9287C3.81254 22.7371 4.04998 22.6413 4.33331 22.6413H15.372C15.6553 22.6413 15.8928 22.7372 16.0843 22.929C16.2759 23.1208 16.3716 23.3583 16.3716 23.6417C16.3716 23.9252 16.2759 24.1627 16.0843 24.354C15.8928 24.5455 15.6553 24.6413 15.372 24.6413H4.33331ZM4.33331 18.1157C4.04998 18.1157 3.81254 18.0198 3.62098 17.828C3.4292 17.6362 3.33331 17.3987 3.33331 17.1153C3.33331 16.8318 3.4292 16.5943 3.62098 16.403C3.81254 16.2114 4.04998 16.1157 4.33331 16.1157H10.9999C11.2833 16.1157 11.5208 16.2115 11.7126 16.4033C11.9042 16.5951 11.9999 16.8327 11.9999 17.116C11.9999 17.3995 11.9042 17.6371 11.7126 17.8287C11.5208 18.02 11.2833 18.1157 10.9999 18.1157H4.33331ZM4.33331 11.59C4.04998 11.59 3.81254 11.4941 3.62098 11.3023C3.4292 11.1105 3.33331 10.873 3.33331 10.5897C3.33331 10.3061 3.4292 10.0687 3.62098 9.87733C3.81254 9.68577 4.04998 9.58999 4.33331 9.58999H10.9999C11.2833 9.58999 11.5208 9.68588 11.7126 9.87766C11.9042 10.0694 11.9999 10.3071 11.9999 10.5907C11.9999 10.874 11.9042 11.1114 11.7126 11.303C11.5208 11.4943 11.2833 11.59 10.9999 11.59H4.33331ZM18.6153 20.6797C16.9446 20.6797 15.5206 20.096 14.3433 18.9287C13.1658 17.7611 12.577 16.3427 12.577 14.6733C12.577 13.0042 13.166 11.5859 14.344 10.4183C15.5222 9.25077 16.947 8.66699 18.6183 8.66699C20.2899 8.66699 21.7136 9.25077 22.8896 10.4183C24.0656 11.5859 24.6536 13.0021 24.6536 14.667C24.6536 15.2859 24.5571 15.8949 24.364 16.494C24.1709 17.0931 23.8854 17.6422 23.5076 18.1413L27.964 22.5593C28.1571 22.7411 28.2536 22.9724 28.2536 23.2533C28.2536 23.5342 28.1571 23.7712 27.964 23.9643C27.7822 24.149 27.5509 24.2413 27.27 24.2413C26.9891 24.2413 26.7521 24.149 26.559 23.9643L22.1026 19.5463C21.5949 19.9157 21.0414 20.1969 20.4423 20.39C19.8432 20.5831 19.2342 20.6797 18.6153 20.6797ZM18.6153 18.6797C19.7371 18.6797 20.6906 18.2908 21.476 17.513C22.2613 16.7352 22.654 15.7887 22.654 14.6733C22.654 13.558 22.2613 12.6114 21.476 11.8337C20.6906 11.0559 19.7371 10.667 18.6153 10.667C17.4935 10.667 16.54 11.0559 15.7546 11.8337C14.9695 12.6114 14.577 13.558 14.577 14.6733C14.577 15.7887 14.9695 16.7352 15.7546 17.513C16.54 18.2908 17.4935 18.6797 18.6153 18.6797Z" fill="#41464A"/>
</svg>
