<svg xmlns="http://www.w3.org/2000/svg" fill="none" viewBox="0 0 80 80"><path fill="#d51c24" d="M0 0h80v80H0z"/><mask id="a" width="80" height="80" x="0" y="0" maskUnits="userSpaceOnUse"><path fill="#fff" d="M80 0H0v80h80z"/></mask><g mask="url(#a)"><path fill="#a92323" d="M80 0H0v80h80z"/><path fill="#fff" d="M12.5 47.9c7.4 0 13 4.6 13 12.6s-5.6 12.7-13 12.7S-.7 68.4-.7 60.5C-.7 52.5 5 48 12.5 48m29.6 0q1.7.1 3 .6l-1.5 6.8c-.8-.3-1-.4-2-.4-4 0-6.3 2.9-6.3 7.6v10.2h-8.1V48.5h7.6V53h.1c1.4-3 3.5-5 7.2-5m-29.8 6.7c-3.2 0-5 2.2-5 5.8s1.8 6 5 6 5.2-2.4 5.2-6-1.8-5.8-5.2-5.8M2.9 11.2l7.5 19.2h.1L18 11.2h11.4V46h-8.5V27.8l-6.7 18.3H6.7L.1 27.8H0v18.3h-8.4V11zm37.7 10.6v24.3h-8.4V21.8zm36.4-.5q1.7.1 3 .5l-1.5 6.8h-.2c-.6-.3-.8-.3-1.7-.3-4 0-6.4 2.8-6.4 7.5v10.3h-8V21.8h7.5v4.5h.1c1.5-3 3.6-5 7.2-5m-18.7 0q1.7.1 3 .5l-1.5 6.8c-.8-.3-1-.3-2-.3-4 0-6.3 2.8-6.3 7.5v10.3h-8.1V21.8H51v4.5h.1c1.4-3 3.5-5 7.2-5M36.3 9c2.8 0 5 2.1 5 4.8s-2.2 4.8-5 4.8-4.8-2.2-4.8-4.8S33.7 9 36.4 9"/></g></svg>