<svg width="202" height="35" viewBox="0 0 202 35" fill="none" xmlns="http://www.w3.org/2000/svg"><path d="M9.696 4.848v24c0 2.688.576 2.976 4.032 3.408v1.44H0v-1.44c3.456-.432 4.032-.72 4.032-3.408v-24C4.032 2.16 3.456 1.872 0 1.44V0h13.728v1.44c-3.456.432-4.032.72-4.032 3.408zm13.815-2.4v6.096h6.576v1.968h-6.576V26.4c0 3.264 1.2 4.608 3.696 4.608 1.44 0 2.448-.432 3.696-1.344l.528.72c-1.392 2.064-3.648 3.792-6.816 3.792-3.648 0-6.432-1.968-6.432-7.2V10.512h-3.12v-.864c2.976-1.488 5.472-4.128 7.296-7.2h1.152zm51.406 27.6V16.032c0-3.168-1.056-4.656-3.744-4.656-2.208 0-3.984 1.152-5.664 2.496v16.176c0 1.776.672 2.112 3.072 2.256v1.392H57.013v-1.392c2.4-.144 3.12-.48 3.12-2.256V16.032c0-3.168-1.104-4.656-3.792-4.656-2.208 0-3.984 1.152-5.664 2.496v16.176c0 1.776.72 2.112 3.12 2.256v1.392H42.133v-1.392c2.4-.144 3.168-.48 3.168-2.256V12.912l-3.024-1.68v-.672l7.776-2.496h.816l-.192 4.608c2.16-2.496 4.608-4.608 8.496-4.608 3.456 0 5.376 1.488 6.048 4.752 2.16-2.496 4.896-4.752 8.736-4.752 4.368 0 6.336 2.64 6.336 7.776v14.208c0 1.776.768 2.112 3.168 2.256v1.392H71.845v-1.392c2.4-.144 3.072-.48 3.072-2.256zm19.516.864c1.68 0 2.927-.768 4.607-2.112v-9.024L94 21.84c-2.255.864-3.552 2.112-3.552 4.704 0 2.592 1.297 4.368 3.985 4.368zm9.983-15.264v12.72c0 1.92.384 2.928 1.728 2.928.768 0 1.44-.24 2.064-.528l.289.864c-1.249 1.68-2.977 2.544-4.993 2.544-2.496 0-3.984-1.632-4.368-4.272-1.632 1.968-4.224 4.224-7.584 4.224-3.84 0-6.288-2.4-6.288-6.096 0-4.08 2.977-5.76 6.72-7.152l7.056-2.592V14.64c0-3.024-1.104-5.232-3.984-5.232-2.543 0-3.6 1.776-3.6 4.176 0 .864.144 1.68.385 2.688l-3.168.432c-1.249-.384-2.017-1.344-2.017-2.784 0-3.792 3.936-5.856 8.976-5.856 5.76 0 8.784 2.304 8.784 7.584zm12.33-13.2v6.096h6.576v1.968h-6.576V26.4c0 3.264 1.2 4.608 3.696 4.608 1.44 0 2.448-.432 3.696-1.344l.528.72c-1.392 2.064-3.648 3.792-6.816 3.792-3.648 0-6.432-1.968-6.432-7.2V10.512h-3.12v-.864c2.976-1.488 5.472-4.128 7.296-7.2h1.152zm16.406 0v6.096h6.576v1.968h-6.576V26.4c0 3.264 1.2 4.608 3.696 4.608 1.44 0 2.448-.432 3.696-1.344l.528.72c-1.392 2.064-3.648 3.792-6.816 3.792-3.648 0-6.432-1.968-6.432-7.2V10.512h-3.12v-.864c2.976-1.488 5.472-4.128 7.296-7.2h1.152zm20.108 5.616c6.144 0 9.36 4.176 9.36 9.744v1.008h-15.792c-.288 7.344 3.408 11.52 8.256 11.52 3.36 0 5.472-1.488 7.2-4.08l.624.336c-1.152 4.464-4.56 7.584-9.792 7.584-6.912 0-11.136-5.328-11.136-12.384 0-8.016 4.896-13.728 11.28-13.728zm-.432 1.632c-3.456 0-5.472 3.264-5.856 7.584h10.656c0-4.416-1.344-7.584-4.8-7.584zm20.427 6.528v13.632c0 1.92 1.104 2.256 4.176 2.448v1.392h-12.72v-1.392c2.4-.144 3.168-.48 3.168-2.256V12.912l-3.024-1.68v-.672l7.776-2.496h.816l-.192 6.912c2.496-5.04 3.744-6.912 6.528-6.912.912 0 1.584.336 1.968.768v4.32h-.816c-2.928 0-5.088.192-7.68 3.072zm19.097 17.952c-3.456 0-6.48-.96-8.352-2.352l-.288-6.624h1.536c1.152 4.272 3.504 7.488 7.2 7.488 2.736 0 4.848-1.392 4.848-4.224 0-2.688-1.776-3.792-5.856-5.328-4.944-1.824-7.392-3.696-7.392-7.92 0-4.464 3.312-7.152 8.352-7.152 3.024 0 5.52.768 7.536 2.016v5.808h-1.392c-.864-3.552-2.832-6.336-6.288-6.336-2.64 0-4.08 1.536-4.08 3.744 0 2.4 1.488 3.552 5.52 5.04 4.896 1.776 7.824 3.744 7.824 8.112 0 4.848-3.648 7.728-9.168 7.728z" fill="#EC7200"/></svg>