<svg id="Layer_1" xmlns="http://www.w3.org/2000/svg" viewBox="0 0 659 59"><defs><style>.st0{fill:#fff}</style></defs><path class="st0" d="M1.3 47h11V30.7c0-4.7 1.9-7.4 5.4-7.4S23 25.7 23 30v16.9h11V30.6c0-4.7 1.9-7.4 5.4-7.4s5.3 2.4 5.3 6.7v16.9h11V26.2c0-6.7-4.4-11.3-10.6-11.3s-9.1 3.2-10.7 8.8h-.6c-1-5.3-5-8.8-10.4-8.8s-9.1 3.2-10.7 8.8h-.4l-.3-7.9H1.3V47zM69.7 48c5.8 0 10.6-3.6 12-7.7h.4v6.8h10.8V26.9c0-7.4-5.8-11.7-15.5-11.7s-16.1 4.7-17 13h10.9c.4-3.5 2.6-5.1 6.1-5.1s4.8 1.7 4.8 3.5-1 4-6.7 4h-4c-7.9 0-11.6 3.8-11.6 8.9s4.5 8.6 10 8.6h-.2zm4.9-6.6c-2.3 0-3.8-.9-3.8-2.8s1.1-2.9 3.2-2.9h.9c3.7 0 5.9-1.5 6.8-4.6h.4v2.4c0 4.4-3.3 7.9-7.4 7.9zM95.9 22.4h4.4v14c0 7.9 3.5 11.2 11.9 11.2s5.1-.5 7.9-1.5v-7.6c-1.7.5-3.4.8-4.7.8-3.1 0-4.1-1.1-4.1-4.5V22.4h8.9V16H111V7.9h-10.7V16h-4.4v6.4zM138.7 48c7.9 0 15.3-4.1 15.8-13.6h-10.9c-.2 4-1.6 5.7-5 5.7s-5.5-2.2-5.5-8.9 1.8-8.2 5.5-8.2 4.7 1.3 5 5.1h10.9c-.8-8.2-6.9-13-15.8-13S122 20.7 122 31.3 130.1 48 138.7 48zM158.2 47h11V30.7c0-4.8 2.2-7.4 6.3-7.4s6.2 2.6 6.2 7.4V47h11V27.4c0-8.3-5.8-12.3-11.6-12.3s-10 2.9-11.6 8.2h-.4V5h-11v42h.1zM226.9 48c10.1 0 15.6-3.5 15.6-10s-6.2-8.4-11.8-9.5l-3.4-.7c-3.1-.6-5.5-1.3-5.5-3.1s1.6-2.5 4.4-2.5 4.9 1.6 4.9 4.4h10.1c0-7.4-5.6-11.5-15.7-11.5s-14.6 4-14.6 9.8 6.1 8.6 11.7 9.7l3.5.7c3.1.6 5.5 1.3 5.5 3.1s-1.6 2.5-4.6 2.5-6.1-1.5-6.1-4.3h-10.7c0 7.4 5.8 11.3 16.5 11.3h.2zM243.8 47h10.7v-7.4l3.3-3.4h1c2.9 0 4.6 2.2 5.7 5l2.2 5.7H278l-4.6-11.3c-1.9-4.6-4.3-6.3-8.6-6.5v-.4c1.9-1.8 4.9-4.4 7-6.5l6.1-6.2h-12.4l-6.5 6.7c-1.6 1.6-3.1 3.5-4.4 5.4l-.4-.2c.2-3.2.3-6.8.3-10.3V4.9h-10.7v42zM287.6 58.7c7.3 0 11.9-2.9 14.6-10.7l11.1-32h-11.4l-1.7 6.4c-1.3 4.8-2.3 9.1-3.8 15.7h-.4c-1.5-6.5-2.6-11-3.9-15.5l-1.8-6.5h-11.8L289.3 47l-.3.8c-.8 2.2-2 2.9-4.9 2.9s-2.5-.2-4.1-.4v7.6c2.8.6 5.4.9 7.7.9h-.1zM314.3 34.7h19v-9h-19v9zM337.8 47h11V30.7c0-4.8 2.2-7.4 6.3-7.4s6.2 2.6 6.2 7.4V47h11V27.4c0-8.3-5.8-12.3-11.6-12.3s-10 2.9-11.6 8.2h-.4V5h-11v42h.1zM378.6 16v31h11V16h-11zm5.5-3.5c3.4 0 6.2-2.6 6.2-6.1S387.5.2 384.1.2s-6.2 2.9-6.2 6.2 2.8 6.1 6.2 6.1zM409.5 35.6c9.4 0 14.9-3.8 14.9-10.4s-3.7-8.3-8.3-9.4v-.5c.1 0 11.2 2.3 11.2 2.3v-7.5l-20.7 4.7c-9.2 2.1-12.1 5.3-12.1 10.4s2.2 7.2 6.2 8.9v.5c-4.1 1.2-6.4 3.5-6.4 6.5s1.8 4.4 4.8 5.2v.5c-3.1.7-4.9 2.6-4.9 5 0 4.7 5.2 6.8 15.8 6.8s17.2-3.4 17.2-10.6-4-9.1-10.7-9.1h-12.6c-1.7 0-2.6-.7-2.6-1.9s.9-1.7 2.4-2c1.7.4 3.7.5 5.8.5zm0-7.1c-3.2 0-5-1.1-5-3.2s1.8-3.2 5-3.2 5 1.1 5 3.2-1.8 3.2-5 3.2zm-8.5 20c0-.8.5-1.4 1.4-1.9h12.7c1.7 0 2.7.6 2.7 1.7 0 2-2.6 2.9-8.1 2.9s-8.7-1-8.7-2.8zM431.6 47h11V30.7c0-4.8 2.2-7.4 6.3-7.4s6.2 2.6 6.2 7.4V47h11V27.4c0-8.3-5.8-12.3-11.6-12.3s-10 2.9-11.6 8.2h-.4V5h-11v42h.1zM498.1 35.6c9.4 0 14.9-3.8 14.9-10.4s-3.7-8.3-8.3-9.4v-.5c.1 0 11.2 2.3 11.2 2.3v-7.5l-20.7 4.7c-9.2 2.1-12.1 5.3-12.1 10.4s2.2 7.2 6.2 8.9v.5c-4.1 1.2-6.4 3.5-6.4 6.5s1.8 4.4 4.8 5.2v.5c-3.1.7-4.9 2.6-4.9 5 0 4.7 5.2 6.8 15.8 6.8s17.2-3.4 17.2-10.6-4-9.1-10.7-9.1h-12.6c-1.7 0-2.6-.7-2.6-1.9s.9-1.7 2.4-2c1.7.4 3.7.5 5.8.5zm0-7.1c-3.2 0-5-1.1-5-3.2s1.8-3.2 5-3.2 5 1.1 5 3.2-1.8 3.2-5 3.2zm-8.6 20c0-.8.5-1.4 1.4-1.9h12.7c1.7 0 2.7.6 2.7 1.7 0 2-2.6 2.9-8.1 2.9s-8.7-1-8.7-2.8zM534.5 48c10 0 17.4-6.3 17.4-16.6s-7.4-16.3-17.4-16.3-17.4 6.3-17.4 16.3S524.5 48 534.5 48zm0-8c-4.1 0-6.3-2.6-6.3-8.6s2.2-8.4 6.3-8.4 6.3 2.6 6.3 8.4-2.2 8.6-6.3 8.6zM564.9 48c5.8 0 10.6-3.6 12-7.7h.4v6.8h10.8V26.9c0-7.4-5.8-11.7-15.5-11.7s-16.1 4.7-17 13h10.9c.4-3.5 2.6-5.1 6.1-5.1s4.8 1.7 4.8 3.5-1 4-6.7 4h-4c-7.9 0-11.6 3.8-11.6 8.9s4.5 8.6 10 8.6h-.2zm5-6.6c-2.3 0-3.8-.9-3.8-2.8s1.1-2.9 3.2-2.9h.9c3.7 0 5.9-1.5 6.8-4.6h.4v2.4c0 4.4-3.3 7.9-7.4 7.9h-.1zM593.6 5v42h11V5h-11zM625.5 48c10.1 0 15.6-3.5 15.6-10s-6.2-8.4-11.8-9.5l-3.4-.7c-3.1-.6-5.5-1.3-5.5-3.1s1.6-2.5 4.4-2.5 4.9 1.6 4.9 4.4h10.1c0-7.4-5.6-11.5-15.7-11.5s-14.6 4-14.6 9.8 6.1 8.6 11.7 9.7l3.5.7c3.1.6 5.5 1.3 5.5 3.1s-1.6 2.5-4.6 2.5-6.1-1.5-6.1-4.3h-10.7c0 7.4 5.8 11.3 16.5 11.3h.2zM651 47.9c3.7 0 6.7-3 6.7-6.7s-3-6.6-6.7-6.6-6.8 2.9-6.8 6.6 3 6.7 6.8 6.7z"/></svg>