<svg xmlns="http://www.w3.org/2000/svg" viewBox="0 0 765 518" fill="#fff"><path d="M124 224.47c-18.62 0-33.55 15.46-33.55 34.5s15 34.6 33.64 34.6a33.38 33.38 0 0 0 29.86-18.79l.86-1.66h-9.13c-.27.44-.67.88-.9 1.32A25.45 25.45 0 0 1 124 285.5c-11.94 0-22.46-8.78-25-20.8l-.08-.44h58.38a42.67 42.67 0 0 0 .25-4.92v-.26c.05-19.07-14.95-34.6-33.55-34.6zm25.36 31.62H98.4v-.44h.08c1.67-13.17 12.66-23.1 25.4-23.1s23.78 9.92 25.36 23.1zm65.27 9.3A24.15 24.15 0 0 1 213 274a19.8 19.8 0 0 1-4.22 6.5 18.32 18.32 0 0 1-6.14 4.22 20 20 0 0 1-14.94 0A19 19 0 0 1 177.41 274a22 22 0 0 1-1.42-8.6v-39.6h-7.7v40.32a30.78 30.78 0 0 0 1.92 11.24 24.14 24.14 0 0 0 5.7 8.69 24.61 24.61 0 0 0 8.61 5.62 29.17 29.17 0 0 0 21.05.07 26.78 26.78 0 0 0 14.5-14.4 29.5 29.5 0 0 0 2.27-11.24v-40.3h-7.72zm34.47-37.67a25.53 25.53 0 0 0-10.18 8.08 26.41 26.41 0 0 0-4.47 9.66 37.54 37.54 0 0 0-1 8.25v38.1h8.33v-38.2a27 27 0 0 1 1-7.37 18 18 0 0 1 3.69-6.68 18.33 18.33 0 0 1 7.55-4.91 37.32 37.32 0 0 1 12.83-2h1.32v-8.27h-1.32a43.05 43.05 0 0 0-17.75 3.33zm150.12 5.37a30 30 0 0 0-10-6.59 33.29 33.29 0 0 0-24.33.09 29.87 29.87 0 0 0-16.69 16.77 34.61 34.61 0 0 0-2.54 12.91v35.47H361V257a21.91 21.91 0 0 1 1.49-7.38 17.49 17.49 0 0 1 3.52-5.44 14.08 14.08 0 0 1 5-3.42 15.92 15.92 0 0 1 12.38 0 14.4 14.4 0 0 1 4.92 3.42 15.42 15.42 0 0 1 3.52 5.44 19.38 19.38 0 0 1 1.14 7.47v34.5h15.1v-35.4a34.67 34.67 0 0 0-2.19-12.91 30.6 30.6 0 0 0-6.65-10.18zm50.13-8.62c-18.63 0-33.63 15.55-33.63 34.6s15.1 34.5 33.63 34.5a33.67 33.67 0 0 0 30-18.61l.44-1h-16.34c-.15.12-1.15 1-1.15 1a19.9 19.9 0 0 1-32-9.4l-.26-.7h52.42l.08-.52c.2-1.75.32-3.5.35-5.27 0-19.14-14.9-34.6-33.54-34.6zM430 253.28l.27-.7a19.87 19.87 0 0 1 38.1 0l.27.7zm125.23 25.12c-4.9-12.55-10.34-36.8-12.46-52.68H528.9c-2 16-7.55 41.27-12.38 52.68-4.57-11.5-9.77-36.8-11.77-52.68h-16.58v.44c2.2 21.16 10.1 49.08 17.38 65.68h20.64a177.06 177.06 0 0 0 9.65-32.49 173.59 173.59 0 0 0 9.74 32.49h20.7c6.16-15.2 13.36-40.83 17.22-65.68v-.44H567c-2.1 15.98-7.18 40.22-11.77 52.68zm67.23-25.32-10.18-2.8c-3.35-.88-6.15-2.28-6.15-6.06 0-4.7 4-5.7 8.85-5.7h3a82.84 82.84 0 0 1 15.29 2h.7v-12.6c-3.7-1.4-11.86-2.46-16-2.46h-3.38c-13.26 0-24.15 5.44-24.15 18.7 0 11.24 6.14 16.42 13.6 18.35l10.18 2.72c3.87 1.06 7.47 2.64 7.47 6.76 0 5.45-4.13 7.12-9.48 7.12h-3.43a75.9 75.9 0 0 1-17.65-2.73h-.7v12.56a72 72 0 0 0 18.39 3.26h3.43c14.57 0 25.1-5.53 25.1-20.1.03-10.57-5.08-16.37-14.9-19z"/><circle cx="660.59" cy="278.04" r="13.96"/><path d="M304.4 224.57c-18.62 0-33.8 15.45-33.8 34.6s15.1 34.6 33.8 34.6 33.8-15.45 33.8-34.6-15.2-34.6-33.8-34.6zm0 59.8c-13 0-23.62-11.32-23.62-25.1s10.62-25.1 23.62-25.1 23.6 11.36 23.6 25.1-10.5 25.1-23.6 25.1z"/></svg>