<svg id="Layer_1" xmlns="http://www.w3.org/2000/svg" viewBox="0 0 253 23"><defs><style>.st0{fill:#fff}</style></defs><path class="st0" d="M5 18.2h5.7l1.4-7.2c.3-1.5.6-2.9.8-4.4h.2l.8 4.3 1.4 7.2H21L25.6.7h-5.2L19 7.5c-.4 1.7-.8 3.5-1.1 5.2h-.2c-.3-1.8-.6-3.5-.9-5.2L15.4.7h-5.1L9 7.4c-.4 1.8-.7 3.5-.9 5.2h-.2L6.8 7.4 5.5.7H.3L5 18.2zM31.6 18.6c2.4 0 6-1.3 6.4-4.9h-3.8c-.3.9-1.3 1.6-2.6 1.6s-2.9-1-2.9-2.6h9.4v-1.2c0-3.9-2.9-6.7-6.9-6.7s-6.9 2.8-6.9 6.8 2.7 6.9 7.3 6.9zm-2.9-8.1c.1-1.4 1.1-2.3 2.6-2.3s2.3.9 2.4 2.3h-5zM44.8 18.2h4.6v-6.8c0-2 .9-3.1 2.6-3.1s2.6 1.1 2.6 3.1v6.8h4.6V10c0-3.5-2.4-5.1-4.8-5.1s-4.2 1.2-4.9 3.4h-.2V.7h-4.6v17.5h.1zM67.8 18.6c2.4 0 6-1.3 6.4-4.9h-3.8c-.3.9-1.3 1.6-2.6 1.6s-2.9-1-2.9-2.6h9.4v-1.2c0-3.9-2.9-6.7-6.9-6.7s-6.9 2.8-6.9 6.8 2.7 6.9 7.3 6.9zm-3-8.1c0-1.4 1.1-2.3 2.6-2.3s2.3.9 2.4 2.3h-5zM75.7.7v17.5h4.6V.7h-4.6zM82.1 22.8h4.6v-7.4h.2c.8 2 2.5 3.1 4.8 3.1s5.3-2.6 5.3-6.8-2.3-6.9-5.3-6.9-4 1.1-4.8 3.2h-.2V5.2h-4.6v17.5zm4.6-10.2v-1.7c0-1.9 1.1-3.1 2.8-3.1s2.8 1.3 2.8 3.9-1.1 3.9-2.8 3.9-2.8-1.2-2.8-3zM105.1 18.6c2.4 0 6-1.3 6.4-4.9h-3.8c-.3.9-1.3 1.6-2.6 1.6s-2.9-1-2.9-2.6h9.4v-1.2c0-3.9-2.9-6.7-6.9-6.7s-6.9 2.8-6.9 6.8 2.7 6.9 7.3 6.9zm-3-8.1c0-1.4 1.1-2.3 2.6-2.3s2.3.9 2.4 2.3h-5zM112.5 11.8c0 4.2 2.1 6.8 5.5 6.8s3.7-1.2 4.5-3.1h.2v2.8h4.6V.7h-4.6v7.4h-.2c-.8-2-2.5-3.2-4.5-3.2-3.4 0-5.5 2.7-5.5 6.9zm4.6 0c0-2.4 1.1-3.9 2.8-3.9s2.8 1.2 2.8 3.1v1.7c0 1.9-1.1 3-2.8 3s-2.8-1.5-2.8-3.9zM142.9 18.6c5.2 0 8.4-2.7 8.6-7.4h-5.1c-.2 2.3-1.5 3.6-3.4 3.6s-4-2-4-5.4 1.4-5.4 3.8-5.4 3.1 1.1 3.5 3h5.1c-.5-4.3-3.7-6.8-8.6-6.8s-9 3.4-9 9.2 3.4 9.1 9 9.1zM157.5 18.6c2.4 0 4.2-1.2 4.9-3.4h.2v3h4.6V5.3h-4.6v6.8c0 2-.9 3.1-2.6 3.1s-2.6-1.1-2.6-3.1V5.3h-4.6v8.2c0 3.5 2.4 5.1 4.8 5.1zM175.2 18.6c4.2 0 6.5-1.5 6.5-4.2s-2.6-3.5-4.9-4l-1.4-.3c-1.3-.2-2.3-.6-2.3-1.3s.7-1.1 1.9-1.1 2.1.7 2.1 1.8h4.2c0-3.1-2.3-4.8-6.6-4.8s-6.1 1.7-6.1 4.1 2.6 3.6 4.9 4.1l1.5.3c1.3.2 2.3.6 2.3 1.3s-.7 1.1-1.9 1.1-2.5-.6-2.5-1.8h-4.5c0 3.1 2.4 4.7 6.9 4.7zM182.7 18.2h4.6v-6.8c0-2 .9-3.1 2.6-3.1s2.6 1.1 2.6 3.1v6.8h4.6V10c0-3.5-2.4-5.1-4.8-5.1s-4.2 1.2-4.9 3.4h-.2V.7h-4.6v17.5zM198.9 18.2h4.6v-6.8c0-2 .8-3.1 2.3-3.1s2.2 1 2.2 2.8v7.1h4.6v-6.8c0-2 .8-3.1 2.3-3.1s2.2 1 2.2 2.8v7.1h4.6V9.6c0-2.8-1.8-4.7-4.4-4.7s-3.8 1.3-4.5 3.7h-.3c-.4-2.2-2.1-3.7-4.3-3.7s-3.8 1.3-4.5 3.7h-.2V5.3h-4.6v12.9zM226.9 18.6c2.4 0 4.4-1.5 5-3.2h.2v2.8h4.5V9.8c0-3.1-2.4-4.9-6.5-4.9s-6.7 2-7.1 5.4h4.6c.2-1.5 1.1-2.1 2.5-2.1s2 .7 2 1.5-.4 1.7-2.8 1.7h-1.7c-3.3 0-4.8 1.6-4.8 3.7s1.9 3.6 4.2 3.6zm2-2.7c-1 0-1.6-.4-1.6-1.2s.5-1.2 1.4-1.2h.4c1.5 0 2.5-.6 2.8-1.9h.2v1c0 1.8-1.4 3.3-3.1 3.3zM238.3 18.2h4.6v-6.8c0-2 .9-3.1 2.6-3.1s2.6 1.1 2.6 3.1v6.8h4.6V10c0-3.5-2.4-5.1-4.8-5.1s-4.2 1.2-4.9 3.4h-.2v-3h-4.6v12.9z"/></svg>