<?xml version="1.0" encoding="utf-8"?>
<!-- Generator: Adobe Illustrator 25.4.8, SVG Export Plug-In . SVG Version: 6.00 Build 0)  -->
<svg version="1.1" id="Layer_2" xmlns="http://www.w3.org/2000/svg" xmlns:xlink="http://www.w3.org/1999/xlink" x="0px" y="0px"
	 viewBox="0 0 1082 871" style="enable-background:new 0 0 1082 871;" xml:space="preserve">
<style type="text/css">
	.st0{fill:#FFFFFF;}
</style>
<g>
	<path class="st0" d="M79.3,696.7c0-32.5,22.8-60,60.5-60c38,0,60.7,27.5,60.7,60c0,32.7-22.8,60.3-60.7,60.3
		C102.1,757,79.3,729.5,79.3,696.7z M169.2,696.7c0-17.8-10.7-33.2-29.4-33.2s-29.2,15.4-29.2,33.2c0,18,10.4,33.5,29.2,33.5
		S169.2,714.8,169.2,696.7z"/>
	<path class="st0" d="M295.6,739.7c-7.8,8.8-21.6,17.3-40.3,17.3c-25.2,0-37-13.8-37-36.1v-81.4h30.1v69.5
		c0,15.9,8.3,21.1,21.1,21.1c11.6,0,20.9-6.4,26.1-13.1v-77.6h30.1v114.6h-30.1V739.7z"/>
	<path class="st0" d="M350.7,639.5h30.1v15.7c8.1-10.2,22.3-18.3,36.5-18.3v29.4c-2.1-0.5-5-0.7-8.3-0.7c-10,0-23.3,5.5-28.2,12.8
		v75.7h-30.1V639.5z"/>
	<path class="st0" d="M573.7,674c0-16.1-6.9-26.1-23-26.1c-12.3,0-26.3,9-32.7,19.5v86.8h-12.6V674c0-16.1-6.6-26.1-23-26.1
		c-12.1,0-25.9,9.3-32.7,19.7v86.6h-12.3V639.5h12.3v17.3c4.7-7.4,20.4-20.2,37-20.2c17.8,0,27.3,10.4,30.1,21.6
		c6.4-10.7,21.8-21.6,38-21.6c21.1,0,31.3,11.9,31.3,34.9v82.6h-12.3V674z"/>
	<path class="st0" d="M662.4,636.7c34.9,0,54.1,27.8,54.1,60.7v3.3h-95.9c1.2,24.9,17.8,45.6,44.8,45.6c14.5,0,27.8-5.5,37.5-15.9
		l6.4,8.1C698,750.4,683.6,757,664.6,757c-33.5,0-57.4-24.9-57.4-60.3C607.2,663.5,630.6,636.7,662.4,636.7z M620.7,691H704
		c-0.2-19.5-13.1-43.7-41.8-43.7C635.2,647.4,621.6,671.1,620.7,691z"/>
	<path class="st0" d="M828.1,735.9c-8.1,11.9-22.8,21.1-39.9,21.1c-30.4,0-51.3-23.3-51.3-60c0-36.3,20.9-60.3,51.3-60.3
		c16.4,0,30.6,8.3,39.9,21.4v-62.2h12.6v158.3h-12.6V735.9z M828.1,668.7c-6.6-11.2-21.6-20.9-37.7-20.9
		c-25.4,0-40.1,21.4-40.1,49.1c0,27.8,14.7,48.9,40.1,48.9c16.1,0,31.1-9.5,37.7-20.4V668.7z"/>
	<path class="st0" d="M870.4,610.6c0-5.2,4.5-9.5,9.5-9.5c5.2,0,9.5,4.3,9.5,9.5c0,5.2-4.3,9.5-9.5,9.5
		C874.9,620.1,870.4,615.8,870.4,610.6z M873.7,639.5h12.3v114.6h-12.3V639.5z"/>
	<path class="st0" d="M990.3,740.6c-10.2,11.2-23,16.4-38.9,16.4c-19.7,0-40.1-13.5-40.1-38.2c0-24.9,20.2-38,40.1-38
		c15.9,0,28.9,5.2,38.9,16.4V674c0-17.1-13.8-26.3-30.8-26.3c-14.2,0-25.4,5-35.8,16.8l-6.9-8.5c11.9-12.8,25.2-19.2,44.1-19.2
		c23.3,0,41.8,11.2,41.8,36.8v80.7h-12.3V740.6z M990.3,706.5c-8.1-10.4-20.9-15.9-34.6-15.9c-19,0-31.3,12.1-31.3,28.5
		c0,16.1,12.3,28.2,31.3,28.2c13.8,0,26.6-5.2,34.6-15.7V706.5z"/>
</g>
<path class="st0" d="M971.8,167.9c8.8-1.6,11.7-1.7,19.8-2.5c34-4.5,35.4-74.1,35.4-103.5v-5.1c-9.7-1.2-19.6-1.9-29.6-1.9
	c-128.8,0-233.3,104.4-233.3,233.3c0,67.9-55,122.9-122.9,122.9s-122.9-55-122.9-122.9c0-128.8-104.1-233.3-232.9-233.3
	C156.6,54.9,55,159.4,55,288.2C55,417,156.6,521.4,285.5,521.4c70.5,0,135.1-33,177.7-82.5c-2.7-2.3-4.6-4.1-7.2-6.7
	c-15.6-14.6-33.6-26.2-52.2-35.9c-19-9.9-41.6-9.9-60.5,0.2c-17.2,9.3-36.9,14.5-57.8,14.5c-67.9,0-120.1-55-120.1-122.9
	s52.2-122.9,120.1-122.9c67.9,0,122.5,55,122.5,122.9c0,128.8,104.4,233.3,233.3,233.3S874.5,417,874.5,288.1
	C874.5,229.1,916.2,179.7,971.8,167.9z"/>
</svg>
