<svg xmlns="http://www.w3.org/2000/svg" viewBox="0 0 1548 170" style="enable-background:new 0 0 1548 170" xml:space="preserve" width="800" height="220"><path d="M641.97 0v170h110.5v-29.75h-78.2v-42.5h71.4v-28.9h-71.4v-39.1h78.2V0zM507.7 27.45h-23.8v57.29h23.8c18.62 0 32.3-9.01 32.3-28.65 0-20.39-13.68-28.64-32.3-28.64m1.7 84.75h-25.5V170h-32.3V0h57.8C545.65 0 574 16.42 574 56.1c0 39.1-28.56 56.1-64.6 56.1M1032.98 0v29.75h39.95v110.5h-39.95V170h112.2v-29.75h-39.95V29.75h39.95V0zM924.62 52.7c0 20.48-11.9 26.94-32.3 26.94h-27.2V27.46h27.2c22.14 0 32.3 8.24 32.3 25.24m34 0c0-39.68-27.2-52.7-62.9-52.7h-62.9v170h32.3v-62.9h27.2c1.49 0 2.97-.03 4.44-.08L929.67 170h35.79l-36.51-69.72c17.76-7.89 29.67-23.05 29.67-47.58m328.28-22.54 23.24 74.98h-46.49l23.25-74.98zM1265.65 0l-56.1 170h34l11.59-37.4h63.51l11.59 37.4h34l-56.1-170h-42.49zm171.51 0v170h110.78v-29.75h-78.48V0zM323.53 0l-40.8 99.96L241.93 0h-45.9v170h30.6V42.9l39.1 89.7h34l39.1-89.7V170h30.6V0zM.06 0v29.75h39.95v110.5H.06V170h112.2v-29.75H72.31V29.75h39.95V0z" style="fill:#fff"/></svg>