<?xml version="1.0" encoding="UTF-8"?> <svg xmlns="http://www.w3.org/2000/svg" width="44" height="44" viewBox="0 0 44 44" fill="none"><path d="M21.7178 0C9.7243 0 0 9.72166 0 21.7178C0 30.6096 5.34722 38.249 12.999 41.6083C12.9381 40.0905 12.9884 38.2719 13.3773 36.6218C13.7945 34.8579 16.1713 24.7879 16.1713 24.7879C16.1713 24.7879 15.4772 23.4015 15.4772 21.3518C15.4772 18.1345 17.3425 15.7312 19.6656 15.7312C21.6411 15.7312 22.5954 17.2146 22.5954 18.99C22.5954 20.9761 21.328 23.9456 20.6772 26.6964C20.1339 29.0009 21.8325 30.8804 24.1053 30.8804C28.2195 30.8804 30.9915 25.5958 30.9915 19.334C30.9915 14.5741 27.7856 11.0111 21.9551 11.0111C15.367 11.0111 11.2633 15.9235 11.2633 21.4109C11.2633 23.3036 11.8216 24.6371 12.6956 25.6707C13.0969 26.1443 13.1533 26.3357 13.0078 26.8799C12.9037 27.2794 12.6647 28.2425 12.5659 28.6235C12.4213 29.1747 11.9759 29.3713 11.4785 29.1676C8.44461 27.9294 7.03085 24.6062 7.03085 20.8703C7.03085 14.702 12.2334 7.30425 22.5522 7.30425C30.8424 7.30425 36.2999 13.305 36.2999 19.7458C36.2999 28.2636 31.5647 34.6286 24.5833 34.6286C22.2382 34.6286 20.0325 33.3604 19.2775 31.9228C19.2775 31.9228 18.0163 36.927 17.75 37.8918C17.2896 39.5675 16.3874 41.2405 15.5637 42.544C17.5172 43.1208 19.58 43.4348 21.7187 43.4348C33.7114 43.4348 43.4348 33.7132 43.4348 21.7187C43.4339 9.72166 33.7096 0 21.7178 0Z" fill="black"></path></svg> 