<svg id="Layer_1" xmlns="http://www.w3.org/2000/svg" viewBox="0 0 146 20"><defs><style>.st0{fill:#fff}</style></defs><path class="st0" d="M6.9 19.9c1.3 0 3.4-.3 5.3-1.4l.9 1h5.1L15 16.2c1.1-1.4 1.9-3.2 2.1-5.6h-4c0 1-.4 1.9-.8 2.7L9.1 9.9c3-.4 4.7-2.2 4.7-4.4s-2.4-4.1-5.9-4.1S2 3.3 2 6.1s.5 2.8 2.3 4.4v.2c-2.7.6-4.2 2.2-4.2 4.4s2.7 4.7 6.6 4.7h.2zM4 13.4c0-.8.4-1.6 1.2-2l4.4 4.5c-.6.3-1.3.4-2.1.4-2.4 0-3.5-1.5-3.5-2.9zm2.7-6.9c0-.9.7-1.6 1.7-1.6s1.7.7 1.7 1.6-.7 2.2-1.7 2.8C6.8 7.8 6.7 7.1 6.7 6.5zM27.9 19.5h5.7l1.4-7.2c.3-1.5.6-2.9.8-4.4h.2l.8 4.3 1.4 7.2h5.7l4.8-17.5h-5.2l-1.4 6.8c-.4 1.7-.8 3.5-1.1 5.2h-.2c-.3-1.8-.6-3.5-.9-5.2L38.6 2h-5.1l-1.3 6.7c-.4 1.8-.7 3.5-.9 5.2h-.2L30 8.7l-1.4-6.8h-5.2l4.7 17.5H28zM51.1 19.9c2.4 0 4.4-1.5 5-3.2h.2v2.8h4.5v-8.4c0-3.1-2.4-4.9-6.5-4.9s-6.7 2-7.1 5.4h4.6c.2-1.5 1.1-2.1 2.5-2.1s2 .7 2 1.5-.4 1.7-2.8 1.7h-1.7c-3.3 0-4.8 1.6-4.8 3.7s1.9 3.6 4.2 3.6h-.1zm2.1-2.7c-1 0-1.6-.4-1.6-1.2s.5-1.2 1.4-1.2h.4c1.5 0 2.5-.6 2.8-1.9h.2v1c0 1.8-1.4 3.3-3.1 3.3h-.1zM62.5 19.5H67v-3.1l1.4-1.4h.4c1.2 0 1.9.9 2.4 2.1l.9 2.4h4.7l-1.9-4.7c-.8-1.9-1.8-2.6-3.6-2.7v-.2c.8-.8 2.1-1.9 2.9-2.7l2.6-2.6h-5.2l-2.7 2.8c-.7.7-1.3 1.5-1.8 2.3h-.2V2h-4.5v17.5zM84.3 19.9c2.4 0 6-1.3 6.4-4.9h-3.8c-.3.9-1.3 1.6-2.6 1.6s-2.9-1-2.9-2.6h9.4v-1.2c0-3.9-2.9-6.7-6.9-6.7S77 8.9 77 12.9s2.7 6.9 7.3 6.9zm-3-8.1c0-1.4 1.1-2.3 2.6-2.3s2.3.9 2.4 2.3h-5zM93.8 19.5h4.6V9.2h3.8V6.5h-3.9c0-1.1.5-1.7 2-1.7s1.2 0 1.9.2V1.8c-1-.3-2-.4-2.9-.4-3.1 0-5.4 1.5-5.4 4.8v.3H92v2.7h1.9v10.3zM103.9 6.6v12.9h4.6V6.6h-4.6zm2.3-1.5c1.4 0 2.6-1.1 2.6-2.5S107.7 0 106.2 0s-2.6 1.2-2.6 2.6 1.2 2.5 2.6 2.5zM117.6 19.9c2.4 0 6-1.3 6.4-4.9h-3.8c-.3.9-1.3 1.6-2.6 1.6s-2.9-1-2.9-2.6h9.4v-1.2c0-3.9-2.9-6.7-6.9-6.7s-6.9 2.8-6.9 6.8 2.7 6.9 7.3 6.9zm-2.9-8.1c0-1.4 1.1-2.3 2.6-2.3s2.3.9 2.4 2.3h-5zM125.5 2v17.5h4.6V2h-4.6zM131.1 13.1c0 4.2 2.1 6.8 5.5 6.8s3.7-1.2 4.5-3.1h.2v2.8h4.6V2.1h-4.6v7.4h-.2c-.8-2-2.5-3.2-4.5-3.2-3.4 0-5.5 2.7-5.5 6.9zm4.5 0c0-2.4 1.1-3.9 2.8-3.9s2.8 1.2 2.8 3.1V14c0 1.9-1.1 3-2.8 3s-2.8-1.5-2.8-3.9z"/></svg>