<svg id="Layer_1" xmlns="http://www.w3.org/2000/svg" viewBox="0 0 566 51"><defs><style>.st0{fill:#fff}</style></defs><path class="st0" d="M10.8 40.5h12.8l3.1-16.1c.7-3.4 1.3-6.5 1.8-9.9h.4l1.8 9.6 3.1 16.1h12.8L57 1.3H45.4l-3.1 15.2c-.9 3.8-1.8 7.8-2.5 11.6h-.4c-.7-4-1.3-7.8-2-11.6L34.3 1.3H22.9l-2.9 15c-.9 4-1.6 7.8-2 11.6h-.4l-2.5-11.6-3.1-15H.3l10.5 39.2zM70.4 41.4c5.4 0 13.4-2.9 14.3-11h-8.5c-.7 2-2.9 3.6-5.8 3.6s-6.5-2.2-6.5-5.8H85v-2.7c0-8.7-6.5-15-15.5-15S54 16.8 54 25.7s6 15.5 16.4 15.5v.2zm-6.5-18.1c.2-3.1 2.5-5.2 5.8-5.2s5.2 2 5.4 5.2H63.9zM100 40.5h10.3V25.3c0-4.5 2-6.9 5.8-6.9s5.8 2.5 5.8 6.9v15.2h10.3V22.1c0-7.8-5.4-11.4-10.8-11.4s-9.4 2.7-11 7.6h-.4v-17H99.7v39.2h.2zM151.5 41.4c5.4 0 13.4-2.9 14.3-11h-8.5c-.7 2-2.9 3.6-5.8 3.6s-6.5-2.2-6.5-5.8h21.1v-2.7c0-8.7-6.5-15-15.5-15s-15.5 6.3-15.5 15.2 6 15.5 16.4 15.5v.2zm-6.7-18.1c0-3.1 2.5-5.2 5.8-5.2s5.2 2 5.4 5.2h-11.2zM169.2 1.3v39.2h10.3V1.3h-10.3zM183.5 50.8h10.3V34.2h.4c1.8 4.5 5.6 6.9 10.8 6.9s11.9-5.8 11.9-15.2-5.2-15.5-11.9-15.5-9 2.5-10.8 7.2h-.4v-6.3h-10.3V50.7zM193.8 28v-3.8c0-4.3 2.5-6.9 6.3-6.9s6.3 2.9 6.3 8.7-2.5 8.7-6.3 8.7-6.3-2.7-6.3-6.7zM235.1 41.4c5.4 0 13.4-2.9 14.3-11h-8.5c-.7 2-2.9 3.6-5.8 3.6s-6.5-2.2-6.5-5.8h21.1v-2.7c0-8.7-6.5-15-15.5-15s-15.5 6.3-15.5 15.2 6 15.5 16.4 15.5v.2zm-6.8-18.1c0-3.1 2.5-5.2 5.8-5.2s5.2 2 5.4 5.2h-11.2zM251.6 26.2c0 9.4 4.7 15.2 12.3 15.2s8.3-2.7 10.1-6.9h.4v6.3h10.3V1.3h-10.3v16.6h-.4c-1.8-4.5-5.6-7.2-10.1-7.2-7.6 0-12.3 6-12.3 15.5zm10.3 0c0-5.4 2.5-8.7 6.3-8.7s6.3 2.7 6.3 6.9v3.8c0 4.3-2.5 6.7-6.3 6.7s-6.3-3.4-6.3-8.7zM319.7 41.4c11.6 0 18.8-6 19.3-16.6h-11.4c-.4 5.2-3.4 8.1-7.6 8.1s-9-4.5-9-12.1 3.1-12.1 8.5-12.1 6.9 2.5 7.8 6.7h11.4C337.6 5.8 330.4.2 319.4.2s-20.2 7.6-20.2 20.6 7.6 20.4 20.2 20.4l.2.2zM352.4 41.4c5.4 0 9.4-2.7 11-7.6h.4v6.7h10.3V11.6h-10.3v15.2c0 4.5-2 6.9-5.8 6.9s-5.8-2.5-5.8-6.9V11.6h-10.3V30c0 7.8 5.4 11.4 10.8 11.4h-.2zM392.1 41.4c9.4 0 14.6-3.4 14.6-9.4s-5.8-7.8-11-9l-3.1-.7c-2.9-.4-5.2-1.3-5.2-2.9s1.6-2.5 4.3-2.5 4.7 1.6 4.7 4h9.4c0-6.9-5.2-10.8-14.8-10.8s-13.7 3.8-13.7 9.2 5.8 8.1 11 9.2l3.4.7c2.9.4 5.2 1.3 5.2 2.9s-1.6 2.5-4.3 2.5-5.6-1.3-5.6-4h-10.1c0 6.9 5.4 10.5 15.5 10.5l-.2.2zM408.9 40.5h10.3V25.3c0-4.5 2-6.9 5.8-6.9s5.8 2.5 5.8 6.9v15.2h10.3V22.1c0-7.8-5.4-11.4-10.8-11.4s-9.4 2.7-11 7.6h-.4v-17h-10.3v39.2h.2zM445.2 40.5h10.3V25.3c0-4.5 1.8-6.9 5.2-6.9s4.9 2.2 4.9 6.3v15.9h10.3V25.4c0-4.5 1.8-6.9 5.2-6.9s4.9 2.2 4.9 6.3v15.9h10.3V21.4c0-6.3-4-10.5-9.9-10.5s-8.5 2.9-10.1 8.3h-.7c-.9-4.9-4.7-8.3-9.6-8.3s-8.5 2.9-10.1 8.3h-.4v-7.4h-10.3v28.9zM507.9 41.4c5.4 0 9.9-3.4 11.2-7.2h.4v6.3h10.1V21.7c0-6.9-5.4-11-14.6-11s-15 4.5-15.9 12.1h10.3c.4-3.4 2.5-4.7 5.6-4.7s4.5 1.6 4.5 3.4-.9 3.8-6.3 3.8h-3.8c-7.4 0-10.8 3.6-10.8 8.3s4.3 8.1 9.4 8.1l-.2-.2zm4.5-6c-2.2 0-3.6-.9-3.6-2.7s1.1-2.7 3.1-2.7h.9c3.4 0 5.6-1.3 6.3-4.3h.4v2.2c0 4-3.1 7.4-6.9 7.4h-.2zM533.4 40.5h10.3V25.3c0-4.5 2-6.9 5.8-6.9s5.8 2.5 5.8 6.9v15.2h10.3V22.1c0-7.8-5.4-11.4-10.8-11.4s-9.4 2.7-11 7.6h-.4v-6.7h-10.3v28.9h.2z"/></svg>