<svg width="185" height="80" viewBox="0 0 185 80" fill="none" xmlns="http://www.w3.org/2000/svg">
<g clip-path="url(#clip0_2528_29963)">
<rect width="185" height="80" fill="#A92323"/>
<path d="M0 0H140C156.569 0 170 13.4315 170 30V80H30C13.4315 80 0 66.5685 0 50V0Z" fill="#831010"/>
<path d="M170 65C170.291 73.1605 176.839 79.7086 185 80H170V65Z" fill="#831010"/>
<path d="M127.848 31.3037C136.577 31.3037 143.22 36.7658 143.225 46.2148C143.23 55.4411 136.577 61.0723 127.848 61.0723C119.119 61.0721 112.454 55.4409 112.472 46.2148C112.49 36.766 119.119 31.3039 127.848 31.3037ZM30.7676 42.124H30.8721L39.6885 19.5137H52.9941V60.5293L43.0674 60.5312L43.0889 39.0977H42.9893L35.1885 60.5312H26.4336L18.627 39.0977H18.5391L18.5664 60.5312H8.63965V19.5137H21.9463L30.7676 42.124ZM66.9609 60.5293H57.1191V32.0723H66.9609V60.5293ZM88.543 31.417C89.6873 31.417 91.17 31.7773 92.0771 32.043L90.3047 40.0303C89.4332 39.6785 89.1969 39.6094 88.0527 39.6094C83.3252 39.6095 80.5781 42.9417 80.5781 48.5127V60.5293H71.1064V32.0723H80.043V37.3154H80.1514C81.8411 33.7109 84.2937 31.4171 88.543 31.417ZM110.655 31.417C111.8 31.417 113.282 31.7773 114.188 32.043L112.417 40.0303C111.546 39.6784 111.309 39.6094 110.165 39.6094C105.437 39.6094 102.69 42.9416 102.69 48.5127V60.5293H93.2178V32.0723H102.155V37.3154H102.264C103.953 33.7108 106.405 31.417 110.655 31.417ZM162.557 31.417C163.701 31.417 165.183 31.7773 166.09 32.043L164.318 40.0303C163.447 39.6784 163.21 39.6094 162.065 39.6094C157.338 39.6094 154.591 42.9416 154.591 48.5127V60.5293H145.119V32.0723H154.056V37.3154H154.164C155.854 33.7107 158.306 31.417 162.557 31.417ZM127.654 39.3975C123.881 39.3975 121.91 41.9553 121.91 46.2148C121.91 50.421 123.881 53.1199 127.741 53.1201C131.603 53.1201 133.786 50.4211 133.786 46.2148C133.786 41.9552 131.604 39.3975 127.654 39.3975ZM62.0459 17.0977C65.211 17.0979 67.7771 19.62 67.7773 22.7305C67.7773 25.8411 65.2111 28.3631 62.0459 28.3633C58.8799 28.3632 56.3135 25.8412 56.3135 22.7305C56.3137 19.6199 58.8801 17.0977 62.0459 17.0977Z" fill="white"/>
<path d="M39.3791 97.0954L49.9253 107.285C49.9253 107.285 68.8709 78.2642 106.948 61.6957C138.764 47.8515 144.307 49.7194 145.269 50.708C145.439 50.9181 145.47 51.063 145.47 51.063C145.47 51.063 145.458 50.9025 145.269 50.708C144.259 49.4586 138.361 45.9058 105.147 56.8446C66.3487 69.6227 39.3791 97.0954 39.3791 97.0954Z" fill="#362A3E"/>
<path d="M29.7594 79.4801L38.5086 91.2493C38.5086 91.2493 61.9205 65.6945 102.185 55.5374C131.786 48.0701 137.745 49.9744 138.825 51.5067C139.107 52.1163 138.97 52.5624 138.97 52.5624C138.97 52.5624 139.214 52.0587 138.825 51.5067C137.882 49.4704 132.257 45.6095 101.196 50.458C60.8369 56.7579 29.7594 79.4801 29.7594 79.4801Z" fill="#1B1B28"/>
<g opacity="0.7" style="mix-blend-mode:hard-light">
<path d="M47.9496 115.066L84.2643 122.286C84.2643 122.286 78.1982 91.247 118.497 64.2374C137.773 51.3177 145.466 46.8283 148.247 45.6602C149.633 45.7509 148.469 47.0627 148.469 47.0627C148.469 47.0627 151.279 44.3863 148.247 45.6602C146.188 45.5255 138.499 48.086 113.003 61.6477C70.345 84.3378 47.9496 115.066 47.9496 115.066Z" fill="#583349"/>
</g>
<path d="M105.593 48.4954L104.437 47.2732L104.316 49.0473L102.884 49.978L104.499 50.5344L104.954 52.162L105.987 50.8131L107.782 50.8107L106.625 49.5886L107.318 47.9214L105.593 48.4954Z" fill="white"/>
<path d="M84.981 57.8236L83.8246 56.6014L83.7035 58.3755L82.2722 59.3061L83.887 59.8625L84.3421 61.4901L85.3747 60.1413L87.1693 60.1389L86.013 58.9167L86.7057 57.2495L84.981 57.8236Z" fill="#CDCDCD"/>
<path opacity="0.8" d="M72.981 56.8236L71.8246 55.6014L71.7035 57.3755L70.2722 58.3061L71.887 58.8625L72.3421 60.4901L73.3747 59.1413L75.1693 59.1389L74.013 57.9167L74.7057 56.2495L72.981 56.8236Z" fill="white"/>
<path d="M66.981 67.8255L65.8246 66.6033L65.7035 68.3774L64.2722 69.3081L65.887 69.8645L66.3421 71.4921L67.3747 70.1432L69.1693 70.1408L68.013 68.9186L68.7057 67.2515L66.981 67.8255Z" fill="#CDCDCD"/>
<path d="M39.981 71.8294L38.8246 70.6072L38.7035 72.3813L37.2722 73.312L38.887 73.8684L39.3421 75.496L40.3747 74.1471L42.1693 74.1447L41.013 72.9225L41.7057 71.2554L39.981 71.8294Z" fill="#CDCDCD"/>
<path d="M52.981 64.8353L51.8246 63.6131L51.7035 65.3872L50.2722 66.3178L51.887 66.8742L52.3421 68.5018L53.3747 67.153L55.1693 67.1506L54.013 65.9284L54.7057 64.2612L52.981 64.8353Z" fill="#CDCDCD"/>
<path d="M53.9819 74.8431L52.8256 73.6209L52.7044 75.395L51.2731 76.3257L52.8879 76.8821L53.3431 78.5096L54.3757 77.1608L56.1703 77.1584L55.0139 75.9362L55.7066 74.269L53.9819 74.8431Z" fill="#CDCDCD"/>
<path opacity="0.8" d="M104.436 57.8236L103.28 56.6014L103.159 58.3755L101.727 59.3061L103.342 59.8625L103.797 61.4901L104.83 60.1413L106.624 60.1389L105.468 58.9167L106.161 57.2495L104.436 57.8236Z" fill="white"/>
<path opacity="0.6" d="M92.8765 64.4329L91.7201 63.2107L91.599 64.9848L90.1677 65.9155L91.7825 66.4719L92.2376 68.0995L93.2702 66.7506L95.0649 66.7482L93.9085 65.5261L94.6012 63.8589L92.8765 64.4329Z" fill="white"/>
<path opacity="0.5" d="M82.9663 69.3099L81.8099 68.0877L81.6888 69.8618L80.2575 70.7925L81.8723 71.3489L82.3274 72.9764L83.36 71.6276L85.1547 71.6252L83.9983 70.403L84.691 68.7358L82.9663 69.3099Z" fill="white"/>
<path opacity="0.5" d="M113.563 54.9036L112.407 53.6815L112.285 55.4555L110.854 56.3862L112.469 56.9426L112.924 58.5702L113.957 57.2213L115.751 57.219L114.595 55.9968L115.288 54.3296L113.563 54.9036Z" fill="white"/>
<path opacity="0.4" d="M74.7066 75.6966L73.5502 74.4744L73.429 76.2485L71.9977 77.1792L73.6125 77.7356L74.0677 79.3631L75.1003 78.0143L76.8949 78.0119L75.7385 76.7897L76.4313 75.1226L74.7066 75.6966Z" fill="white"/>
<path opacity="0.6" d="M103.288 68.5911L102.131 67.369L102.01 69.143L100.579 70.0737L102.194 70.6301L102.649 72.2577L103.681 70.9088L105.476 70.9065L104.32 69.6843L105.012 68.0171L103.288 68.5911Z" fill="white"/>
<path opacity="0.6" d="M92.3687 74.2689L91.2123 73.0467L91.0912 74.8208L89.6598 75.7514L91.2747 76.3078L91.7298 77.9354L92.7624 76.5866L94.557 76.5842L93.4006 75.362L94.0934 73.6948L92.3687 74.2689Z" fill="#CDCDCD"/>
<path opacity="0.5" d="M112.631 66.4486L111.475 65.2264L111.354 67.0005L109.923 67.9311L111.537 68.4875L111.992 70.1151L113.025 68.7663L114.82 68.7639L113.663 67.5417L114.356 65.8745L112.631 66.4486Z" fill="white"/>
<path opacity="0.7" d="M83.1763 81.013L82.0199 79.7908L81.8988 81.5649L80.4675 82.4956L82.0823 83.052L82.5374 84.6796L83.57 83.3307L85.3647 83.3283L84.2083 82.1061L84.901 80.439L83.1763 81.013Z" fill="white"/>
<path d="M93.3882 50.1927L92.2318 48.9705L92.1107 50.7446L90.6794 51.6753L92.2942 52.2317L92.7493 53.8592L93.7819 52.5104L95.5766 52.508L94.4202 51.2858L95.1129 49.6187L93.3882 50.1927Z" fill="white"/>
<circle cx="131.435" cy="45.8902" r="19.5172" transform="rotate(67.2394 131.435 45.8902)" fill="#BEE6FF" stroke="white"/>
<circle cx="130.678" cy="44.0814" r="18.0565" transform="rotate(67.2394 130.678 44.0814)" fill="#D8F8FF"/>
<path opacity="0.2" d="M113.066 44.8222L113.735 40.8086L118.418 44.1533L113.066 46.829V44.8222Z" fill="#5600C4"/>
<g opacity="0.2">
<path d="M116.413 38.1337L121.096 36.127L118.42 44.1541L113.737 40.8095L116.413 38.1337Z" fill="#5600C4"/>
<path d="M116.413 38.1337L121.096 36.127L118.42 44.1541L113.737 40.8095L116.413 38.1337Z" fill="black" fill-opacity="0.2"/>
</g>
<g opacity="0.2">
<path d="M124.439 40.8105L120.426 36.7969L118.419 44.1551L117.75 52.1823H119.088L123.101 50.8444L124.439 40.8105Z" fill="#5600C4"/>
<path d="M124.439 40.8105L120.426 36.7969L118.419 44.1551L117.75 52.1823H119.088L123.101 50.8444L124.439 40.8105Z" fill="white" fill-opacity="0.2"/>
</g>
<g opacity="0.2">
<path d="M131.13 45.4902L122.434 50.1728L125.778 56.1931L130.461 54.1863L131.13 45.4902Z" fill="#3830B4"/>
<path d="M131.13 45.4902L122.434 50.1728L125.778 56.1931L130.461 54.1863L131.13 45.4902Z" fill="black" fill-opacity="0.2"/>
</g>
<g opacity="0.2">
<path d="M139.155 51.5106L131.128 45.4902L130.459 54.8553L139.155 51.5106Z" fill="#1200FF"/>
<path d="M139.155 51.5106L131.128 45.4902L130.459 54.8553L139.155 51.5106Z" fill="black" fill-opacity="0.2"/>
<path d="M139.155 51.5106L131.128 45.4902L130.459 54.8553L139.155 51.5106Z" fill="black" fill-opacity="0.2"/>
<path d="M139.155 51.5106L131.128 45.4902L130.459 54.8553L139.155 51.5106Z" fill="black" fill-opacity="0.2"/>
</g>
<g opacity="0.2">
<path d="M131.128 45.491L131.797 36.7949L139.824 42.8153V52.1804L131.128 45.491Z" fill="#534DAF"/>
<path d="M131.128 45.491L131.797 36.7949L139.824 42.8153V52.1804L131.128 45.491Z" fill="white" fill-opacity="0.2"/>
</g>
<path opacity="0.2" d="M139.826 34.1211L145.178 32.7832L145.177 35.4596L145.846 37.4664L145.178 41.48L139.826 42.8178V34.1211Z" fill="white"/>
<g opacity="0.2">
<path d="M132.466 31.4453L139.824 34.121L132.466 37.4664V31.4453Z" fill="#BDB7FF"/>
<path d="M132.466 31.4453L139.824 34.121L132.466 37.4664V31.4453Z" fill="black" fill-opacity="0.2"/>
</g>
<path opacity="0.2" d="M139.825 34.123V42.8192L132.466 37.4677L139.825 34.123Z" fill="#6864A8"/>
<g opacity="0.2">
<path d="M139.824 34.12L132.466 31.4443L135.142 30.1064L139.824 29.4375L145.176 32.7822L139.824 34.12Z" fill="white"/>
<path d="M139.824 34.12L132.466 31.4443L135.142 30.1064L139.824 29.4375L145.176 32.7822L139.824 34.12Z" fill="white" fill-opacity="0.2"/>
</g>
<path opacity="0.2" d="M131.128 26.0957L132.466 31.4472L133.803 30.7782L136.479 30.1093L140.492 29.4404L139.824 28.1025L137.148 26.7646L134.473 26.0957H131.128Z" fill="white"/>
<g opacity="0.2">
<path d="M131.128 26.0957L132.466 31.4472L125.108 30.7776L123.77 27.4336L125.776 26.7646L128.452 26.0957H131.128Z" fill="white"/>
<path d="M131.128 26.0957L132.466 31.4472L125.108 30.7776L123.77 27.4336L125.776 26.7646L128.452 26.0957H131.128Z" fill="#C3C0EC"/>
</g>
<g opacity="0.2">
<path d="M141.161 61.5448L136.479 58.869L143.837 53.5176L142.499 58.869L141.161 61.5448Z" fill="#264EFF"/>
<path d="M141.161 61.5448L136.479 58.869L143.837 53.5176L142.499 58.869L141.161 61.5448Z" fill="black" fill-opacity="0.2"/>
<path d="M141.161 61.5448L136.479 58.869L143.837 53.5176L142.499 58.869L141.161 61.5448Z" fill="black" fill-opacity="0.2"/>
</g>
<g opacity="0.2">
<path d="M138.487 50.8418L136.48 58.869L143.17 54.1865L138.487 50.8418Z" fill="#264EFF"/>
<path d="M138.487 50.8418L136.48 58.869L143.17 54.1865L138.487 50.8418Z" fill="white" fill-opacity="0.2"/>
</g>
<path opacity="0.2" d="M136.48 58.87L138.487 51.5117L135.142 52.8496L130.46 54.1874L127.784 60.2078L136.48 58.87Z" fill="#264EFF"/>
<g opacity="0.2">
<path d="M127.784 60.207L136.48 58.8691L141.163 61.5449L136.48 64.2206L131.798 62.2138L127.784 60.207Z" fill="#264EFF"/>
<path d="M127.784 60.207L136.48 58.8691L141.163 61.5449L136.48 64.2206L131.798 62.2138L127.784 60.207Z" fill="black" fill-opacity="0.3"/>
</g>
<path opacity="0.2" d="M131.127 45.491L132.465 36.7949L124.437 40.1396L123.1 50.1736L131.127 45.491Z" fill="#4239C7"/>
<g opacity="0.2">
<path d="M113.066 46.8287L116.411 50.8423L120.425 54.187L125.776 51.5112L118.417 44.1523L113.066 46.8287Z" fill="#5600C4"/>
<path d="M113.066 46.8287L116.411 50.8423L120.425 54.187L125.776 51.5112L118.417 44.1523L113.066 46.8287Z" fill="black" fill-opacity="0.4"/>
</g>
<path opacity="0.2" d="M127.115 65.5604L128.453 60.209L131.798 62.2158L135.811 63.5536L135.142 65.5604H127.115Z" fill="#281FB4"/>
<path opacity="0.2" d="M148.52 55.5273L143.838 54.1895L142.5 58.872L141.162 61.5477L142.5 62.2166L145.845 59.5409L148.52 55.5273Z" fill="white"/>
<path opacity="0.2" d="M150.527 39.4707L145.176 40.8086L147.183 44.8228L147.852 48.1675L151.197 48.8364V46.8296V44.8228L150.527 39.4707Z" fill="white"/>
<g opacity="0.2">
<path d="M150.528 39.4719L145.177 40.8097L145.846 37.4657L145.177 33.4521L146.515 32.7832L147.852 34.7893L150.528 39.4719Z" fill="white"/>
<path d="M150.528 39.4719L145.177 40.8097L145.846 37.4657L145.177 33.4521L146.515 32.7832L147.852 34.7893L150.528 39.4719Z" fill="white" fill-opacity="0.4"/>
</g>
<g opacity="0.2">
<path d="M147.185 50.1748L143.84 54.1884L148.522 55.5262L149.86 53.5194L151.198 48.168H148.522L147.185 50.1748Z" fill="white"/>
<path d="M147.185 50.1748L143.84 54.1884L148.522 55.5262L149.86 53.5194L151.198 48.168H148.522L147.185 50.1748Z" fill="white" fill-opacity="0.2"/>
</g>
<path opacity="0.2" d="M113.737 54.8554L118.42 52.1797L119.758 56.1933L121.764 58.869L119.758 61.5447H119.089L118.42 60.8758L116.413 58.869L113.737 54.8554Z" fill="#8A2020"/>
<g opacity="0.2">
<path d="M115.743 50.1718L118.419 52.1786L113.736 54.8543L112.398 51.5097L111.729 47.4961L113.067 46.1582L114.405 48.165L115.743 50.1718Z" fill="#A92323"/>
<path d="M115.743 50.1718L118.419 52.1786L113.736 54.8543L112.398 51.5097L111.729 47.4961L113.067 46.1582L114.405 48.165L115.743 50.1718Z" fill="black" fill-opacity="0.4"/>
</g>
<g opacity="0.2">
<path d="M121.096 59.5371L128.454 60.206L127.116 65.5575L121.096 62.8818L119.758 61.5439L121.096 59.5371Z" fill="#3D32F3"/>
<path d="M121.096 59.5371L128.454 60.206L127.116 65.5575L121.096 62.8818L119.758 61.5439L121.096 59.5371Z" fill="black" fill-opacity="0.5"/>
</g>
<path opacity="0.2" d="M125.108 30.7763L123.77 27.4316L121.095 28.7695L119.088 30.1074L116.412 32.7831L119.757 36.7967L125.108 30.7763Z" fill="#FF1200"/>
<g opacity="0.2">
<path d="M116.412 32.7832L119.757 36.7968L116.412 38.1347L113.736 40.8104L112.398 40.1415L113.067 38.8036L114.405 35.4589L116.412 32.7832Z" fill="#A92323"/>
<path d="M116.412 32.7832L119.757 36.7968L116.412 38.1347L113.736 40.8104L112.398 40.1415L113.067 38.8036L114.405 35.4589L116.412 32.7832Z" fill="black" fill-opacity="0.2"/>
<path d="M116.412 32.7832L119.757 36.7968L116.412 38.1347L113.736 40.8104L112.398 40.1415L113.067 38.8036L114.405 35.4589L116.412 32.7832Z" fill="black" fill-opacity="0.2"/>
</g>
<path d="M148.897 36.0318C157.234 51.5449 143.639 69.4945 126.476 65.2646C111.662 61.6141 106.347 42.9272 116.96 31.9929C126.179 22.4945 142.573 24.2659 148.897 36.0318ZM150.906 48.1012C151.353 42.7838 149.894 37.6072 146.547 33.4053L145.277 33.6575C145.137 33.7506 145.719 36.5108 145.758 36.9803C145.845 38.0231 145.476 39.9562 145.696 40.7457C146.045 41.9884 147.152 43.6041 147.65 44.9908C147.977 45.8971 148.094 46.9662 148.513 47.8551L150.903 48.1009L150.906 48.1012ZM132.98 31.3589L133.002 37.2786L139.583 42.2249L145.115 40.507C145.201 40.3861 145.337 37.9558 145.326 37.6067C145.294 36.707 145.031 34.5906 144.733 33.7946C144.478 33.1127 143.08 32.0215 142.462 31.544C142.046 31.2213 140.611 30.1769 140.22 30.0034C139.222 29.56 133.512 30.6057 132.98 31.3602L132.98 31.3589ZM142.519 61.8674C144.688 60.4976 146.532 58.4998 147.892 56.3447C149.036 54.533 150.466 51.3489 150.701 49.2223C150.728 48.9929 150.755 48.7663 150.602 48.5681L148.409 48.4055C147.866 49.1909 147.454 50.1104 146.906 50.8881C146.122 52.0026 144.362 53.6851 143.824 54.6522C143.637 54.9902 143.58 56.2903 143.444 56.8237C143.023 58.4703 142.52 59.9026 141.629 61.3651L142.517 61.8666L142.519 61.8674ZM139.751 29.3005C139.602 28.2968 139.731 28.1287 138.753 27.688C135.902 26.4063 131.367 26.038 128.3 26.5586C127.667 26.6663 124.306 27.3575 124.203 27.8311L125.282 30.0029C126.519 30.0349 127.762 30.0498 128.99 30.2059C129.885 30.3197 131.927 30.9576 132.609 30.9098C133.33 30.8598 134.956 30.0471 135.928 29.8169C137.222 29.5091 138.5 29.6052 139.751 29.3005ZM124.809 40.9961L123.832 48.8233C123.957 49.3545 126.068 50.9221 126.644 51.38C127.122 51.76 130.279 54.1846 130.559 54.1648L137.994 51.1517L139.129 42.6632L132.691 37.7283C130.014 38.638 127.233 39.536 124.809 40.9961ZM130.628 54.8647L129.365 60.4547C130.228 61.0968 131.137 61.7115 132.102 62.1885C132.662 62.4654 135.211 63.4974 135.692 63.5238C136.582 63.574 140.537 61.8528 141.187 61.1856C141.554 60.8083 142.433 58.692 142.626 58.0977C142.784 57.6089 143.357 55.2803 143.301 54.9174C143.231 54.466 141.475 53.4421 140.982 53.1258C140.569 52.862 138.549 51.6164 138.254 51.6507C136.379 52.3379 134.573 53.2082 132.719 53.9452C132.122 54.1826 130.991 54.2021 130.629 54.8641L130.628 54.8647ZM124.516 29.9117C124.257 29.2349 123.938 28.5763 123.673 27.9018C118.866 30.0066 114.653 34.208 113.121 39.2263L113.892 40.1594C114.918 39.3527 115.844 38.4194 116.973 37.7422C117.719 37.2936 119.368 36.7256 119.901 36.2966C120.254 36.0134 121.709 33.4043 122.308 32.6852C122.664 32.2587 124.682 30.323 124.678 30.0916C124.689 29.9778 124.528 29.9442 124.515 29.9123L124.516 29.9117ZM135.33 63.8516C134.016 63.4654 132.664 63.0059 131.451 62.3718C130.783 62.023 129.428 60.9387 128.884 60.7854C128.078 60.5595 126.369 60.7368 125.386 60.6293C123.978 60.4767 122.64 60.0404 121.263 59.7492L119.908 61.6756C123.237 64.0785 127.462 65.4687 131.585 65.4163C132.2 65.4078 134.224 65.3181 134.696 65.1445C135.102 64.9955 135.335 64.2784 135.331 63.851L135.33 63.8516ZM120.035 36.79C118.528 37.391 114.639 39.411 114.048 40.9123C113.839 41.4436 113.287 46.2135 113.439 46.6143C114.736 48.556 116.274 50.3511 118.061 51.8575C118.829 51.5323 119.699 51.1702 120.458 50.767C121.008 50.4759 123.146 49.2549 123.332 48.8394C123.406 48.6745 123.458 47.9239 123.501 47.6451C123.844 45.4145 123.997 43.1417 124.335 40.9101L120.035 36.79ZM120.681 58.96C120.374 58.3143 119.837 57.5827 119.539 56.9478C118.911 55.6024 118.424 53.4057 117.757 52.3192C117.23 51.4595 115.23 49.7591 114.393 48.7489C114.147 48.4509 113.248 47.0269 113.043 47.0706L111.951 47.9821C112.51 53.1773 115.224 58.0967 119.391 61.2552C119.66 61.3034 120.873 59.5933 120.836 59.2991C120.836 59.1603 120.729 59.0669 120.678 58.9625L120.681 58.96Z" fill="black"/>
</g>
<defs>
<clipPath id="clip0_2528_29963">
<rect width="185" height="80" fill="white"/>
</clipPath>
</defs>
</svg>
