<svg xmlns="http://www.w3.org/2000/svg" width="35" height="35" viewBox="0 0 35 35"><path fill="#696969" d="M19.9 8.4H11v18.2h13V12.8l-4.1-4.4zm.2 1.2l2.8 3h-2.8v-3zm3.3 16.3H11.7V9.1h7.8v4.2h3.9v12.6zm-6-10.2c.5-2.3.2-2.8.1-3-.1-.2-.3-.3-.5-.3h-.3c-.2.1-.4.2-.5.5-.3.7.1 1.9.5 2.8-.3 1.4-.9 3.1-1.5 4.5-1.5.7-2.2 1.4-2.3 2.1 0 .2 0 .6.4.9.1.1.2.1.4.1.3 0 .7-.3 1.1-.9.3-.4.6-1 .9-1.8 1-.5 2.3-.9 3.4-1.2.6.6 1.2 1 1.6 1 .3 0 .6-.2.9-.5.2-.3.3-.6.2-.9-.1-.3-.5-.5-1.1-.5-.4 0-.8 0-1.3.1-.7-.6-1.4-1.8-2-2.9zm-3.6 7c-.2-.1-.2-.2-.2-.3 0-.2.4-.6 1.2-1.1-.6 1.2-1 1.4-1 1.4zm3.1-9.4c0-.1.1-.1.1-.1.1.1.1.5 0 1.3-.2-.5-.2-1-.1-1.2zm-.7 6.5c.4-1 .8-2.1 1-3.1.4.8 1 1.7 1.5 2.3-.9.2-1.7.5-2.5.8zm4.5-.4c.3 0 .5.1.5.1s0 .1-.1.2c-.1.2-.2.2-.3.2-.2 0-.5-.1-.8-.4.3-.1.5-.1.7-.1z"/></svg>