<svg xmlns="http://www.w3.org/2000/svg" xmlns:xlink="http://www.w3.org/1999/xlink" version="1.1" style="shape-rendering:geometricPrecision; text-rendering:geometricPrecision; image-rendering:optimizeQuality; fill-rule:evenodd; clip-rule:evenodd" viewBox="44.62 378.5 1862.05 319.38">
<g><path style="opacity:1" fill="#fefffe" d="M 46.5,378.5 C 68.5,378.5 90.5,378.5 112.5,378.5C 112.5,400.833 112.5,423.167 112.5,445.5C 90.5,445.5 68.5,445.5 46.5,445.5C 46.5,423.167 46.5,400.833 46.5,378.5 Z M 64.5,392.5 C 70.5092,392.334 76.5092,392.501 82.5,393C 92.7475,395.662 95.0808,401.495 89.5,410.5C 96.6638,417.846 95.9972,424.346 87.5,430C 79.9048,431.356 72.2382,431.856 64.5,431.5C 64.5,418.5 64.5,405.5 64.5,392.5 Z"/></g>
<g><path style="opacity:0.999" fill="#fefffe" d="M 129.5,378.5 C 151.5,378.5 173.5,378.5 195.5,378.5C 195.5,400.833 195.5,423.167 195.5,445.5C 173.5,445.5 151.5,445.5 129.5,445.5C 129.5,423.167 129.5,400.833 129.5,378.5 Z M 148.5,392.5 C 154.509,392.334 160.509,392.501 166.5,393C 172.285,393.619 175.619,396.786 176.5,402.5C 176.114,405.67 174.78,408.337 172.5,410.5C 180.122,416.19 180.455,422.357 173.5,429C 165.333,431.233 157,432.066 148.5,431.5C 148.5,418.5 148.5,405.5 148.5,392.5 Z"/></g>
<g><path style="opacity:0.999" fill="#fefffe" d="M 213.5,378.5 C 235.5,378.5 257.5,378.5 279.5,378.5C 279.5,400.833 279.5,423.167 279.5,445.5C 257.5,445.5 235.5,445.5 213.5,445.5C 213.5,423.167 213.5,400.833 213.5,378.5 Z M 243.5,392.5 C 249.402,391.962 255.068,392.795 260.5,395C 261.435,397.381 261.768,399.881 261.5,402.5C 256.329,400.651 250.996,400.151 245.5,401C 238.67,405.161 236.836,410.995 240,418.5C 241.227,420.726 243.061,422.226 245.5,423C 250.996,423.849 256.329,423.349 261.5,421.5C 262.96,426.992 260.96,430.158 255.5,431C 236.829,433.328 228.329,425.161 230,406.5C 232.017,399.318 236.517,394.652 243.5,392.5 Z"/></g>
<g><path style="opacity:0.99" fill="#fefffe" d="M 72.5,399.5 C 75.5184,399.335 78.5184,399.502 81.5,400C 84.3988,403.156 84.0655,405.822 80.5,408C 77.854,408.497 75.1873,408.664 72.5,408.5C 72.5,405.5 72.5,402.5 72.5,399.5 Z"/></g>
<g><path style="opacity:0.984" fill="#fefffe" d="M 156.5,399.5 C 160.257,399.071 163.757,399.737 167,401.5C 168.14,404.528 167.306,406.695 164.5,408C 161.854,408.497 159.187,408.664 156.5,408.5C 156.5,405.5 156.5,402.5 156.5,399.5 Z"/></g>
<g><path style="opacity:0.978" fill="#fefffe" d="M 72.5,414.5 C 76.5817,414.344 80.5817,414.844 84.5,416C 86.2747,419.394 85.608,422.06 82.5,424C 79.1832,424.498 75.8499,424.665 72.5,424.5C 72.5,421.167 72.5,417.833 72.5,414.5 Z"/></g>
<g><path style="opacity:0.992" fill="#fefffe" d="M 156.5,414.5 C 160.273,414.263 163.94,414.763 167.5,416C 170.462,419.488 169.795,422.155 165.5,424C 162.518,424.498 159.518,424.665 156.5,424.5C 156.5,421.167 156.5,417.833 156.5,414.5 Z"/></g>
<g><path style="opacity:0.997" fill="#fefffe" d="M 110.5,495.5 C 133.78,494.579 156.78,496.579 179.5,501.5C 180.666,519.824 180.833,538.158 180,556.5C 172.713,538.218 161.88,522.384 147.5,509C 134.127,498.902 120.127,497.902 105.5,506C 94.4617,516.73 92.6283,528.897 100,542.5C 103.201,546.036 106.701,549.203 110.5,552C 126.68,560.256 143.013,568.256 159.5,576C 197.192,596.91 206.358,626.743 187,665.5C 171.964,684.771 152.131,695.271 127.5,697C 101.842,698.538 76.5082,696.371 51.5,690.5C 51.167,670.822 51.5004,651.155 52.5,631.5C 57.979,651.972 68.6457,669.138 84.5,683C 102.053,696.297 119.553,696.463 137,683.5C 144.015,675.39 146.349,666.057 144,655.5C 141.3,647.267 136.133,641.1 128.5,637C 115.445,629.806 102.112,623.139 88.5,617C 74.2323,610.063 62.3989,600.23 53,587.5C 40.3593,563.411 42.0259,540.411 58,518.5C 66.7395,509.446 77.2395,503.28 89.5,500C 96.5695,498.155 103.57,496.655 110.5,495.5 Z"/></g>
<g><path style="opacity:0.996" fill="#fefffe" d="M 394.5,495.5 C 412.183,494.484 422.183,502.65 424.5,520C 420.879,537.903 409.879,545.236 391.5,542C 377.787,538.402 371.621,529.568 373,515.5C 375.876,504.121 383.042,497.455 394.5,495.5 Z"/></g>
<g><path style="opacity:0.999" fill="#fefffe" d="M 1129.5,499.5 C 1180.33,498.501 1231.33,498.168 1282.5,498.5C 1282.67,518.169 1282.5,537.836 1282,557.5C 1276.81,544.126 1269.81,531.792 1261,520.5C 1246.9,505.636 1229.73,500.302 1209.5,504.5C 1208.51,534.456 1208.17,564.456 1208.5,594.5C 1223.31,596.618 1235.81,592.285 1246,581.5C 1249.82,577.186 1253.16,572.519 1256,567.5C 1256.67,587.5 1256.67,607.5 1256,627.5C 1248.89,615.055 1238.73,606.222 1225.5,601C 1219.84,600.501 1214.18,600.334 1208.5,600.5C 1208.33,622.836 1208.5,645.169 1209,667.5C 1214.66,678.828 1222.82,687.995 1233.5,695C 1198.5,695.667 1163.5,695.667 1128.5,695C 1136.7,688.082 1142.54,679.582 1146,669.5C 1146.67,621.5 1146.67,573.5 1146,525.5C 1142.75,515.312 1137.25,506.645 1129.5,499.5 Z"/></g>
<g><path style="opacity:0.996" fill="#fefffe" d="M 281.5,553.5 C 301.236,552.907 320.569,555.407 339.5,561C 340.428,561.388 341.095,562.055 341.5,563C 336.245,577.773 330.411,592.273 324,606.5C 321.3,593.063 316.634,580.397 310,568.5C 298.344,554.71 287.678,555.376 278,570.5C 272.337,581.482 269.004,593.149 268,605.5C 267.333,616.167 267.333,626.833 268,637.5C 269.352,656.752 278.519,670.585 295.5,679C 312.979,684.037 328.813,680.871 343,669.5C 343.5,670 344,670.5 344.5,671C 320.6,695.724 291.934,703.391 258.5,694C 230.295,683.774 214.795,663.607 212,633.5C 211.14,585.865 234.307,559.198 281.5,553.5 Z"/></g>
<g><path style="opacity:0.997" fill="#fefffe" d="M 517.5,553.5 C 538.389,551.438 557.389,556.271 574.5,568C 588.571,582.711 594.571,600.211 592.5,620.5C 564.934,621.171 537.434,621.837 510,622.5C 509.32,638.449 513.32,653.116 522,666.5C 536.224,681.413 553.057,685.247 572.5,678C 577.335,676.086 581.669,673.419 585.5,670C 586.332,669.312 586.998,669.479 587.5,670.5C 572.069,689.208 552.069,698.208 527.5,697.5C 501.794,698.056 480.627,688.722 464,669.5C 451.823,650.109 448.156,629.109 453,606.5C 458.192,581.93 472.692,565.763 496.5,558C 503.57,556.155 510.57,554.655 517.5,553.5 Z M 522.5,558.5 C 531.465,557.621 536.965,561.621 539,570.5C 542.108,586.069 542.942,601.736 541.5,617.5C 530.833,617.5 520.167,617.5 509.5,617.5C 509.142,603.756 509.975,590.089 512,576.5C 512.737,568.668 516.237,562.668 522.5,558.5 Z"/></g>
<g><path style="opacity:0.999" fill="#fefffe" d="M 711.5,553.5 C 732.561,551.213 748.061,559.213 758,577.5C 760.935,584.571 762.935,591.904 764,599.5C 764.823,623.876 764.657,648.209 763.5,672.5C 765.766,681.028 770.099,688.362 776.5,694.5C 749.5,695.833 722.5,695.833 695.5,694.5C 700.594,689.314 704.427,683.314 707,676.5C 708.46,652.517 708.794,628.517 708,604.5C 707.389,597.722 705.389,591.389 702,585.5C 691.479,577.248 681.479,577.915 672,587.5C 671.333,616.833 671.333,646.167 672,675.5C 674.953,682.784 679.119,689.284 684.5,695C 657.494,695.833 630.494,695.667 603.5,694.5C 608.335,689.491 612.169,683.824 615,677.5C 615.667,642.833 615.667,608.167 615,573.5C 611.692,567.05 607.526,561.217 602.5,556C 625.498,555.5 648.498,555.333 671.5,555.5C 671.169,563.196 671.503,570.862 672.5,578.5C 681.603,564.06 694.603,555.727 711.5,553.5 Z"/></g>
<g><path style="opacity:0.997" fill="#fefffe" d="M 855.5,553.5 C 876.132,552.59 896.132,555.59 915.5,562.5C 909.667,577.5 903.833,592.5 898,607.5C 895.206,592.774 889.872,579.107 882,566.5C 873.307,556.272 864.307,555.939 855,565.5C 847.502,576.657 843.169,588.991 842,602.5C 839.444,619.385 840.444,636.052 845,652.5C 854.534,675.687 871.701,684.853 896.5,680C 903.893,677.804 910.56,674.304 916.5,669.5C 916.833,669.833 917.167,670.167 917.5,670.5C 904.994,686.092 888.661,694.925 868.5,697C 838.135,701.005 813.968,690.838 796,666.5C 782.375,640.338 782.042,614.005 795,587.5C 802.586,575.776 812.753,566.943 825.5,561C 835.322,557.211 845.322,554.711 855.5,553.5 Z"/></g>
<g><path style="opacity:0.998" fill="#fefffe" d="M 989.5,553.5 C 1008.91,551.88 1026.91,556.047 1043.5,566C 1059.64,580.891 1066.64,599.391 1064.5,621.5C 1036.93,621.172 1009.43,621.505 982,622.5C 980.848,638.077 984.515,652.41 993,665.5C 1008.02,681.839 1025.85,685.672 1046.5,677C 1050.34,674.916 1054,672.583 1057.5,670C 1058.33,669.312 1059,669.479 1059.5,670.5C 1040.76,692.03 1017.09,700.863 988.5,697C 946.793,691.627 924.793,667.96 922.5,626C 923.966,582.373 946.299,558.206 989.5,553.5 Z M 994.5,558.5 C 1002.68,557.184 1007.85,560.517 1010,568.5C 1011.64,573.714 1012.64,579.047 1013,584.5C 1013.5,595.495 1013.67,606.495 1013.5,617.5C 1002.83,617.667 992.161,617.5 981.5,617C 980.978,616.439 980.645,615.772 980.5,615C 981.002,601.453 982.169,587.953 984,574.5C 984.806,567.178 988.306,561.844 994.5,558.5 Z"/></g>
<g><path style="opacity:0.998" fill="#fefffe" d="M 1353.5,553.5 C 1378.95,551.11 1401.95,557.276 1422.5,572C 1439.42,590.141 1446.25,611.641 1443,636.5C 1439.43,666.739 1422.93,685.906 1393.5,694C 1369.07,699.677 1345.07,698.343 1321.5,690C 1299.65,680.156 1287.15,663.323 1284,639.5C 1278.72,587.627 1301.89,558.961 1353.5,553.5 Z M 1358.5,558.5 C 1367.16,557.074 1372.99,560.407 1376,568.5C 1379.14,580.282 1380.81,592.282 1381,604.5C 1381.98,626.555 1381.31,648.555 1379,670.5C 1378.11,676.4 1376.44,682.067 1374,687.5C 1369.05,692.685 1363.22,693.851 1356.5,691C 1353.47,688.441 1351.3,685.274 1350,681.5C 1347.8,672.967 1346.47,664.301 1346,655.5C 1345.12,631.81 1345.46,608.144 1347,584.5C 1347.6,577.084 1349.6,570.084 1353,563.5C 1354.73,561.598 1356.56,559.931 1358.5,558.5 Z"/></g>
<g><path style="opacity:0.997" fill="#fefffe" d="M 1527.5,553.5 C 1548.13,552.605 1568.13,555.605 1587.5,562.5C 1581.57,577.127 1575.74,591.794 1570,606.5C 1567.11,593.5 1562.44,581.166 1556,569.5C 1547.1,556.219 1537.1,555.219 1526,566.5C 1516.49,583.534 1511.99,601.868 1512.5,621.5C 1511.84,637.708 1515.67,652.708 1524,666.5C 1537.1,680.659 1552.93,684.825 1571.5,679C 1577.78,676.861 1583.45,673.695 1588.5,669.5C 1588.83,669.833 1589.17,670.167 1589.5,670.5C 1570.8,692.019 1547.13,700.853 1518.5,697C 1484.57,691.738 1464.4,672.238 1458,638.5C 1454.25,587.931 1477.42,559.597 1527.5,553.5 Z"/></g>
<g><path style="opacity:0.997" fill="#fefffe" d="M 1840.5,553.5 C 1861.48,553.211 1882.14,555.544 1902.5,560.5C 1898.17,572.664 1893.33,584.664 1888,596.5C 1882.87,584.035 1875.37,573.201 1865.5,564C 1856.25,557.535 1846.58,556.868 1836.5,562C 1829.93,568.945 1828.76,576.778 1833,585.5C 1834.83,588.667 1837.33,591.167 1840.5,593C 1855.56,600.863 1870.89,608.196 1886.5,615C 1903.82,625.929 1909.98,641.429 1905,661.5C 1898.82,678.872 1886.65,689.705 1868.5,694C 1843.37,699.019 1818.37,698.353 1793.5,692C 1789.58,691.25 1785.91,689.917 1782.5,688C 1787.41,675.776 1792.41,663.609 1797.5,651.5C 1803.36,665.731 1812.02,677.898 1823.5,688C 1828.45,690.929 1833.79,692.763 1839.5,693.5C 1845.21,692.763 1850.55,690.929 1855.5,688C 1861.12,683.032 1862.95,676.865 1861,669.5C 1858.5,665.667 1855.33,662.5 1851.5,660C 1836.86,652.682 1822.2,645.349 1807.5,638C 1790.21,625.805 1783.71,609.305 1788,588.5C 1793.47,571.496 1804.97,560.996 1822.5,557C 1828.58,555.503 1834.58,554.336 1840.5,553.5 Z"/></g>
<g><path style="opacity:1" fill="#fefffe" d="M 357.5,556.5 C 380.327,555.502 403.327,555.169 426.5,555.5C 426.333,596.501 426.5,637.501 427,678.5C 430.56,684.449 434.726,689.949 439.5,695C 412.167,695.667 384.833,695.667 357.5,695C 362.48,689.359 366.646,683.192 370,676.5C 370.667,642.5 370.667,608.5 370,574.5C 366.779,567.79 362.613,561.79 357.5,556.5 Z"/></g>
<g><path style="opacity:0.999" fill="#fefffe" d="M 1599.5,556.5 C 1621.99,555.503 1644.66,555.169 1667.5,555.5C 1667.09,587.855 1667.59,620.188 1669,652.5C 1671.28,670.054 1680.44,675.22 1696.5,668C 1698,666.5 1699.5,665 1701,663.5C 1701.67,633.833 1701.67,604.167 1701,574.5C 1697.65,567.808 1693.48,561.641 1688.5,556C 1711.5,555.5 1734.5,555.333 1757.5,555.5C 1757.33,595.168 1757.5,634.835 1758,674.5C 1758.8,677.244 1759.8,679.911 1761,682.5C 1764.53,686.397 1767.7,690.564 1770.5,695C 1747.5,695.5 1724.5,695.667 1701.5,695.5C 1701.67,686.161 1701.5,676.827 1701,667.5C 1688.27,692.859 1668.11,702.026 1640.5,695C 1627.04,689.531 1618.54,679.697 1615,665.5C 1613.36,659.608 1612.36,653.608 1612,647.5C 1611.83,623.164 1611.83,598.831 1612,574.5C 1608.78,567.79 1604.61,561.79 1599.5,556.5 Z"/></g>
</svg>