<svg id="b9bcb6a5-c3aa-4000-b376-3486f647ba83" data-name="Layer 1" xmlns="http://www.w3.org/2000/svg" viewBox="0 0 338.53 301.4">
  <defs>
    <style>
      .a79c32dd-d837-436b-82d2-a0939e629010 {
        fill: #3a3a3a;
      }

      .a890d759-df0d-4eca-a36f-964b340c6a06 {
        fill: #006ab4;
      }
    </style>
  </defs>
  <g>
    <path id="be8abcae-4e49-4d4b-b511-b905329eba53" data-name="Trazado 1684" class="a79c32dd-d837-436b-82d2-a0939e629010" d="M262.94,290.47h32v4.76H257.85v-58.6h36.34v4.75H262.94v21.34h29.5v4.66h-29.5Z"/>
    <path id="f4d63b52-b1c5-4e2b-a855-19d728eda523" data-name="Trazado 1685" class="a79c32dd-d837-436b-82d2-a0939e629010" d="M297.27,289.72l2.74-3.67c4.17,3.75,9.42,6.09,17.43,6.09,9.17,0,16.17-3.92,16.17-12,0-7.17-4.34-11-16-13.43-12.92-2.75-18-7.58-18-15.91,0-9.5,8.08-15.42,19.42-15.42,8,0,13.92,2.08,18.67,5.75L335,244.8c-4.66-3.5-9.33-5.09-16.25-5.09-8.83,0-14.25,4.09-14.25,10.84,0,5.83,3.58,9.17,15.33,11.67,13.09,2.83,18.67,7.83,18.67,17.75,0,10.67-9.25,16.67-21.09,16.67C308.1,296.63,301.6,293.72,297.27,289.72Z"/>
  </g>
  <path id="a00d911c-ac1c-43d7-bbb4-8f01ad6bd652" data-name="Trazado 1687" class="a79c32dd-d837-436b-82d2-a0939e629010" d="M156.74,212.63a5.88,5.88,0,0,0-3.3-5.26q-3.31-1.92-10.6-3.43-24.3-5.1-24.29-20.64,0-9.06,7.52-15.13t19.66-6.07q13,0,20.74,6.1a19.24,19.24,0,0,1,7.77,15.85H156.05a8.87,8.87,0,0,0-2.52-6.45c-1.68-1.7-4.3-2.54-7.87-2.55-3.06,0-5.43.7-7.11,2.08a6.56,6.56,0,0,0-2.51,5.29,5.6,5.6,0,0,0,2.86,4.87q2.86,1.86,9.66,3.21A77.94,77.94,0,0,1,160,193.56q14.42,5.28,14.41,18.31,0,9.31-8,15.07t-20.64,5.76a36.14,36.14,0,0,1-15.2-3.06,25.46,25.46,0,0,1-10.41-8.36,19.44,19.44,0,0,1-3.78-11.48h17.24a9.53,9.53,0,0,0,3.59,7.42c2.23,1.72,5.2,2.58,8.94,2.58q5.22,0,7.9-2A6.21,6.21,0,0,0,156.74,212.63Z"/>
  <path id="a5467d04-4c9a-4b86-bff6-143ab4b884ff" data-name="Trazado 1688" class="a79c32dd-d837-436b-82d2-a0939e629010" d="M195.18,163.35l.57,7.62q7.23-8.88,19.57-8.87,13.16,0,18.06,10.38,7.17-10.38,20.45-10.38,11.07,0,16.49,6.45t5.4,19.41v43.48H257.48V188q0-5.79-2.27-8.46t-8-2.68q-8.17,0-11.33,7.8l.07,46.76H217.77V188.08c0-3.94-.77-6.8-2.33-8.56s-4.19-2.64-7.93-2.64q-7.74,0-11.19,6.42v48.14H178.13V163.35Z"/>
  <path id="f499e1b6-2664-4640-9fd3-9348edb8b773" data-name="Trazado 1689" class="a79c32dd-d837-436b-82d2-a0939e629010" d="M310,218a11.93,11.93,0,0,0,8.18-2.77,9.74,9.74,0,0,0,3.28-7.37h17a23.19,23.19,0,0,1-3.77,12.68,24.94,24.94,0,0,1-10.16,8.94,31.82,31.82,0,0,1-14.25,3.18q-14.61,0-23-9.29t-8.44-25.64v-1.2q0-15.72,8.37-25.1t23-9.38q12.77,0,20.48,7.27t7.83,19.35h-17a12.54,12.54,0,0,0-3.27-8.64,10.93,10.93,0,0,0-8.3-3.32q-6.36,0-9.6,4.63t-3.24,15v1.9q0,10.51,3.21,15.12T310,218Z"/>
  <circle id="b5ed9157-86ce-44ee-9db1-9aaed1c6d560" data-name="Elipse 174" class="a890d759-df0d-4eca-a36f-964b340c6a06" cx="53.58" cy="99.64" r="53.58"/>
  <circle id="e971aba2-32cd-4f2c-aeac-b30bd774dbbc" data-name="Elipse 175" class="a890d759-df0d-4eca-a36f-964b340c6a06" cx="177.3" cy="99.64" r="53.58"/>
  <circle id="b59476d8-7d4b-4bf1-9966-a2fff3c05da1" data-name="Elipse 176" class="a890d759-df0d-4eca-a36f-964b340c6a06" cx="219.17" cy="18.4" r="18.4"/>
  <circle id="bde9ab4d-c407-417a-a5bc-a30ca48f10ca" data-name="Elipse 177" class="a890d759-df0d-4eca-a36f-964b340c6a06" cx="53.58" cy="223.35" r="53.58"/>
</svg>
