<svg width="33" height="32" viewBox="0 0 33 32" fill="none" xmlns="http://www.w3.org/2000/svg">
  <circle cx="16.8008" cy="16" r="16" fill="white"/>
  <path fill-rule="evenodd" clip-rule="evenodd" d="M0.800781 16C0.800781 7.16344 7.96423 0 16.8008 0C25.6373 0 32.8008 7.16344 32.8008 16C32.8008 24.8366 25.6373 32 16.8008 32C7.96423 32 0.800781 24.8366 0.800781 16ZM18.4685 25.4077V16.7028H20.8714L21.1898 13.7031H18.4685L18.4726 12.2017C18.4726 11.4193 18.5469 11.0001 19.6706 11.0001H21.1728V8H18.7696C15.8829 8 14.8668 9.4552 14.8668 11.9024V13.7034H13.0674V16.7031H14.8668V25.4077H18.4685Z" fill="#58648C"/>
</svg>
