<?xml version="1.0" encoding="iso-8859-1"?>
<!-- Generator: Adobe Illustrator 28.7.1, SVG Export Plug-In . SVG Version: 9.03 Build 54978)  -->
<svg version="1.1" xmlns="http://www.w3.org/2000/svg" xmlns:xlink="http://www.w3.org/1999/xlink" x="0px" y="0px"
	 viewBox="0 0 989.145508 383.094604" style="enable-background:new 0 0 989.145508 383.094604;" xml:space="preserve">
<g id="tagline">
	<g>
		<path style="fill:#2E0B62;" d="M18.467857,380.744995v-56.248047h10.980469v46.618164h25.378906v9.629883H18.467857z"/>
		<path style="fill:#2E0B62;" d="M78.40731,380.744995v-56.248047h38.338867v9.269531H89.207115v14.129883h22.588867v9.269531
			H89.207115v14.30957h27.539062v9.269531H78.40731z"/>
		<path style="fill:#2E0B62;" d="M189.914154,380.744995h-11.069336l-4.680664-13.319336h-22.678711l-4.589844,13.319336h-11.069336
			l20.518555-56.248047h13.320312L189.914154,380.744995z M162.915131,333.947144l-8.549805,24.388672h17.009766
			L162.915131,333.947144z"/>
		<path style="fill:#2E0B62;" d="M229.42392,380.744995c-2.429688,0-18.359375,0-18.359375,0v-56.248047
			c0,0,14.849609,0,19.080078,0c19.168945,0,30.328125,10.979492,30.328125,27.71875
			C260.472748,369.585815,249.403412,380.744995,229.42392,380.744995z M229.51474,333.766479h-7.469727v37.708984h8.008789
			c11.879883,0,19.439453-6.209961,19.439453-18.719727C249.493256,340.066284,242.383881,333.766479,229.51474,333.766479z"/>
		<path style="fill:#2E0B62;" d="M283.334076,380.744995v-56.248047h10.889648v56.248047H283.334076z"/>
		<path style="fill:#2E0B62;" d="M360.282318,324.496948h10.439453v56.788086h-11.699219l-26.90918-41.398438v40.858398H321.67392
			v-56.248047h11.969727l26.638672,40.948242V324.496948z"/>
		<path style="fill:#2E0B62;" d="M423.192474,382.094604c-17.279297,0-29.249023-11.069336-29.249023-29.338867
			c0-18.178711,11.878906-29.608398,29.338867-29.608398c6.839844,0,14.849609,1.799805,19.888672,4.859375l-3.509766,9.540039
			c-4.949219-3.05957-10.619141-4.950195-16.199219-4.950195c-11.15918,0-18.449219,7.650391-18.449219,19.799805
			c0,12.599609,6.929688,20.428711,18.449219,20.428711c3.959961,0,7.830078-0.989258,10.619141-2.25v-10.798828h-14.758789
			v-9.269531h24.928711v26.27832C438.221771,380.204956,430.301849,382.094604,423.192474,382.094604z"/>
		<path style="fill:#2E0B62;" d="M522.546936,334.126831v46.618164h-10.889618v-46.618164h-18.808594v-9.629883h48.507782v9.629883
			H522.546936z"/>
		<path style="fill:#2E0B62;" d="M601.746155,380.744995v-23.579102h-26.728516v23.579102H564.03717v-56.248047h10.980469v23.128906
			h26.728516v-23.128906h10.889648v56.248047H601.746155z"/>
		<path style="fill:#2E0B62;" d="M650.9776,380.744995h-10.980469v-56.248047c0,0,19.889648,0,19.709961,0
			c14.21875,0,21.779297,6.75,21.779297,17.099609c0,8.009766-4.5,13.589844-12.150391,16.199219l14.759766,22.949219h-12.509766
			l-12.508789-20.609375l-8.099609,0.540039V380.744995z M659.077209,351.856323
			c6.749023-0.360352,11.15918-3.419922,11.15918-9.540039c0-5.849609-4.410156-8.639648-12.239258-8.639648
			c-0.089844,0-7.110352,0-7.110352,0v18.359375L659.077209,351.856323z"/>
		<path style="fill:#2E0B62;" d="M730.715881,382.094604c-16.649414,0-28.888672-10.889648-28.888672-29.338867
			c0-17.369141,12.329102-29.608398,28.978516-29.608398c16.55957,0,28.798828,10.799805,28.798828,29.249023
			C759.604553,369.765503,747.365295,382.094604,730.715881,382.094604z M730.536194,332.327026
			c-10.709961,0-17.639648,8.099609-17.639648,20.069336c0,12.329102,7.019531,20.518555,17.999023,20.518555
			c10.709961,0,17.729492-8.189453,17.729492-20.15918C748.625061,340.426636,741.515686,332.327026,730.536194,332.327026z"/>
		<path style="fill:#2E0B62;" d="M805.956116,382.094604c-14.399414,0-23.399414-8.009766-23.399414-22.678711v-34.918945h10.979492
			v33.478516c0,9.270508,4.049805,14.490234,12.779297,14.490234c7.830078,0,12.240234-4.320312,12.240234-14.040039
			c0,0.360352,0-33.928711,0-33.928711h10.888672c0,0,0,33.388672,0,33.928711
			C829.444397,373.725464,820.895569,382.094604,805.956116,382.094604z"/>
		<path style="fill:#2E0B62;" d="M881.195374,382.094604c-17.279297,0-29.249023-11.069336-29.249023-29.338867
			c0-18.178711,11.879883-29.608398,29.338867-29.608398c6.839844,0,14.849609,1.799805,19.889648,4.859375l-3.509766,9.540039
			c-4.950195-3.05957-10.620117-4.950195-16.199219-4.950195c-11.160156,0-18.449219,7.650391-18.449219,19.799805
			c0,12.599609,6.929688,20.428711,18.449219,20.428711c3.958984,0,7.829102-0.989258,10.619141-2.25v-10.798828h-14.759766
			v-9.269531h24.929688v26.27832C896.22467,380.204956,888.304749,382.094604,881.195374,382.094604z"/>
		<path style="fill:#2E0B62;" d="M965.794006,380.744995v-23.579102h-26.728516v23.579102h-10.979492v-56.248047h10.979492
			v23.128906h26.728516v-23.128906h10.889648v56.248047H965.794006z"/>
	</g>
</g>
<g id="logo">
	<g>
		<g>
			<path style="fill:#2E0B62;" d="M794.950195,218.501053l-0.917969-14.013184
				c46.632812-45.484375,72.131836-65.700195,72.131836-90.509773c0-17.918457-11.945312-28.715332-30.09375-28.715332
				c-12.633789,0-26.417969,7.351074-34.916992,16.080566l-5.053711-12.404785
				c8.958984-8.729492,24.350586-16.77002,41.349609-16.77002c25.728516,0,43.416992,16.310547,43.416992,41.350098
				c0,27.566414-24.120117,46.862801-71.213867,91.888191c0.230469,0,75.348633,0,75.348633,0l0.689453,13.094238H794.950195z"/>
			<path style="fill:#2E0B62;" d="M972.294922,71.939034l3.674805,11.945312
				c-39.051758,9.418945-61.794922,34.458496-68.226562,63.63282l0.458984,0.22998
				c10.337891-9.418945,24.580078-16.080566,38.823242-16.080566c21.59375,0,41.120117,15.161621,41.120117,42.498535
				c0,27.336426-18.836914,47.322266-46.633789,47.322266c-31.701172,0-48.470703-25.269043-48.470703-57.430176
				C893.041016,125.923409,917.621094,84.573799,972.294922,71.939034z M941.97168,208.623123
				c19.295898,0,32.161133-14.242676,32.161133-33.769043s-13.094727-30.323242-29.864258-30.323242
				c-14.012695,0-26.876953,5.743164-36.525391,14.932129c-0.459961,2.296875-0.689453,4.594238-0.689453,7.121094
				C907.053711,189.096756,919.458984,208.623123,941.97168,208.623123z"/>
		</g>
		<g>
			<path style="fill:#2E0B62;" d="M84.379883,218.501053H37.478516L1,76.889717h48.03418l12.915039,92.443855l21.524414-92.443855
				h50.980469l21.524414,92.443855l13.141602-92.443855h46.448242l-36.705078,141.611328h-47.12793l-23.564453-92.217293
				L84.379883,218.501053z"/>
			<path style="fill:#2E0B62;" d="M287.384766,221.89949c-42.370117,0-75.450195-24.470215-75.450195-73.864258
				c0-46.221687,33.759766-74.543953,76.129883-74.543953s75.450195,24.243652,75.450195,73.637703
				C363.514648,193.351151,329.754883,221.89949,287.384766,221.89949z M287.384766,108.610909
				c-20.618164,0-30.587891,15.860352-30.587891,38.518074c0,23.337402,10.649414,39.651367,31.267578,39.651367
				c20.391602,0,30.587891-16.087402,30.587891-38.745117C318.652344,124.697823,308.00293,108.610909,287.384766,108.610909z"/>
			<path style="fill:#2E0B62;" d="M420.154297,218.501053h-44.635742V76.889717h64.12207
				c39.424805,0,60.269531,18.126465,60.269531,46.44873c0,17.899422-8.836914,33.306648-27.642578,40.783699l35.120117,54.378906
				h-49.394531l-25.376953-43.049805l-12.461914,1.132812V218.501053z M434.655273,144.636795
				c13.594727-1.359375,19.033203-6.570801,19.033203-18.126472c0-10.422363-6.118164-15.633789-22.205078-15.633789h-12.235352
				v33.986824L434.655273,144.636795z"/>
			<path style="fill:#2E0B62;" d="M559.494141,136.933182l40.331055-60.043465h50.073242l-50.979492,68.653328l52.56543,72.958008
				h-52.338867l-39.651367-59.816406h-0.226562v59.816406h-44.635742V76.889717h44.635742v60.043465H559.494141z"/>
		</g>
		<g>
			
				<linearGradient id="SVGID_1_" gradientUnits="userSpaceOnUse" x1="710.847534" y1="218.506317" x2="710.847534" y2="0.99936" gradientTransform="matrix(1 0 0 1 0 0.00064)">
				<stop  offset="0" style="stop-color:#FFFFFF;stop-opacity:0"/>
				<stop  offset="0.049822" style="stop-color:#FFF9F6;stop-opacity:0.099643"/>
				<stop  offset="0.13115" style="stop-color:#FFEADE;stop-opacity:0.262299"/>
				<stop  offset="0.233834" style="stop-color:#FFD1B6;stop-opacity:0.467668"/>
				<stop  offset="0.353849" style="stop-color:#FFAF7F;stop-opacity:0.707699"/>
				<stop  offset="0.487067" style="stop-color:#FF8339;stop-opacity:0.974135"/>
				<stop  offset="0.5" style="stop-color:#FF7F32"/>
				<stop  offset="0.7" style="stop-color:#A70970"/>
				<stop  offset="1" style="stop-color:#4E077D"/>
			</linearGradient>
			<polygon style="fill:url(#SVGID_1_);" points="690.232361,218.506958 677.232178,218.506958 731.462769,1 744.462952,1 			"/>
			
				<linearGradient id="SVGID_00000041265062317665353840000007185770730114407850_" gradientUnits="userSpaceOnUse" x1="725.129395" y1="303.536346" x2="725.129395" y2="77.079391" gradientTransform="matrix(1 0 0 1 0 0.00064)">
				<stop  offset="0" style="stop-color:#FFFFFF;stop-opacity:0"/>
				<stop  offset="0.049822" style="stop-color:#FFF9F6;stop-opacity:0.099643"/>
				<stop  offset="0.13115" style="stop-color:#FFEADE;stop-opacity:0.262299"/>
				<stop  offset="0.233834" style="stop-color:#FFD1B6;stop-opacity:0.467668"/>
				<stop  offset="0.353849" style="stop-color:#FFAF7F;stop-opacity:0.707699"/>
				<stop  offset="0.487067" style="stop-color:#FF8339;stop-opacity:0.974135"/>
				<stop  offset="0.5" style="stop-color:#FF7F32"/>
				<stop  offset="0.7" style="stop-color:#A70970"/>
				<stop  offset="1" style="stop-color:#4E077D"/>
			</linearGradient>
			<polygon style="fill:url(#SVGID_00000041265062317665353840000007185770730114407850_);" points="703.394958,303.536987 
				690.394836,303.536987 746.86377,77.080032 759.863892,77.080032 			"/>
		</g>
	</g>
</g>
</svg>
