<svg id="Layer_1" xmlns="http://www.w3.org/2000/svg" viewBox="0 0 140 24"><defs><style>.st0{fill:#fff}</style></defs><path class="st0" d="M7 21.2c4.2 0 6.5-1.5 6.5-4.2s-2.6-3.5-4.9-4l-1.4-.3c-1.3-.2-2.3-.6-2.3-1.3s.7-1.1 1.9-1.1 2.1.7 2.1 1.8h4.2c0-3.1-2.3-4.8-6.6-4.8S.4 9 .4 11.4 3 15 5.3 15.5l1.5.3c1.3.2 2.3.6 2.3 1.3s-.7 1.1-1.9 1.1-2.5-.6-2.5-1.8H0c0 3.1 2.4 4.7 6.9 4.7zM18.3 21.2c2.4 0 4.4-1.5 5-3.2h.2v2.8H28v-8.4c0-3.1-2.4-4.9-6.5-4.9s-6.7 2-7.1 5.4H19c.2-1.5 1.1-2.1 2.5-2.1s2 .7 2 1.5-.4 1.7-2.8 1.7H19c-3.3 0-4.8 1.6-4.8 3.7s1.9 3.6 4.2 3.6h-.1zm2.1-2.8c-1 0-1.6-.4-1.6-1.2s.5-1.2 1.4-1.2h.4c1.5 0 2.5-.6 2.8-1.9h.2v1c0 1.8-1.4 3.3-3.1 3.3zM32.5 20.8h5.6l4.4-12.9h-4.7l-.7 2.5c-.6 2.4-1.1 3.8-1.7 6.2h-.2c-.6-2.4-1-3.9-1.7-6.2l-.7-2.5h-4.9l4.4 12.9h.2zM49.6 21.2c2.4 0 6-1.3 6.4-4.9h-3.8c-.3.9-1.3 1.6-2.6 1.6s-2.9-1-2.9-2.6h9.4v-1.2c0-3.9-2.9-6.7-6.9-6.7s-6.9 2.8-6.9 6.8 2.7 6.9 7.3 6.9zm-3-8.2c0-1.4 1.1-2.3 2.6-2.3s2.3.9 2.4 2.3h-5zM62.2 15c0 3.7 2.4 5.8 6.9 6.1v2.7h2.4v-2.7c4.4-.3 6.8-2.3 6.8-5.6s-3.1-4.5-6-5.1l-1.8-.4c-1.7-.4-3-.7-3-1.9s1-1.6 2.7-1.6 2.9.8 3.1 2.5H78c0-3.6-2.4-5.8-6.4-6.2V.2h-2.4v2.7c-4.3.3-6.7 2.4-6.7 5.3s3.4 5 6.4 5.6l1.4.3c1.7.3 3 .7 3 1.7s-1 1.7-2.8 1.7-3.2-.8-3.5-2.4h-4.8zM87 21.2c4.5 0 7.3-2.3 7.3-5.6s-1.5-3.9-3.8-4v-.2c1.8 0 3.2-1.6 3.2-3.7S91 2.9 87 2.9s-7 2-7.2 5.8h4.8c.2-1.4.8-1.9 2.2-1.9s2.2.6 2.2 1.7-.7 1.8-2.1 1.8h-1.6v3.3h1.3c2 0 2.6.8 2.6 1.9s-.9 1.9-2.5 1.9-2.6-.9-2.6-2.6h-4.9c.3 4.1 3.1 6.4 7.9 6.4H87zM100 15.6h-4.6c.3 3.8 3.3 5.6 7.4 5.6s7-2.2 7-6.4-2.5-5.8-5.6-5.8-3.3 1-3.8 2.1h-.2l.9-4.1h7.7V3.4H97.3l-1.7 9.5 4.4 1c.5-1.2 1.3-1.7 2.7-1.7s2.6 1 2.6 2.8-.8 2.8-2.5 2.8-2.6-.7-2.8-2.1zM111.5 20.8h4.9V7.6h.2l1.5 5.6 2.1 7.5h3.9l2.1-7.5 1.5-5.6h.2v13.1h4.9V3.2h-7.4L123.8 9c-.5 1.7-.9 3.3-1.4 5h-.2c-.4-1.7-.9-3.3-1.4-5l-1.6-5.8h-7.4v17.5h-.3zM137.1 21.2c1.6 0 2.8-1.3 2.8-2.8s-1.3-2.8-2.8-2.8-2.9 1.2-2.9 2.8 1.3 2.8 2.9 2.8z"/></svg>