<?xml version="1.0" encoding="UTF-8"?> <svg xmlns="http://www.w3.org/2000/svg" xmlns:xlink="http://www.w3.org/1999/xlink" width="48px" height="48px" viewBox="0 0 48 48" version="1.1"><g id="surface1"><path style=" stroke:none;fill-rule:nonzero;fill:rgb(0%,0%,0%);fill-opacity:1;" d="M 13.378906 12.386719 L 30.710938 35.558594 L 34.636719 35.558594 L 17.304688 12.386719 Z M 13.378906 12.386719 "></path><path style=" stroke:none;fill-rule:nonzero;fill:rgb(0%,0%,0%);fill-opacity:1;" d="M 23.972656 0.265625 C 10.878906 0.265625 0.265625 10.878906 0.265625 23.972656 C 0.265625 37.066406 10.878906 47.683594 23.972656 47.683594 C 37.066406 47.683594 47.683594 37.066406 47.683594 23.972656 C 47.683594 10.878906 37.066406 0.265625 23.972656 0.265625 Z M 29.785156 37.410156 L 21.894531 26.859375 L 12.125 37.410156 L 9.617188 37.410156 L 20.773438 25.359375 L 9.6875 10.535156 L 18.230469 10.535156 L 25.5 20.253906 L 34.492188 10.535156 L 37.003906 10.535156 L 26.621094 21.753906 L 38.328125 37.410156 Z M 29.785156 37.410156 "></path></g></svg> 