<svg xmlns="http://www.w3.org/2000/svg" fill="currentColor" height="24" viewBox="0 0 24 24" width="24"><path d="M20.345 4.06 12 1 3.655 4.06A1 1 0 003 4.998v9.857a6 6 0 003.364 5.39L12 23l5.636-2.755A6 6 0 0021 14.854V4.998a1 1 0 00-.655-.938ZM5.936 5.353 12 3.13l6.064 2.224-6.065 5.254-6.063-5.255ZM5 14.855V7.19l5.472 4.743-5.159 4.47A4 4 0 015 14.855Zm8.526-2.922L19 7.19v7.665c0 .532-.107 1.058-.314 1.548l-5.16-4.47Zm-6.999 6.066 5.472-4.743 5.473 4.743a4 4 0 01-.715.449L12 20.772l-4.757-2.323a4 4 0 01-.716-.45Z"/></svg>