<!-- SO: I generated this using: https://svg-sprite-generator.vercel.app/ but had to comment out the first line (left in below). -->

<!-- <?xml version="1.0" encoding="UTF-8"?> -->
<svg xmlns="http://www.w3.org/2000/svg" xmlns:xlink="http://www.w3.org/1999/xlink" width="0" height="0">
    <symbol id="arrow-left" width="24" height="24" viewBox="0 0 24 24" fill="none">
        <path
        d="M22 12H2M2 12L9 5M2 12L9 19"
        stroke="currentcolor"
        stroke-width="2"
        stroke-linecap="square"
        stroke-linejoin="bevel"
        />
    </symbol>
    
    <!-- <symbol id="arrow-right" width="24" height="24" viewBox="0 0 24 24" fill="none">
        <path d="M2 12H22M22 12L15 5M22 12L15 19" stroke="currentcolor" stroke-width="2" stroke-linecap="square" stroke-linejoin="bevel"/>
    </symbol> -->
    
    <!-- We have had to replace the above arrow-right symbol with the below. Switching from stroke to fill resolved a visual issue with overlapping corners causing a jagged edge where the lines met. -->
    <!-- Future icons should be inspected in browser at high zoom levels (400/500%) prior to use in production. -->
    <symbol id="arrow-right" width="24" height="24" viewBox="0 0 24 24" fill="none">
        <path
        fill-rule="evenodd"
        clip-rule="evenodd"
        d="M15 3.58582L22.7071 11.2929V12.7071L15 20.4142L13.5858 19L19.5858 13H1V11H19.5858L13.5858 5.00003L15 3.58582Z"
        fill="currentcolor"
        />
    </symbol>
    
    <symbol id="chevron-down" width="24" height="24" viewBox="0 0 24 24" fill="none">
        <path
        d="M4 9L12 17L20 9"
        stroke="currentcolor"
        stroke-width="2"
        stroke-linecap="square"
        stroke-linejoin="bevel"
        />
    </symbol>
    
    <symbol id="chevron-left" width="24" height="24" viewBox="0 0 24 24" fill="none">
        <path
        d="M15 4L7 12L15 20"
        stroke="currentcolor"
        stroke-width="2"
        stroke-linecap="square"
        stroke-linejoin="bevel"
        />
    </symbol>
    
    <symbol id="chevron-right" width="24" height="24" viewBox="0 0 24 24" fill="none">
        <path
        d="M9 20L17 12L9 4"
        stroke="currentcolor"
        stroke-width="2"
        stroke-linecap="square"
        stroke-linejoin="bevel"
        />
    </symbol>
    
    <symbol id="chevron-up" width="24" height="24" viewBox="0 0 24 24" fill="none">
        <path
        d="M20 15L12 7L4 15"
        stroke="currentcolor"
        stroke-width="2"
        stroke-linecap="square"
        stroke-linejoin="bevel"
        />
    </symbol>
    
    <symbol id="clock" width="24" height="24" viewBox="0 0 24 24" fill="none">
        <path
        id="Vector"
        d="M12 22C17.5228 22 22 17.5228 22 12C22 6.47715 17.5228 2 12 2C6.47715 2 2 6.47715 2 12C2 17.5228 6.47715 22 12 22Z"
        stroke="currentcolor"
        stroke-width="2"
        stroke-linecap="square"
        stroke-linejoin="bevel"
        />
        <path
        id="Vector_2"
        d="M12 6V12L16 14"
        stroke="currentcolor"
        stroke-width="2"
        stroke-linecap="square"
        stroke-linejoin="bevel"
        />
    </symbol>
    
    <symbol id="comment" width="24" height="24" viewBox="0 0 24 24" fill="none">
        <path
        d="M21 15C21 15.5304 20.7893 16.0391 20.4142 16.4142C20.0391 16.7893 19.5304 17 19 17H7L3 21V5C3 4.46957 3.21071 3.96086 3.58579 3.58579C3.96086 3.21071 4.46957 3 5 3H19C19.5304 3 20.0391 3.21071 20.4142 3.58579C20.7893 3.96086 21 4.46957 21 5V15Z"
        stroke="currentcolor"
        stroke-width="2"
        stroke-linecap="round"
        stroke-linejoin="bevel"
        />
    </symbol>
    
    <symbol id="facebook" width="24" height="24" viewBox="0 0 24 24" fill="none">
        <path
        d="M23 12C23 5.92486 18.0751 1 12 1C5.92486 1 1 5.92486 1 12C1 17.4903 5.02252 22.0412 10.2812 22.8664V15.1797H7.48828V12H10.2812V9.57656C10.2812 6.81969 11.9235 5.29688 14.4361 5.29688C15.6397 5.29688 16.8984 5.51172 16.8984 5.51172V8.21875H15.5114C14.145 8.21875 13.7188 9.06674 13.7188 9.93664V12H16.7695L16.2818 15.1797H13.7188V22.8664C18.9775 22.0412 23 17.4903 23 12Z"
        fill="currentcolor"
        />
    </symbol>
    
    <symbol id="info" width="24" height="24" viewBox="0 0 24 24" fill="none">
        <path
        d="M10.8 16.8H12.8V10.8H10.8V16.8ZM11.8 8.80005C12.0833 8.80005 12.3208 8.70422 12.5125 8.51255C12.7042 8.32088 12.8 8.08338 12.8 7.80005C12.8 7.51672 12.7042 7.27922 12.5125 7.08755C12.3208 6.89588 12.0833 6.80005 11.8 6.80005C11.5167 6.80005 11.2792 6.89588 11.0875 7.08755C10.8958 7.27922 10.8 7.51672 10.8 7.80005C10.8 8.08338 10.8958 8.32088 11.0875 8.51255C11.2792 8.70422 11.5167 8.80005 11.8 8.80005ZM11.8 21.8C10.4167 21.8 9.11667 21.5375 7.9 21.0125C6.68333 20.4875 5.625 19.775 4.725 18.875C3.825 17.975 3.1125 16.9167 2.5875 15.7C2.0625 14.4834 1.8 13.1834 1.8 11.8C1.8 10.4167 2.0625 9.11672 2.5875 7.90005C3.1125 6.68338 3.825 5.62505 4.725 4.72505C5.625 3.82505 6.68333 3.11255 7.9 2.58755C9.11667 2.06255 10.4167 1.80005 11.8 1.80005C13.1833 1.80005 14.4833 2.06255 15.7 2.58755C16.9167 3.11255 17.975 3.82505 18.875 4.72505C19.775 5.62505 20.4875 6.68338 21.0125 7.90005C21.5375 9.11672 21.8 10.4167 21.8 11.8C21.8 13.1834 21.5375 14.4834 21.0125 15.7C20.4875 16.9167 19.775 17.975 18.875 18.875C17.975 19.775 16.9167 20.4875 15.7 21.0125C14.4833 21.5375 13.1833 21.8 11.8 21.8ZM11.8 19.8C14.0333 19.8 15.925 19.025 17.475 17.475C19.025 15.925 19.8 14.0334 19.8 11.8C19.8 9.56672 19.025 7.67505 17.475 6.12505C15.925 4.57505 14.0333 3.80005 11.8 3.80005C9.56667 3.80005 7.675 4.57505 6.125 6.12505C4.575 7.67505 3.8 9.56672 3.8 11.8C3.8 14.0334 4.575 15.925 6.125 17.475C7.675 19.025 9.56667 19.8 11.8 19.8Z"
        fill="currentcolor"
        />
    </symbol>
    
    <symbol id="instagram" width="24" height="24" viewBox="0 0 24 24" fill="none">
        <path
        d="M12.0022 6.35828C8.88075 6.35828 6.36296 8.87607 6.36296 11.9975C6.36296 15.119 8.88075 17.6368 12.0022 17.6368C15.1237 17.6368 17.6415 15.119 17.6415 11.9975C17.6415 8.87607 15.1237 6.35828 12.0022 6.35828ZM12.0022 15.6638C9.98505 15.6638 8.33597 14.0196 8.33597 11.9975C8.33597 9.97546 9.98014 8.33129 12.0022 8.33129C14.0243 8.33129 15.6685 9.97546 15.6685 11.9975C15.6685 14.0196 14.0194 15.6638 12.0022 15.6638ZM19.1875 6.12761C19.1875 6.8589 18.5985 7.44295 17.8722 7.44295C17.1409 7.44295 16.5568 6.85399 16.5568 6.12761C16.5568 5.40123 17.1458 4.81227 17.8722 4.81227C18.5985 4.81227 19.1875 5.40123 19.1875 6.12761ZM22.9225 7.46258C22.839 5.70061 22.4366 4.13988 21.1458 2.85399C19.8599 1.5681 18.2992 1.16564 16.5372 1.0773C14.7212 0.974233 9.2783 0.974233 7.46235 1.0773C5.70529 1.16074 4.14456 1.56319 2.85376 2.84908C1.56296 4.13497 1.16542 5.69571 1.07707 7.45767C0.974004 9.27362 0.974004 14.7166 1.07707 16.5325C1.16051 18.2945 1.56296 19.8552 2.85376 21.1411C4.14456 22.427 5.70038 22.8294 7.46235 22.9178C9.2783 23.0209 14.7212 23.0209 16.5372 22.9178C18.2992 22.8344 19.8599 22.4319 21.1458 21.1411C22.4317 19.8552 22.8341 18.2945 22.9225 16.5325C23.0255 14.7166 23.0255 9.27853 22.9225 7.46258ZM20.5765 18.481C20.1936 19.4429 19.4525 20.184 18.4857 20.5718C17.0378 21.146 13.6022 21.0135 12.0022 21.0135C10.4022 21.0135 6.96173 21.1411 5.51879 20.5718C4.55683 20.189 3.81572 19.4479 3.42799 18.481C2.85376 17.0331 2.98627 13.5975 2.98627 11.9975C2.98627 10.3975 2.85867 6.95706 3.42799 5.51411C3.81081 4.55215 4.55192 3.81104 5.51879 3.42331C6.96664 2.84908 10.4022 2.9816 12.0022 2.9816C13.6022 2.9816 17.0427 2.85399 18.4857 3.42331C19.4476 3.80613 20.1887 4.54724 20.5765 5.51411C21.1507 6.96196 21.0182 10.3975 21.0182 11.9975C21.0182 13.5975 21.1507 17.038 20.5765 18.481Z"
        fill="currentcolor"
        />
    </symbol>
    
    <symbol id="link" width="24" height="24" viewBox="0 0 24 24" fill="none">
        <path
        d="M10 13C10.4295 13.5741 10.9774 14.0492 11.6066 14.3929C12.2357 14.7367 12.9315 14.9411 13.6467 14.9923C14.3618 15.0435 15.0796 14.9404 15.7513 14.6898C16.4231 14.4392 17.0331 14.0471 17.54 13.54L20.54 10.54C21.4508 9.59699 21.9548 8.33397 21.9434 7.02299C21.932 5.71201 21.4061 4.45794 20.4791 3.5309C19.5521 2.60386 18.298 2.07802 16.987 2.06663C15.676 2.05523 14.413 2.55921 13.47 3.47L11.75 5.18"
        stroke="currentcolor"
        stroke-width="2"
        stroke-linecap="square"
        stroke-linejoin="bevel"
        />
        <path
        d="M14 11C13.5705 10.4259 13.0226 9.95083 12.3934 9.60707C11.7642 9.26331 11.0685 9.05889 10.3533 9.00768C9.63819 8.95646 8.9204 9.05964 8.24864 9.31023C7.57688 9.56082 6.96687 9.95294 6.45999 10.46L3.45999 13.46C2.5492 14.403 2.04522 15.666 2.05662 16.977C2.06801 18.288 2.59385 19.5421 3.52089 20.4691C4.44793 21.3961 5.702 21.922 7.01298 21.9334C8.32396 21.9448 9.58697 21.4408 10.53 20.53L12.24 18.82"
        stroke="currentcolor"
        stroke-width="2"
        stroke-linecap="square"
        stroke-linejoin="bevel"
        />
    </symbol>
    
    <symbol id="linkedin" width="24" height="24" viewBox="0 0 24 24" fill="none">
        <path
        fill-rule="evenodd"
        clip-rule="evenodd"
        d="M21.479 2H3.583C2.727 2 2 2.677 2 3.511V21.488C2 22.323 2.477 23 3.333 23H21.229C22.086 23 23 22.323 23 21.488V3.511C23 2.677 22.336 2 21.479 2ZM10 10H12.827V11.441H12.858C13.289 10.664 14.562 9.875 16.136 9.875C19.157 9.875 20 11.479 20 14.45V20H17V14.997C17 13.667 16.469 12.5 15.227 12.5C13.719 12.5 13 13.521 13 15.197V20H10V10ZM5 20H8V10H5V20ZM8.375 6.5C8.375 7.536 7.536 8.375 6.5 8.375C5.464 8.375 4.625 7.536 4.625 6.5C4.625 5.464 5.464 4.625 6.5 4.625C7.536 4.625 8.375 5.464 8.375 6.5Z"
        fill="currentcolor"
        />
    </symbol>
    
    <symbol id="search" width="24" height="24" viewBox="0 0 24 24" fill="none">
        <path
        d="M22 22L17.5 17.5M20 11C20 15.9706 15.9706 20 11 20C6.02944 20 2 15.9706 2 11C2 6.02944 6.02944 2 11 2C15.9706 2 20 6.02944 20 11Z"
        stroke="currentcolor"
        stroke-width="2"
        stroke-linecap="square"
        stroke-linejoin="bevel"
        />
    </symbol>
    
    <symbol id="sound" width="24" height="24" viewBox="0 0 24 24" fill="none">
        <path
        d="M11 5L6 9H2V15H6L11 19V5Z"
        stroke="currentcolor"
        stroke-width="2"
        stroke-linecap="square"
        stroke-linejoin="bevel"
        />
        <path
        d="M19.07 4.92999C20.9447 6.80527 21.9979 9.34835 21.9979 12C21.9979 14.6516 20.9447 17.1947 19.07 19.07M15.54 8.45999C16.4774 9.39763 17.0039 10.6692 17.0039 11.995C17.0039 13.3208 16.4774 14.5924 15.54 15.53"
        stroke="currentcolor"
        stroke-width="2"
        stroke-linecap="square"
        stroke-linejoin="bevel"
        />
    </symbol>
    
    <symbol id="tick" width="24" height="24" viewBox="0 0 24 24" fill="none">
        <path
        d="M4 12.3529L9.64706 18L21 6.00002"
        stroke="currentcolor"
        stroke-width="2"
        stroke-linecap="square"
        stroke-linejoin="bevel"
        />
    </symbol>
    
    <symbol id="tiktok" width="24" height="24" viewBox="0 0 24 24" fill="none">
        <path
        d="M12.1281 2.01667C13.22 2 14.3038 2.00867 15.387 2C15.423 3.35463 15.9726 4.57387 16.847 5.47696L16.8457 5.47562C17.7868 6.32335 19.0113 6.87294 20.3613 6.96632L20.38 6.96765V10.3266C19.1047 10.2945 17.9055 10.0004 16.8243 9.49483L16.879 9.51751C16.3561 9.26606 15.9139 9.00794 15.4937 8.7198L15.5284 8.74248C15.5204 11.1763 15.5364 13.6101 15.5117 16.0352C15.443 17.2711 15.0321 18.3983 14.3732 19.3394L14.3865 19.3187C13.2847 20.8968 11.4998 21.9326 9.47021 21.994H9.46088C9.37884 21.998 9.28213 22 9.18475 22C8.03088 22 6.95237 21.6785 6.03328 21.1203L6.05996 21.1356C4.38718 20.1291 3.2333 18.407 3.01987 16.4041L3.0172 16.3767C3.00053 15.9598 2.99252 15.543 3.0092 15.1348C3.33602 11.9473 6.0066 9.48149 9.25278 9.48149C9.61762 9.48149 9.97512 9.51284 10.3226 9.5722L10.2853 9.56686C10.3019 10.8001 10.2519 12.034 10.2519 13.2673C9.96978 13.1652 9.6443 13.1059 9.3048 13.1059C8.05889 13.1059 6.99906 13.9022 6.60688 15.0141L6.60088 15.0341C6.51217 15.3189 6.46081 15.6464 6.46081 15.9852C6.46081 16.1226 6.46948 16.2587 6.48549 16.3921L6.48415 16.376C6.70559 17.7407 7.87547 18.7705 9.28613 18.7705C9.32681 18.7705 9.36683 18.7698 9.40685 18.7678H9.40085C10.3766 18.7385 11.2237 18.2136 11.7026 17.4379L11.7093 17.4259C11.8873 17.1778 12.0094 16.8776 12.0501 16.5515L12.0508 16.5421C12.1341 15.0501 12.1008 13.5667 12.1088 12.0747C12.1168 8.7158 12.1008 5.3649 12.1255 2.01467L12.1281 2.01667Z"
        fill="currentcolor"
        />
    </symbol>
    
    <symbol id="twitter" width="24" height="24" viewBox="0 0 24 24" fill="none">
        <path
        d="M13.6468 10.4686L20.9321 2H19.2057L12.8799 9.3532L7.82741 2H2L9.6403 13.1193L2 22H3.72649L10.4068 14.2348L15.7425 22H21.57L13.6468 10.4686ZM11.2821 13.2173L10.508 12.1101L4.34857 3.29968H7.00037L11.9711 10.4099L12.7452 11.5172L19.2066 20.7594H16.5548L11.2821 13.2173Z"
        fill="currentcolor"
        />
    </symbol>
    
    <symbol id="youtube" width="24" height="24" viewBox="0 0 24 24" fill="none">
        <path
        d="M23.5002 6.62364C23.2236 5.59039 22.4116 4.7784 21.3783 4.50181C19.5054 4 12 4 12 4C12 4 4.49457 4 2.62364 4.50181C1.59039 4.7784 0.7784 5.59039 0.501811 6.62364C0 8.49457 0 12.4004 0 12.4004C0 12.4004 0 16.3062 0.501811 18.1771C0.7784 19.2104 1.59039 20.0224 2.62364 20.299C4.49457 20.8008 12 20.8008 12 20.8008C12 20.8008 19.5054 20.8008 21.3764 20.299C22.4096 20.0224 23.2216 19.2104 23.4982 18.1771C24 16.3062 24 12.4004 24 12.4004C24 12.4004 24 8.49457 23.5002 6.62364ZM9.5996 16V8.80079L15.8347 12.4004L9.5996 16Z"
        fill="currentcolor"
        />
    </symbol>
    
    <symbol id="download" width="24" height="24" viewBox="0 0 24 24" fill="none" xmlns="http://www.w3.org/2000/svg">
        <path
        fill-rule="evenodd"
        clip-rule="evenodd"
        d="M13 2V12.5858L17 8.58579L18.4142 10L12.7071 15.7071H11.2929L5.58579 10L7 8.58579L11 12.5858V2H13ZM4 14V19C4 19.2652 4.10536 19.5196 4.29289 19.7071C4.48043 19.8946 4.73478 20 5 20H19C19.2652 20 19.5196 19.8946 19.7071 19.7071C19.8946 19.5196 20 19.2652 20 19V14H22V19C22 19.7957 21.6839 20.5587 21.1213 21.1213C20.5587 21.6839 19.7957 22 19 22H5C4.20435 22 3.44129 21.6839 2.87868 21.1213C2.31607 20.5587 2 19.7957 2 19V14H4Z"
        fill="currentcolor"
        />
    </symbol>
    
    <symbol id="bluesky" viewBox="0 0 24 24" xmlns="http://www.w3.org/2000/svg">
        <path d="M5.20238 1.41348C7.95375 3.46656 10.9136 7.6288 12 9.86241V15.762C12 15.6364 11.9513 15.7783 11.8463 16.084C11.2793 17.7393 9.0645 24.1994 4.00013 19.035C1.3335 16.3158 2.568 13.5967 7.422 12.7758C4.64513 13.2453 1.52325 12.4693 0.66675 9.42705C0.42 8.55189 0 3.16121 0 2.43314C0 -1.21388 3.21713 -0.0675461 5.20238 1.41348ZM18.7976 1.41348C16.0463 3.46656 13.0864 7.6288 12 9.86241V15.762C12 15.6364 12.0488 15.7783 12.1538 16.084C12.7208 17.7393 14.9355 24.1994 19.9999 19.035C22.6665 16.3158 21.432 13.5967 16.578 12.7758C19.3549 13.2453 22.4768 12.4693 23.3333 9.42705C23.58 8.55189 24 3.16121 24 2.43314C24 -1.21388 20.7833 -0.0675461 18.7976 1.41348Z" fill="currentcolor"/>
    </symbol>
    
    <symbol id="bluesky-outline" viewBox="0 0 24 24" xmlns="http://www.w3.org/2000/svg">
        <path d="M7.89842 22.5182C6.67449 22.5182 5.3818 21.8272 4.04539 20.4557C2.75981 19.1364 2.28088 17.7073 2.69632 16.4317C2.92103 15.7421 3.3918 15.1406 4.08016 14.6451C2.58673 14.1483 1.30458 13.089 0.776654 11.2025C0.516641 10.2728 0.132812 5.15292 0.132812 4.50091C0.132812 2.74247 0.864642 2.00774 1.47845 1.70083C3.1987 0.841237 5.52301 2.41923 6.19425 2.92292C8.44743 4.61472 10.698 7.59577 11.9875 9.7499C13.2773 7.59551 15.5276 4.61445 17.7808 2.92318C18.4517 2.41896 20.775 0.841764 22.4965 1.7011C23.1106 2.00774 23.8422 2.74247 23.8422 4.50091C23.8422 5.15292 23.4586 10.2723 23.1983 11.2025C22.6704 13.0887 21.3877 14.1483 19.8946 14.6448C20.5835 15.1406 21.0542 15.7421 21.2789 16.4317C21.6944 17.7076 21.2155 19.1367 19.9299 20.4555C18.3329 22.0943 16.7984 22.7603 15.3692 22.4389C13.6674 22.0553 12.614 20.3949 11.9875 19.001C11.3613 20.3949 10.3081 22.0551 8.60654 22.4394C8.3734 22.4921 8.1371 22.5182 7.89842 22.5182ZM7.89869 14.8756C5.85757 15.2228 4.5093 15.9683 4.19897 16.9212C3.89575 17.8525 4.68159 18.8446 5.17711 19.3527C6.36469 20.5711 7.40026 21.0906 8.25854 20.8975C9.32336 20.657 10.2786 19.3158 11.0979 16.9115C11.2146 16.5685 11.4048 16.0079 11.9875 16.0326C12.5747 16.0087 12.7604 16.5685 12.8771 16.9112C13.6969 19.3164 14.6524 20.6573 15.7167 20.8975C16.5747 21.0906 17.6103 20.5714 18.7976 19.3527C19.2931 18.8443 20.079 17.8525 19.7758 16.9215C19.4654 15.9689 18.1169 15.2233 16.076 14.8756C16.0763 14.8759 16.0758 14.8756 16.076 14.8756C15.6459 14.8026 15.3563 14.3943 15.4296 13.9641C15.5028 13.5334 15.9143 13.2441 16.3411 13.3176C18.4746 13.6799 20.9965 13.2038 21.6762 10.7768C21.8675 10.0932 22.2616 5.1927 22.2616 4.50091C22.2616 3.97614 22.1796 3.30965 21.79 3.1147C21.2307 2.83493 19.9157 3.29674 18.7297 4.18689C16.2921 6.01699 13.6614 9.74806 12.699 11.7378C12.5671 12.0107 12.2907 12.1841 11.9875 12.1841C11.6843 12.1841 11.4079 12.0107 11.276 11.7378C10.3141 9.74832 7.68319 6.01726 5.24508 4.18716C4.05935 3.297 2.744 2.83599 2.18473 3.11497C1.79537 3.30965 1.71344 3.97614 1.71344 4.50091C1.71344 5.1927 2.10754 10.0932 2.29906 10.7765C2.97767 13.202 5.49561 13.6793 7.62893 13.3182C7.63051 13.3179 7.63209 13.3176 7.63367 13.3174C8.06491 13.2426 8.47219 13.5334 8.54542 13.9638C8.6184 14.3943 8.32914 14.8024 7.89869 14.8756Z" fill="currentcolor"/>
    </symbol>
</svg>
