<?xml version="1.0" encoding="UTF-8"?>
<svg id="Layer_1" data-name="Layer 1" xmlns="http://www.w3.org/2000/svg" xmlns:xlink="http://www.w3.org/1999/xlink" viewBox="0 0 1952 328.24">
  <defs>
    <style>
      .cls-1 {
        fill: none;
      }

      .cls-2 {
        fill: #231f20;
      }

      .cls-3 {
        clip-path: url(#clippath);
      }
    </style>
    <clipPath id="clippath">
      <rect class="cls-1" width="1952" height="328.24"/>
    </clipPath>
  </defs>
  <g class="cls-3">
    <path class="cls-2" d="M1566.98,307.57c-20,0-44.58-11.43-44.58-60.01,0-39.54,13.6-64.45,27.2-64.45,20.95,0,30.11,49.78,30.11,49.78h.84l18.16-46.77c-18.87-6-34.86-8.57-52.3-8.57-36.08,0-74.51,16.1-80.32,62.91-.06.45-.14.89-.2,1.34-.07.69-.14,1.39-.2,2.1-.26,2.59-.43,5.22-.43,7.94,0,.21.02.41.02.62,0,.18-.02.34-.02.53,0,1.43.13,2.77.18,4.15h.02c2.19,36.35,26.93,67.57,74.09,67.57,40.01,0,57.16-22.86,61.44-27.72l-1.14-2.57c-6,5.43-19.14,13.15-32.86,13.15M883.97,307.57c-20,0-44.58-11.43-44.58-60.01,0-39.54,13.6-64.45,27.2-64.45,20.95,0,30.1,49.78,30.1,49.78h.84l18.17-46.77c-18.87-6-34.87-8.57-52.3-8.57-36.08,0-74.51,16.1-80.32,62.91-.07.45-.15.89-.2,1.34-.07.69-.15,1.39-.2,2.1-.26,2.59-.43,5.22-.43,7.94,0,.21.03.41.03.62,0,.18-.03.34-.03.53,0,1.43.13,2.77.19,4.15h.02c2.2,36.35,26.94,67.57,74.09,67.57,40.01,0,57.16-22.86,61.44-27.72l-1.14-2.57c-6,5.43-19.15,13.15-32.86,13.15M300.76,307.57c-20,0-44.58-11.43-44.58-60.01,0-39.54,13.6-64.45,27.19-64.45,20.95,0,30.11,49.78,30.11,49.78h.84l18.16-46.77c-18.87-6-34.87-8.57-52.3-8.57-36.08,0-74.5,16.1-80.32,62.91-.06.45-.14.89-.2,1.34-.08.69-.14,1.39-.2,2.1-.26,2.59-.43,5.22-.43,7.94,0,.21.02.41.03.62,0,.18-.03.34-.03.53,0,1.43.13,2.77.19,4.15h.02c2.2,36.35,26.93,67.57,74.09,67.57,40.01,0,57.16-22.86,61.44-27.72l-1.14-2.57c-6.01,5.43-19.15,13.15-32.86,13.15M1014.29,242.41h-32.29c0-48.87,6-59.16,16.86-59.16,8,0,15.72,5.43,15.72,46.01,0,4,0,8.58-.29,13.15M1000.01,177.54c-44.01,0-78.02,22.29-78.02,74.3s38.58,72.42,76.77,72.83c0-.03,1.19,0,1.82,0,40.01,0,57.16-22.86,61.44-27.72l-1.14-2.57c-7.43,6.58-19.71,13.14-33.43,13.14-20.66,0-44.25-13.48-45.32-59.68h84.75c.29-2.57.29-4,.29-6,0-51.15-35.44-64.3-67.16-64.3M534.76,242.41h-32.28c0-48.87,6-59.16,16.85-59.16,8,0,15.72,5.43,15.72,46.01,0,4,0,8.58-.29,13.15M520.48,177.54c-44,0-78.02,22.29-78.02,74.3s38.58,72.42,76.77,72.83c0-.03,1.19,0,1.82,0,40.01,0,57.16-22.86,61.44-27.72l-1.14-2.57c-7.43,6.58-19.71,13.14-33.43,13.14-20.67,0-44.25-13.48-45.32-59.68h84.76c.28-2.57.28-4,.28-6,0-51.15-35.43-64.3-67.15-64.3M1891.43,234.7l-17.72-7.72c-19.43-8.57-28.57-15.14-28.57-26.86,0-10.81,9.19-17.15,19.25-17.15,24.33,0,38.63,39.17,38.63,39.17h.88l15.82-36.89c-21.15-5.71-40.86-7.72-54.58-7.72-43.15,0-64.87,19.72-64.87,47.72,0,21.43,12.58,34.86,28.58,42.58l20.01,9.71c21.43,10,28,14.58,28,23.72,0,10.65-10.77,18-22.95,18-25.29,0-41.57-42.6-41.57-42.6h-1.41l-14.94,38.89c18,6.29,39.44,9.14,57.16,9.14,43.73,0,69.73-18,69.73-49.72,0-22.58-13.15-32.29-31.44-40.29M1771.84,299.43v-119.6h-71.16v.57l9.07,11.93c2,2.57,4.08,7.07,4.08,10.78v86.17c-4.29,4.57-8.86,8-16.29,8-15.43,0-17.15-17.72-17.15-38.01v-79.44h-70.58v.57l9.33,11.72c2,2.57,4.1,6.99,4.1,10.71-.57,23.15-.85,41.01-.85,61.3,0,38.58,15.71,60.58,46.58,60.58,20.86,0,37.72-13.43,44.87-30.86v28.58h71.44v-.57l-8.25-10.36c-2-2.57-5.18-8.36-5.18-12.07M1370.22,319c-11.43,0-18-9.72-18-68.3s6.57-67.44,18-67.44,18.01,9.72,18.01,68.3-6.58,67.44-18.01,67.44M1370.22,177.54c-48.87,0-82.02,24.29-82.02,73.16s33.15,74.01,82.02,74.01,82.01-24.29,82.01-73.16-33.15-74.01-82.01-74.01M761.38,299.43c.29-22.58.86-40.16.86-59.87,0-39.44-16.58-62.01-47.44-62.01-22.45,0-39.22,10.59-47.16,26.02v-23.74h-70.87v.57l9.09,11.96c2,2.57,4.06,7.04,4.06,10.75v96.32c0,3.71-1.84,7.85-3.84,10.42l-9.31,12v.57h84.31v-.57l-9.18-11.53c-2-2.57-4.25-7.18-4.25-10.9v-86.45c4.29-4.86,8.86-8,16.29-8,18,0,20.29,18.57,20.29,39.43,0,13.58-.86,48.02-.86,55.02,0,3.71-3.07,9.44-5.07,12.01l-8.08,10.42v.57h84.59v-.57l-9.45-11.88c-2-2.57-3.98-6.84-3.98-10.55M418.05,300.71v-120.88h-70.88v.57l9.07,11.93c2,2.57,4.08,5.79,4.08,9.51v98.88c0,3.71-2.29,7.15-4.29,9.73l-8.85,11.42v.57h84.31v-.57l-9.58-12.03c-2-2.57-3.86-5.41-3.86-9.12M389.19,167.25c14.57,0,26.57-8.57,26.57-23.72s-12-24.86-26.57-24.86-26.58,9.14-26.58,24.86,12.57,23.72,26.58,23.72M1288.35,121.24h-156.89v.57s18.01,18.58,18.01,32.25v138.22c0,11.74-18.01,29.29-18.01,29.29v.57h107.17v-.57s-25.15-18.83-25.15-30.71v-65.3h9.43c22.59,0,37.8,27.6,37.8,27.6l1.06-.15v-60.92l-1.17-.04s-14.48,27.5-37.7,27.5h-9.43v-87.16c0-4.86.57-5.14,4.86-5.14h10.47c42.07,0,57.54,54.51,57.54,54.51l2,.11v-60.63ZM122.3,188.68c-26.87-12-40.58-19.72-40.58-37.44,0-15.45,11.43-27.15,29.04-27.15,33.59,0,55.93,56.91,55.93,56.91h1.89v-56.34c-20.57-4.86-44.01-6.29-58-6.29-50.59,0-81.45,23.43-81.45,62.58s32.58,56.01,60.87,69.44c27.72,13.14,41.15,20.58,41.15,39.15,0,15.74-13.36,29.72-32.58,29.72-27.2,0-51.24-28.72-60.24-62.91h-2.05v60.63c18.57,4.86,44.58,8,61.73,8,51.73,0,86.88-26.58,86.88-68.59,0-38.01-29.15-52.58-62.58-67.73"/>
    <path class="cls-2" d="M64.84,36.61h-6.87v10.33h6.77c2.32,0,4.11-.44,5.36-1.31,1.25-.87,1.87-2.13,1.87-3.77,0-3.5-2.38-5.24-7.13-5.24M68.46,29.31c1.06-.87,1.59-2.09,1.59-3.66,0-3.03-2.06-4.55-6.19-4.55h-5.88v9.53h5.88c2.01,0,3.55-.44,4.6-1.31M78.19,48.01c-1.16,1.64-2.82,2.91-4.97,3.8-2.15.89-4.74,1.34-7.75,1.34h-15.25V14.88h14.36c4.23,0,7.51.84,9.84,2.54,2.32,1.69,3.48,4.13,3.48,7.3,0,1.82-.41,3.4-1.25,4.74-.84,1.34-2.07,2.4-3.7,3.18,2.26.75,3.98,1.94,5.18,3.56,1.19,1.62,1.79,3.59,1.79,5.91s-.58,4.24-1.74,5.89M30.75,68.03h68.04V0H30.75v68.04Z"/>
    <path class="cls-2" d="M149.89,36.61h-6.87v10.33h6.76c2.32,0,4.11-.44,5.36-1.31,1.25-.87,1.87-2.13,1.87-3.77,0-3.5-2.38-5.24-7.13-5.24M153.51,29.31c1.06-.87,1.59-2.09,1.59-3.66,0-3.03-2.07-4.55-6.19-4.55h-5.88v9.53h5.88c2.01,0,3.55-.44,4.61-1.31M163.24,48.01c-1.16,1.64-2.82,2.91-4.97,3.8-2.15.89-4.73,1.34-7.75,1.34h-15.25V14.88h14.36c4.23,0,7.51.84,9.84,2.54,2.32,1.69,3.49,4.13,3.49,7.3,0,1.82-.42,3.4-1.25,4.74-.83,1.34-2.07,2.4-3.69,3.18,2.25.75,3.98,1.94,5.18,3.56,1.2,1.62,1.8,3.59,1.8,5.91s-.58,4.24-1.75,5.89M115.79,68.03h68.04V0h-68.04v68.04Z"/>
    <path class="cls-2" d="M249.7,50.73c-1.59.87-3.42,1.57-5.51,2.07-2.09.51-4.29.76-6.59.76-3.06,0-5.81-.45-8.27-1.34-2.45-.89-4.52-2.18-6.21-3.86-1.69-1.68-2.99-3.73-3.89-6.16s-1.35-5.17-1.35-8.21.47-5.66,1.41-8.05,2.29-4.45,4.05-6.16c1.76-1.71,3.88-3.02,6.35-3.93,2.47-.91,5.23-1.36,8.29-1.36,2.12,0,4.13.22,6.02.65,1.89.44,3.65,1.07,5.27,1.92v7.45c-1.48-.98-3.08-1.72-4.81-2.23-1.73-.51-3.55-.76-5.46-.76-2.63,0-4.87.49-6.72,1.47-1.86.98-3.28,2.4-4.27,4.25-.99,1.86-1.49,4.11-1.49,6.77s.48,4.92,1.43,6.79c.96,1.87,2.34,3.3,4.16,4.28,1.82.98,4.02,1.47,6.62,1.47,3.96,0,7.61-1.03,10.97-3.1v7.29ZM200.84,68.03h68.04V0h-68.04v68.04Z"/>
  </g>
</svg>