<?xml version="1.0" encoding="UTF-8"?><svg id="uuid-900d3d3e-f245-4207-8565-84ba78593278" xmlns="http://www.w3.org/2000/svg" viewBox="0 0 395.39 61.65"><path d="M35.73,39.83c9.89-2.38,14.57-10.95,14.57-19.52C50.3,10.16,43.85,0,29.45,0H.91C.19,0-.24.8.15,1.4l7.13,11.07c.17.26.46.42.77.42h20.7c4.86,0,6.62,3.89,6.62,7.42s-1.77,7.51-6.62,7.51h-9.71v-.02h-9.33c-.72,0-1.16.8-.77,1.4l7.03,10.92c.17.26.46.42.77.42h3.62l12.47,19.37c.38.59,1.03.94,1.72.94h14.77c.52,0,.83-.59.53-1.02l-14.12-20Z" style="fill:#191919;"/><path d="M83.68,19.7h14.04v41.16h-14.04v-4.68c-2.56,3.62-6.89,5.48-11.39,5.48-10.16,0-20.05-8.04-20.05-21.46s9.89-21.55,20.05-21.55c4.15,0,8.83,1.86,11.39,5.48v-4.42ZM75.12,48.84c4.68,0,8.57-3.89,8.57-8.57s-3.89-8.57-8.57-8.57-8.57,3.89-8.57,8.57,3.89,8.57,8.57,8.57Z" style="fill:#191919;"/><path d="M143.24,51.49c-4.15,6.09-10.16,10.16-18.19,10.16-12.28,0-22.87-8.39-22.87-21.46s10.6-21.55,22.87-21.55c8.04,0,13.95,4.06,18.11,10.16l-11.48,6.89c-1.5-2.47-4.15-4.06-7.24-4.06-4.68,0-8.57,3.89-8.57,8.57s3.89,8.57,8.57,8.57c2.91,0,5.39-1.41,7.07-3.8l11.75,6.54Z" style="fill:#191919;"/><path d="M143.94,40.19c0-13.07,10.16-21.55,21.81-21.55s22.08,8.48,22.08,21.55-10.42,21.46-22.08,21.46-21.81-8.48-21.81-21.46ZM165.75,48.75c4.68,0,8.57-3.89,8.57-8.57s-3.89-8.57-8.57-8.57-8.57,3.89-8.57,8.57,3.89,8.57,8.57,8.57Z" style="fill:#191919;"/><path d="M206.48,60.85h-14.04V19.7h14.04v6.45c1.41-5.21,7.95-7.51,11.57-7.51,11.04,0,16.43,7.51,16.43,20.31v21.9h-14.04v-21.46c0-5.39-3.8-7.15-6.71-7.15-3.27,0-7.24,1.68-7.24,6.98v21.64Z" style="fill:#191919;"/><path d="M257.93,19.7h8.66v10.33h-8.66v30.82h-13.87v-30.82h-7.51v-10.33h7.51V4.95h13.87v14.75Z" style="fill:#191919;"/><path d="M310.14,44.16h-29.5c.44,3.89,4.95,6.27,9.45,6.27,2.38,0,5.48-.62,7.86-3.44,1.59,1.32,7.42,5.39,9.71,6.98-4.33,5.74-12.1,7.68-18.64,7.68-11.75,0-21.9-8.66-21.9-21.64s10.16-21.37,21.9-21.37,21.37,8.04,21.37,21.02c0,1.06-.18,3.36-.27,4.5ZM297.07,36.3c-1.41-5.3-6.01-6.09-8.21-6.09-2.03,0-7.24.8-8.21,6.09h16.43Z" style="fill:#191919;"/><path d="M342.02,19.7h14.04v41.16h-14.04v-6.45c-1.41,5.21-7.95,7.24-11.57,7.24-11.04,0-16.43-7.51-16.43-20.31v-21.64h14.04v21.2c0,5.39,3.8,7.15,6.71,7.15,3.09,0,7.24-1.41,7.24-6.71v-21.64Z" style="fill:#191919;"/><path d="M377.02,60.85h-14.04V19.7h13.34v10.16c2.12-7.77,7.68-11.22,12.98-11.22,1.77,0,3.71.09,6.09,1.15l-3.44,13.25c-2.91-1.06-5.03-1.06-6.36-1.06-5.3,0-8.57,3-8.57,15.37v13.51Z" style="fill:#191919;"/></svg>